<svg>
<g>
<path fill="#434143" d="M30.771,22.819c6.291,0,11.404-5.105,11.404-11.409C42.176,5.113,37.063,0,30.771,0
	c-6.305,0-11.409,5.113-11.409,11.41C19.362,17.714,24.466,22.819,30.771,22.819"/>
<path fill="#434143" d="M61.48,72.103l-6.322-32.154c-1.107-6.801-7.227-14.616-16.918-14.616H23.295
	c-9.697,0-15.811,7.815-16.924,14.616L0.053,72.103c-0.353,2.14,1.096,4.158,3.232,4.504c2.135,0.357,3.927-1.116,4.503-3.225
	l8.214-27.034c0.122-0.472,0.602-0.761,1.08-0.633c0.475,0.117,0.755,0.6,0.638,1.078L7.315,91.78
	c-0.339,1.64,0.75,2.983,2.426,2.983l2.991-0.01c1.677,0,3.262,1.361,3.525,3.004l4.362,27.23c0.263,1.658,1.848,3,3.525,3h12.928
	c1.67,0,3.228-1.352,3.453-3.014l3.733-27.209c0.227-1.65,1.783-3.012,3.453-3.012l3.044,0.01c1.675,0,2.764-1.344,2.422-2.983
	l-9.36-44.986c-0.12-0.478,0.159-0.961,0.635-1.078c0.473-0.128,0.956,0.161,1.078,0.633l8.215,27.034
	c0.583,2.108,2.369,3.582,4.504,3.225C60.383,76.261,61.832,74.243,61.48,72.103"/>
</g>
</svg>
