<svg>
<g>
<path fill="#434143" d="M26.346,22.813c6.295,0,11.403-5.106,11.403-11.409C37.749,5.113,32.642,0,26.346,0
	C20.05,0,14.938,5.113,14.938,11.404C14.938,17.707,20.05,22.813,26.346,22.813"/>
<path fill="blue" d="M51.358,43.344c0.48-6.869-4.656-18.019-16.174-18.019H16.457c-11.47,0-16.655,11.148-16.175,18.019
	L0,76.046c0.149,2.164,2.021,3.792,4.18,3.646c2.162-0.148,3.565-1.986,3.64-4.176L9.561,48.78c0.014-0.495,0.426-0.888,0.919-0.869
	c0.498,0.013,0.882,0.429,0.868,0.919v76.105c0,1.669,1.369,3.04,3.044,3.04h5.321c1.674,0,2.941-1.172,3.044-3.04l1.881-42.319
	c0.111-1.148,0.092-1.896,1.14-1.896h0.06c1.052,0,1.032,0.747,1.14,1.896l1.883,42.319c0.104,1.868,1.367,3.04,3.043,3.04h5.32
	c1.676,0,3.045-1.371,3.045-3.04l0.02-76.105h0.004c-0.016-0.49,0.377-0.906,0.867-0.919c0.494-0.019,0.906,0.374,0.92,0.869
	l1.74,26.736c0.076,2.188,1.484,4.026,3.641,4.176c2.158,0.146,4.033-1.482,4.18-3.646L51.358,43.344z"/>
</g>
</svg>
