<?xml version="1.0" encoding="utf-8"?>
<!-- Generator: Adobe Illustrator 19.2.0, SVG Export Plug-In . SVG Version: 6.00 Build 0)  -->
<svg version="1.1" id="Layer_1" xmlns="http://www.w3.org/2000/svg" xmlns:xlink="http://www.w3.org/1999/xlink" x="0px" y="0px"
	 viewBox="0 0 29.1 29.1" style="enable-background:new 0 0 29.1 29.1;" xml:space="preserve">
<style type="text/css">
	.st0{fill:#A6A8AB;}
</style>
<title>Artboard 1 copy 2</title>
<path class="st0" d="M27.5,0H1.6C0.7,0,0,0.7,0,1.6v25.9c0,0.9,0.7,1.6,1.6,1.6h13.9V17.8h-3.8v-4.4h3.8v-3.2c0-3.8,2.3-5.8,5.6-5.8
	c1.1,0,2.3,0.1,3.4,0.2v3.9h-2.3c-1.8,0-2.2,0.9-2.2,2.1v2.8h4.4l-0.6,4.4h-3.8v11.3h7.4c0.9,0,1.6-0.7,1.6-1.6V1.6
	C29.1,0.7,28.4,0,27.5,0L27.5,0"/>
</svg>
