<?xml version="1.0" encoding="utf-8"?>
<!-- Generator: Adobe Illustrator 19.2.0, SVG Export Plug-In . SVG Version: 6.00 Build 0)  -->
<svg version="1.1" id="Layer_1" xmlns="http://www.w3.org/2000/svg" xmlns:xlink="http://www.w3.org/1999/xlink" x="0px" y="0px"
	 viewBox="0 0 30 30" style="enable-background:new 0 0 30 30;" xml:space="preserve">
<style type="text/css">
	.st0{fill:#A6A8AB;}
</style>
<path class="st0" d="M20.5,5C19.7,5.1,19,5.5,18.4,6c0.1-0.2,0.3-0.5,0.3-0.7c-0.9,0.5-1.5,1.3-2.1,2.1c-1.1,1.5-1.8,3.3-2.5,5
	c-0.7-0.7-1.4-1.3-2.3-1.8c-2.4-1.3-5-2.4-7.6-3.3c-0.1,1.6,1.1,3,2.5,3.7c-0.1,0-0.1,0-0.2,0c-0.5,0-1.1,0.1-1.6,0.2
	C5,11.9,5.4,12.5,5.9,13c0.6,0.6,1.5,0.9,2.3,1.2c-0.7,0.1-1.5,0.2-2,0.8c0.6,1.2,1.8,1.8,3.1,1.8c0.2,0,0.3,0,0.5,0
	c-0.4,0.2-0.9,0.5-1.1,0.9C8.6,18,8.7,18.4,9,18.7c0.4,0.4,1,0.5,1.5,0.5c0.1,0,0.2,0,0.2,0c-1,1-2.2,1.7-3.6,2.1
	c-0.7,0.2-1.3,0.3-2,0.3c-1.6,0-3.2-0.5-4.6-1.5C0.4,20,0.2,19.9,0,19.7c2.4,3.3,6.4,5.4,10.5,5.6c0.4,0,0.7,0,1.1,0
	c3.9,0,7.9-1.4,10.8-4c1.6-1.5,2.9-3.4,3.4-5.6c0,0,0.1,0,0.1,0c1.2,0,2.5-0.4,3.4-1.3c-0.3,0-0.6,0.1-1,0.1c-0.8,0-1.6-0.1-2.3-0.4
	c1.3-0.1,2.6-0.7,3.2-1.9c-0.7,0.3-1.5,0.5-2.3,0.5c-0.4,0-0.8,0-1.1-0.1c-0.3-1.6-1.2-3.2-2.5-4.3C22.3,7.5,21,7,19.8,7
	c-0.1,0-0.3,0-0.4,0c0.7-0.3,1.5-0.4,2.2-0.7c0.2-0.1,0.4-0.3,0.3-0.5c-0.1-0.2-0.2-0.2-0.4-0.2c0,0-0.1,0-0.1,0
	c-0.6,0-1.2,0.3-1.8,0.5C20,5.8,20.4,5.5,20.5,5"/>
<g>
</g>
<g>
</g>
<g>
</g>
<g>
</g>
<g>
</g>
<g>
</g>
</svg>
