<?xml version="1.0" encoding="utf-8"?>
<!-- Generator: Adobe Illustrator 23.1.1, SVG Export Plug-In . SVG Version: 6.00 Build 0)  -->
<svg version="1.1" id="Layer_1" xmlns="http://www.w3.org/2000/svg" xmlns:xlink="http://www.w3.org/1999/xlink" x="0px" y="0px"
	 viewBox="0 0 30 30" style="enable-background:new 0 0 30 30;" xml:space="preserve">
<style type="text/css">
	.st0{fill:#206095;}
</style>
<g>
	<path class="st0" d="M9.4,27.1c11.3,0,17.5-9.4,17.5-17.5c0-0.3,0-0.5,0-0.8C28.1,8,29.2,6.9,30,5.7c-1.1,0.5-2.3,0.8-3.5,1
		c1.3-0.8,2.2-2,2.7-3.4c-1.2,0.7-2.5,1.2-3.9,1.5c-1.1-1.2-2.7-1.9-4.5-1.9c-3.4,0-6.1,2.8-6.1,6.1c0,0.5,0.1,0.9,0.2,1.4
		C9.7,10.1,5.1,7.6,2.1,3.9C1.6,4.8,1.3,5.9,1.3,7c0,2.1,1.1,4,2.7,5.1c-1,0-2-0.3-2.8-0.8c0,0,0,0,0,0.1c0,3,2.1,5.5,4.9,6
		c-0.5,0.1-1.1,0.2-1.6,0.2c-0.4,0-0.8,0-1.2-0.1c0.8,2.4,3.1,4.2,5.7,4.3c-2.1,1.6-4.8,2.6-7.6,2.6c-0.5,0-1,0-1.5-0.1
		C2.7,26.1,6,27.1,9.4,27.1"/>
</g>
</svg>
