<?xml version="1.0" encoding="utf-8"?>
<!-- Generator: Adobe Illustrator 20.1.0, SVG Export Plug-In . SVG Version: 6.00 Build 0)  -->
<svg version="1.1" id="Layer_1" xmlns="http://www.w3.org/2000/svg" xmlns:xlink="http://www.w3.org/1999/xlink" x="0px" y="0px"
	 width="40px" height="40px" viewBox="0 0 40 40" style="enable-background:new 0 0 40 40;" xml:space="preserve">
<style type="text/css">
	.st0{fill:#3E5294;}
	.st1{fill:#FFFFFF;}
</style>
<path id="Blue_1_" class="st0" d="M37.5,39.7c1.2,0,2.2-1,2.2-2.2v-35c0-1.2-1-2.2-2.2-2.2h-35c-1.2,0-2.2,1-2.2,2.2v35
	c0,1.2,1,2.2,2.2,2.2H37.5z"/>
<path id="f" class="st1" d="M27.5,39.7V24.4h5.1l0.8-5.9h-5.9v-3.8c0-1.7,0.5-2.9,2.9-2.9l3.1,0V6.5C33,6.4,31.2,6.3,29,6.3
	c-4.5,0-7.6,2.8-7.6,7.9v4.4h-5.1v5.9h5.1v15.2H27.5z"/>
</svg>
