<?xml version="1.0" encoding="utf-8"?>
<!-- Generator: Adobe Illustrator 20.1.0, SVG Export Plug-In . SVG Version: 6.00 Build 0)  -->
<svg version="1.1" id="Layer_1" xmlns="http://www.w3.org/2000/svg" xmlns:xlink="http://www.w3.org/1999/xlink" x="0px" y="0px"
	 width="30px" height="30px" viewBox="0 0 30 30" style="enable-background:new 0 0 30 30;" xml:space="preserve">
<style type="text/css">
	.st0{fill:#409BD6;}
	.st1{fill:#FFFFFF;}
</style>
<g>
	<rect x="0.3" y="0.3" class="st0" width="29.4" height="29.4"/>
	<path class="st1" d="M11.6,22.5c6.9,0,10.7-5.7,10.7-10.7c0-0.2,0-0.3,0-0.5c0.7-0.5,1.4-1.2,1.9-2c-0.7,0.3-1.4,0.5-2.2,0.6
		c0.8-0.5,1.4-1.2,1.7-2.1c-0.7,0.4-1.5,0.7-2.4,0.9c-0.7-0.7-1.7-1.2-2.8-1.2c-2.1,0-3.8,1.7-3.8,3.8c0,0.3,0,0.6,0.1,0.9
		c-3.1-0.2-5.9-1.7-7.8-3.9c-0.3,0.6-0.5,1.2-0.5,1.9c0,1.3,0.7,2.5,1.7,3.1c-0.6,0-1.2-0.2-1.7-0.5c0,0,0,0,0,0
		c0,1.8,1.3,3.4,3,3.7c-0.3,0.1-0.7,0.1-1,0.1c-0.2,0-0.5,0-0.7-0.1c0.5,1.5,1.9,2.6,3.5,2.6c-1.3,1-2.9,1.6-4.7,1.6
		c-0.3,0-0.6,0-0.9-0.1C7.5,21.8,9.5,22.5,11.6,22.5"/>
</g>
</svg>
