<?xml version="1.0" encoding="utf-8"?>
<!-- Generator: Adobe Illustrator 16.0.3, SVG Export Plug-In . SVG Version: 6.00 Build 0)  -->
<!DOCTYPE svg PUBLIC "-//W3C//DTD SVG 1.1//EN" "http://www.w3.org/Graphics/SVG/1.1/DTD/svg11.dtd">
<svg version="1.1" id="Layer_1" xmlns="http://www.w3.org/2000/svg" xmlns:xlink="http://www.w3.org/1999/xlink" x="0px" y="0px"
	 width="300px" height="100px" viewBox="0 0 300 100" enable-background="new 0 0 300 100" xml:space="preserve">
<g>
	<path fill="#206095" d="M18.165,49.071h-0.048l-2.856,1.441l-0.504-2.233l3.792-1.873h2.472v15.601h-2.856V49.071z"/>
	<path fill="#206095" d="M25.556,64.912c0.648-1.824,1.296-4.344,1.608-6.336l3.096-0.24c-0.672,2.256-1.752,4.85-2.688,6.385
		L25.556,64.912z"/>
	<path fill="#206095" d="M42.789,46.407v1.896l-6.601,13.705h-3.121l6.577-13.104v-0.048h-7.345v-2.448h10.49V46.407z"/>
	<path fill="#206095" d="M54.428,48.495c-0.432,0-0.912,0-1.512,0.072c-3.265,0.384-4.849,2.4-5.232,4.56h0.072
		c0.768-0.889,1.944-1.512,3.504-1.512c2.688,0,4.776,1.92,4.776,5.088c0,2.977-2.184,5.568-5.497,5.568
		c-3.792,0-5.88-2.879-5.88-6.721c0-3.001,1.08-5.449,2.712-7.009c1.44-1.344,3.312-2.112,5.544-2.304
		c0.648-0.072,1.128-0.072,1.488-0.048L54.428,48.495z M53.036,56.872c0-1.8-0.984-3.097-2.712-3.097
		c-1.104,0-2.088,0.672-2.544,1.607c-0.12,0.239-0.192,0.528-0.192,0.938c0.048,2.063,1.032,3.744,2.928,3.744
		C52.052,60.064,53.036,58.744,53.036,56.872z"/>
	<path fill="#206095" d="M64.292,62.008v-3.96h-7.057v-1.92l6.361-9.721h3.48v9.41h2.016v2.231h-2.016v3.96H64.292z M64.292,55.816
		v-4.25c0-0.887,0.024-1.799,0.096-2.711h-0.096c-0.48,0.984-0.888,1.776-1.368,2.641l-2.856,4.271l-0.024,0.049H64.292z"/>
	<path fill="#206095" d="M69.811,64.912c0.648-1.824,1.296-4.344,1.608-6.336l3.096-0.24c-0.672,2.256-1.752,4.85-2.688,6.385
		L69.811,64.912z"/>
	<path fill="#206095" d="M87.331,54.111c0,5.017-1.968,8.16-5.688,8.16c-3.6,0-5.521-3.265-5.544-8.017
		c0-4.849,2.064-8.113,5.712-8.113C85.579,46.143,87.331,49.503,87.331,54.111z M79.075,54.256c-0.024,3.792,1.032,5.76,2.664,5.76
		c1.728,0,2.64-2.111,2.64-5.854c0-3.625-0.864-5.761-2.64-5.761C80.155,48.399,79.051,50.343,79.075,54.256z"/>
	<path fill="#206095" d="M100.195,54.111c0,5.017-1.968,8.16-5.688,8.16c-3.6,0-5.521-3.265-5.544-8.017
		c0-4.849,2.064-8.113,5.713-8.113C98.443,46.143,100.195,49.503,100.195,54.111z M91.938,54.256
		c-0.024,3.792,1.032,5.76,2.664,5.76c1.728,0,2.64-2.111,2.64-5.854c0-3.625-0.864-5.761-2.64-5.761
		C93.019,48.399,91.915,50.343,91.938,54.256z"/>
	<path fill="#206095" d="M113.059,54.111c0,5.017-1.968,8.16-5.688,8.16c-3.6,0-5.521-3.265-5.544-8.017
		c0-4.849,2.064-8.113,5.712-8.113C111.307,46.143,113.059,49.503,113.059,54.111z M104.802,54.256
		c-0.024,3.792,1.032,5.76,2.664,5.76c1.728,0,2.64-2.111,2.64-5.854c0-3.625-0.864-5.761-2.64-5.761
		C105.882,48.399,104.778,50.343,104.802,54.256z"/>
</g>
<g>
	<path fill="#206095" d="M64.616,98.055v-1.188l1.518-1.475c3.653-3.478,5.303-5.324,5.325-7.48c0-1.453-0.704-2.795-2.838-2.795
		c-1.298,0-2.376,0.66-3.036,1.211l-0.616-1.365c0.99-0.836,2.398-1.451,4.048-1.451c3.081,0,4.379,2.111,4.379,4.158
		c0,2.641-1.915,4.773-4.929,7.68l-1.145,1.055v0.046h6.425v1.604H64.616z"/>
	<path fill="#206095" d="M85.407,90.75c0,4.863-1.804,7.547-4.973,7.547c-2.794,0-4.687-2.617-4.731-7.35
		c0-4.797,2.068-7.436,4.973-7.436C83.69,83.512,85.407,86.195,85.407,90.75z M77.64,90.971c0,3.719,1.144,5.83,2.904,5.83
		c1.98,0,2.926-2.311,2.926-5.963c0-3.52-0.902-5.83-2.904-5.83C78.872,85.008,77.64,87.076,77.64,90.971z"/>
	<path fill="#206095" d="M91.39,85.557h-0.044L88.86,86.9l-0.375-1.475l3.125-1.673h1.65v14.302h-1.87V85.557z"/>
	<path fill="#206095" d="M107.758,83.753v1.276l-6.227,13.025h-2.002l6.205-12.652v-0.043h-6.997v-1.606H107.758z"/>
</g>
<g>
	<path fill="#206095" d="M228.635,98.055v-1.188l1.52-1.475c3.652-3.478,5.303-5.324,5.324-7.48c0-1.453-0.705-2.795-2.838-2.795
		c-1.299,0-2.377,0.66-3.037,1.211l-0.615-1.365c0.99-0.836,2.397-1.451,4.048-1.451c3.081,0,4.379,2.111,4.379,4.158
		c0,2.641-1.914,4.773-4.929,7.68l-1.145,1.055v0.046h6.426v1.604H228.635z"/>
	<path fill="#206095" d="M249.426,90.75c0,4.863-1.804,7.547-4.973,7.547c-2.794,0-4.688-2.617-4.73-7.35
		c0-4.797,2.068-7.436,4.973-7.436C247.71,83.512,249.426,86.195,249.426,90.75z M241.659,90.971c0,3.719,1.144,5.83,2.903,5.83
		c1.98,0,2.928-2.311,2.928-5.963c0-3.52-0.902-5.83-2.904-5.83C242.891,85.008,241.659,87.076,241.659,90.971z"/>
	<path fill="#206095" d="M255.409,85.557h-0.044l-2.486,1.344l-0.375-1.475l3.125-1.673h1.65v14.302h-1.87V85.557z"/>
	<path fill="#206095" d="M263.614,96.691c0.418,0.043,0.901,0,1.562-0.066c1.123-0.154,2.18-0.615,2.993-1.387
		c0.946-0.857,1.628-2.111,1.892-3.807h-0.064c-0.792,0.969-1.938,1.541-3.366,1.541c-2.573,0-4.225-1.938-4.225-4.379
		c0-2.707,1.958-5.082,4.885-5.082c2.926,0,4.729,2.375,4.729,6.027c0,3.146-1.057,5.348-2.465,6.711
		c-1.1,1.078-2.617,1.738-4.158,1.914c-0.703,0.109-1.319,0.132-1.781,0.109L263.614,96.691L263.614,96.691z M264.318,88.462
		c0,1.782,1.078,3.036,2.75,3.036c1.299,0,2.311-0.639,2.815-1.496c0.11-0.176,0.177-0.396,0.177-0.704
		c0-2.442-0.901-4.313-2.927-4.313C265.484,84.984,264.318,86.438,264.318,88.462z"/>
</g>
<polyline fill="none" stroke="#206095" stroke-width="4" stroke-linecap="round" stroke-linejoin="round" stroke-miterlimit="10" points="
	87.004,16.269 152.029,49.045 184.971,64.612 217.483,65.432 249.996,68.71 "/>
<circle fill="#FF9933" cx="87.5" cy="16" r="5"/>
<circle fill="#FF9933" cx="250.5" cy="69" r="5"/>
<g>
	<path fill="#206095" d="M216.076,53.379c0.456,0.049,0.911,0.024,1.632-0.047c1.152-0.097,2.305-0.504,3.168-1.201
		c1.008-0.815,1.705-1.992,1.992-3.455l-0.048-0.025c-0.792,0.889-1.896,1.393-3.408,1.393c-2.712,0-4.729-1.968-4.729-4.848
		c0-2.976,2.304-5.568,5.641-5.568c3.624,0,5.568,2.856,5.568,6.648c0,3.336-1.104,5.712-2.712,7.249
		c-1.368,1.271-3.24,1.992-5.328,2.136c-0.672,0.072-1.345,0.072-1.776,0.049V53.379z M217.612,45.027
		c0.023,1.608,0.936,2.856,2.568,2.856c1.199,0,2.064-0.552,2.52-1.296c0.096-0.192,0.168-0.432,0.168-0.84
		c0.024-2.112-0.768-3.937-2.688-3.937C218.692,41.811,217.612,43.131,217.612,45.027z"/>
	<path fill="#206095" d="M232.372,42.555h-0.048l-2.856,1.44l-0.504-2.232l3.792-1.873h2.472v15.601h-2.855V42.555z"/>
	<path fill="#206095" d="M250.517,42.338h-6.001l-0.456,3.121c0.36-0.048,0.672-0.072,1.129-0.072c1.367,0,2.735,0.312,3.791,1.008
		c1.177,0.744,2.041,2.064,2.041,3.96c0,2.977-2.473,5.4-6.313,5.4c-1.801,0-3.313-0.456-4.129-0.912l0.6-2.232
		c0.673,0.36,2.018,0.816,3.434,0.816c1.728,0,3.384-0.984,3.384-2.856c0-1.776-1.32-2.952-4.44-2.952
		c-0.864,0-1.512,0.048-2.137,0.144l1.033-7.873h8.064V42.338z"/>
	<path fill="#206095" d="M252.627,58.396c0.647-1.824,1.296-4.344,1.608-6.336l3.096-0.24c-0.672,2.257-1.752,4.849-2.688,6.385
		L252.627,58.396z"/>
	<path fill="#206095" d="M270.147,47.595c0,5.016-1.968,8.161-5.688,8.161c-3.601,0-5.521-3.265-5.544-8.017
		c0-4.849,2.064-8.113,5.712-8.113C268.396,39.626,270.147,42.987,270.147,47.595z M261.892,47.739
		c-0.024,3.792,1.031,5.761,2.664,5.761c1.728,0,2.64-2.113,2.64-5.857c0-3.625-0.864-5.761-2.64-5.761
		C262.972,41.882,261.867,43.827,261.892,47.739z"/>
	<path fill="#206095" d="M283.011,47.595c0,5.016-1.967,8.161-5.688,8.161c-3.601,0-5.521-3.265-5.545-8.017
		c0-4.849,2.064-8.113,5.713-8.113C281.259,39.626,283.011,42.987,283.011,47.595z M274.755,47.739
		c-0.023,3.792,1.031,5.761,2.664,5.761c1.729,0,2.641-2.113,2.641-5.857c0-3.625-0.864-5.761-2.641-5.761
		C275.835,41.882,274.731,43.827,274.755,47.739z"/>
	<path fill="#206095" d="M295.875,47.595c0,5.016-1.968,8.161-5.688,8.161c-3.6,0-5.521-3.265-5.545-8.017
		c0-4.849,2.064-8.113,5.713-8.113C294.123,39.626,295.875,42.987,295.875,47.595z M287.618,47.739
		c-0.023,3.792,1.032,5.761,2.664,5.761c1.729,0,2.641-2.113,2.641-5.857c0-3.625-0.863-5.761-2.641-5.761
		C288.698,41.882,287.595,43.827,287.618,47.739z"/>
</g>
</svg>
