<?xml version="1.0" encoding="utf-8"?>
<!-- Generator: Adobe Illustrator 16.0.3, SVG Export Plug-In . SVG Version: 6.00 Build 0)  -->
<!DOCTYPE svg PUBLIC "-//W3C//DTD SVG 1.1//EN" "http://www.w3.org/Graphics/SVG/1.1/DTD/svg11.dtd">
<svg version="1.1" id="Layer_1" xmlns="http://www.w3.org/2000/svg" xmlns:xlink="http://www.w3.org/1999/xlink" x="0px" y="0px"
	 width="300px" height="100px" viewBox="0 0 300 100" enable-background="new 0 0 300 100" xml:space="preserve">
<g>
	<path fill="#206095" d="M6.316,60c0-1.943,1.128-3.264,2.928-4.057v-0.072c-1.632-0.791-2.376-2.088-2.376-3.456
		c0-2.544,2.256-4.272,5.208-4.272c3.36,0,4.896,2.016,4.896,3.936c0,1.319-0.696,2.688-2.4,3.528v0.072
		c1.704,0.647,2.976,1.991,2.976,3.936c0,2.785-2.352,4.656-5.688,4.656C8.212,64.271,6.316,62.184,6.316,60z M14.549,59.855
		c0-1.584-1.176-2.447-2.904-2.928c-1.464,0.432-2.304,1.438-2.304,2.735c-0.048,1.319,0.96,2.521,2.616,2.521
		C13.517,62.184,14.549,61.2,14.549,59.855z M9.676,52.295c0,1.271,1.056,2.041,2.544,2.449c1.056-0.313,1.944-1.178,1.944-2.354
		c0-1.08-0.648-2.208-2.232-2.208C10.444,50.183,9.676,51.167,9.676,52.295z"/>
	<path fill="#206095" d="M20.596,61.896c0.456,0.047,0.912,0.022,1.632-0.049c1.152-0.097,2.304-0.504,3.168-1.199
		c1.008-0.816,1.704-1.992,1.992-3.457l-0.048-0.023c-0.792,0.889-1.896,1.393-3.408,1.393c-2.712,0-4.729-1.969-4.729-4.85
		c0-2.977,2.304-5.568,5.641-5.568c3.625,0,5.568,2.856,5.568,6.648c0,3.337-1.104,5.713-2.712,7.249
		c-1.368,1.272-3.24,1.991-5.329,2.136c-0.672,0.072-1.344,0.072-1.776,0.049L20.596,61.896L20.596,61.896z M22.132,53.543
		c0.024,1.607,0.936,2.855,2.568,2.855c1.2,0,2.064-0.551,2.521-1.295c0.096-0.191,0.168-0.433,0.168-0.84
		c0.024-2.113-0.768-3.938-2.688-3.938C23.212,50.327,22.132,51.646,22.132,53.543z"/>
	<path fill="#206095" d="M43.276,56.111c0,5.017-1.968,8.16-5.688,8.16c-3.6,0-5.521-3.265-5.544-8.017
		c0-4.849,2.064-8.113,5.712-8.113C41.524,48.143,43.276,51.503,43.276,56.111z M35.02,56.256c-0.024,3.792,1.032,5.76,2.664,5.76
		c1.728,0,2.64-2.111,2.64-5.854c0-3.625-0.864-5.761-2.64-5.761C36.1,50.399,34.996,52.344,35.02,56.256z"/>
	<path fill="#206095" d="M44.283,66.912c0.648-1.824,1.296-4.344,1.608-6.336l3.096-0.24c-0.672,2.256-1.752,4.85-2.688,6.385
		L44.283,66.912z"/>
	<path fill="#206095" d="M61.804,56.111c0,5.017-1.968,8.16-5.688,8.16c-3.6,0-5.521-3.265-5.544-8.017
		c0-4.849,2.064-8.113,5.712-8.113C60.052,48.143,61.804,51.503,61.804,56.111z M53.547,56.256c-0.024,3.792,1.032,5.76,2.664,5.76
		c1.728,0,2.64-2.111,2.64-5.854c0-3.625-0.864-5.761-2.64-5.761C54.627,50.399,53.523,52.344,53.547,56.256z"/>
	<path fill="#206095" d="M64.851,61.896c0.456,0.047,0.912,0.022,1.632-0.049c1.152-0.097,2.304-0.504,3.168-1.199
		c1.008-0.816,1.704-1.992,1.992-3.457l-0.048-0.023c-0.792,0.889-1.896,1.393-3.408,1.393c-2.712,0-4.729-1.969-4.729-4.85
		c0-2.977,2.304-5.568,5.641-5.568c3.625,0,5.568,2.856,5.568,6.648c0,3.337-1.104,5.713-2.712,7.249
		c-1.368,1.272-3.24,1.991-5.329,2.136c-0.672,0.072-1.344,0.072-1.776,0.049L64.851,61.896L64.851,61.896z M66.387,53.543
		c0.024,1.607,0.936,2.855,2.568,2.855c1.2,0,2.064-0.551,2.521-1.295c0.096-0.191,0.168-0.433,0.168-0.84
		c0.024-2.113-0.768-3.938-2.688-3.938C67.467,50.327,66.387,51.646,66.387,53.543z"/>
	<path fill="#206095" d="M77.715,61.896c0.456,0.047,0.912,0.022,1.632-0.049c1.152-0.097,2.304-0.504,3.168-1.199
		c1.008-0.816,1.704-1.992,1.992-3.457l-0.048-0.023c-0.792,0.889-1.896,1.393-3.408,1.393c-2.712,0-4.729-1.969-4.729-4.85
		c0-2.977,2.304-5.568,5.641-5.568c3.625,0,5.568,2.856,5.568,6.648c0,3.337-1.104,5.713-2.712,7.249
		c-1.368,1.272-3.24,1.991-5.329,2.136c-0.672,0.072-1.344,0.072-1.776,0.049L77.715,61.896L77.715,61.896z M79.251,53.543
		c0.024,1.607,0.936,2.855,2.568,2.855c1.2,0,2.064-0.551,2.521-1.295c0.096-0.191,0.168-0.433,0.168-0.84
		c0.024-2.113-0.768-3.938-2.688-3.938C80.331,50.327,79.251,51.646,79.251,53.543z"/>
</g>
<g>
	<path fill="#206095" d="M29.616,98.055v-1.188l1.518-1.475c3.653-3.478,5.303-5.324,5.325-7.48c0-1.453-0.704-2.795-2.838-2.795
		c-1.298,0-2.376,0.66-3.036,1.211l-0.616-1.365c0.99-0.836,2.398-1.451,4.048-1.451c3.081,0,4.379,2.111,4.379,4.158
		c0,2.641-1.915,4.773-4.929,7.68l-1.145,1.055v0.046h6.425v1.604H29.616z"/>
	<path fill="#206095" d="M50.407,90.75c0,4.863-1.804,7.547-4.973,7.547c-2.794,0-4.687-2.617-4.731-7.35
		c0-4.797,2.068-7.436,4.973-7.436C48.69,83.512,50.407,86.195,50.407,90.75z M42.64,90.971c0,3.719,1.144,5.83,2.904,5.83
		c1.98,0,2.926-2.311,2.926-5.963c0-3.52-0.902-5.83-2.904-5.83C43.872,85.008,42.64,87.076,42.64,90.971z"/>
	<path fill="#206095" d="M61.692,90.75c0,4.863-1.804,7.547-4.973,7.547c-2.794,0-4.687-2.617-4.731-7.35
		c0-4.797,2.068-7.436,4.973-7.436C59.976,83.512,61.692,86.195,61.692,90.75z M53.925,90.971c0,3.719,1.144,5.83,2.904,5.83
		c1.98,0,2.926-2.311,2.926-5.963c0-3.52-0.902-5.83-2.904-5.83C55.157,85.008,53.925,87.076,53.925,90.971z"/>
	<path fill="#206095" d="M63.935,95.833c0.55,0.353,1.826,0.901,3.168,0.901c2.486,0,3.256-1.584,3.234-2.771
		c-0.022-2.002-1.826-2.861-3.696-2.861h-1.078V89.65h1.078c1.408,0,3.19-0.728,3.19-2.422c0-1.144-0.726-2.156-2.508-2.156
		c-1.144,0-2.245,0.508-2.86,0.947l-0.506-1.408c0.748-0.551,2.2-1.1,3.741-1.1c2.816,0,4.092,1.672,4.092,3.409
		c0,1.476-0.88,2.729-2.64,3.366v0.044c1.76,0.353,3.19,1.672,3.19,3.674c0,2.289-1.782,4.291-5.215,4.291
		c-1.606,0-3.014-0.506-3.718-0.968L63.935,95.833z"/>
</g>
<g>
	<path fill="#206095" d="M228.635,98.055v-1.188l1.52-1.475c3.652-3.478,5.303-5.324,5.324-7.48c0-1.453-0.705-2.795-2.838-2.795
		c-1.299,0-2.377,0.66-3.037,1.211l-0.615-1.365c0.99-0.836,2.397-1.451,4.048-1.451c3.081,0,4.379,2.111,4.379,4.158
		c0,2.641-1.914,4.773-4.929,7.68l-1.145,1.055v0.046h6.426v1.604H228.635z"/>
	<path fill="#206095" d="M249.426,90.75c0,4.863-1.804,7.547-4.973,7.547c-2.794,0-4.688-2.617-4.73-7.35
		c0-4.797,2.068-7.436,4.973-7.436C247.71,83.512,249.426,86.195,249.426,90.75z M241.659,90.971c0,3.719,1.144,5.83,2.903,5.83
		c1.98,0,2.928-2.311,2.928-5.963c0-3.52-0.902-5.83-2.904-5.83C242.891,85.008,241.659,87.076,241.659,90.971z"/>
	<path fill="#206095" d="M255.409,85.557h-0.044l-2.486,1.344l-0.375-1.475l3.125-1.673h1.65v14.302h-1.87V85.557z"/>
	<path fill="#206095" d="M263.614,96.691c0.418,0.043,0.901,0,1.562-0.066c1.123-0.154,2.18-0.615,2.993-1.387
		c0.946-0.857,1.628-2.111,1.892-3.807h-0.064c-0.792,0.969-1.938,1.541-3.366,1.541c-2.573,0-4.225-1.938-4.225-4.379
		c0-2.707,1.958-5.082,4.885-5.082c2.926,0,4.729,2.375,4.729,6.027c0,3.146-1.057,5.348-2.465,6.711
		c-1.1,1.078-2.617,1.738-4.158,1.914c-0.703,0.109-1.319,0.132-1.781,0.109L263.614,96.691L263.614,96.691z M264.318,88.462
		c0,1.782,1.078,3.036,2.75,3.036c1.299,0,2.311-0.639,2.815-1.496c0.11-0.176,0.177-0.396,0.177-0.704
		c0-2.442-0.901-4.313-2.927-4.313C265.484,84.984,264.318,86.438,264.318,88.462z"/>
</g>
<polyline fill="none" stroke="#206095" stroke-width="3.9961" stroke-linecap="round" stroke-linejoin="round" stroke-miterlimit="10" points="
	50.08,16.278 61.249,23.425 72.417,38.268 83.586,41.566 94.755,44.314 105.525,48.164 116.694,48.164 127.862,52.562 
	139.032,54.211 150.201,56.41 161.369,60.807 172.539,62.457 183.308,65.755 194.477,66.854 205.646,65.755 216.814,66.305 
	227.983,67.954 239.152,67.954 249.922,70.703 "/>
<g id="balls">
	<circle fill="#FF9933" cx="50.5" cy="16" r="5"/>
	<circle fill="#FF9933" cx="250.5" cy="71" r="5"/>
</g>
<g>
	<path fill="#206095" d="M212.641,53.433c0.601,0.36,2.064,0.96,3.553,0.96c2.256,0,3.168-1.271,3.145-2.496
		c0-1.848-1.729-2.64-3.529-2.64h-1.367v-2.16h1.32c1.367,0,3.096-0.624,3.096-2.184c0-1.056-0.792-1.944-2.496-1.944
		c-1.271,0-2.545,0.552-3.192,0.984l-0.672-2.136c0.888-0.625,2.616-1.2,4.488-1.2c3.216,0,4.872,1.776,4.872,3.816
		c0,1.632-0.96,2.976-2.88,3.648v0.048c1.896,0.336,3.433,1.776,3.433,3.888c0,2.64-2.209,4.729-6.072,4.729
		c-1.896,0-3.529-0.528-4.369-1.08L212.641,53.433z"/>
	<path fill="#206095" d="M234.41,42.968c-0.433,0-0.912,0-1.513,0.072c-3.265,0.384-4.849,2.4-5.232,4.561h0.071
		c0.769-0.888,1.945-1.512,3.505-1.512c2.688,0,4.776,1.92,4.776,5.088c0,2.977-2.184,5.569-5.496,5.569
		c-3.793,0-5.881-2.88-5.881-6.721c0-3,1.08-5.449,2.713-7.009c1.439-1.344,3.312-2.112,5.544-2.304
		c0.647-0.072,1.128-0.072,1.487-0.048L234.41,42.968z M233.018,51.345c0-1.8-0.984-3.097-2.713-3.097
		c-1.104,0-2.088,0.672-2.544,1.608c-0.12,0.24-0.192,0.528-0.192,0.937c0.049,2.063,1.033,3.744,2.929,3.744
		C232.033,54.537,233.018,53.217,233.018,51.345z"/>
	<path fill="#206095" d="M247.273,42.968c-0.432,0-0.912,0-1.512,0.072c-3.265,0.384-4.85,2.4-5.232,4.561h0.071
		c0.769-0.888,1.944-1.512,3.505-1.512c2.688,0,4.775,1.92,4.775,5.088c0,2.977-2.184,5.569-5.496,5.569
		c-3.792,0-5.881-2.88-5.881-6.721c0-3,1.08-5.449,2.713-7.009c1.439-1.344,3.313-2.112,5.545-2.304
		c0.647-0.072,1.127-0.072,1.487-0.048L247.273,42.968z M245.881,51.345c0-1.8-0.984-3.097-2.712-3.097
		c-1.104,0-2.089,0.672-2.544,1.608c-0.12,0.24-0.192,0.528-0.192,0.937c0.048,2.063,1.032,3.744,2.929,3.744
		C244.896,54.537,245.881,53.217,245.881,51.345z"/>
	<path fill="#206095" d="M249.792,59.385c0.647-1.824,1.296-4.344,1.608-6.336l3.096-0.24c-0.672,2.256-1.752,4.849-2.688,6.385
		L249.792,59.385z"/>
	<path fill="#206095" d="M267.025,40.879v1.896l-6.602,13.705h-3.12l6.577-13.104v-0.048h-7.346v-2.448H267.025z"/>
	<path fill="#206095" d="M273.792,43.544h-0.048l-2.856,1.44l-0.504-2.232l3.792-1.873h2.473V56.48h-2.856V43.544z"/>
	<path fill="#206095" d="M281.807,52.473c0-1.944,1.129-3.264,2.929-4.056v-0.072c-1.632-0.792-2.376-2.088-2.376-3.456
		c0-2.544,2.256-4.272,5.209-4.272c3.359,0,4.896,2.016,4.896,3.936c0,1.32-0.697,2.688-2.4,3.528v0.072
		c1.703,0.648,2.976,1.992,2.976,3.936c0,2.785-2.353,4.657-5.688,4.657C283.703,56.745,281.807,54.656,281.807,52.473z
		 M290.04,52.328c0-1.584-1.177-2.448-2.904-2.928c-1.464,0.432-2.304,1.439-2.304,2.736c-0.049,1.32,0.959,2.52,2.615,2.52
		C289.008,54.656,290.04,53.673,290.04,52.328z M285.168,44.768c0,1.272,1.056,2.04,2.544,2.448
		c1.056-0.312,1.944-1.176,1.944-2.353c0-1.08-0.648-2.208-2.232-2.208C285.936,42.656,285.168,43.64,285.168,44.768z"/>
</g>
</svg>
