<?xml version="1.0" encoding="utf-8"?>
<!-- Generator: Adobe Illustrator 16.0.5, SVG Export Plug-In . SVG Version: 6.00 Build 0)  -->
<!DOCTYPE svg PUBLIC "-//W3C//DTD SVG 1.1//EN" "http://www.w3.org/Graphics/SVG/1.1/DTD/svg11.dtd">
<svg version="1.1" xmlns="http://www.w3.org/2000/svg" xmlns:xlink="http://www.w3.org/1999/xlink" x="0px" y="0px" width="300px"
	 height="100px" viewBox="0 0 300 100" enable-background="new 0 0 300 100" xml:space="preserve">
<g id="line">
	<polyline fill="none" stroke="#206095" stroke-width="4" stroke-miterlimit="10" points="50,46.966 60.558,47.36 82.096,43.814 
		103.211,34.75 113.769,21.746 124.326,11.5 134.884,22.14 145.441,27.657 157.688,39.479 162.757,39.085 168.246,42.632 
		173.313,44.996 178.804,44.602 184.294,43.42 189.361,48.149 194.852,49.331 199.919,50.119 205.408,45.784 210.477,48.542 
		215.967,48.542 221.035,54.06 226.524,51.695 232.015,55.636 237.082,56.03 242.572,56.03 245.105,56.818 247.64,57.213 
		250.596,58 	"/>
</g>
<g id="balls">
	<circle fill="#FF9933" cx="50.5" cy="47" r="5"/>
	<circle fill="#FF9933" cx="250.5" cy="58" r="5"/>
</g>
<g id="text">
	<g>
		<path fill="#206095" d="M8.274,68.965v-1.351l1.386-1.278c2.755-2.557,4.051-3.961,4.069-5.51c0-1.044-0.558-1.963-2.089-1.963
			c-1.026,0-1.909,0.523-2.502,0.973L8.49,58.27c0.846-0.684,2.125-1.206,3.601-1.206c2.593,0,3.853,1.638,3.853,3.547
			c0,2.053-1.476,3.709-3.511,5.6l-1.026,0.882v0.037h4.808v1.836H8.274z"/>
		<path fill="#206095" d="M17.292,71.144c0.486-1.368,0.972-3.259,1.207-4.753l2.323-0.181c-0.504,1.692-1.314,3.638-2.017,4.79
			L17.292,71.144z"/>
		<path fill="#206095" d="M30.435,63.041c0,3.764-1.477,6.122-4.267,6.122c-2.701,0-4.141-2.448-4.159-6.015
			c0-3.637,1.548-6.085,4.285-6.085C29.12,57.063,30.435,59.584,30.435,63.041z M24.241,63.148
			c-0.018,2.846,0.774,4.322,1.999,4.322c1.296,0,1.981-1.585,1.981-4.394c0-2.719-0.648-4.321-1.981-4.321
			C25.051,58.756,24.223,60.215,24.241,63.148z"/>
		<path fill="#206095" d="M38.948,58.828c-0.324,0-0.684,0-1.134,0.054c-2.449,0.288-3.637,1.8-3.925,3.421h0.054
			c0.576-0.666,1.458-1.135,2.629-1.135c2.017,0,3.583,1.441,3.583,3.818c0,2.232-1.639,4.177-4.124,4.177
			c-2.845,0-4.411-2.161-4.411-5.042c0-2.25,0.81-4.087,2.035-5.258c1.08-1.008,2.485-1.584,4.159-1.729
			c0.486-0.053,0.846-0.053,1.116-0.035L38.948,58.828z M37.904,65.111c0-1.35-0.738-2.322-2.035-2.322
			c-0.828,0-1.566,0.504-1.908,1.207c-0.09,0.18-0.144,0.396-0.144,0.701c0.036,1.549,0.774,2.809,2.197,2.809
			C37.166,67.506,37.904,66.516,37.904,65.111z"/>
		<path fill="#206095" d="M41.916,66.678c0.45,0.271,1.549,0.721,2.665,0.721c1.692,0,2.377-0.955,2.359-1.873
			c0-1.387-1.296-1.98-2.647-1.98h-1.026v-1.62h0.99c1.026,0,2.323-0.468,2.323-1.639c0-0.792-0.594-1.458-1.873-1.458
			c-0.954,0-1.909,0.414-2.395,0.738l-0.504-1.604c0.667-0.467,1.963-0.899,3.367-0.899c2.413,0,3.655,1.332,3.655,2.862
			c0,1.225-0.72,2.232-2.16,2.737v0.036c1.422,0.252,2.575,1.332,2.575,2.916c0,1.98-1.657,3.548-4.556,3.548
			c-1.422,0-2.646-0.396-3.277-0.811L41.916,66.678z"/>
		<path fill="#206095" d="M50.484,71.144c0.486-1.368,0.972-3.259,1.207-4.753l2.322-0.181c-0.504,1.692-1.314,3.638-2.017,4.79
			L50.484,71.144z"/>
		<path fill="#206095" d="M63.626,63.041c0,3.764-1.476,6.122-4.267,6.122c-2.701,0-4.141-2.448-4.159-6.015
			c0-3.637,1.548-6.085,4.285-6.085C62.312,57.063,63.626,59.584,63.626,63.041z M57.433,63.148
			c-0.018,2.846,0.774,4.322,1.999,4.322c1.296,0,1.981-1.585,1.981-4.394c0-2.719-0.648-4.321-1.981-4.321
			C58.243,58.756,57.415,60.215,57.433,63.148z"/>
		<path fill="#206095" d="M73.274,63.041c0,3.764-1.477,6.122-4.267,6.122c-2.701,0-4.141-2.448-4.159-6.015
			c0-3.637,1.548-6.085,4.285-6.085C71.96,57.063,73.274,59.584,73.274,63.041z M67.081,63.148
			c-0.018,2.846,0.774,4.322,1.999,4.322c1.296,0,1.981-1.585,1.981-4.394c0-2.719-0.648-4.321-1.981-4.321
			C67.891,58.756,67.063,60.215,67.081,63.148z"/>
		<path fill="#206095" d="M82.922,63.041c0,3.764-1.476,6.122-4.267,6.122c-2.701,0-4.141-2.448-4.159-6.015
			c0-3.637,1.548-6.085,4.285-6.085C81.608,57.063,82.922,59.584,82.922,63.041z M76.729,63.148
			c-0.018,2.846,0.774,4.322,1.999,4.322c1.296,0,1.981-1.585,1.981-4.394c0-2.719-0.648-4.321-1.981-4.321
			C77.539,58.756,76.71,60.215,76.729,63.148z"/>
	</g>
	<g>
		<path fill="#206095" d="M218.749,66.326h-0.036l-2.143,1.08l-0.378-1.674l2.845-1.405h1.855v11.704h-2.144V66.326z"/>
		<path fill="#206095" d="M224.292,78.209c0.486-1.368,0.972-3.258,1.206-4.753l2.323-0.181c-0.505,1.693-1.314,3.638-2.017,4.79
			L224.292,78.209z"/>
		<path fill="#206095" d="M229.17,76.031V74.68l1.387-1.277c2.755-2.557,4.051-3.961,4.069-5.51c0-1.045-0.558-1.963-2.089-1.963
			c-1.026,0-1.908,0.521-2.502,0.973l-0.648-1.566c0.846-0.685,2.124-1.207,3.601-1.207c2.593,0,3.853,1.639,3.853,3.547
			c0,2.053-1.476,3.709-3.51,5.6l-1.027,0.883v0.036h4.808v1.837H229.17z"/>
		<path fill="#206095" d="M238.656,73.023c0-1.458,0.846-2.448,2.196-3.043v-0.054c-1.224-0.595-1.782-1.566-1.782-2.593
			c0-1.908,1.692-3.205,3.907-3.205c2.521,0,3.673,1.513,3.673,2.953c0,0.99-0.521,2.017-1.801,2.646v0.055
			c1.279,0.486,2.232,1.494,2.232,2.953c0,2.088-1.764,3.492-4.267,3.492C240.078,76.229,238.656,74.662,238.656,73.023z
			 M244.832,72.916c0-1.188-0.883-1.837-2.179-2.197c-1.099,0.324-1.729,1.08-1.729,2.053c-0.036,0.99,0.72,1.891,1.962,1.891
			C244.058,74.662,244.832,73.924,244.832,72.916z M241.177,67.244c0,0.954,0.792,1.53,1.909,1.836
			c0.792-0.233,1.458-0.882,1.458-1.764c0-0.811-0.486-1.656-1.675-1.656C241.753,65.66,241.177,66.398,241.177,67.244z"/>
		<path fill="#206095" d="M255.902,66.164H251.4l-0.342,2.34c0.271-0.035,0.504-0.053,0.847-0.053c1.026,0,2.053,0.233,2.845,0.756
			c0.883,0.559,1.53,1.549,1.53,2.971c0,2.232-1.854,4.051-4.735,4.051c-1.35,0-2.484-0.342-3.097-0.684l0.45-1.675
			c0.504,0.271,1.512,0.612,2.574,0.612c1.297,0,2.539-0.738,2.539-2.143c0-1.332-0.99-2.215-3.331-2.215
			c-0.647,0-1.134,0.036-1.603,0.107l0.774-5.905h6.05V66.164z"/>
		<path fill="#206095" d="M257.484,78.209c0.486-1.368,0.972-3.258,1.206-4.753l2.322-0.181c-0.504,1.693-1.313,3.638-2.017,4.79
			L257.484,78.209z"/>
		<path fill="#206095" d="M270.627,70.107c0,3.763-1.477,6.121-4.268,6.121c-2.701,0-4.141-2.448-4.159-6.014
			c0-3.637,1.548-6.086,4.285-6.086C269.313,64.129,270.627,66.65,270.627,70.107z M264.433,70.215
			c-0.019,2.846,0.774,4.321,1.999,4.321c1.296,0,1.98-1.585,1.98-4.394c0-2.719-0.648-4.32-1.98-4.32
			C265.243,65.822,264.414,67.28,264.433,70.215z"/>
		<path fill="#206095" d="M280.274,70.107c0,3.763-1.477,6.121-4.267,6.121c-2.701,0-4.142-2.448-4.16-6.014
			c0-3.637,1.549-6.086,4.285-6.086C278.96,64.129,280.274,66.65,280.274,70.107z M274.08,70.215
			c-0.018,2.846,0.775,4.321,1.999,4.321c1.296,0,1.981-1.585,1.981-4.394c0-2.719-0.648-4.32-1.981-4.32
			C274.891,65.822,274.063,67.28,274.08,70.215z"/>
		<path fill="#206095" d="M289.922,70.107c0,3.763-1.476,6.121-4.267,6.121c-2.7,0-4.142-2.448-4.159-6.014
			c0-3.637,1.549-6.086,4.285-6.086C288.607,64.129,289.922,66.65,289.922,70.107z M283.729,70.215
			c-0.018,2.846,0.774,4.321,1.998,4.321c1.297,0,1.981-1.585,1.981-4.394c0-2.719-0.648-4.32-1.981-4.32
			C284.539,65.822,283.711,67.28,283.729,70.215z"/>
	</g>
	<g>
		<path fill="#206095" d="M34.875,84.988h-0.036l-2.035,1.098l-0.306-1.205l2.557-1.369h1.351v11.703h-1.531V84.988z"/>
		<path fill="#206095" d="M41.588,94.1c0.342,0.035,0.738,0,1.278-0.055c0.918-0.126,1.783-0.504,2.449-1.135
			c0.774-0.701,1.333-1.729,1.548-3.114H46.81c-0.648,0.792-1.584,1.261-2.755,1.261c-2.107,0-3.457-1.585-3.457-3.584
			c0-2.215,1.603-4.158,3.997-4.158c2.395,0,3.871,1.943,3.871,4.933c0,2.575-0.864,4.376-2.017,5.491
			c-0.9,0.883-2.143,1.423-3.403,1.566c-0.576,0.091-1.081,0.109-1.458,0.091V94.1z M42.164,87.365c0,1.458,0.882,2.484,2.25,2.484
			c1.063,0,1.891-0.521,2.305-1.225c0.09-0.144,0.144-0.324,0.144-0.576c0-1.998-0.738-3.529-2.395-3.529
			C43.118,84.52,42.164,85.709,42.164,87.365z"/>
		<path fill="#206095" d="M49.759,92.244c0-1.477,0.882-2.521,2.323-3.133l-0.018-0.054c-1.296-0.612-1.854-1.62-1.854-2.629
			c0-1.854,1.566-3.114,3.619-3.114c2.269,0,3.403,1.422,3.403,2.881c0,0.99-0.486,2.052-1.927,2.736v0.054
			c1.458,0.576,2.358,1.603,2.358,3.024c0,2.035-1.746,3.404-3.979,3.404C51.236,95.414,49.759,93.955,49.759,92.244z
			 M56.062,92.172c0-1.422-0.991-2.105-2.575-2.557c-1.369,0.396-2.107,1.297-2.107,2.413c-0.054,1.188,0.846,2.233,2.341,2.233
			C55.143,94.262,56.062,93.379,56.062,92.172z M51.704,86.32c0,1.171,0.882,1.801,2.232,2.161c1.008-0.343,1.783-1.063,1.783-2.124
			c0-0.938-0.558-1.909-1.98-1.909C52.424,84.448,51.704,85.313,51.704,86.32z"/>
		<path fill="#206095" d="M62.577,84.988h-0.036l-2.035,1.098L60.2,84.881l2.557-1.369h1.351v11.703h-1.53V84.988z"/>
	</g>
	<g>
		<path fill="#206095" d="M230.455,95.215v-0.972l1.242-1.206c2.989-2.846,4.34-4.357,4.357-6.122c0-1.188-0.576-2.286-2.322-2.286
			c-1.063,0-1.945,0.539-2.484,0.99l-0.505-1.117c0.811-0.684,1.963-1.188,3.313-1.188c2.521,0,3.582,1.729,3.582,3.402
			c0,2.16-1.566,3.907-4.033,6.283l-0.936,0.865V93.9h5.258v1.314H230.455z"/>
		<path fill="#206095" d="M247.467,89.238c0,3.979-1.476,6.176-4.068,6.176c-2.287,0-3.836-2.143-3.871-6.015
			c0-3.925,1.692-6.085,4.068-6.085C246.063,83.314,247.467,85.51,247.467,89.238z M241.111,89.418c0,3.043,0.937,4.771,2.377,4.771
			c1.621,0,2.395-1.891,2.395-4.88c0-2.881-0.738-4.771-2.377-4.771C242.119,84.538,241.111,86.23,241.111,89.418z"/>
		<path fill="#206095" d="M252.361,84.988h-0.035l-2.035,1.098l-0.306-1.205l2.557-1.369h1.351v11.703h-1.531V84.988z"/>
		<path fill="#206095" d="M259.075,94.1c0.343,0.035,0.738,0,1.278-0.055c0.918-0.126,1.783-0.504,2.449-1.135
			c0.773-0.701,1.332-1.729,1.548-3.114h-0.054c-0.648,0.792-1.584,1.261-2.755,1.261c-2.106,0-3.457-1.585-3.457-3.584
			c0-2.215,1.603-4.158,3.997-4.158s3.871,1.943,3.871,4.933c0,2.575-0.864,4.376-2.017,5.491c-0.899,0.883-2.143,1.423-3.403,1.566
			c-0.576,0.091-1.08,0.109-1.458,0.091V94.1z M259.651,87.365c0,1.458,0.882,2.484,2.251,2.484c1.063,0,1.891-0.521,2.305-1.225
			c0.09-0.144,0.144-0.324,0.144-0.576c0-1.998-0.737-3.529-2.395-3.529C260.605,84.52,259.651,85.709,259.651,87.365z"/>
	</g>
</g>
</svg>
