<?xml version="1.0" encoding="utf-8"?>
<!-- Generator: Adobe Illustrator 22.1.0, SVG Export Plug-In . SVG Version: 6.00 Build 0)  -->
<svg version="1.1" id="Layer_1" xmlns="http://www.w3.org/2000/svg" xmlns:xlink="http://www.w3.org/1999/xlink" x="0px" y="0px"
	 viewBox="0 0 837.4 231.4" style="enable-background:new 0 0 837.4 231.4;" xml:space="preserve">
<style type="text/css">
	.st0{fill:#5A371D;}
	.st1{fill:#00722F;}
	.st2{fill:#0F8243;}
	.st3{fill:#D0D2D3;}
	.st4{fill:#D4D4D4;}
	.st5{fill:#EAEAEA;}
	.st6{fill:#A8BD3A;}
	.st7{fill:#379E43;}
	.st8{fill:#6CB743;}
</style>
<g>
	<polygon class="st0" points="546.4,210 541.8,210 544.1,161.7 546.4,113.3 548.7,161.7 551,210 	"/>
	<path class="st1" d="M546.5,68.8C546.5,68.8,546.4,68.8,546.5,68.8c-0.1,0-0.2,0-0.2,0s-35.1,39.6-35.1,59.1
		c0,19.6,15.7,35.4,35.1,35.4h0.1h0.1c19.4,0,35.1-15.8,35.1-35.4C581.6,108.4,546.5,68.8,546.5,68.8z"/>
	<path class="st2" d="M546.4,68.9C546.4,68.8,546.3,68.8,546.4,68.9c-0.1-0.1-35.2,39.5-35.2,59c0,19.6,15.7,35.4,35.1,35.4h0.1
		L546.4,68.9L546.4,68.9z"/>
</g>
<g>
	<polygon class="st0" points="634.2,213.6 624.4,213.6 629.3,166.1 634.2,118.6 639.1,166.1 644,213.6 	"/>
	<path class="st1" d="M683.7,105.9c-0.6-3.6-2.4-6.7-4.8-9c1.8-4,2.4-8.5,1.6-13c-2.2-12.1-13.8-20.1-25.9-17.9
		c-0.7,0.1-1.4,0.3-2.1,0.5c-4.8-4.9-11-8.1-17.9-9.3c-3.7-0.7-7.7-0.7-11.6,0c-14.5,2.6-25,14.3-26.9,28.1
		c-10.7,3.7-17.5,14.7-15.4,26.2c1.6,9,8.3,15.9,16.6,18.2c-0.7,2.9-0.8,6.1-0.3,9.2c2.2,12.1,13.8,20.2,26,18c4.5-0.8,8.5-3,11.6-6
		c0.1-0.1,0.1-0.1,0.2-0.2c5.6,3.4,12.4,4.9,19.3,3.6c14.8-2.7,24.6-16.6,22.4-31.4C681.9,119.3,685,112.7,683.7,105.9z"/>
	<path class="st2" d="M634.7,57.1c-3.7-0.7-7.7-0.7-11.6,0c-14.5,2.6-25,14.3-26.9,28.1c-10.7,3.7-17.5,14.7-15.4,26.2
		c1.6,9,8.3,15.9,16.6,18.2c-0.7,2.9-0.8,6.1-0.3,9.2c2.2,12.1,13.8,20.2,26,18c4.5-0.8,8.5-3,11.6-6L634.7,57.1L634.7,57.1z"/>
</g>
<path class="st3" d="M495.6,160c0-2.1-1.7-3.8-3.8-3.8l-127.6,0.1v-20.9c0-4.2-3.4-7.6-7.6-7.6l-30.8-0.1l-6.1-71.1
	c1.2-0.3,2.2-1.3,2.2-2.6c0-1.5-1.2-2.7-2.7-2.7h-15.7c-1.5,0-2.7,1.2-2.7,2.7c0,1.4,1,2.4,2.3,2.7l-7.6,54.3h-9.1
	c-1.3,0-2.4,1.1-2.4,2.4V124h-64.3c-2.7,0-5-2.1-5.1-4.8l-3.5-54.1c-0.1-1.7-1.5-3.1-3.3-3.1H185c-1.7,0-3.2,1.3-3.3,3l-4.1,46
	h-55.5l-1.5-12.9H91.4c-2.4,0-4.3,1.9-4.3,4.3v20.2h-4.7c-2.6,0-4.7-1.9-5-4.5l-6.5-58.3H72c2.2,0,4.1-1.8,4.1-4.1v-3.1
	c0-2.2-1.8-4.1-4.1-4.1H27.5c-2.2,0-4.1,1.8-4.1,4.1v3.1c0,2.2,1.8,4.1,4.1,4.1h1.3L8.3,219.5l487.3-0.3L495.6,160L495.6,160z"/>
<path class="st4" d="M195.4,59.4c4,0,7.2-3,7.6-6.8c3.7-0.6,6.6-3.6,6.8-7.4c0.3,0.2,0.7,0.3,1,0.5c4.2,1.5,8.8-0.6,10.3-4.7
	c0.9-2.3,0.6-4.7-0.5-6.6c1.9-0.8,3.5-2.4,4.3-4.5c0.5-1.3,0.6-2.6,0.4-3.9c3.2,1,6.7-0.6,7.9-3.8s-0.5-6.8-3.7-8
	c-2.5-0.9-5.1-0.2-6.8,1.6c-0.6-0.6-1.4-1-2.3-1.3c-3.7-1.4-7.9,0.5-9.2,4.2c-0.4,1.2-0.5,2.4-0.4,3.5c-0.6-0.4-1.2-0.8-1.9-1
	c-4.2-1.5-8.8,0.6-10.3,4.7c-0.8,2.1-0.6,4.3,0.3,6.2c-3.3,0.6-5.9,3.5-5.9,6.9c0,1.4,0.4,2.7,1.1,3.8c-0.2,0.6-0.2,1.2-0.3,1.8
	c-3.4,0.8-5.9,3.7-5.9,7.3C187.8,56.1,191.2,59.4,195.4,59.4"/>
<path class="st4" d="M312,49.6c3.3-0.2,5.9-2.9,6-6.2c3.2-0.7,5.5-3.7,5.3-7c-0.1-1.2-0.5-2.2-1-3.1c2.8-0.3,4.9-2.8,4.7-5.6
	c-0.2-2.9-2.8-5.1-5.7-4.9c-2.2,0.2-4,1.6-4.7,3.6c-0.7-0.2-1.5-0.3-2.2-0.3c-3.4,0.2-5.9,3.1-5.7,6.4c0.1,1.2,0.5,2.3,1.2,3.1
	c-0.1,0.5-0.1,1-0.1,1.5c-2.8,0.8-4.8,3.5-4.6,6.5C305.4,47.2,308.5,49.8,312,49.6"/>
<path class="st3" d="M42.8,44.5c3.8,0,7-2.1,8.7-5.2c0.9,0.8,2,1.5,3.3,2c5.4,2,11.3-0.7,13.3-6c1-2.6,0.8-5.4-0.3-7.8
	c0.9-1,1.7-2.1,2.2-3.5c0.6-1.7,0.7-3.5,0.5-5.2c1.9-1.2,3.4-2.9,4.3-5.1c2-5.3-0.8-11.2-6.1-13.1c-5.1-1.8-10.6,0.5-12.9,5.2
	C54.2,6.7,53,8,52.3,9.6c-1-0.4-2.2-0.6-3.4-0.6c-5.1,0-9.3,4.1-9.3,9.1c0,1.8,0.6,3.5,1.5,4.9c-0.2,0.7-0.3,1.5-0.4,2.3
	c-4.4,1-7.7,4.8-7.7,9.4C32.9,40.1,37.3,44.5,42.8,44.5"/>
<g>
	<polygon class="st0" points="435.3,213.6 433,213.6 434.1,185.5 435.3,157.3 436.5,185.5 437.7,213.6 	"/>
	<ellipse class="st1" cx="435.5" cy="154.7" rx="12.1" ry="30.4"/>
	<path class="st2" d="M435.5,185.1c-6.7,0-12.1-13.6-12.1-30.4s5.4-30.4,12.1-30.4V185.1z"/>
</g>
<g>
	<circle class="st2" cx="583.3" cy="192.6" r="23.3"/>
	<circle class="st2" cx="552.8" cy="191.5" r="24.4"/>
	<circle class="st2" cx="530.7" cy="195.1" r="20.8"/>
	<circle class="st2" cx="466.7" cy="201.9" r="16.9"/>
	<circle class="st2" cx="622.2" cy="193.4" r="22.5"/>
	<circle class="st2" cx="686.2" cy="191.5" r="24.4"/>
	<circle class="st2" cx="774.8" cy="192.6" r="23.3"/>
	<circle class="st2" cx="744.3" cy="191.5" r="24.4"/>
	<circle class="st2" cx="714.7" cy="195.1" r="20.8"/>
	<circle class="st2" cx="656.2" cy="197.6" r="18.3"/>
	<circle class="st2" cx="811.2" cy="189.7" r="26"/>
</g>
<path class="st5" d="M396.9,102.1c3.1,0,5.7-1.7,7-4.2c0.8,0.7,1.7,1.2,2.7,1.6c4.4,1.6,9.2-0.6,10.8-4.9c0.8-2.1,0.7-4.4-0.2-6.3
	c0.8-0.8,1.4-1.7,1.8-2.8c0.5-1.4,0.6-2.8,0.4-4.2c1.5-0.9,2.8-2.3,3.5-4.1c1.6-4.3-0.6-9.1-5-10.7c-4.1-1.5-8.7,0.4-10.5,4.2
	c-1.3,0.7-2.3,1.8-2.8,3.1c-0.9-0.3-1.8-0.5-2.7-0.5c-4.2,0-7.5,3.3-7.5,7.4c0,1.5,0.4,2.8,1.2,4c-0.2,0.6-0.3,1.2-0.3,1.9
	c-3.6,0.8-6.2,3.9-6.2,7.7C388.9,98.6,392.4,102.1,396.9,102.1"/>
<path class="st5" d="M739.7,202.8h-41.8V189l-16.8-14.3l-17.4,13.8v11.2h-16v-28.5c0-2.7-2.2-4.9-4.9-4.9h-30.7
	c-2.7,0-4.9,2.2-4.9,4.9v32.1h-12.3v-13.8h-13.3v8.5H561v-16.5l-9.9-6.9c-3.1-2.2-7.2-2.2-10.2,0l-9.7,6.9v10.2h-14.7v-14.9h-8.7
	v14.9h-4.2v-18.5c0-1.8-1.5-3.3-3.3-3.3h-19.7c-1.8,0-3.3,1.5-3.3,3.3v11.2l-12.3-0.2v-11.5h-3.6v-27.9h-9v27.9h-4.7v-27.9h-9v27.9
	h-4v11.5h-12l-3.7-72c1.3,0,2.4-1.1,2.4-2.4V107c0-1.3-1.1-2.4-2.4-2.4h-33.4c-1.3,0-2.4,1.1-2.4,2.4v2.8c0,1.3,1.1,2.4,2.4,2.4h0.3
	l-2.5,53.7h-10.7v-30.5l-40.9,25.3v-25.3L291,160.6v-25.3l-20.1,12.4l-5.1-52.5v-0.5c0-1.7-1.1-3.2-2.6-3.2h-0.4h-30.3h-0.2
	c-1.4,0-2.6,1.4-2.6,3.2v0.4l-4.5,52.3h-20.1V136c0-2-1.6-3.6-3.6-3.6h-8.3c-2,0-3.6,1.6-3.6,3.6l0.1,31c0,1.8-1.4,3.2-3.2,3.2h-5.2
	c-1.8,0-3.2-1.4-3.2-3.2v-15.3c0-1.4-1.2-2.6-2.6-2.6h-9.2v-59c0-1.4-1.1-2.5-2.5-2.5h-12.3v-2.1c0-1.4-1.1-2.5-2.5-2.5h-1.7V34.9
	c0-1.4-1.1-2.5-2.5-2.5h-6.2c-1.4,0-2.5,1.1-2.5,2.5V83H132V34.9c0-1.4-1.1-2.5-2.5-2.5h-6.2c-1.4,0-2.5,1.1-2.5,2.5V83h-1.7
	c-1.4,0-2.5,1.1-2.5,2.5v2.1h-12.3c-1.4,0-2.5,1.1-2.5,2.5v29.8l-74.2,48.9c-0.9,0.4-1.6,1.3-1.6,2.3v19.5L0,201.8v19.6l189.9-1.2h6
	h60.5l0,0l220.9-0.4v0.4h358v-3.7L739.7,202.8z M93.9,198.1H80.5v-20.9h13.3L93.9,198.1L93.9,198.1z M112.2,198.1H98.9v-20.9h13.3
	C112.2,177.2,112.2,198.1,112.2,198.1z M130.1,198.1h-13.3v-20.9h13.3V198.1z M148.8,198.1h-13.3v-20.9h13.3V198.1z M280.8,201.8
	l-11.8-0.2v-15.7h11.8V201.8z M317.9,201.8H305v-15.9h12.9V201.8z M677.3,203.2h-6v-8.9h6V203.2z M690.8,203.2h-6v-8.9h6V203.2z"/>
<rect x="342.1" y="185.9" class="st5" width="12.9" height="15.9"/>
<rect y="210" class="st6" width="837.4" height="21.4"/>
<g>
	<polygon class="st0" points="783.5,213.6 776.8,213.6 780.2,143.1 783.5,72.6 786.8,143.1 790.2,213.6 	"/>
	<path class="st1" d="M783.6,3.6L783.6,3.6c-0.2,0-0.2,0-0.2,0s-51.3,57.7-51.3,86.2s22.9,51.6,51.3,51.6h0.1h0.1
		c28.3,0,51.3-23.1,51.3-51.6C834.9,61.3,783.6,3.6,783.6,3.6z"/>
	<path class="st2" d="M783.5,3.8C783.4,3.7,783.4,3.7,783.5,3.8c-0.1-0.1-51.4,57.6-51.4,86.1s22.9,51.6,51.3,51.6h0.1L783.5,3.8
		L783.5,3.8z"/>
</g>
<g>
	<polygon class="st0" points="475.7,213.6 472.7,213.6 474.2,181.7 475.7,149.7 477.2,181.7 478.7,213.6 	"/>
	<path class="st1" d="M475.8,118.5C475.8,118.5,475.7,118.6,475.8,118.5c-0.1,0-0.1,0-0.1,0s-23.2,26.1-23.2,39.1
		c0,12.9,10.4,23.4,23.2,23.4c0,0,0,0,0.1,0c0,0,0,0,0.1,0c12.8,0,23.2-10.5,23.2-23.4C499,144.7,475.8,118.5,475.8,118.5z"/>
	<path class="st2" d="M475.7,118.6C475.7,118.6,475.7,118.5,475.7,118.6c-0.1-0.1-23.3,26.1-23.3,39s10.4,23.4,23.2,23.4
		c0,0,0,0,0.1,0L475.7,118.6L475.7,118.6z"/>
</g>
<g>
	<polygon class="st0" points="713.2,213.6 708.6,213.6 710.9,159 713.2,104.3 715.5,159 717.8,213.6 	"/>
	<ellipse class="st1" cx="713.6" cy="99.3" rx="23.6" ry="58.9"/>
	<path class="st2" d="M713.6,158.2c-13,0-23.6-26.4-23.6-58.9s10.6-58.9,23.6-58.9V158.2z"/>
</g>
<g>
	<g>
		<polygon class="st0" points="741.4,213.6 736.8,213.6 739.1,165.8 741.4,118 743.6,165.8 745.9,213.6 		"/>
	</g>
	<ellipse class="st7" cx="741.4" cy="137.5" rx="36" ry="36"/>
	<path class="st8" d="M741.4,101.4c-19.9,0-36,16.1-36,36s16.1,36,36,36V101.4z"/>
</g>
<g>
	<polygon class="st0" points="811.2,213.6 806.6,213.6 808.9,158.4 811.2,103.1 813.5,158.4 815.8,213.6 	"/>
	<ellipse class="st7" cx="811.6" cy="98.1" rx="23.8" ry="59.6"/>
	<path class="st8" d="M811.6,157.7c-13.1,0-23.8-26.7-23.8-59.6s10.7-59.6,23.8-59.6V157.7z"/>
</g>
<g>
	<polygon class="st0" points="599.7,213.6 596.2,213.6 597.9,177.2 599.7,140.8 601.4,177.2 603.1,213.6 	"/>
	<path class="st7" d="M599.7,105.2C599.7,105.2,599.7,105.3,599.7,105.2C599.6,105.2,599.6,105.2,599.7,105.2
		c-0.1,0-26.6,29.8-26.6,44.5s11.8,26.7,26.5,26.7c0,0,0,0,0.1,0s0,0,0.1,0c14.6,0,26.5-11.9,26.5-26.7
		C626.2,135,599.7,105.2,599.7,105.2z"/>
	<path class="st8" d="M599.7,105.3C599.6,105.3,599.6,105.2,599.7,105.3c-0.1-0.1-26.5,29.7-26.5,44.5c0,14.7,11.8,26.7,26.5,26.7
		c0,0,0,0,0.1,0L599.7,105.3L599.7,105.3z"/>
</g>
<g>
	<polygon class="st0" points="404.6,213.6 402.6,213.6 403.6,192.2 404.6,170.8 405.6,192.2 406.7,213.6 	"/>
	<path class="st7" d="M404.7,149.9C404.7,149.9,404.6,149.9,404.7,149.9C404.6,149.9,404.6,149.9,404.7,149.9
		c-0.1,0-15.6,17.5-15.6,26.2s7,15.7,15.6,15.7l0,0l0,0c8.6,0,15.6-7,15.6-15.7C420.2,167.4,404.7,149.9,404.7,149.9z"/>
	<path class="st8" d="M404.6,149.9L404.6,149.9c0,0-15.6,17.5-15.6,26.1c0,8.7,7,15.7,15.6,15.7l0,0V149.9z"/>
</g>
<g>
	<polygon class="st0" points="251.9,213.6 249.9,213.6 250.9,192.2 251.9,170.8 253,192.2 254,213.6 	"/>
	<path class="st7" d="M252,149.9L252,149.9C251.9,149.9,251.9,149.9,252,149.9c-0.1,0-15.6,17.5-15.6,26.2s7,15.7,15.6,15.7l0,0l0,0
		c8.6,0,15.6-7,15.6-15.7C267.5,167.4,252,149.9,252,149.9z"/>
	<path class="st8" d="M251.9,149.9L251.9,149.9c0,0-15.6,17.5-15.6,26.1c0,8.7,7,15.7,15.6,15.7l0,0V149.9z"/>
</g>
<g>
	<polygon class="st0" points="527,213.6 521.9,213.6 524.4,188.9 527,164.2 529.5,188.9 532.1,213.6 	"/>
	<path class="st7" d="M552.8,157.5c-0.3-1.9-1.2-3.5-2.5-4.7c0.9-2.1,1.3-4.4,0.8-6.8c-1.1-6.3-7.2-10.5-13.5-9.3
		c-0.4,0.1-0.7,0.2-1.1,0.3c-2.5-2.5-5.7-4.2-9.3-4.9c-2-0.3-4-0.4-6,0c-7.5,1.4-13,7.4-14,14.6c-5.6,1.9-9.1,7.6-8,13.6
		c0.9,4.7,4.3,8.3,8.6,9.5c-0.4,1.5-0.4,3.2-0.1,4.8c1.1,6.3,7.2,10.5,13.5,9.4c2.4-0.4,4.4-1.6,6-3.1l0.1-0.1
		c2.9,1.8,6.4,2.5,10.1,1.9c7.7-1.4,12.8-8.7,11.7-16.3C551.8,164.5,553.4,161.1,552.8,157.5z"/>
	<path class="st8" d="M527.2,132.1c-1.9-0.3-4-0.4-6,0c-7.5,1.4-13,7.4-14,14.6c-5.6,1.9-9.1,7.6-8,13.6c0.9,4.7,4.3,8.3,8.6,9.5
		c-0.4,1.5-0.4,3.2-0.1,4.8c1.1,6.3,7.2,10.5,13.5,9.4c2.4-0.4,4.4-1.6,6-3.1V132.1z"/>
</g>
<g>
	<g>
		<polygon class="st0" points="669.5,213.6 665.8,213.6 667.7,175.1 669.5,136.6 671.3,175.1 673.1,213.6 		"/>
	</g>
	<g>
		<path class="st7" d="M640.5,154.8c0,16,13,29,29,29v-58C653.5,125.7,640.5,138.7,640.5,154.8z"/>
		<path class="st7" d="M669.5,125.7v58c16,0,29-13,29-29S685.5,125.7,669.5,125.7z"/>
	</g>
	<path class="st8" d="M669.5,125.7c-16,0-29,13-29,29s13,29,29,29V125.7z"/>
</g>
<g>
	<polygon class="st0" points="336.6,213.6 333.2,213.6 334.9,197 336.6,180.4 338.3,197 340,213.6 	"/>
	<path class="st1" d="M353.9,176c-0.2-1.2-0.8-2.3-1.7-3.2c0.6-1.4,0.8-3,0.5-4.6c-0.8-4.2-4.8-7-9.1-6.3c-0.2,0-0.5,0.1-0.7,0.2
		c-1.7-1.7-3.9-2.8-6.2-3.3c-1.3-0.2-2.7-0.2-4.1,0c-5.1,0.9-8.7,5-9.4,9.8c-3.7,1.3-6.1,5.1-5.4,9.1c0.6,3.2,2.9,5.6,5.8,6.4
		c-0.2,1-0.3,2.1-0.1,3.2c0.8,4.2,4.8,7.1,9.1,6.3c1.6-0.3,3-1,4-2.1c0,0,0,0,0.1-0.1c2,1.2,4.3,1.7,6.8,1.3c5.2-0.9,8.6-5.8,7.8-11
		C353.3,180.6,354.3,178.3,353.9,176z"/>
	<path class="st2" d="M336.7,158.9c-1.3-0.2-2.7-0.2-4.1,0c-5.1,0.9-8.7,5-9.4,9.8c-3.7,1.3-6.1,5.1-5.4,9.1
		c0.6,3.2,2.9,5.6,5.8,6.4c-0.2,1-0.3,2.1-0.1,3.2c0.8,4.2,4.8,7.1,9.1,6.3c1.6-0.3,3-1,4-2.1v-32.7H336.7z"/>
</g>
<g>
	<g>
		<polygon class="st0" points="226.9,213.6 225.1,213.6 226,194.6 226.9,175.5 227.9,194.6 228.8,213.6 		"/>
	</g>
	<path class="st7" d="M226.9,170.1c-7.9,0-14.4,6.4-14.4,14.4c0,7.9,6.4,14.4,14.4,14.4c7.9,0,14.4-6.4,14.4-14.4
		C241.3,176.6,234.9,170.1,226.9,170.1z"/>
	<path class="st8" d="M226.9,170.1c-7.9,0-14.4,6.4-14.4,14.4c0,7.9,6.4,14.4,14.4,14.4V170.1z"/>
</g>
<g>
	<polygon class="st0" points="359,213.6 357.1,213.6 358,190.2 359,166.8 360,190.2 361,213.6 	"/>
	<path class="st7" d="M359.2,139.4c-3,0-10.1,11.3-10.1,25.2s4.5,25.2,10.1,25.2s10.1-11.3,10.1-25.2S362.2,139.4,359.2,139.4z"/>
	<path class="st8" d="M359.2,139.4c-3,0-10.1,11.3-10.1,25.2s4.5,25.2,10.1,25.2V139.4z"/>
</g>
<g>
	<g>
		<circle class="st7" cx="688.2" cy="211.6" r="10.4"/>
		<circle class="st7" cx="724.9" cy="213.5" r="8.6"/>
		<circle class="st7" cx="713.7" cy="213.1" r="9"/>
		<circle class="st7" cx="700.1" cy="214.4" r="7.7"/>
		<circle class="st7" cx="674" cy="215.3" r="6.7"/>
		<circle class="st7" cx="739.2" cy="213.8" r="8.3"/>
		<circle class="st7" cx="765.8" cy="211.7" r="10.4"/>
		<circle class="st7" cx="801.4" cy="213.5" r="8.6"/>
		<circle class="st7" cx="790.2" cy="213.1" r="9"/>
		<circle class="st7" cx="779.2" cy="214.4" r="7.7"/>
		<circle class="st7" cx="751.7" cy="215.3" r="6.7"/>
		<circle class="st7" cx="814.5" cy="215" r="7"/>
		<circle class="st7" cx="826.4" cy="211.1" r="11"/>
	</g>
	<g>
		<circle class="st7" cx="522.9" cy="211.6" r="10.4"/>
		<circle class="st7" cx="559.6" cy="213.5" r="8.6"/>
		<circle class="st7" cx="548.4" cy="213.1" r="9"/>
		<circle class="st7" cx="534.8" cy="214.4" r="7.7"/>
		<circle class="st7" cx="508.7" cy="215.3" r="6.7"/>
		<circle class="st7" cx="574" cy="213.8" r="8.3"/>
		<circle class="st7" cx="600.5" cy="211.7" r="10.4"/>
		<circle class="st7" cx="636.1" cy="213.5" r="8.6"/>
		<circle class="st7" cx="624.9" cy="213.1" r="9"/>
		<circle class="st7" cx="614" cy="214.4" r="7.7"/>
		<circle class="st7" cx="586.5" cy="215.3" r="6.7"/>
		<circle class="st7" cx="649.2" cy="215" r="7"/>
		<circle class="st7" cx="661.1" cy="213.1" r="9"/>
	</g>
	<g>
		<circle class="st7" cx="356.2" cy="211.6" r="10.4"/>
		<circle class="st7" cx="392.9" cy="213.5" r="8.6"/>
		<circle class="st7" cx="381.7" cy="213.1" r="9"/>
		<circle class="st7" cx="368.1" cy="214.4" r="7.7"/>
		<circle class="st7" cx="341.9" cy="215.3" r="6.7"/>
		<circle class="st7" cx="407.2" cy="213.8" r="8.3"/>
		<circle class="st7" cx="433.8" cy="211.7" r="10.4"/>
		<circle class="st7" cx="469.4" cy="213.5" r="8.6"/>
		<circle class="st7" cx="458.1" cy="213.1" r="9"/>
		<circle class="st7" cx="447.2" cy="214.4" r="7.7"/>
		<circle class="st7" cx="419.7" cy="215.3" r="6.7"/>
		<circle class="st7" cx="482.5" cy="215" r="7"/>
		<circle class="st7" cx="494.4" cy="213.1" r="9"/>
	</g>
	<g>
		<circle class="st7" cx="190.9" cy="211.6" r="10.4"/>
		<circle class="st7" cx="227.6" cy="213.5" r="8.6"/>
		<circle class="st7" cx="216.4" cy="213.1" r="9"/>
		<circle class="st7" cx="202.8" cy="214.4" r="7.7"/>
		<circle class="st7" cx="176.7" cy="215.3" r="6.7"/>
		<circle class="st7" cx="241.9" cy="213.8" r="8.3"/>
		<circle class="st7" cx="268.5" cy="211.7" r="10.4"/>
		<circle class="st7" cx="304.1" cy="213.5" r="8.6"/>
		<circle class="st7" cx="292.9" cy="213.1" r="9"/>
		<circle class="st7" cx="281.9" cy="214.4" r="7.7"/>
		<ellipse transform="matrix(0.6 -0.8 0.8 0.6 -70.4331 289.7205)" class="st7" cx="254.5" cy="215.3" rx="6.7" ry="6.7"/>
		<circle class="st7" cx="317.2" cy="215" r="7"/>
		<circle class="st7" cx="329.1" cy="213.1" r="9"/>
	</g>
	<g>
		<circle class="st7" cx="22.8" cy="211.6" r="9.1"/>
		<circle class="st7" cx="59.5" cy="213.5" r="8.6"/>
		<circle class="st7" cx="48.3" cy="213.1" r="9"/>
		<circle class="st7" cx="34.7" cy="214.4" r="7.7"/>
		<circle class="st7" cx="8.5" cy="215.3" r="6.7"/>
		<circle class="st7" cx="73.8" cy="213.8" r="8.3"/>
		<circle class="st7" cx="100.4" cy="211.7" r="10.4"/>
		<circle class="st7" cx="136" cy="213.5" r="8.6"/>
		<circle class="st7" cx="124.7" cy="213.1" r="9"/>
		<circle class="st7" cx="113.8" cy="214.4" r="7.7"/>
		<circle class="st7" cx="86.3" cy="215.3" r="6.7"/>
		<circle class="st7" cx="149.1" cy="215" r="7"/>
		<circle class="st7" cx="164" cy="213.1" r="9"/>
	</g>
</g>
</svg>
