<?xml version="1.0" encoding="utf-8"?>
<!-- Generator: Adobe Illustrator 22.1.0, SVG Export Plug-In . SVG Version: 6.00 Build 0)  -->
<svg version="1.1" id="Layer_1" xmlns="http://www.w3.org/2000/svg" xmlns:xlink="http://www.w3.org/1999/xlink" x="0px" y="0px"
	 viewBox="0 0 200 200" style="enable-background:new 0 0 200 200;" xml:space="preserve">
<style type="text/css">
	.st0{fill:#EAEAEA;}
	.st1{fill:#206095;stroke:#FF9933;stroke-width:3;stroke-miterlimit:10;}
	.st2{fill:#FFFFFF;stroke:#206095;stroke-width:2;stroke-miterlimit:10;}
	.st3{fill:#FFFFFF;}
	.st4{fill:#206095;}
	.st5{fill:#D0D2D3;stroke:#D0D2D3;stroke-width:2;stroke-miterlimit:10;}
	.st6{fill:none;stroke:#FF9933;stroke-width:2.5;stroke-miterlimit:10;}
	.st7{fill:none;stroke:#206095;stroke-miterlimit:10;}
	.st8{fill:none;stroke:#D0D2D3;stroke-width:0.75;stroke-miterlimit:10;}
	.st9{fill:#008080;}
	.st10{fill:#014462;}
	.st11{fill:#414042;}
	.st12{fill:none;stroke:#79A0BF;stroke-width:3;stroke-miterlimit:10;}
	.st13{fill:none;stroke:#206095;stroke-width:3;stroke-miterlimit:10;}
	.st14{fill:#0F8243;}
	.st15{enable-background:new    ;}
	.st16{fill:#6DBB94;}
	.st17{fill:#3DA470;}
	.st18{fill:none;stroke:#3DA470;stroke-width:3;stroke-miterlimit:10;}
	.st19{fill:none;stroke:#D0D2D3;stroke-width:4;stroke-miterlimit:10;}
	.st20{fill:none;stroke:#D0D2D3;stroke-width:2;stroke-miterlimit:10;}
	.st21{fill:#FF9933;}
	.st22{fill:none;stroke:#D0D2D3;stroke-width:6;stroke-miterlimit:10;}
	.st23{fill:none;stroke:#D0D2D3;stroke-width:3;stroke-miterlimit:10;}
	.st24{fill:#F88B2D;}
	.st25{fill:#5F7682;}
	.st26{fill:none;stroke:#FF9933;stroke-width:2;stroke-linecap:round;stroke-linejoin:round;stroke-miterlimit:10;}
	.st27{fill:#00A7A3;}
	.st28{fill:none;stroke:#FFFFFF;stroke-width:1.5;stroke-miterlimit:10;}
	.st29{fill:none;stroke:#FFFFFF;stroke-width:3;stroke-miterlimit:10;}
	.st30{fill:#2E99CC;}
	.st31{fill-rule:evenodd;clip-rule:evenodd;fill:#206095;}
	.st32{fill-rule:evenodd;clip-rule:evenodd;fill:#008080;}
	.st33{fill:#206095;stroke:#008080;stroke-width:4;stroke-miterlimit:10;}
	.st34{fill:none;stroke:#D0D2D3;stroke-width:0.75;stroke-miterlimit:10;stroke-dasharray:6;}
	.st35{fill:none;stroke:#206095;stroke-width:1.5;stroke-miterlimit:10;}
	.st36{fill:#DEE7EF;}
	.st37{fill:none;stroke:#FFFFFF;stroke-width:2;stroke-miterlimit:10;}
	.st38{fill:none;stroke:#0F8243;stroke-width:4;stroke-miterlimit:10;}
	.st39{fill:#86C6A6;}
	.st40{fill:none;stroke:#206095;stroke-width:2;stroke-miterlimit:10;}
	.st41{fill:#D2DFEA;}
	
		.st42{fill:none;stroke:#0F8243;stroke-width:2;stroke-linecap:round;stroke-linejoin:round;stroke-miterlimit:10;stroke-dasharray:4,8;}
	
		.st43{fill:none;stroke:#0F8243;stroke-width:2;stroke-linecap:round;stroke-linejoin:round;stroke-miterlimit:10;stroke-dasharray:3.8,8;}
	
		.st44{fill:none;stroke:#0F8243;stroke-width:2;stroke-linecap:round;stroke-linejoin:round;stroke-miterlimit:10;stroke-dasharray:3.8,5;}
	.st45{fill:#D32F2F;}
	.st46{fill:none;stroke:#FFFFFF;stroke-miterlimit:10;}
	
		.st47{fill:none;stroke:#0F8243;stroke-width:3;stroke-linecap:round;stroke-linejoin:round;stroke-miterlimit:10;stroke-dasharray:3.8,8;}
	
		.st48{fill:none;stroke:#0F8243;stroke-width:3;stroke-linecap:round;stroke-linejoin:round;stroke-miterlimit:10;stroke-dasharray:3.8,5;}
</style>
<path class="st9" d="M160.7,191.2c2.2,0,4-1.8,4-4V98.5h17.7l0,0c1.9-0.1,3.5-1.6,3.5-3.6c0-0.9-0.4-1.8-1-2.4l0,0l-0.1-0.1
	c0,0,0,0-0.1-0.1l-31.7-31.6V22.1c0-2-1.3-3.6-3.2-3.6l-15.9,0c-2,0-3.6,1.6-3.6,3.6l0,15.8L104.3,12c-2.8-2.9-3.4-3.4-5.1-3.4
	C97.5,8.6,97,9.1,94.1,12L73.8,32.2L47.4,58.5L13.7,92.3c0,0,0,0-0.1,0.1l-0.1,0.1l0,0c-0.6,0.6-1,1.5-1,2.4c0,1.9,1.5,3.5,3.5,3.6
	l0,0h17.7v88.8c0,2.2,1.8,4,4,4h44.2v-45.5c0-2.2,1.8-4,4-4h14.8H114c2.2,0,4,1.8,4,4v45.5H160.7z"/>
<g>
	<path class="st3" d="M127.5,90.3c0.1-0.1,0.1-0.2,0.2-0.2c2.6-3.4,4-7.4,4-11.7c0-10.5-8.5-19-19-19c-4.1,0-7.9,1.3-11.2,3.7
		c-0.1,0.1-0.2,0.3-0.3,0.8c0,0.4,0.1,0.9,0.3,1.1l6.2,6.2c1.5,1.5,2.4,3.6,2.4,5.8c0,2.2-0.8,4.2-2.4,5.8c-3.1,3.1-8.5,3.1-11.5,0
		L89,75.3L74.8,89.6c-0.6,0.6-0.9,1.4-0.9,2.2c0,0.8,0.3,1.6,0.9,2.2c1.2,1.2,3.2,1.2,4.4,0l10.5-10.5c0.4-0.4,1-0.6,1.5-0.6
		c1.2,0,2.2,1,2.2,2.2c0,0.6-0.2,1.1-0.6,1.5L82.2,97.1c-1.2,1.2-1.2,3.2,0,4.4c1.2,1.2,3.2,1.2,4.4,0l9.7-9.7
		c0.4-0.4,1-0.6,1.5-0.6c1.2,0,2.2,1,2.2,2.2c0,0.6-0.2,1.1-0.6,1.5l-9.7,9.7c-1.2,1.2-1.2,3.2,0,4.4c1.2,1.2,3.2,1.2,4.4,0
		l11.6-11.6c0.4-0.4,1-0.6,1.5-0.6c1.2,0,2.2,1,2.2,2.2c0,0.5-0.1,0.9-0.4,1.3l-11.9,11.9c-1.2,1.2-1.2,3,0,4.2c1.2,1.2,3,1.2,4.2,0
		l23.3-23.3C125.8,92.2,126.7,91.3,127.5,90.3z"/>
	<path class="st3" d="M100.2,79.9c0.2,0.1,0.3,0.2,0.5,0.3c1.3,0.5,2.9,0.2,3.9-0.8c1.4-1.4,1.4-3.7,0-5.1L93.8,63.5
		c-2.6-2.6-5.9-3.9-9.5-3.9c-0.9,0-1.8,0.1-2.7,0.3c-8.7,2-14.9,9.7-14.9,18.5c0,3.8,1.1,7.4,3.2,10.5c0.4-0.9,0.9-1.7,1.7-2.5
		l14.3-14.3l-3-3c-0.9-0.9-0.9-2.4-0.1-3.3c0.9-0.9,2.3-0.9,3.2,0l0.1,0.1l13.5,13.5C99.7,79.6,99.9,79.8,100.2,79.9z"/>
</g>
</svg>
