<?xml version="1.0" encoding="utf-8"?>
<!-- Generator: Adobe Illustrator 16.0.5, SVG Export Plug-In . SVG Version: 6.00 Build 0)  -->
<!DOCTYPE svg PUBLIC "-//W3C//DTD SVG 1.1//EN" "http://www.w3.org/Graphics/SVG/1.1/DTD/svg11.dtd">
<svg version="1.1" xmlns="http://www.w3.org/2000/svg" xmlns:xlink="http://www.w3.org/1999/xlink" x="0px" y="0px" width="300px"
	 height="100px" viewBox="0 0 300 100" enable-background="new 0 0 300 100" xml:space="preserve">
<g id="Layer_1">
	
		<polyline fill="none" stroke="#206095" stroke-width="4" stroke-linecap="round" stroke-linejoin="round" stroke-miterlimit="10" points="
		87.423,52.693 128.5,65.715 169.167,45.551 209.833,14.468 250.5,15.729 	"/>
</g>
<g id="text">
	<g>
		<path fill="#206095" d="M12.132,37.96c0.6,0.36,2.064,0.96,3.552,0.96c2.256,0,3.168-1.272,3.144-2.496
			c0-1.848-1.728-2.64-3.528-2.64h-1.368v-2.16h1.32c1.368,0,3.096-0.624,3.096-2.184c0-1.056-0.792-1.944-2.496-1.944
			c-1.272,0-2.544,0.552-3.192,0.984l-0.672-2.136c0.888-0.625,2.616-1.2,4.488-1.2c3.216,0,4.873,1.776,4.873,3.816
			c0,1.632-0.96,2.976-2.88,3.648v0.048c1.896,0.336,3.432,1.776,3.432,3.888c0,2.64-2.208,4.729-6.072,4.729
			c-1.896,0-3.528-0.528-4.369-1.08L12.132,37.96z"/>
		<path fill="#206095" d="M23.556,43.913c0.648-1.824,1.296-4.344,1.608-6.336l3.096-0.24c-0.672,2.256-1.752,4.849-2.688,6.385
			L23.556,43.913z"/>
		<path fill="#206095" d="M30.66,37.96c0.6,0.36,2.064,0.96,3.552,0.96c2.256,0,3.168-1.272,3.144-2.496
			c0-1.848-1.728-2.64-3.528-2.64h-1.368v-2.16h1.32c1.368,0,3.096-0.624,3.096-2.184c0-1.056-0.792-1.944-2.496-1.944
			c-1.272,0-2.544,0.552-3.192,0.984l-0.672-2.136c0.888-0.625,2.616-1.2,4.488-1.2c3.216,0,4.873,1.776,4.873,3.816
			c0,1.632-0.96,2.976-2.88,3.648v0.048c1.896,0.336,3.432,1.776,3.432,3.888c0,2.64-2.208,4.729-6.072,4.729
			c-1.896,0-3.528-0.528-4.369-1.08L30.66,37.96z"/>
		<path fill="#206095" d="M44.124,38.896c0.456,0.048,0.912,0.024,1.632-0.048c1.152-0.096,2.304-0.504,3.168-1.2
			c1.008-0.816,1.704-1.992,1.992-3.456l-0.048-0.024c-0.792,0.888-1.896,1.393-3.408,1.393c-2.712,0-4.729-1.968-4.729-4.849
			c0-2.976,2.304-5.568,5.641-5.568c3.625,0,5.568,2.856,5.568,6.648c0,3.336-1.104,5.712-2.712,7.249
			c-1.368,1.272-3.24,1.992-5.329,2.136c-0.672,0.072-1.344,0.072-1.776,0.048V38.896z M45.66,30.543
			c0.024,1.608,0.936,2.856,2.568,2.856c1.2,0,2.064-0.552,2.521-1.296c0.096-0.192,0.168-0.432,0.168-0.84
			c0.024-2.112-0.768-3.937-2.688-3.937C46.74,27.327,45.66,28.647,45.66,30.543z"/>
		<path fill="#206095" d="M65.7,27.855h-6l-0.456,3.121c0.36-0.048,0.672-0.072,1.128-0.072c1.368,0,2.736,0.312,3.792,1.008
			c1.176,0.744,2.041,2.064,2.041,3.96c0,2.976-2.473,5.4-6.313,5.4c-1.8,0-3.312-0.456-4.128-0.912l0.6-2.232
			c0.672,0.36,2.017,0.816,3.433,0.816c1.728,0,3.384-0.984,3.384-2.856c0-1.776-1.32-2.952-4.44-2.952
			c-0.864,0-1.512,0.048-2.136,0.144l1.032-7.873H65.7V27.855z"/>
		<path fill="#206095" d="M67.811,43.913c0.648-1.824,1.296-4.344,1.608-6.336l3.096-0.24c-0.672,2.256-1.752,4.849-2.688,6.385
			L67.811,43.913z"/>
		<path fill="#206095" d="M85.331,33.112c0,5.016-1.968,8.161-5.688,8.161c-3.6,0-5.521-3.265-5.544-8.017
			c0-4.849,2.064-8.113,5.712-8.113C83.579,25.143,85.331,28.503,85.331,33.112z M77.075,33.256c-0.024,3.792,1.032,5.76,2.664,5.76
			c1.728,0,2.64-2.112,2.64-5.856c0-3.625-0.864-5.761-2.64-5.761C78.155,27.399,77.051,29.343,77.075,33.256z"/>
		<path fill="#206095" d="M98.195,33.112c0,5.016-1.968,8.161-5.688,8.161c-3.6,0-5.521-3.265-5.544-8.017
			c0-4.849,2.064-8.113,5.713-8.113C96.443,25.143,98.195,28.503,98.195,33.112z M89.938,33.256c-0.024,3.792,1.032,5.76,2.664,5.76
			c1.728,0,2.64-2.112,2.64-5.856c0-3.625-0.864-5.761-2.64-5.761C91.019,27.399,89.915,29.343,89.938,33.256z"/>
		<path fill="#206095" d="M111.059,33.112c0,5.016-1.968,8.161-5.688,8.161c-3.6,0-5.521-3.265-5.544-8.017
			c0-4.849,2.064-8.113,5.712-8.113C109.307,25.143,111.059,28.503,111.059,33.112z M102.802,33.256
			c-0.024,3.792,1.032,5.76,2.664,5.76c1.728,0,2.64-2.112,2.64-5.856c0-3.625-0.864-5.761-2.64-5.761
			C103.882,27.399,102.778,29.343,102.802,33.256z"/>
	</g>
	<g>
		<path fill="#206095" d="M197.633,46.242c0.6,0.36,2.063,0.96,3.552,0.96c2.256,0,3.168-1.272,3.144-2.496
			c0-1.848-1.728-2.64-3.527-2.64h-1.369v-2.16h1.32c1.369,0,3.097-0.624,3.097-2.184c0-1.056-0.792-1.944-2.496-1.944
			c-1.272,0-2.544,0.552-3.192,0.984l-0.672-2.136c0.888-0.625,2.616-1.2,4.488-1.2c3.217,0,4.873,1.776,4.873,3.816
			c0,1.632-0.961,2.976-2.881,3.648v0.048c1.896,0.336,3.432,1.776,3.432,3.888c0,2.64-2.207,4.729-6.072,4.729
			c-1.896,0-3.527-0.528-4.368-1.08L197.633,46.242z"/>
		<path fill="#206095" d="M209.056,52.195c0.647-1.825,1.296-4.345,1.608-6.337l3.096-0.24c-0.672,2.256-1.752,4.849-2.688,6.385
			L209.056,52.195z"/>
		<path fill="#206095" d="M226.289,33.689v1.896l-6.602,13.705h-3.12l6.577-13.105v-0.048h-7.346v-2.448H226.289z"/>
		<path fill="#206095" d="M229.623,47.178c0.456,0.048,0.912,0.024,1.633-0.048c1.152-0.096,2.304-0.504,3.168-1.2
			c1.008-0.816,1.704-1.992,1.992-3.456l-0.049-0.024c-0.791,0.888-1.896,1.393-3.408,1.393c-2.711,0-4.729-1.968-4.729-4.849
			c0-2.976,2.305-5.568,5.641-5.568c3.625,0,5.568,2.856,5.568,6.648c0,3.336-1.104,5.712-2.711,7.249
			c-1.369,1.272-3.24,1.992-5.329,2.136c-0.672,0.072-1.345,0.072-1.776,0.048V47.178z M231.16,38.826
			c0.023,1.608,0.936,2.856,2.567,2.856c1.2,0,2.064-0.552,2.521-1.296c0.096-0.192,0.168-0.432,0.168-0.84
			c0.023-2.112-0.768-3.937-2.688-3.937C232.24,35.609,231.16,36.93,231.16,38.826z"/>
		<path fill="#206095" d="M252.016,33.689v1.896l-6.6,13.705h-3.121l6.576-13.105v-0.048h-7.344v-2.448H252.016z"/>
		<path fill="#206095" d="M253.311,52.195c0.648-1.825,1.297-4.345,1.608-6.337l3.097-0.24c-0.673,2.256-1.753,4.849-2.689,6.385
			L253.311,52.195z"/>
		<path fill="#206095" d="M270.831,41.394c0,5.016-1.968,8.161-5.688,8.161c-3.6,0-5.521-3.265-5.545-8.017
			c0-4.849,2.064-8.113,5.713-8.113C269.079,33.425,270.831,36.786,270.831,41.394z M262.574,41.538
			c-0.023,3.792,1.032,5.76,2.664,5.76c1.729,0,2.641-2.112,2.641-5.856c0-3.625-0.863-5.761-2.641-5.761
			C263.654,35.681,262.551,37.625,262.574,41.538z"/>
		<path fill="#206095" d="M283.695,41.394c0,5.016-1.969,8.161-5.689,8.161c-3.6,0-5.52-3.265-5.544-8.017
			c0-4.849,2.064-8.113,5.713-8.113C281.943,33.425,283.695,36.786,283.695,41.394z M275.438,41.538
			c-0.024,3.792,1.032,5.76,2.664,5.76c1.728,0,2.64-2.112,2.64-5.856c0-3.625-0.863-5.761-2.64-5.761
			C276.519,35.681,275.414,37.625,275.438,41.538z"/>
		<path fill="#206095" d="M296.559,41.394c0,5.016-1.968,8.161-5.688,8.161c-3.601,0-5.521-3.265-5.544-8.017
			c0-4.849,2.064-8.113,5.712-8.113C294.807,33.425,296.559,36.786,296.559,41.394z M288.303,41.538
			c-0.024,3.792,1.031,5.76,2.664,5.76c1.728,0,2.64-2.112,2.64-5.856c0-3.625-0.864-5.761-2.64-5.761
			C289.383,35.681,288.278,37.625,288.303,41.538z"/>
	</g>
	<g>
		<path fill="#206095" d="M64.616,98.055v-1.188l1.518-1.475c3.653-3.477,5.303-5.324,5.325-7.48c0-1.453-0.704-2.795-2.838-2.795
			c-1.298,0-2.376,0.66-3.036,1.211l-0.616-1.365c0.99-0.836,2.398-1.451,4.048-1.451c3.081,0,4.379,2.111,4.379,4.158
			c0,2.641-1.915,4.774-4.929,7.679l-1.145,1.056v0.045h6.425v1.605H64.616z"/>
		<path fill="#206095" d="M85.407,90.75c0,4.863-1.804,7.547-4.973,7.547c-2.794,0-4.687-2.618-4.731-7.349
			c0-4.797,2.068-7.437,4.973-7.437C83.69,83.512,85.407,86.195,85.407,90.75z M77.64,90.971c0,3.718,1.144,5.83,2.904,5.83
			c1.98,0,2.926-2.311,2.926-5.963c0-3.52-0.902-5.83-2.904-5.83C78.872,85.008,77.64,87.076,77.64,90.971z"/>
		<path fill="#206095" d="M91.39,85.557h-0.044l-2.486,1.343l-0.375-1.474l3.125-1.673h1.65v14.302h-1.87V85.557z"/>
		<path fill="#206095" d="M107.758,83.753v1.276l-6.227,13.025h-2.002l6.205-12.651v-0.044h-6.997v-1.606H107.758z"/>
	</g>
	<g>
		<path fill="#206095" d="M228.635,98.055v-1.188l1.519-1.475c3.653-3.477,5.303-5.324,5.325-7.48c0-1.453-0.705-2.795-2.839-2.795
			c-1.298,0-2.376,0.66-3.036,1.211l-0.616-1.365c0.99-0.836,2.398-1.451,4.048-1.451c3.081,0,4.379,2.111,4.379,4.158
			c0,2.641-1.914,4.774-4.928,7.679l-1.145,1.056v0.045h6.425v1.605H228.635z"/>
		<path fill="#206095" d="M249.426,90.75c0,4.863-1.804,7.547-4.973,7.547c-2.794,0-4.687-2.618-4.73-7.349
			c0-4.797,2.068-7.437,4.973-7.437C247.71,83.512,249.426,86.195,249.426,90.75z M241.659,90.971c0,3.718,1.144,5.83,2.904,5.83
			c1.98,0,2.927-2.311,2.927-5.963c0-3.52-0.902-5.83-2.904-5.83C242.891,85.008,241.659,87.076,241.659,90.971z"/>
		<path fill="#206095" d="M255.409,85.557h-0.044l-2.486,1.343l-0.375-1.474l3.125-1.673h1.65v14.302h-1.87V85.557z"/>
		<path fill="#206095" d="M263.614,96.691c0.418,0.043,0.902,0,1.562-0.066c1.123-0.154,2.18-0.616,2.993-1.387
			c0.946-0.857,1.628-2.111,1.892-3.807h-0.065c-0.792,0.969-1.937,1.541-3.366,1.541c-2.574,0-4.225-1.937-4.225-4.379
			c0-2.707,1.958-5.082,4.885-5.082c2.926,0,4.73,2.375,4.73,6.028c0,3.146-1.057,5.347-2.465,6.711
			c-1.1,1.078-2.618,1.738-4.158,1.914c-0.704,0.11-1.32,0.132-1.782,0.11V96.691z M264.318,88.462c0,1.782,1.078,3.036,2.75,3.036
			c1.299,0,2.311-0.638,2.816-1.496c0.11-0.176,0.176-0.396,0.176-0.704c0-2.442-0.901-4.313-2.926-4.313
			C265.484,84.985,264.318,86.438,264.318,88.462z"/>
	</g>
</g>
<g id="balls">
	<circle fill="#FF9933" cx="87.5" cy="51" r="5"/>
	<circle fill="#FF9933" cx="250.5" cy="16" r="5"/>
</g>
</svg>
