<?xml version="1.0" encoding="utf-8"?>
<!-- Generator: Adobe Illustrator 16.0.5, SVG Export Plug-In . SVG Version: 6.00 Build 0)  -->
<!DOCTYPE svg PUBLIC "-//W3C//DTD SVG 1.1//EN" "http://www.w3.org/Graphics/SVG/1.1/DTD/svg11.dtd">
<svg version="1.1" xmlns="http://www.w3.org/2000/svg" xmlns:xlink="http://www.w3.org/1999/xlink" x="0px" y="0px" width="300px"
	 height="100px" viewBox="0 0 300 100" enable-background="new 0 0 300 100" xml:space="preserve">
<g id="Layer_1">
	
		<polyline fill="none" stroke="#206095" stroke-width="4" stroke-linecap="round" stroke-linejoin="round" stroke-miterlimit="10" points="
		50.5,18 62.558,33.078 74.617,36.935 86.932,47.805 98.99,48.506 111.048,46.402 123.363,58.324 135.421,62.883 147.479,60.779 
		159.794,69.896 171.853,69.195 183.91,72 195.969,71.299 208.283,67.091 220.342,52.715 232.399,61.48 238.558,59.377 
		244.715,61.832 250.616,63.234 	"/>
</g>
<g id="text">
	<g>
		<path fill="#206095" d="M23.416,44.82h-0.048l-2.856,1.44l-0.504-2.232l3.792-1.873h2.472v15.602h-2.856V44.82z"/>
		<path fill="#206095" d="M30.807,60.662c0.648-1.824,1.296-4.345,1.608-6.337l3.096-0.24c-0.672,2.257-1.752,4.849-2.688,6.385
			L30.807,60.662z"/>
		<path fill="#206095" d="M48.327,49.861c0,5.016-1.968,8.161-5.688,8.161c-3.6,0-5.521-3.265-5.544-8.017
			c0-4.849,2.064-8.113,5.712-8.113C46.575,41.892,48.327,45.252,48.327,49.861z M40.071,50.005
			c-0.024,3.792,1.032,5.761,2.664,5.761c1.728,0,2.64-2.113,2.64-5.857c0-3.625-0.864-5.761-2.64-5.761
			C41.151,44.148,40.047,46.092,40.071,50.005z"/>
		<path fill="#206095" d="M56.679,57.758v-3.961h-7.057v-1.92l6.361-9.721h3.48v9.409h2.016v2.232h-2.016v3.961H56.679z
			 M56.679,51.564v-4.248c0-0.888,0.024-1.8,0.096-2.712h-0.096c-0.48,0.984-0.888,1.776-1.368,2.641l-2.856,4.272l-0.024,0.048
			H56.679z"/>
		<path fill="#206095" d="M73.767,42.156v1.896l-6.601,13.706h-3.121l6.577-13.105v-0.048h-7.345v-2.448H73.767z"/>
	</g>
	<g>
		<path fill="#206095" d="M269.182,58.445c-0.432,0-0.912,0-1.512,0.072c-3.265,0.384-4.85,2.4-5.232,4.561h0.071
			c0.769-0.889,1.944-1.513,3.505-1.513c2.688,0,4.775,1.921,4.775,5.089c0,2.977-2.184,5.568-5.496,5.568
			c-3.792,0-5.881-2.881-5.881-6.721c0-3,1.08-5.449,2.713-7.009c1.439-1.344,3.313-2.112,5.545-2.304
			c0.647-0.072,1.127-0.072,1.487-0.049L269.182,58.445z M267.789,66.822c0-1.801-0.984-3.097-2.712-3.097
			c-1.104,0-2.089,0.673-2.544,1.608c-0.12,0.24-0.192,0.527-0.192,0.936c0.048,2.064,1.032,3.744,2.929,3.744
			C266.805,70.014,267.789,68.694,267.789,66.822z"/>
		<path fill="#206095" d="M277.173,59.021h-0.048l-2.856,1.439l-0.504-2.231l3.792-1.872h2.473v15.602h-2.856V59.021z"/>
		<path fill="#206095" d="M296.133,56.357v1.896l-6.6,13.705h-3.121l6.576-13.105v-0.049h-7.344v-2.447H296.133z"/>
	</g>
	<g>
		<path fill="#206095" d="M29.616,98.055v-1.188l1.518-1.475c3.653-3.477,5.303-5.324,5.325-7.48c0-1.453-0.704-2.795-2.838-2.795
			c-1.298,0-2.376,0.66-3.036,1.211l-0.616-1.365c0.99-0.836,2.398-1.451,4.048-1.451c3.081,0,4.379,2.111,4.379,4.158
			c0,2.641-1.915,4.774-4.929,7.679l-1.145,1.056v0.045h6.425v1.605H29.616z"/>
		<path fill="#206095" d="M50.407,90.75c0,4.863-1.804,7.547-4.973,7.547c-2.794,0-4.687-2.618-4.731-7.349
			c0-4.797,2.068-7.437,4.973-7.437C48.69,83.512,50.407,86.195,50.407,90.75z M42.64,90.971c0,3.718,1.144,5.83,2.904,5.83
			c1.98,0,2.926-2.311,2.926-5.963c0-3.52-0.902-5.83-2.904-5.83C43.872,85.008,42.64,87.076,42.64,90.971z"/>
		<path fill="#206095" d="M61.692,90.75c0,4.863-1.804,7.547-4.973,7.547c-2.794,0-4.687-2.618-4.731-7.349
			c0-4.797,2.068-7.437,4.973-7.437C59.976,83.512,61.692,86.195,61.692,90.75z M53.925,90.971c0,3.718,1.144,5.83,2.904,5.83
			c1.98,0,2.926-2.311,2.926-5.963c0-3.52-0.902-5.83-2.904-5.83C55.157,85.008,53.925,87.076,53.925,90.971z"/>
		<path fill="#206095" d="M63.935,95.833c0.55,0.353,1.826,0.901,3.168,0.901c2.486,0,3.256-1.584,3.234-2.771
			c-0.022-2.002-1.826-2.861-3.696-2.861h-1.078V89.65h1.078c1.408,0,3.19-0.727,3.19-2.421c0-1.144-0.726-2.156-2.508-2.156
			c-1.144,0-2.245,0.507-2.86,0.946l-0.506-1.408c0.748-0.551,2.2-1.1,3.741-1.1c2.816,0,4.092,1.672,4.092,3.41
			c0,1.475-0.88,2.729-2.64,3.366v0.044c1.76,0.352,3.19,1.672,3.19,3.674c0,2.289-1.782,4.291-5.215,4.291
			c-1.606,0-3.014-0.506-3.718-0.968L63.935,95.833z"/>
	</g>
	<g>
		<path fill="#206095" d="M228.635,98.055v-1.188l1.519-1.475c3.653-3.477,5.303-5.324,5.325-7.48c0-1.453-0.705-2.795-2.839-2.795
			c-1.298,0-2.376,0.66-3.036,1.211l-0.616-1.365c0.99-0.836,2.398-1.451,4.048-1.451c3.081,0,4.379,2.111,4.379,4.158
			c0,2.641-1.914,4.774-4.928,7.679l-1.145,1.056v0.045h6.425v1.605H228.635z"/>
		<path fill="#206095" d="M249.426,90.75c0,4.863-1.804,7.547-4.973,7.547c-2.794,0-4.687-2.618-4.73-7.349
			c0-4.797,2.068-7.437,4.973-7.437C247.71,83.512,249.426,86.195,249.426,90.75z M241.659,90.971c0,3.718,1.144,5.83,2.904,5.83
			c1.98,0,2.927-2.311,2.927-5.963c0-3.52-0.902-5.83-2.904-5.83C242.891,85.008,241.659,87.076,241.659,90.971z"/>
		<path fill="#206095" d="M255.409,85.557h-0.044l-2.486,1.343l-0.375-1.474l3.125-1.673h1.65v14.302h-1.87V85.557z"/>
		<path fill="#206095" d="M263.614,96.691c0.418,0.043,0.902,0,1.562-0.066c1.123-0.154,2.18-0.616,2.993-1.387
			c0.946-0.857,1.628-2.111,1.892-3.807h-0.065c-0.792,0.969-1.937,1.541-3.366,1.541c-2.574,0-4.225-1.937-4.225-4.379
			c0-2.707,1.958-5.082,4.885-5.082c2.926,0,4.73,2.375,4.73,6.028c0,3.146-1.057,5.347-2.465,6.711
			c-1.1,1.078-2.618,1.738-4.158,1.914c-0.704,0.11-1.32,0.132-1.782,0.11V96.691z M264.318,88.462c0,1.782,1.078,3.036,2.75,3.036
			c1.299,0,2.311-0.638,2.816-1.496c0.11-0.176,0.176-0.396,0.176-0.704c0-2.442-0.901-4.313-2.926-4.313
			C265.484,84.985,264.318,86.438,264.318,88.462z"/>
	</g>
</g>
<g id="balls">
	<circle fill="#FF9933" cx="50.5" cy="18" r="5"/>
	<circle fill="#FF9933" cx="250.5" cy="64" r="5"/>
</g>
</svg>
