<?xml version="1.0" encoding="utf-8"?>
<!-- Generator: Adobe Illustrator 16.0.5, SVG Export Plug-In . SVG Version: 6.00 Build 0)  -->
<!DOCTYPE svg PUBLIC "-//W3C//DTD SVG 1.1//EN" "http://www.w3.org/Graphics/SVG/1.1/DTD/svg11.dtd">
<svg version="1.1" id="Layer_1" xmlns="http://www.w3.org/2000/svg" xmlns:xlink="http://www.w3.org/1999/xlink" x="0px" y="0px"
	 width="300px" height="100px" viewBox="0 0 300 100" enable-background="new 0 0 300 100" xml:space="preserve">
<g id="Layer_1_1_">
	
		<polyline fill="none" stroke="#206095" stroke-width="4" stroke-linecap="round" stroke-linejoin="round" stroke-miterlimit="10" points="
		50.007,8.182 62.263,13.278 74.221,23.151 86.477,17.737 98.434,15.189 110.69,28.247 122.647,31.75 134.904,35.572 147.16,34.617 
		159.117,35.89 171.374,43.216 183.331,48.949 195.587,55 207.544,54.045 219.801,47.674 232.057,39.394 238.035,36.846 
		244.014,33.343 249.993,29.839 	"/>
</g>
<g>
	<path fill="#206095" d="M13.165,31.103h-0.048l-2.856,1.44l-0.504-2.232l3.792-1.873h2.472V44.04h-2.856V31.103z"/>
	<path fill="#206095" d="M26.028,31.103H25.98l-2.856,1.44l-0.504-2.232l3.792-1.873h2.472V44.04h-2.856V31.103z"/>
	<path fill="#206095" d="M45.276,36.143c0,5.016-1.968,8.161-5.688,8.161c-3.6,0-5.521-3.265-5.544-8.017
		c0-4.849,2.064-8.113,5.712-8.113C43.524,28.174,45.276,31.535,45.276,36.143z M37.02,36.287c-0.024,3.792,1.032,5.76,2.664,5.76
		c1.728,0,2.64-2.112,2.64-5.856c0-3.625-0.864-5.761-2.64-5.761C38.1,30.43,36.996,32.375,37.02,36.287z"/>
	<path fill="#206095" d="M46.283,46.944c0.648-1.824,1.296-4.344,1.608-6.336l3.096-0.24c-0.672,2.256-1.752,4.849-2.688,6.385
		L46.283,46.944z"/>
	<path fill="#206095" d="M52.787,44.04v-1.8l1.848-1.704c3.672-3.408,5.4-5.28,5.424-7.345c0-1.392-0.744-2.616-2.784-2.616
		c-1.368,0-2.544,0.696-3.336,1.296l-0.864-2.088c1.128-0.912,2.832-1.608,4.8-1.608c3.456,0,5.136,2.184,5.136,4.729
		c0,2.736-1.968,4.944-4.68,7.464l-1.368,1.176v0.048h6.409v2.448H52.787z"/>
	<path fill="#206095" d="M76.38,28.438v1.896L69.779,44.04h-3.121l6.577-13.105v-0.048H65.89v-2.448L76.38,28.438L76.38,28.438z"/>
	<path fill="#206095" d="M83.147,31.103h-0.048l-2.856,1.44l-0.504-2.232l3.792-1.873h2.472V44.04h-2.856V31.103z"/>
</g>
<g>
	<path fill="#206095" d="M228.816,60.282c0-1.944,1.127-3.265,2.928-4.056v-0.072c-1.633-0.793-2.376-2.09-2.376-3.457
		c0-2.544,2.257-4.272,5.208-4.272c3.361,0,4.896,2.016,4.896,3.937c0,1.32-0.695,2.688-2.4,3.527v0.072
		c1.705,0.646,2.977,1.992,2.977,3.938c0,2.783-2.352,4.656-5.688,4.656C230.713,64.555,228.816,62.467,228.816,60.282z
		 M237.049,60.139c0-1.584-1.176-2.449-2.904-2.929c-1.465,0.433-2.305,1.44-2.305,2.735c-0.047,1.32,0.961,2.521,2.617,2.521
		C236.018,62.467,237.049,61.482,237.049,60.139z M232.176,52.578c0,1.271,1.057,2.039,2.545,2.447
		c1.057-0.313,1.943-1.176,1.943-2.353c0-1.08-0.646-2.208-2.23-2.208C232.943,50.465,232.176,51.449,232.176,52.578z"/>
	<path fill="#206095" d="M241.896,64.291V62.49l1.848-1.704c3.672-3.408,5.4-5.28,5.424-7.345c0-1.394-0.744-2.616-2.783-2.616
		c-1.369,0-2.545,0.696-3.337,1.296l-0.864-2.088c1.129-0.912,2.832-1.608,4.801-1.608c3.457,0,5.138,2.185,5.138,4.729
		c0,2.734-1.97,4.943-4.681,7.464l-1.369,1.177v0.047h6.408v2.449H241.896z"/>
	<path fill="#206095" d="M253.92,67.195c0.646-1.824,1.296-4.346,1.607-6.338l3.097-0.239c-0.672,2.257-1.753,4.849-2.688,6.385
		L253.92,67.195z"/>
	<path fill="#206095" d="M270.336,51.137h-6l-0.456,3.121c0.36-0.049,0.673-0.072,1.128-0.072c1.368,0,2.736,0.313,3.793,1.008
		c1.176,0.744,2.04,2.064,2.04,3.961c0,2.978-2.473,5.4-6.313,5.4c-1.799,0-3.312-0.455-4.127-0.912l0.601-2.231
		c0.672,0.36,2.017,0.815,3.433,0.815c1.729,0,3.385-0.983,3.385-2.855c0-1.775-1.32-2.952-4.44-2.952
		c-0.864,0-1.513,0.048-2.136,0.146l1.031-7.875h8.063L270.336,51.137L270.336,51.137z"/>
	<path fill="#206095" d="M279.792,64.291V60.33h-7.058v-1.92l6.361-9.721h3.479v9.409h2.016v2.232h-2.016v3.961H279.792z
		 M279.792,58.098V53.85c0-0.889,0.024-1.801,0.097-2.713h-0.097c-0.479,0.984-0.888,1.777-1.368,2.641l-2.855,4.272l-0.024,0.048
		H279.792z"/>
	<path fill="#206095" d="M286.15,64.291V62.49l1.85-1.704c3.672-3.408,5.4-5.28,5.424-7.345c0-1.394-0.744-2.616-2.783-2.616
		c-1.369,0-2.545,0.696-3.338,1.296l-0.863-2.088c1.129-0.912,2.832-1.608,4.802-1.608c3.454,0,5.136,2.185,5.136,4.729
		c0,2.734-1.968,4.943-4.682,7.464l-1.366,1.177v0.047h6.407v2.449H286.15z"/>
</g>
<g>
	<path fill="#206095" d="M228.635,98.055v-1.188l1.52-1.475c3.652-3.478,5.303-5.324,5.324-7.48c0-1.453-0.705-2.795-2.838-2.795
		c-1.299,0-2.377,0.66-3.037,1.211l-0.615-1.365c0.99-0.836,2.398-1.451,4.048-1.451c3.081,0,4.379,2.111,4.379,4.158
		c0,2.641-1.914,4.773-4.929,7.68l-1.145,1.055v0.046h6.426v1.604H228.635z"/>
	<path fill="#206095" d="M249.426,90.75c0,4.863-1.804,7.547-4.973,7.547c-2.794,0-4.688-2.617-4.73-7.35
		c0-4.797,2.068-7.436,4.973-7.436C247.71,83.512,249.426,86.195,249.426,90.75z M241.659,90.971c0,3.719,1.144,5.83,2.903,5.83
		c1.98,0,2.928-2.311,2.928-5.963c0-3.52-0.902-5.83-2.904-5.83C242.891,85.008,241.659,87.076,241.659,90.971z"/>
	<path fill="#206095" d="M255.409,85.557h-0.044l-2.486,1.344l-0.375-1.475l3.125-1.673h1.65v14.302h-1.87V85.557z"/>
	<path fill="#206095" d="M263.613,96.691c0.419,0.043,0.902,0,1.563-0.066c1.123-0.154,2.18-0.616,2.993-1.387
		c0.946-0.857,1.628-2.111,1.892-3.807h-0.064c-0.792,0.969-1.938,1.541-3.366,1.541c-2.573,0-4.226-1.938-4.226-4.379
		c0-2.707,1.959-5.082,4.886-5.082c2.926,0,4.729,2.375,4.729,6.027c0,3.146-1.057,5.348-2.465,6.711
		c-1.1,1.078-2.617,1.738-4.158,1.914c-0.703,0.109-1.319,0.132-1.781,0.109v-1.582H263.613z M264.318,88.462
		c0,1.782,1.078,3.036,2.75,3.036c1.299,0,2.311-0.639,2.815-1.496c0.11-0.176,0.177-0.396,0.177-0.704
		c0-2.442-0.901-4.313-2.927-4.313C265.484,84.984,264.318,86.438,264.318,88.462z"/>
</g>
<g id="balls">
	<circle fill="#FF9933" cx="50.5" cy="8" r="5"/>
	<circle fill="#FF9933" cx="250.5" cy="30" r="5"/>
</g>
<g>
	<path fill="#206095" d="M33.616,98.055v-1.188l1.518-1.475c3.653-3.477,5.303-5.324,5.325-7.48c0-1.453-0.704-2.795-2.838-2.795
		c-1.298,0-2.376,0.66-3.036,1.211l-0.616-1.365c0.99-0.836,2.398-1.451,4.048-1.451c3.081,0,4.379,2.111,4.379,4.158
		c0,2.641-1.915,4.774-4.929,7.679l-1.145,1.056v0.045h6.425v1.605H33.616z"/>
	<path fill="#206095" d="M54.407,90.75c0,4.863-1.804,7.547-4.973,7.547c-2.794,0-4.687-2.618-4.731-7.349
		c0-4.797,2.068-7.437,4.973-7.437C52.69,83.512,54.407,86.195,54.407,90.75z M46.64,90.971c0,3.718,1.144,5.83,2.904,5.83
		c1.98,0,2.926-2.311,2.926-5.963c0-3.52-0.902-5.83-2.904-5.83C47.872,85.008,46.64,87.076,46.64,90.971z"/>
	<path fill="#206095" d="M65.692,90.75c0,4.863-1.804,7.547-4.973,7.547c-2.794,0-4.687-2.618-4.731-7.349
		c0-4.797,2.068-7.437,4.973-7.437C63.976,83.512,65.692,86.195,65.692,90.75z M57.925,90.971c0,3.718,1.144,5.83,2.904,5.83
		c1.98,0,2.926-2.311,2.926-5.963c0-3.52-0.902-5.83-2.904-5.83C59.157,85.008,57.925,87.076,57.925,90.971z"/>
	<path fill="#206095" d="M67.935,95.833c0.55,0.353,1.826,0.901,3.168,0.901c2.486,0,3.256-1.584,3.234-2.771
		c-0.022-2.002-1.826-2.861-3.696-2.861h-1.078V89.65h1.078c1.408,0,3.19-0.727,3.19-2.421c0-1.144-0.726-2.156-2.508-2.156
		c-1.144,0-2.245,0.507-2.86,0.946l-0.506-1.408c0.748-0.551,2.2-1.1,3.741-1.1c2.816,0,4.092,1.672,4.092,3.41
		c0,1.475-0.88,2.729-2.64,3.366v0.044c1.76,0.352,3.19,1.672,3.19,3.674c0,2.289-1.782,4.291-5.215,4.291
		c-1.606,0-3.014-0.506-3.718-0.968L67.935,95.833z"/>
</g>
</svg>
