<?xml version="1.0" encoding="utf-8"?>
<!-- Generator: Adobe Illustrator 23.1.1, SVG Export Plug-In . SVG Version: 6.00 Build 0)  -->
<svg version="1.1" id="Layer_1" xmlns="http://www.w3.org/2000/svg" xmlns:xlink="http://www.w3.org/1999/xlink" x="0px" y="0px"
	 viewBox="0 0 493 507.8" style="enable-background:new 0 0 493 507.8;" xml:space="preserve">
<style type="text/css">
	.st0{fill:#0F8243;}
	.st1{fill-rule:evenodd;clip-rule:evenodd;fill:#FFFFFF;}
</style>
<path class="st0" d="M330.8,84.3c0,68.9-84.3,170-84.3,170s-84.3-101.1-84.3-170C162.2,37.7,200,0,246.5,0S330.8,37.8,330.8,84.3z"
	/>
<path class="st1" d="M273.8,32.3c0,0-9,8.7-18.7,12.2c-72,26-41.6,76.7-40.6,76.9c0,0,4-7,9.5-11c34.6-25.4,41.6-54.7,41.6-54.7
	s-7.8,35.2-38.5,57.1c-6.8,4.8-11.4,16.7-13.3,28.7c0,0,4.8-1.9,6.9-2.5c0.8-5.3,2.5-10.3,5.4-14.8c43,5.1,57.1-29.5,58.9-41.6
	C289.2,54,273.8,32.3,273.8,32.3z"/>
</svg>
