<?xml version="1.0" encoding="utf-8"?>
<!-- Generator: Adobe Illustrator 23.1.1, SVG Export Plug-In . SVG Version: 6.00 Build 0)  -->
<svg version="1.1" id="Layer_1" xmlns="http://www.w3.org/2000/svg" xmlns:xlink="http://www.w3.org/1999/xlink" x="0px" y="0px"
	 viewBox="0 0 30 30" style="enable-background:new 0 0 30 30;" xml:space="preserve">
<style type="text/css">
	.st0{fill:#5F7682;}
</style>
<g>
	<path class="st0" d="M13.6,27.6c-3.1,3.1-8.1,3.1-11.3,0s-3.1-8.1,0-11.3L8,10.8c3.1-3.1,8.1-3.1,11.3,0c0.5,0.5,0.9,1,1.2,1.6
		L17.8,15c-0.1,0.1-0.3,0.2-0.4,0.3c-0.2-0.6-0.5-1.2-1-1.7c-1.6-1.6-4.1-1.6-5.6,0l-5.6,5.6c-1.6,1.6-1.6,4.1,0,5.6s4.1,1.6,5.6,0
		l2-2c1.6,0.6,3.4,0.8,5.1,0.6L13.6,27.6z"/>
	<path class="st0" d="M27.7,13.6L22,19.2c-3.1,3.1-8.1,3.1-11.3,0c-0.5-0.5-0.9-1-1.2-1.6l2.6-2.6c0.1-0.1,0.3-0.2,0.4-0.3
		c0.2,0.6,0.5,1.2,1,1.7c1.6,1.6,4.1,1.6,5.6,0l5.6-5.6c1.6-1.6,1.6-4.1,0-5.6c-1.6-1.6-4.1-1.6-5.6,0l-2,2
		c-1.6-0.6-3.4-0.8-5.1-0.6l4.3-4.3c3.1-3.1,8.1-3.1,11.3,0C30.8,5.4,30.8,10.5,27.7,13.6z"/>
</g>
</svg>
