<?xml version="1.0" encoding="utf-8"?>
<!-- Generator: Adobe Illustrator 23.1.1, SVG Export Plug-In . SVG Version: 6.00 Build 0)  -->
<svg version="1.1" id="Layer_1" xmlns="http://www.w3.org/2000/svg" xmlns:xlink="http://www.w3.org/1999/xlink" x="0px" y="0px"
	 viewBox="0 0 493 507.8" style="enable-background:new 0 0 493 507.8;" xml:space="preserve">
<style type="text/css">
	.st0{fill:#206085;}
	.st1{fill:#FFFFFF;}
</style>
<path class="st0" d="M330.8,84.3c0,68.9-84.3,170-84.3,170s-84.3-101.1-84.3-170c0-46.6,37.8-84.3,84.3-84.3S330.8,37.8,330.8,84.3z
	"/>
<path class="st1" d="M297.8,82.6L297.8,82.6L297.8,82.6C297.7,82.5,297.7,82.5,297.8,82.6l-20.3-20.3V38.8c0-1.2-1-2.1-2.1-2.1
	l-11.5,0c-1.2,0-2.1,1-2.1,2.1l0,7.7l-12.2-12.1c-1.7-1.7-2-2-3.1-2.1c-1,0-1.4,0.4-3.1,2.1l-12.2,12.1l-15.8,15.7l-20.2,20.2
	c0,0,0,0,0,0l0,0v0c-0.4,0.4-0.6,0.9-0.6,1.5c0,1.2,0.9,2.1,2.1,2.1l0,0h10.6v53.1c0,1.3,1.1,2.4,2.4,2.4h73.6
	c1.3,0,2.4-1.1,2.4-2.4V86.2h10.6l0,0c1.1,0,2.1-1,2.1-2.1C298.3,83.5,298.1,82.9,297.8,82.6z M234.4,120.4H221
	c-0.1,0-0.2-0.1-0.2-0.2v-13.4h13.6V120.4z M234.4,102.6h-13.6V89.2c0-0.1,0.1-0.2,0.2-0.2h13.4V102.6z M253.5,120.2
	c0,0.1-0.1,0.2-0.2,0.2h-13.4v-13.6h13.6V120.2z M253.5,102.6h-13.6V88.9h13.4c0.1,0,0.2,0.1,0.2,0.2V102.6z"/>
</svg>
