<?xml version="1.0" encoding="utf-8"?>
<!-- Generator: Adobe Illustrator 23.0.2, SVG Export Plug-In . SVG Version: 6.00 Build 0)  -->
<svg version="1.1" id="Layer_1" xmlns="http://www.w3.org/2000/svg" xmlns:xlink="http://www.w3.org/1999/xlink" x="0px" y="0px"
	 viewBox="0 0 56 56" style="enable-background:new 0 0 56 56;" xml:space="preserve">
<style type="text/css">
	.st0{fill:#FFFFFF;}
</style>
<g>
	<path class="st0" d="M43.6,21.1c-0.2-0.7-0.9-1-1.6-1c-0.3,0-0.4,0-0.6,0h-5.5c-0.2,0-0.4,0-0.6,0c-0.8,0-1.4,0.4-1.6,1l-3,9
		c-0.3,0.8,0.1,1.6,0.9,1.9c0.8,0.3,1.6-0.1,1.9-0.9l0.8-2.1c0,0,0.1-0.2,0.1,0.7v12.5c0,1.1,0.9,2,2,2s2-0.9,2-2v-8.2
		c0,0,0-0.1,0.1-0.1c0.2,0,0.5,0,0.7,0c0.1,0,0.1,0.1,0.1,0.1v8.2c0,1.1,0.9,2,2,2s2-0.9,2-2V29.7c0-1,0.1-0.6,0.1-0.6l0.8,2
		c0.3,0.8,1.1,1.2,1.9,0.9c0.8-0.3,1.1-1.1,0.8-1.9L43.6,21.1z"/>
	<ellipse class="st0" cx="38.6" cy="14.9" rx="4.2" ry="4.2"/>
</g>
<g>
	<circle class="st0" cx="17.7" cy="14.9" r="4.2"/>
	<path class="st0" d="M26,29.9l-3.6-8.7c-0.2-0.4-0.4-1-1.2-1c-0.3,0-0.6,0-1,0h-4.4c-0.4,0-0.6,0-1,0c-0.8,0-1.3,0.5-1.5,1
		l-3.7,8.7c-0.4,0.7-0.1,1.6,0.7,2c0.7,0.4,1.6,0.1,1.9-0.7l0.3-0.6c0,0,0.1-0.1,0.1,0c-0.2,1.1-0.8,4.3-0.8,4.3
		c-0.1,0.7,0.3,1.2,1,1.2c0,0,1.2,0,1.6,0c0.1,0,0.1,0.1,0.1,0.1v6.5c0,1.1,0.7,1.7,1.5,1.7c0.8,0,1.5-0.6,1.5-1.7v-6.5
		c0,0,0-0.1,0.1-0.1c0.1,0,0.3,0,0.4,0c0.1,0,0,0.1,0,0.1v6.5c0,1.1,0.7,1.7,1.5,1.7s1.5-0.6,1.5-1.7v-6.4c0,0,0-0.1,0.1-0.1
		c0.4,0,1.7,0,1.7,0c0.7,0,1.1-0.5,1-1.2c0,0-0.6-3.4-0.7-4.4c0-0.3,0.4,0.7,0.4,0.7c0.3,0.7,1,1,1.7,0.7C26,31.5,26.3,30.6,26,29.9
		z"/>
</g>
</svg>
