<?xml version="1.0" encoding="utf-8"?>
<!-- Generator: Adobe Illustrator 23.0.2, SVG Export Plug-In . SVG Version: 6.00 Build 0)  -->
<svg version="1.1" id="Layer_1" xmlns="http://www.w3.org/2000/svg" xmlns:xlink="http://www.w3.org/1999/xlink" x="0px" y="0px"
	 viewBox="0 0 56.01 56.01" style="enable-background:new 0 0 56.01 56.01;" xml:space="preserve">
<style type="text/css">
	.st0{fill:#1A4C83;}
</style>
<g>
	<path class="st0" d="M32.41,21.07c-0.25-0.67-0.93-1.05-1.61-1.05c-0.34,0-0.37,0.01-0.58,0.01h-5.55c-0.2,0-0.39,0-0.58,0
		c-0.78,0-1.36,0.37-1.61,1.04l-2.97,9.02c-0.28,0.76,0.1,1.61,0.85,1.89c0.75,0.29,1.59-0.1,1.88-0.86L23.03,29
		c0,0,0.06-0.21,0.06,0.72v12.52c0,1.09,0.88,1.98,1.96,1.98c1.08,0,1.96-0.89,1.96-1.98v-8.18c0,0-0.01-0.07,0.07-0.07
		c0.18,0,0.55,0,0.74,0c0.07,0,0.07,0.07,0.07,0.07v8.18c0,1.09,0.88,1.98,1.96,1.98s1.96-0.89,1.96-1.98V29.72
		c0-0.95,0.08-0.65,0.08-0.65l0.76,2.05c0.28,0.76,1.12,1.15,1.88,0.86c0.75-0.29,1.14-1.13,0.85-1.89L32.41,21.07z"/>
	<ellipse class="st0" cx="27.48" cy="14.86" rx="4.21" ry="4.17"/>
</g>
</svg>
