<?xml version="1.0" encoding="utf-8"?>
<!-- Generator: Adobe Illustrator 23.0.1, SVG Export Plug-In . SVG Version: 6.00 Build 0)  -->
<svg version="1.1" id="Layer_1" xmlns="http://www.w3.org/2000/svg" xmlns:xlink="http://www.w3.org/1999/xlink" x="0px" y="0px"
	 viewBox="0 0 56.01 56.01" style="enable-background:new 0 0 56.01 56.01;" xml:space="preserve">
<style type="text/css">
	.st0{fill:#48709B;}
	.st1{fill:#7694B4;}
	.st2{fill:#FFFFFF;}
	.st3{fill:none;stroke:#1A4C83;stroke-miterlimit:10;}
	.st4{fill:none;stroke:#5F7682;stroke-width:0.5;stroke-miterlimit:10;}
	.st5{fill:none;stroke:#003C57;stroke-width:3;stroke-miterlimit:10;}
	.st6{fill:#FFFFFF;stroke:#008080;stroke-width:3;stroke-miterlimit:10;}
	.st7{fill:#008080;stroke:#008080;stroke-width:3;stroke-miterlimit:10;}
	.st8{fill:none;stroke:#008080;stroke-width:3;stroke-miterlimit:10;}
	.st9{fill:none;stroke:#5F7682;stroke-miterlimit:10;}
	.st10{fill:#1A4C83;}
	.st11{fill:#008080;}
	.st12{fill:#D0D2D3;}
	.st13{fill:#00A5A1;}
	.st14{fill:none;stroke:#FF9933;stroke-width:2;stroke-linejoin:round;stroke-miterlimit:10;stroke-dasharray:1000,1000;}
	.st15{fill:none;stroke:#FFFFFF;stroke-width:1.5;stroke-miterlimit:10;}
	.st16{fill:#FF9933;}
	.st17{fill:none;stroke:#D0D2D3;stroke-width:0.75;stroke-miterlimit:10;}
	.st18{fill:#003C57;}
	.st19{fill:#EAEAEA;}
	.st20{fill:none;stroke:#D0D2D3;stroke-width:4;stroke-miterlimit:10;}
	.st21{fill:#DDE4EC;}
	.st22{fill:#147234;}
	.st23{fill:#206095;}
	.st24{fill:none;stroke:#FF9933;stroke-width:2;stroke-linecap:round;stroke-linejoin:round;stroke-miterlimit:10;}
	.st25{fill:none;stroke:#D0D2D3;stroke-width:6;stroke-miterlimit:10;}
	.st26{fill:none;stroke:#D0D2D3;stroke-width:3;stroke-miterlimit:10;}
	.st27{fill:none;stroke:#FF9933;stroke-width:2;stroke-miterlimit:10;}
	.st28{fill:none;stroke:#003C57;stroke-width:1.5;stroke-miterlimit:10;}
	.st29{fill:none;stroke:#1A4C83;stroke-width:1.5;stroke-miterlimit:10;}
	.st30{fill:none;stroke:#008080;stroke-width:1.5;stroke-miterlimit:10;}
	.st31{fill:none;stroke:#D0D2D3;stroke-width:2;stroke-miterlimit:10;}
	.st32{fill:none;stroke:#D0D2D3;stroke-width:0.9841;stroke-dasharray:4,4,4,4,4,4;}
	.st33{fill:none;stroke:#D0D2D3;stroke-width:0.8191;stroke-dasharray:3.3295,3.3295,3.3295,3.3295,3.3295,3.3295;}
	.st34{fill:none;stroke:#000000;stroke-width:2.4573;stroke-dasharray:1310.572,1310.572;stroke-dashoffset:1310;}
	.st35{opacity:0.3;fill:#206095;}
	.st36{fill:none;stroke:#323132;stroke-width:2.4573;stroke-linejoin:round;stroke-miterlimit:10;}
	
		.st37{fill:none;stroke:#323132;stroke-width:2.4573;stroke-linecap:round;stroke-miterlimit:10;stroke-dasharray:4.9146,4.9146,4.9146,4.9146,4.9146,4.9146;}
	.st38{fill:none;stroke:#1A4C83;stroke-width:2.4573;stroke-linecap:round;stroke-miterlimit:10;}
	
		.st39{fill:none;stroke:#1A4C83;stroke-width:2.4573;stroke-linecap:round;stroke-miterlimit:10;stroke-dasharray:4.8571,4.8571,4.8571,4.8571;}
	
		.st40{fill:none;stroke:#1A4C83;stroke-width:2.4573;stroke-linecap:round;stroke-miterlimit:10;stroke-dasharray:4.8571,4.8571,4.8571,4.8571,4.8571,4.8571;}
	.st41{fill:none;stroke:#147234;stroke-miterlimit:10;}
	.st42{fill:none;stroke:#D32F2F;stroke-miterlimit:10;}
	.st43{fill:none;stroke:#FFFFFF;stroke-miterlimit:10;}
	.st44{fill:none;stroke:#147234;stroke-linecap:round;stroke-linejoin:round;stroke-miterlimit:10;}
	.st45{fill:none;stroke:#D32F2F;stroke-linecap:round;stroke-linejoin:round;stroke-miterlimit:10;}
	.st46{fill:none;stroke:#D0D2D3;stroke-width:2;stroke-miterlimit:10;stroke-dasharray:4,3;}
	.st47{fill:none;stroke:#FFFFFF;stroke-width:2;stroke-linecap:round;stroke-linejoin:round;stroke-miterlimit:10;}
	.st48{fill:none;stroke:#D0D2D3;stroke-width:1.5;stroke-miterlimit:10;stroke-dasharray:4,3;}
	.st49{fill:none;stroke:#147234;stroke-width:2;stroke-linecap:round;stroke-linejoin:round;stroke-miterlimit:10;}
	.st50{fill:none;stroke:#D32F2F;stroke-width:2;stroke-linecap:round;stroke-linejoin:round;stroke-miterlimit:10;}
	.st51{fill:none;stroke:#FF9933;stroke-width:1.5;stroke-miterlimit:10;stroke-dasharray:4,3;}
	.st52{fill:none;stroke:#323132;stroke-width:2.4573;stroke-linecap:round;stroke-linejoin:round;stroke-miterlimit:10;}
	.st53{fill:none;stroke:#323132;stroke-width:2.4573;stroke-linecap:round;stroke-miterlimit:10;}
	
		.st54{fill:none;stroke:#323132;stroke-width:2.4573;stroke-linecap:round;stroke-miterlimit:10;stroke-dasharray:5.1908,5.1908,5.1908,5.1908;}
	
		.st55{fill:none;stroke:#323132;stroke-width:2.4573;stroke-linecap:round;stroke-miterlimit:10;stroke-dasharray:5.1908,5.1908,5.1908,5.1908,5.1908,5.1908;}
	
		.st56{fill:none;stroke:#1A4C83;stroke-width:2.4573;stroke-linecap:round;stroke-miterlimit:10;stroke-dasharray:4.9146,4.9146,4.9146,4.9146,4.9146,4.9146;}
	
		.st57{fill:none;stroke:#323132;stroke-width:2.4573;stroke-linecap:round;stroke-miterlimit:10;stroke-dasharray:4.7753,4.7753,4.7753,4.7753;}
	
		.st58{fill:none;stroke:#323132;stroke-width:2.4573;stroke-linecap:round;stroke-miterlimit:10;stroke-dasharray:4.7753,4.7753,4.7753,4.7753,4.7753,4.7753;}
	.st59{fill:none;stroke:#FFFFFF;stroke-width:2.5;stroke-linecap:round;stroke-linejoin:round;stroke-miterlimit:10;}
	.st60{fill:none;stroke:#1A4C83;stroke-width:2;stroke-linecap:round;stroke-linejoin:round;stroke-miterlimit:10;}
	.st61{fill:#D0D2D3;stroke:#D0D2D3;stroke-width:2;stroke-miterlimit:10;}
	.st62{fill:none;stroke:#00A5A1;stroke-width:2;stroke-linecap:round;stroke-linejoin:round;stroke-miterlimit:10;}
	.st63{fill:none;stroke:#FFFFFF;stroke-width:3;stroke-linecap:round;stroke-linejoin:round;stroke-miterlimit:10;}
	.st64{fill:none;stroke:#5F7682;stroke-width:2;stroke-linecap:round;stroke-linejoin:round;stroke-miterlimit:10;}
	.st65{fill:none;stroke:url(#SVGID_3_);stroke-width:3;stroke-miterlimit:10;}
	.st66{fill:#D32F2F;}
	.st67{fill:#FFFFFF;stroke:#1A4C83;stroke-width:2;stroke-miterlimit:10;}
	.st68{fill:none;stroke:#A1A1A1;stroke-width:1.1513;stroke-miterlimit:10;}
	.st69{fill:none;stroke:#1B3B5D;stroke-width:2;stroke-miterlimit:10;}
	.st70{fill:none;stroke:#0E6E6D;stroke-width:2;stroke-miterlimit:10;}
	.st71{fill:#DFDFDF;stroke:#000000;stroke-width:0.8866;stroke-miterlimit:10;}
	.st72{stroke:#000000;stroke-width:0.8866;stroke-miterlimit:10;}
	.st73{fill:#1B3B5D;}
	.st74{fill:#0E6E6D;}
	.st75{fill:#1A4C83;stroke:#1A4C83;stroke-width:2;stroke-miterlimit:10;}
	.st76{fill:none;stroke:#1A4C83;stroke-width:2;stroke-miterlimit:10;}
	.st77{fill:#032E46;}
	.st78{fill:none;stroke:#FFFFFF;stroke-width:3;stroke-miterlimit:10;}
	.st79{fill:none;stroke:#1A4C83;stroke-width:3;stroke-miterlimit:10;}
	.st80{fill:#5F7682;}
	.st81{fill:none;stroke:url(#SVGID_6_);stroke-width:3;stroke-miterlimit:10;}
	.st82{fill:none;stroke:url(#SVGID_7_);stroke-width:3;stroke-miterlimit:10;}
	.st83{fill:#FFFFFF;stroke:#008080;stroke-width:2;stroke-miterlimit:10;}
	.st84{fill:none;stroke:url(#SVGID_8_);stroke-width:2;stroke-miterlimit:10;}
	.st85{fill:#FFFFFF;stroke:#6E2585;stroke-width:2;stroke-miterlimit:10;}
	.st86{fill:#FFFFFF;stroke:#D2376D;stroke-width:2;stroke-miterlimit:10;}
	.st87{fill:none;stroke:url(#SVGID_9_);stroke-width:2;stroke-miterlimit:10;}
	.st88{fill:none;stroke:url(#SVGID_10_);stroke-width:2;stroke-miterlimit:10;}
	.st89{fill:none;stroke:url(#SVGID_11_);stroke-width:3;stroke-miterlimit:10;}
	.st90{fill:none;stroke:url(#SVGID_12_);stroke-width:3;stroke-miterlimit:10;}
	.st91{fill:none;stroke:url(#SVGID_13_);stroke-width:3;stroke-miterlimit:10;}
	.st92{fill:none;stroke:url(#SVGID_14_);stroke-width:3;stroke-miterlimit:10;}
	.st93{fill:none;stroke:url(#SVGID_15_);stroke-width:3;stroke-miterlimit:10;}
	.st94{fill:none;stroke:#5F7682;stroke-width:3;stroke-linecap:round;stroke-linejoin:round;stroke-miterlimit:10;}
	.st95{fill:#D9AF1B;}
	.st96{opacity:0.4;}
	.st97{fill:none;stroke:#FFFFFF;stroke-linecap:round;stroke-linejoin:round;stroke-miterlimit:10;}
	.st98{fill:none;stroke:#6E2585;stroke-width:3;stroke-miterlimit:10;}
	.st99{fill:#FFFFFF;stroke:#B692C2;stroke-width:3;stroke-miterlimit:10;}
	.st100{fill:none;stroke:#B692C2;stroke-width:3;stroke-miterlimit:10;}
	.st101{fill:none;stroke:url(#SVGID_16_);stroke-width:3;stroke-miterlimit:10;}
	.st102{fill:none;stroke:#27A0CC;stroke-width:3;stroke-miterlimit:10;}
	.st103{fill:#FFFFFF;stroke:#1A4C83;stroke-width:3;stroke-miterlimit:10;}
	.st104{fill:#FFFFFF;stroke:#27A0CC;stroke-width:3;stroke-miterlimit:10;}
	.st105{fill:#FFFFFF;stroke:#6E2585;stroke-width:3;stroke-miterlimit:10;}
	.st106{fill:none;stroke:url(#SVGID_17_);stroke-width:3;stroke-miterlimit:10;}
	.st107{fill:#27A0CC;}
	.st108{fill:#FFFFFF;stroke:#80BFBF;stroke-width:3;stroke-miterlimit:10;}
	.st109{fill:#27A0CC;stroke:#27A0CC;stroke-width:3;stroke-miterlimit:10;}
	.st110{fill:#FFFFFF;stroke:#8DA5C1;stroke-width:3;stroke-miterlimit:10;}
	.st111{fill:none;stroke:#5F7682;stroke-width:0.25;stroke-miterlimit:10;}
	.st112{fill:none;stroke:#5F7682;stroke-width:0.75;stroke-miterlimit:10;}
	.st113{fill:none;stroke:#27A0CC;stroke-miterlimit:10;}
	.st114{fill:none;stroke:#6E2585;stroke-miterlimit:10;}
	.st115{opacity:0.7;}
	.st116{opacity:0.5;}
	.st117{opacity:0.5;fill:#1A4C83;}
	.st118{opacity:0.6;fill:#FFFFFF;}
	.st119{opacity:0.5;fill:#FFFFFF;}
	.st120{fill:#FFFFFF;stroke:#003C57;stroke-width:3;stroke-miterlimit:10;}
	.st121{fill:#003C57;stroke:#003C57;stroke-width:3;stroke-miterlimit:10;}
</style>
<g>
	<g>
		<path class="st2" d="M18.5,31.62H19c0.22,0,0.41-0.15,0.41-0.34h0v-3.17h0c0-0.19-0.18-0.34-0.41-0.34H18.5
			c-0.22,0-0.41,0.15-0.41,0.34h0v3.17h0C18.09,31.47,18.28,31.62,18.5,31.62z"/>
		<path class="st2" d="M37.03,31.62h0.51c0.22,0,0.41-0.15,0.41-0.34h0v-3.17h0c0-0.19-0.18-0.34-0.41-0.34h-0.51
			c-0.22,0-0.41,0.15-0.41,0.34h0v3.17h0C36.62,31.47,36.8,31.62,37.03,31.62z"/>
		<g>
			<path class="st2" d="M21.06,28.63v-1.91c0-0.22-0.18-0.41-0.41-0.41h-3.83c-0.22,0-0.41,0.18-0.41,0.41l-0.01,1.91h-4.64v-8.12
				v-0.65c0-0.92,0.75-1.67,1.67-1.67h29.13c0.92,0,1.67,0.75,1.67,1.67v0.65v8.12H39.6l0-1.91c0-0.22-0.18-0.41-0.41-0.41h-3.83
				c-0.22,0-0.41,0.18-0.41,0.41l0,1.91H21.04"/>
			<path class="st2" d="M34.95,30.79v1.91c0,0.22,0.18,0.41,0.41,0.41l3.83,0c0.22,0,0.41-0.18,0.41-0.41l0.01-1.91h4.64v8.12v0.65
				c0,0.92-0.75,1.67-1.67,1.67H13.44c-0.92,0-1.67-0.75-1.67-1.67v-0.65v-8.12h4.64l0,1.91c0,0.22,0.18,0.41,0.41,0.41l3.83,0
				c0.22,0,0.41-0.18,0.41-0.41l0-1.91h13.91"/>
		</g>
	</g>
	<path class="st2" d="M33.63,16.62c0.09,0,0.17-0.07,0.17-0.17v-0.82c0-0.09-0.07-0.17-0.17-0.17h-0.8c-0.09,0-0.17-0.07-0.17-0.17
		v-3.14c0-0.09-0.07-0.17-0.17-0.17l-8.97,0c-0.09,0-0.17,0.07-0.17,0.17v3.17c0,0.09-0.07,0.17-0.17,0.17h-0.83
		c-0.09,0-0.17,0.07-0.17,0.17v0.8c0,0.09,0.07,0.17,0.17,0.17h1.99c0.09,0,0.17-0.07,0.17-0.17v-2.01c0-0.09,0.07-0.17,0.17-0.17
		h6.62c0.09,0,0.17,0.07,0.17,0.17v2.01c0,0.09,0.07,0.17,0.17,0.17H33.63z"/>
</g>
</svg>
