<?xml version="1.0" encoding="utf-8"?>
<!-- Generator: Adobe Illustrator 23.0.2, SVG Export Plug-In . SVG Version: 6.00 Build 0)  -->
<svg version="1.1" id="Layer_1" xmlns="http://www.w3.org/2000/svg" xmlns:xlink="http://www.w3.org/1999/xlink" x="0px" y="0px"
	 viewBox="0 0 56.01 56.01" style="enable-background:new 0 0 56.01 56.01;" xml:space="preserve">
<style type="text/css">
	.st0{fill:#1A4C83;}
</style>
<g>
	<circle class="st0" cx="27.42" cy="14.97" r="4.2"/>
	<path class="st0" d="M35.67,29.98l-3.58-8.73c-0.2-0.44-0.39-1.03-1.23-1.03c-0.31,0-0.62,0-0.98,0H25.5c-0.36,0-0.55,0-1,0
		c-0.84,0-1.28,0.55-1.52,1.04l-3.72,8.66c-0.35,0.73-0.06,1.61,0.66,1.96c0.72,0.36,1.59,0.06,1.95-0.67l0.28-0.57
		c0,0,0.09-0.15,0.05,0.02c-0.2,1.07-0.76,4.28-0.76,4.28c-0.14,0.67,0.31,1.21,0.99,1.21c0,0,1.22,0,1.62,0
		c0.12,0,0.1,0.09,0.1,0.09v6.45c0,1.08,0.67,1.65,1.5,1.65c0.83,0,1.5-0.57,1.5-1.65v-6.48c0,0,0-0.06,0.06-0.06
		c0.09,0,0.31,0,0.41,0c0.06,0,0.05,0.07,0.05,0.07v6.47c0,1.08,0.67,1.65,1.5,1.65c0.83,0,1.5-0.57,1.5-1.65v-6.43
		c0,0-0.01-0.1,0.11-0.1c0.44,0,1.74,0,1.74,0c0.68,0,1.14-0.55,1.02-1.22c0,0-0.56-3.44-0.71-4.38c-0.04-0.27,0.4,0.69,0.4,0.69
		c0.34,0.73,1,1.04,1.73,0.7C35.7,31.58,36.02,30.71,35.67,29.98z"/>
</g>
</svg>
