<?xml version="1.0" encoding="utf-8"?>
<!-- Generator: Adobe Illustrator 23.0.2, SVG Export Plug-In . SVG Version: 6.00 Build 0)  -->
<svg version="1.1" id="Layer_1" xmlns="http://www.w3.org/2000/svg" xmlns:xlink="http://www.w3.org/1999/xlink" x="0px" y="0px"
	 viewBox="0 0 56 56" style="enable-background:new 0 0 56 56;" xml:space="preserve">
<style type="text/css">
	.st0{fill:#FFFFFF;}
</style>
<g>
	<path class="st0" d="M28.1,13.4c2.5,0,4.9,0.5,7.4,1.6l-1.8,4.4c-2-0.8-3.7-1.2-5.1-1.2c-1,0-1.7,0.3-2.3,0.8
		c-0.5,0.6-0.8,1.4-0.8,2.4V25h7.1v4.1h-7.1v2.7c0,2.1-1,3.7-2.9,4.7h13.6v4.9H16.4v-4.7c1.3-0.6,2.2-1.2,2.7-1.9s0.7-1.7,0.7-3
		v-2.7h-3.4V25h3.4v-3.7c0-2.5,0.7-4.5,2.2-5.9S25.5,13.4,28.1,13.4z"/>
</g>
</svg>
