<?xml version="1.0" encoding="utf-8"?>
<!-- Generator: Adobe Illustrator 22.1.0, SVG Export Plug-In . SVG Version: 6.00 Build 0)  -->
<svg version="1.1" id="Layer_1" xmlns="http://www.w3.org/2000/svg" xmlns:xlink="http://www.w3.org/1999/xlink" x="0px" y="0px"
	 viewBox="0 0 40 40" style="enable-background:new 0 0 40 40;" xml:space="preserve">
<style type="text/css">
	.st0{fill:#3B7A9E;}
	.st1{fill:#FFFFFF;}
	.st2{fill:#414042;}
	.st3{fill:#4A4A49;}
	.st4{fill:#FF9933;}
	.st5{fill-rule:evenodd;clip-rule:evenodd;fill:#3B7A9E;}
	.st6{fill:none;stroke:#3B7A9E;stroke-miterlimit:10;}
	.st7{fill:#3B799C;}
	.st8{fill:#003C57;}
	.st9{fill:#00A7A3;}
	.st10{fill:#5F7682;}
	.st11{fill:none;stroke:#414042;stroke-width:4;stroke-linecap:round;stroke-linejoin:round;stroke-miterlimit:10;}
	.st12{fill:#E3E8EC;}
	.st13{fill:#EAEAEA;}
	.st14{fill:#206095;}
	.st15{fill:none;stroke:#4A4A49;stroke-miterlimit:10;}
	.st16{fill:#FFFFFF;stroke:#D0D2D3;stroke-miterlimit:10;}
	.st17{fill:#D0D2D3;stroke:#FFFFFF;stroke-miterlimit:10;}
	.st18{fill:#E5E6E7;}
</style>
<path class="st0" d="M33.2,26.8c-1.5,0-2.7-1.2-2.7-2.7c0-1.5,1.2-2.8,2.7-2.7c1.5,0,2.7,1.2,2.7,2.7C35.8,25.6,34.7,26.8,33.2,26.8
	 M20,18.2L20,18.2H7.5l2.4-6.4c0.3-0.9,0.7-1.6,1.8-1.6H20h0h8.3c1,0,1.5,0.7,1.8,1.6l2.4,6.4H20z M6.8,26.8c-1.5,0-2.7-1.2-2.7-2.7
	c0-1.5,1.2-2.8,2.7-2.7c1.5,0,2.7,1.2,2.7,2.7C9.5,25.6,8.3,26.8,6.8,26.8 M35.8,18.2l-3.2-8.1c-0.6-1.6-1.9-2.9-4.3-2.9h-4.4h-7.6
	h-4.5c-2.4,0-3.7,1.3-4.3,2.9l-3.2,8.1c-1.3,0.2-3.5,1.6-3.5,4.4V33h3.1v3.3c0,4.1,5.8,4,5.8,0V33H20h10.4v3.3c0,4,5.8,4.1,5.8,0V33
	h3.1V22.7C39.2,19.9,37,18.4,35.8,18.2"/>
</svg>
