<?xml version="1.0" encoding="utf-8"?>
<!-- Generator: Adobe Illustrator 22.1.0, SVG Export Plug-In . SVG Version: 6.00 Build 0)  -->
<svg version="1.1" id="Layer_1" xmlns="http://www.w3.org/2000/svg" xmlns:xlink="http://www.w3.org/1999/xlink" x="0px" y="0px"
	 viewBox="0 0 40 40" style="enable-background:new 0 0 40 40;" xml:space="preserve">
<style type="text/css">
	.st0{fill:#3B7A9E;}
	.st1{fill:#FFFFFF;}
	.st2{fill:#414042;}
	.st3{fill:#4A4A49;}
	.st4{fill:#FF9933;}
	.st5{fill-rule:evenodd;clip-rule:evenodd;fill:#3B7A9E;}
	.st6{fill:none;stroke:#3B7A9E;stroke-miterlimit:10;}
	.st7{fill:#3B799C;}
	.st8{fill:#003C57;}
	.st9{fill:#00A7A3;}
	.st10{fill:#5F7682;}
	.st11{fill:none;stroke:#414042;stroke-width:4;stroke-linecap:round;stroke-linejoin:round;stroke-miterlimit:10;}
	.st12{fill:#E3E8EC;}
	.st13{fill:#EAEAEA;}
	.st14{fill:#206095;}
	.st15{fill:none;stroke:#4A4A49;stroke-miterlimit:10;}
	.st16{fill:#FFFFFF;stroke:#D0D2D3;stroke-miterlimit:10;}
	.st17{fill:#D0D2D3;stroke:#FFFFFF;stroke-miterlimit:10;}
	.st18{fill:#E5E6E7;}
</style>
<path class="st7" d="M38.8,6.8l-6.5,7.6c-2.4,2.4-4.7,1.6-6.7,2c0,0-0.9,1.3-3.1,3.8l-0.9-0.8c0-0.7-0.3-1.4-0.7-2
	c2.1-1.8,3.2-2.6,3.2-2.6c0.4-2-0.4-4.3,2-6.7l7.6-6.5c0.3-0.3,0.7-0.3,1,0c0.3,0.3,0.3,0.7,0,1l-7.1,7l0.8,0.8l7.3-6.8
	c0.3-0.3,0.7-0.3,1,0c0.3,0.3,0.3,0.7,0,1L29.9,12l0.8,0.8l7-7.1c0.3-0.3,0.7-0.3,1,0C39.1,6.1,39.1,6.5,38.8,6.8z M15.9,22
	c-1.1,1-2.3,2.2-3.6,3.5c-5.4,5.4-8.2,6.4-10.8,8.9c-1,1-0.6,3,0.4,4c1,1,3,1.4,4,0.4c2.5-2.5,3.6-5.4,8.9-10.8
	c1.6-1.6,2.9-3,4.1-4.2l-0.9-1C17.3,22.9,16.5,22.6,15.9,22z M20.5,19.9c0.1-0.7-0.1-1.5-0.6-2c0,0-14.3-14.3-14.7-14.7
	c-0.4-0.4-0.9-0.8-1.3-1C3.8,2.1,3.6,2.1,3.5,2.1C3.3,2.1,3.1,2.2,3,2.3C1.5,3.8,3.3,7.9,8.3,12.9l8.2,8.2c0.5,0.5,1.1,0.7,1.6,0.7
	c0.1,0,0.3,0,0.4,0l14.6,16.3c0.5,0.5,1.1,0.7,1.8,0.7c0.6,0,1.3-0.2,1.8-0.7c1-1,1-2.6,0-3.6L20.5,19.9z"/>
</svg>
