<?xml version="1.0" encoding="utf-8"?>
<!-- Generator: Adobe Illustrator 22.1.0, SVG Export Plug-In . SVG Version: 6.00 Build 0)  -->
<svg version="1.1" id="Layer_1" xmlns="http://www.w3.org/2000/svg" xmlns:xlink="http://www.w3.org/1999/xlink" x="0px" y="0px"
	 viewBox="0 0 40 40" style="enable-background:new 0 0 40 40;" xml:space="preserve">
<style type="text/css">
	.st0{fill:#3B7A9E;}
	.st1{fill:#FFFFFF;}
	.st2{fill:#414042;}
	.st3{fill:#4A4A49;}
	.st4{fill:#FF9933;}
	.st5{fill-rule:evenodd;clip-rule:evenodd;fill:#3B7A9E;}
	.st6{fill:none;stroke:#3B7A9E;stroke-miterlimit:10;}
	.st7{fill:#3B799C;}
	.st8{fill:#003C57;}
	.st9{fill:#00A7A3;}
	.st10{fill:#5F7682;}
	.st11{fill:none;stroke:#414042;stroke-width:4;stroke-linecap:round;stroke-linejoin:round;stroke-miterlimit:10;}
	.st12{fill:#E3E8EC;}
	.st13{fill:#EAEAEA;}
	.st14{fill:#206095;}
	.st15{fill:none;stroke:#4A4A49;stroke-miterlimit:10;}
	.st16{fill:#FFFFFF;stroke:#D0D2D3;stroke-miterlimit:10;}
	.st17{fill:#D0D2D3;stroke:#FFFFFF;stroke-miterlimit:10;}
	.st18{fill:#E5E6E7;}
</style>
<path class="st0" d="M39.1,37.4c-0.4-1.4-1.8-2.2-2-2.3c-2.4-1.1-8.8-4.3-9.9-5.3c-1.1-1-1.1-1-2-2.4c-0.2-0.3-0.5-0.8-0.8-1.3
	c-1.3-2-2.8-2.5-3.6-2.7l0-0.7c0,0,0.1-0.1,0.1-0.1c0.1-0.1,2.1-1.4,2.4-3.4c0.2-1.3,0-2.1-0.6-3.1c-0.5-0.8-1.2-1.3-2.1-1.5
	c-0.2,0-0.4,0-0.6,0c-1.8,0-3.2,1.3-3.5,2.2c-0.1,0.2-0.1,0.3-0.2,0.4c-0.1,0.1-0.1,0.1-0.1,0.1c-0.2,0.1-0.4,0.3-0.4,0.5
	c-0.1,0.2-0.1,0.5,0,0.7c0.1,0.4,0.4,0.6,0.8,0.6c0.1,0,0.2,0,0.3-0.1c0.1,0,0.4-0.2,0.6-0.4c0.3-0.3,0.4-0.6,0.6-1.1
	c0.1-0.2,0.8-1,1.9-1c0.1,0,0.3,0,0.4,0c0.4,0.1,0.8,0.3,1,0.7c0.3,0.6,0.5,0.9,0.4,1.6c-0.1,0.9-1.1,1.8-1.6,2.1
	c-0.7,0.4-1,1.2-0.9,1.8v0.7c-0.8,0.2-2.1,0.8-3.3,2.6c-0.3,0.5-0.6,1-0.8,1.3c-0.9,1.4-0.9,1.4-2,2.4c-1.2,1-7.6,4.2-10,5.3
	c-0.2,0.1-1.6,0.9-2,2.3C0.7,38,0.8,38.6,1,39.2c0.1,0.2,0.3,0.3,0.5,0.3c0.1,0,0.2,0,0.3-0.1L2.5,39h35l0.7,0.4
	c0.1,0,0.2,0.1,0.3,0.1c0.2,0,0.4-0.1,0.5-0.3C39.2,38.6,39.3,38,39.1,37.4z M6.1,37L20,29l13.9,8H6.1z"/>
</svg>
