<?xml version="1.0" encoding="utf-8"?>
<!-- Generator: Adobe Illustrator 22.1.0, SVG Export Plug-In . SVG Version: 6.00 Build 0)  -->
<svg version="1.1" id="Layer_1" xmlns="http://www.w3.org/2000/svg" xmlns:xlink="http://www.w3.org/1999/xlink" x="0px" y="0px"
	 viewBox="0 0 40 40" style="enable-background:new 0 0 40 40;" xml:space="preserve">
<style type="text/css">
	.st0{fill:#3B7A9E;}
	.st1{fill:#FFFFFF;}
	.st2{fill:#414042;}
	.st3{fill:#4A4A49;}
	.st4{fill:#FF9933;}
	.st5{fill-rule:evenodd;clip-rule:evenodd;fill:#3B7A9E;}
	.st6{fill:none;stroke:#3B7A9E;stroke-miterlimit:10;}
	.st7{fill:#3B799C;}
	.st8{fill:#003C57;}
	.st9{fill:#00A7A3;}
	.st10{fill:#5F7682;}
	.st11{fill:none;stroke:#414042;stroke-width:4;stroke-linecap:round;stroke-linejoin:round;stroke-miterlimit:10;}
	.st12{fill:#E3E8EC;}
	.st13{fill:#EAEAEA;}
	.st14{fill:#206095;}
	.st15{fill:none;stroke:#4A4A49;stroke-miterlimit:10;}
	.st16{fill:#FFFFFF;stroke:#D0D2D3;stroke-miterlimit:10;}
	.st17{fill:#D0D2D3;stroke:#FFFFFF;stroke-miterlimit:10;}
	.st18{fill:#E5E6E7;}
</style>
<g>
	<rect x="24" y="14.7" transform="matrix(0.6572 -0.7537 0.7537 0.6572 -1.78 29.3599)" class="st0" width="14.8" height="3.9"/>
	<rect x="36.5" y="8.4" transform="matrix(0.6566 -0.7542 0.7542 0.6566 4.8261 31.352)" class="st0" width="0.8" height="3.9"/>
	<rect x="37.3" y="7.4" transform="matrix(0.6572 -0.7537 0.7537 0.6572 5.8304 31.6324)" class="st0" width="0.8" height="3.9"/>
	
		<rect x="16.8" y="24.9" transform="matrix(0.6572 -0.7537 0.7537 0.6572 -12.5428 26.1462)" class="st0" width="11.4" height="3.9"/>
	<path class="st0" d="M33.7,6.4c-1-0.6-1.9-0.7-2.9,0.3c-0.1,0.1-3.1-2.5-4.7-0.3c-1.5,2.1,1.1,4.4,3.1,2.3c0.4-0.4,0.7,2.4,2.8,0.4
		c1.9-1.8,3.2-0.7,3.2-0.7S34.8,7.2,33.7,6.4z"/>
</g>
<path class="st0" d="M21.6,19.7c1.7-4.3,0.8-9.2-0.4-15.8H2.1C0.8,10.4,0,15.4,1.6,19.7c1.7,4.3,6.2,5,7.8,7.5
	c1.6,2.5-0.2,5.1-0.2,5.1c-0.9,1.3-2.4,2.4-5,2.8l-1.1,0.2c-0.3,0.1-0.5,0.4-0.5,0.7c0,0.4,0.3,0.7,0.8,0.7h16.5
	c0.4,0,0.8-0.3,0.8-0.7c0-0.3-0.2-0.6-0.5-0.7L19,35.1c-2.6-0.4-4.1-1.5-5-2.8c0,0-1.8-2.6-0.2-5.1C15.4,24.6,20,23.9,21.6,19.7z
	 M2,9c0.2-1.4,0.5-2.8,0.7-4.2h17.7C20.8,6.2,21,7.6,21.2,9H2z"/>
</svg>
