<?xml version="1.0" encoding="utf-8"?>
<!-- Generator: Adobe Illustrator 22.1.0, SVG Export Plug-In . SVG Version: 6.00 Build 0)  -->
<svg version="1.1" id="Layer_1" xmlns="http://www.w3.org/2000/svg" xmlns:xlink="http://www.w3.org/1999/xlink" x="0px" y="0px"
	 viewBox="0 0 40 40" style="enable-background:new 0 0 40 40;" xml:space="preserve">
<style type="text/css">
	.st0{fill:#3B7A9E;}
	.st1{fill:#FFFFFF;}
	.st2{fill:#414042;}
	.st3{fill:#4A4A49;}
	.st4{fill:#FF9933;}
	.st5{fill-rule:evenodd;clip-rule:evenodd;fill:#3B7A9E;}
	.st6{fill:none;stroke:#3B7A9E;stroke-miterlimit:10;}
	.st7{fill:#3B799C;}
	.st8{fill:#003C57;}
	.st9{fill:#00A7A3;}
	.st10{fill:#5F7682;}
	.st11{fill:none;stroke:#414042;stroke-width:4;stroke-linecap:round;stroke-linejoin:round;stroke-miterlimit:10;}
	.st12{fill:#E3E8EC;}
	.st13{fill:#EAEAEA;}
	.st14{fill:#206095;}
	.st15{fill:none;stroke:#4A4A49;stroke-miterlimit:10;}
	.st16{fill:#FFFFFF;stroke:#D0D2D3;stroke-miterlimit:10;}
	.st17{fill:#D0D2D3;stroke:#FFFFFF;stroke-miterlimit:10;}
	.st18{fill:#E5E6E7;}
</style>
<path class="st5" d="M5.9,34.9c-0.6-0.6-1.5-0.6-2.1,0c-0.6,0.6-0.6,1.5,0,2.1c0.6,0.6,1.5,0.6,2.1,0C6.5,36.4,6.5,35.4,5.9,34.9
	 M38.5,7.7c1.4,3.5,0.8,7.6-2.1,10.5c-3.1,3.1-7.8,3.6-11.5,1.5l-2.6,2.9l1.9,1.9l1.1-1.1c0.6-0.6,1.5-0.6,2.1,0l9.2,9.3
	c0.6,0.6,0.6,1.5,0,2.1L32.4,39c-0.6,0.6-1.5,0.6-2.1,0l-9.2-9.3c-0.6-0.6-0.6-1.5,0-2.1l1-1l-1.8-1.8L7.7,38.6
	c-1.2,1.2-3,1.2-4.2,0l-1-1c-1.2-1.2-1.2-3,0-4.2l14.4-12.1l-9.6-9.6l-3,0L0.8,6l2.8-2.8l5.8,3.5l0,3l9.7,9.7l2.8-2.4
	c-2.8-3.8-2.5-9.1,0.9-12.5c2.8-2.8,7-3.5,10.4-2.1l-6.2,6.1l5.2,5.2L38.5,7.7z"/>
</svg>
