<?xml version="1.0" encoding="utf-8"?>
<!-- Generator: Adobe Illustrator 22.1.0, SVG Export Plug-In . SVG Version: 6.00 Build 0)  -->
<svg version="1.1" id="Layer_1" xmlns="http://www.w3.org/2000/svg" xmlns:xlink="http://www.w3.org/1999/xlink" x="0px" y="0px"
	 viewBox="0 0 40 40" style="enable-background:new 0 0 40 40;" xml:space="preserve">
<style type="text/css">
	.st0{fill:#EAEAEA;}
	.st1{fill:#206095;}
	.st2{fill:#3B7A9E;}
	.st3{fill:#FFFFFF;}
	.st4{fill:#414042;}
	.st5{fill:#4A4A49;}
	.st6{fill:#FF9933;}
	.st7{fill-rule:evenodd;clip-rule:evenodd;fill:#3B7A9E;}
	.st8{fill:none;stroke:#3B7A9E;stroke-miterlimit:10;}
	.st9{fill:#3B799C;}
	.st10{fill:#003C57;}
	.st11{fill:#00A7A3;}
	.st12{fill:#5F7682;}
	.st13{fill:none;stroke:#414042;stroke-width:4;stroke-linecap:round;stroke-linejoin:round;stroke-miterlimit:10;}
	.st14{fill:none;stroke:#4A4A49;stroke-miterlimit:10;}
	.st15{fill:#FFFFFF;stroke:#3B7A9E;stroke-miterlimit:10;}
	.st16{fill:#323132;}
	.st17{fill:none;stroke:#FF9933;stroke-width:3;stroke-linecap:round;stroke-linejoin:round;stroke-miterlimit:10;}
	.st18{fill:none;stroke:#FF9933;stroke-width:3;stroke-miterlimit:10;}
</style>
<g>
	<path class="st2" d="M19.9,2.9C10.4,2.9,2.8,10.6,2.8,20c0,9.4,7.7,17.1,17.1,17.1C29.3,37.1,37,29.4,37,20
		C37,10.6,29.3,2.9,19.9,2.9z M25.1,27.4H14.6v-2.5c0.7-0.3,1.2-0.6,1.4-1c0.3-0.4,0.4-0.9,0.4-1.6v-1.4h-1.8v-2.2h1.8v-1.9
		c0-1.3,0.4-2.4,1.1-3.1c0.8-0.7,1.8-1.1,3.2-1.1c1.3,0,2.6,0.3,3.9,0.8l-0.9,2.3c-1-0.4-2-0.6-2.7-0.6c-0.5,0-0.9,0.1-1.2,0.4
		c-0.3,0.3-0.4,0.7-0.4,1.3v1.9h3.7v2.2h-3.7v1.4c0,1.1-0.5,2-1.5,2.5h7.2V27.4z"/>
	<path class="st2" d="M19.9,0.5C9.1,0.5,0.4,9.3,0.4,20c0,10.7,8.7,19.5,19.5,19.5c10.7,0,19.5-8.7,19.5-19.5
		C39.4,9.3,30.6,0.5,19.9,0.5z M19.9,38.3C9.8,38.3,1.6,30.1,1.6,20S9.8,1.7,19.9,1.7S38.2,9.9,38.2,20S30,38.3,19.9,38.3z"/>
</g>
</svg>
