<?xml version="1.0" encoding="utf-8"?>
<!-- Generator: Adobe Illustrator 22.1.0, SVG Export Plug-In . SVG Version: 6.00 Build 0)  -->
<svg version="1.1" id="Layer_1" xmlns="http://www.w3.org/2000/svg" xmlns:xlink="http://www.w3.org/1999/xlink" x="0px" y="0px"
	 viewBox="0 0 40 40" style="enable-background:new 0 0 40 40;" xml:space="preserve">
<style type="text/css">
	.st0{fill:#3B7A9E;}
	.st1{fill:#FFFFFF;}
	.st2{fill:#414042;}
	.st3{fill:#4A4A49;}
	.st4{fill:#FF9933;}
	.st5{fill-rule:evenodd;clip-rule:evenodd;fill:#3B7A9E;}
	.st6{fill:none;stroke:#3B7A9E;stroke-miterlimit:10;}
	.st7{fill:#3B799C;}
	.st8{fill:#003C57;}
	.st9{fill:#00A7A3;}
	.st10{fill:#5F7682;}
	.st11{fill:none;stroke:#414042;stroke-width:4;stroke-linecap:round;stroke-linejoin:round;stroke-miterlimit:10;}
	.st12{fill:#E3E8EC;}
	.st13{fill:#EAEAEA;}
	.st14{fill:#206095;}
	.st15{fill:none;stroke:#4A4A49;stroke-miterlimit:10;}
	.st16{fill:#FFFFFF;stroke:#D0D2D3;stroke-miterlimit:10;}
	.st17{fill:#D0D2D3;stroke:#FFFFFF;stroke-miterlimit:10;}
	.st18{fill:#E5E6E7;}
</style>
<g>
	<path class="st0" d="M26.1,11.1c-2.5,0-4.7,1.1-5.9,2.9c0,0,0-0.1,0.1-0.1l0-0.1l0-0.1c-0.1-1,0.1-1.9,0.5-2.8
		c0.6-1.5,1.8-2.7,3.3-3.3l0.2-0.1l-0.7-1.7l-0.2,0.1c-2,0.8-3.5,2.4-4.3,4.4c-0.4,1-0.6,2-0.6,3l0,0.1l0,0
		c-1.3-1.4-3.2-2.3-5.5-2.3c-15.5,0-9.8,29.9,4,28c1.2-0.2,2-0.6,2.5-1.1c0.5,0.6,1.3,1,2.5,1.1C35.9,41,41.7,11.1,26.1,11.1z
		 M11.9,16.5c-2.6,1.1-3.8,4.1-2.7,6.7c0.2,0.5,0,1.1-0.5,1.3c-0.1,0.1-0.3,0.1-0.4,0.1c-0.4,0-0.8-0.2-0.9-0.6
		c-1.5-3.6,0.2-7.8,3.8-9.3c0.5-0.2,1.1,0,1.3,0.5C12.6,15.7,12.4,16.3,11.9,16.5z M18.7,13.8C18.7,13.8,18.7,13.7,18.7,13.8
		C18.7,13.7,18.7,13.8,18.7,13.8z M19,14.2c0-0.1-0.1-0.1-0.1-0.2C18.9,14.1,19,14.1,19,14.2z M19.3,14.7
		C19.4,14.8,19.4,14.8,19.3,14.7l0.2,0.4l0.2-0.3c0,0,0,0,0-0.1c-0.1,0.1-0.1,0.3-0.2,0.4C19.5,15,19.4,14.9,19.3,14.7z M19.1,14.3
		c0.1,0.1,0.1,0.2,0.1,0.2C19.2,14.5,19.2,14.4,19.1,14.3z M20,14.3c0,0.1-0.1,0.1-0.1,0.2C19.9,14.4,20,14.4,20,14.3z"/>
	<path class="st0" d="M19.1,9.7c0.6-1.1,1.4-2.1,2.4-2.9c-1.8-3.3-5.9-4.4-9.4-3.4C12.9,6.7,15.6,9.4,19.1,9.7z"/>
</g>
</svg>
