<?xml version="1.0" encoding="utf-8"?>
<!-- Generator: Adobe Illustrator 20.1.0, SVG Export Plug-In . SVG Version: 6.00 Build 0)  -->
<svg version="1.1" id="Layer_1" xmlns="http://www.w3.org/2000/svg" xmlns:xlink="http://www.w3.org/1999/xlink" x="0px" y="0px"
	 viewBox="0 0 90 90" style="enable-background:new 0 0 90 90;" xml:space="preserve">
<style type="text/css">
	.st0{fill:#656f6b;stroke:#FFFFFF;stroke-width:8;stroke-miterlimit:10;}
	.st1{enable-background:new    ;}
	.st2{fill:#FFFFFF;}
</style>
<g>
	<g>
		<circle class="st0" cx="45" cy="45" r="39.4"/>
	</g>
	<g class="st1">
		<path class="st2" d="M36.7,67.1h-9.1V42.3l0.1-4.1l0.1-4.5c-1.5,1.5-2.5,2.5-3.1,3l-4.9,4l-4.4-5.4l13.8-11h7.4V67.1z"/>
		<path class="st2" d="M72.2,45.7c0,7.5-1.2,13-3.7,16.6c-2.5,3.6-6.2,5.4-11.3,5.4c-4.9,0-8.7-1.9-11.2-5.6
			c-2.5-3.7-3.8-9.2-3.8-16.4c0-7.6,1.2-13.1,3.7-16.7c2.4-3.6,6.2-5.4,11.3-5.4c4.9,0,8.7,1.9,11.2,5.6C71,33,72.2,38.5,72.2,45.7z
			 M51.3,45.7c0,5.3,0.5,9,1.4,11.3s2.4,3.4,4.6,3.4c2.1,0,3.6-1.2,4.6-3.5s1.4-6.1,1.4-11.2c0-5.3-0.5-9-1.4-11.3
			c-0.9-2.3-2.5-3.4-4.6-3.4c-2.1,0-3.7,1.1-4.6,3.4C51.8,36.7,51.3,40.4,51.3,45.7z"/>
	</g>
</g>
</svg>
