<?xml version="1.0" encoding="utf-8"?>
<!-- Generator: Adobe Illustrator 20.1.0, SVG Export Plug-In . SVG Version: 6.00 Build 0)  -->
<svg version="1.1" id="Layer_1" xmlns="http://www.w3.org/2000/svg" xmlns:xlink="http://www.w3.org/1999/xlink" x="0px" y="0px"
	 viewBox="0 0 90 90" style="enable-background:new 0 0 90 90;" xml:space="preserve">
<style type="text/css">
	.st0{fill:#656f6b;stroke:#FFFFFF;stroke-width:8;stroke-miterlimit:10;}
	.st1{fill:#FFFFFF;}
</style>
<g>
	<g>
		<circle class="st0" cx="45" cy="45" r="39.4"/>
	</g>
</g>
<g>
	<path class="st1" d="M36.5,67.1h-9V42.5l0.1-4l0.1-4.4c-1.5,1.5-2.5,2.5-3.1,2.9l-4.9,3.9l-4.3-5.4l13.7-10.9h7.4V67.1z"/>
	<path class="st1" d="M69.2,67.1H39.4v-6.3l10.7-10.8c3.2-3.2,5.2-5.5,6.2-6.7c1-1.3,1.7-2.4,2.1-3.5c0.4-1.1,0.6-2.2,0.6-3.3
		c0-1.7-0.5-3-1.4-3.8c-0.9-0.8-2.2-1.3-3.8-1.3c-1.6,0-3.2,0.4-4.8,1.1c-1.6,0.8-3.2,1.8-4.9,3.2L39.3,30c2.1-1.8,3.8-3,5.2-3.8
		s2.9-1.3,4.5-1.7c1.6-0.4,3.5-0.6,5.5-0.6c2.7,0,5,0.5,7,1.5s3.6,2.3,4.7,4.1c1.1,1.7,1.7,3.7,1.7,6c0,2-0.3,3.8-1,5.5
		c-0.7,1.7-1.8,3.5-3.2,5.3s-4,4.4-7.6,7.7l-5.5,5.1v0.4h18.5V67.1z"/>
</g>
</svg>
