<?xml version="1.0" encoding="utf-8"?>
<!-- Generator: Adobe Illustrator 20.1.0, SVG Export Plug-In . SVG Version: 6.00 Build 0)  -->
<svg version="1.1" id="Layer_1" xmlns="http://www.w3.org/2000/svg" xmlns:xlink="http://www.w3.org/1999/xlink" x="0px" y="0px"
	 viewBox="0 0 90 90" style="enable-background:new 0 0 90 90;" xml:space="preserve">
<style type="text/css">
	.st0{fill:#656f6b;stroke:#FFFFFF;stroke-width:8;stroke-miterlimit:10;}
	.st1{fill:#FFFFFF;}
</style>
<g>
	<g>
		<circle class="st0" cx="45" cy="45" r="39.4"/>
	</g>
</g>
<g>
	<path class="st1" d="M37.1,66h-8.8V42l0.1-3.9l0.1-4.3c-1.5,1.5-2.5,2.4-3,2.9l-4.8,3.8l-4.2-5.3l13.4-10.7h7.2V66z"/>
	<path class="st1" d="M71.5,57.4h-5V66H58v-8.6H40.2v-6.1l18.2-26.8h8.1v26.1h5V57.4z M58,50.6v-7c0-1.2,0-2.9,0.1-5.1
		c0.1-2.2,0.2-3.5,0.2-3.9h-0.2c-0.7,1.6-1.5,3.1-2.5,4.5L48,50.6H58z"/>
</g>
</svg>
