<?xml version="1.0" encoding="utf-8"?>
<!-- Generator: Adobe Illustrator 19.1.0, SVG Export Plug-In . SVG Version: 6.00 Build 0)  -->
<!DOCTYPE svg PUBLIC "-//W3C//DTD SVG 1.1//EN" "http://www.w3.org/Graphics/SVG/1.1/DTD/svg11.dtd">
<svg version="1.1" id="Layer_1" xmlns="http://www.w3.org/2000/svg" xmlns:xlink="http://www.w3.org/1999/xlink" x="0px" y="0px"
	 viewBox="25 -25 90 90" style="enable-background:new 25 -25 90 90;" xml:space="preserve">
<style type="text/css">
	.st0{fill:#656f6b;stroke:#FFFFFF;stroke-width:8;stroke-miterlimit:10;}
	.st1{fill:#FFFFFF;}
</style>
<g>
	<circle class="st0" cx="70" cy="20" r="39.4"/>
	<g>
		<path class="st1" d="M83.9,6.6c0,2.8-0.8,5.1-2.4,7c-1.6,1.9-3.9,3.3-6.8,4v0.2c3.4,0.4,6.1,1.5,7.8,3.2s2.7,4,2.7,6.9
			c0,4.2-1.5,7.5-4.5,9.9s-7.2,3.5-12.8,3.5c-4.6,0-8.7-0.8-12.3-2.4V31c1.7,0.9,3.5,1.6,5.5,2.1s4,0.8,5.9,0.8c3,0,5.2-0.5,6.6-1.6
			c1.4-1,2.1-2.7,2.1-5c0-2.1-0.8-3.5-2.5-4.4c-1.6-0.9-4.2-1.3-7.8-1.3h-3.2v-7.1h3.3c3.3,0,5.7-0.4,7.3-1.3
			c1.5-0.9,2.3-2.4,2.3-4.6c0-3.3-2-5-6.1-5c-1.4,0-2.8,0.2-4.3,0.7c-1.5,0.5-3.1,1.3-4.8,2.5l-4.2-6.4c3.9-2.9,8.5-4.3,13.9-4.3
			c4.4,0,7.9,0.9,10.5,2.8C82.7,0.7,83.9,3.3,83.9,6.6z"/>
	</g>
</g>
</svg>
