<?xml version="1.0" encoding="utf-8"?>
<!-- Generator: Adobe Illustrator 19.1.0, SVG Export Plug-In . SVG Version: 6.00 Build 0)  -->
<!DOCTYPE svg PUBLIC "-//W3C//DTD SVG 1.1//EN" "http://www.w3.org/Graphics/SVG/1.1/DTD/svg11.dtd">
<svg version="1.1" id="Layer_1" xmlns="http://www.w3.org/2000/svg" xmlns:xlink="http://www.w3.org/1999/xlink" x="0px" y="0px"
	 viewBox="25 -25 90 90" style="enable-background:new 25 -25 90 90;" xml:space="preserve">
<style type="text/css">
	.st0{fill:#656f6b;stroke:#FFFFFF;stroke-width:8;stroke-miterlimit:10;}
	.st1{fill:#FFFFFF;}
</style>
<g>
	<circle class="st0" cx="70" cy="20" r="39.4"/>
	<g>
		<path class="st1" d="M71.3,12.6c4.1,0,7.4,1.2,9.9,3.6c2.4,2.4,3.7,5.7,3.7,9.8c0,4.9-1.5,8.7-4.4,11.4s-7.1,4-12.6,4
			c-4.8,0-8.6-0.8-11.5-2.4v-8c1.5,0.8,3.3,1.5,5.4,2.1s4,0.8,5.8,0.8c5.5,0,8.3-2.3,8.3-7c0-4.4-2.9-6.7-8.6-6.7
			c-1,0-2.2,0.1-3.4,0.3c-1.2,0.2-2.3,0.4-3,0.7l-3.6-2l1.6-22.4h23.2v7.9H66.6l-0.8,8.6l1-0.2C68.1,12.8,69.5,12.6,71.3,12.6z"/>
	</g>
</g>
</svg>
