<?xml version="1.0" encoding="utf-8"?>
<!-- Generator: Adobe Illustrator 18.1.1, SVG Export Plug-In . SVG Version: 6.00 Build 0)  -->
<!DOCTYPE svg PUBLIC "-//W3C//DTD SVG 1.1//EN" "http://www.w3.org/Graphics/SVG/1.1/DTD/svg11.dtd">
<svg version="1.1" id="Layer_1" xmlns="http://www.w3.org/2000/svg" xmlns:xlink="http://www.w3.org/1999/xlink" x="0px" y="0px"
	 viewBox="0 0 90 90" enable-background="new 0 0 90 90" xml:space="preserve">
<g>
	<circle fill="#656f6b" stroke="#FFFFFF" stroke-width="8" stroke-miterlimit="10" cx="45" cy="45" r="39.4"/>
	<g>
		<path fill="#FFFFFF" d="M29.5,48.1c0-8.7,1.8-15.2,5.4-19.5s8.9-6.4,16.1-6.4c2.4,0,4.3,0.2,5.7,0.5v7.4c-1.7-0.4-3.4-0.6-5.1-0.6
			c-3.1,0-5.6,0.5-7.6,1.4c-2,1-3.4,2.4-4.4,4.3c-1,1.9-1.5,4.6-1.7,8h0.4c1.9-3.4,5-5.1,9.3-5.1c3.8,0,6.8,1.2,9,3.7
			c2.2,2.5,3.2,5.9,3.2,10.2c0,4.7-1.3,8.4-3.9,11.2c-2.6,2.7-6.1,4.1-10.7,4.1c-3.2,0-5.9-0.8-8.3-2.3c-2.3-1.5-4.2-3.7-5.4-6.6
			C30.1,55.6,29.5,52.2,29.5,48.1z M44.9,59.9c1.9,0,3.4-0.7,4.4-2s1.5-3.2,1.5-5.7c0-2.1-0.5-3.8-1.4-5.1c-1-1.2-2.4-1.9-4.4-1.9
			c-1.8,0-3.4,0.6-4.7,1.8c-1.3,1.2-1.9,2.7-1.9,4.3c0,2.4,0.6,4.4,1.8,6.1C41.5,59.1,43,59.9,44.9,59.9z"/>
	</g>
</g>
</svg>
