<?xml version="1.0" encoding="UTF-8"?>
<svg width="308px" height="167px" viewBox="0 0 308 167" version="1.1" xmlns="http://www.w3.org/2000/svg" xmlns:xlink="http://www.w3.org/1999/xlink">
    <!-- Generator: Sketch 52.3 (67297) - http://www.bohemiancoding.com/sketch -->
    <title>Bar group</title>
    <desc>Created with Sketch.</desc>
    <defs>
        <polygon id="path-1" points="0.4802 0.947 45.462 0.947 45.462 40.109 0.4802 40.109"></polygon>
    </defs>
    <g id="Pubs-visuals" stroke="none" stroke-width="1" fill="none" fill-rule="evenodd">
        <g id="Desktop" transform="translate(-42.000000, -377.000000)">
            <g id="Bar-group" transform="translate(42.000000, 377.000000)">
                <polygon id="Bar" fill="#B8860B" points="0 166.399 307.721 166.399 307.721 150 0 150"></polygon>
                <g id="Pint" transform="translate(66.000000, 92.000000)">
                    <g id="Group-3" transform="translate(21.000000, 16.989700)">
                        <mask id="mask-2" fill="white">
                            <use xlink:href="#path-1"></use>
                        </mask>
                        <g id="Clip-2"></g>
                        <path d="M15.0352,7.375 C10.5532,7.375 6.9102,11.02 6.9102,15.499 L6.9102,25.557 C6.9102,30.036 10.5532,33.682 15.0352,33.682 L30.9092,33.682 C35.3892,33.682 39.0362,30.036 39.0362,25.557 L39.0362,15.499 C39.0362,11.02 35.3892,7.375 30.9092,7.375 L15.0352,7.375 Z M30.9092,40.109 L15.0352,40.109 C7.0092,40.109 0.4802,33.582 0.4802,25.557 L0.4802,15.499 C0.4802,7.473 7.0092,0.947 15.0352,0.947 L30.9092,0.947 C38.9342,0.947 45.4622,7.473 45.4622,15.499 L45.4622,25.557 C45.4622,33.582 38.9342,40.109 30.9092,40.109 Z" id="Fill-1" fill="#D0D2D3" mask="url(#mask-2)"></path>
                    </g>
                    <path d="M0,61.5966 C0,65.6806 3.31,68.9896 7.393,68.9896 L41.032,68.9896 C45.118,68.9896 48.426,65.6806 48.426,61.5966 L48.426,8.2466 L0,8.2466 L0,61.5966 Z" id="Fill-4" fill="#D5DDD3"></path>
                    <path d="M24.2129,23.1504 L3.4019,23.1504 L3.4019,61.5964 C3.4019,63.7984 5.1919,65.5874 7.3929,65.5874 L24.2129,65.5874 L41.0319,65.5874 C43.2339,65.5874 45.0249,63.7984 45.0249,61.5964 L45.0249,23.1504 L24.2129,23.1504 Z" id="Fill-6" fill="#F0CA41"></path>
                    <path d="M24.2129,23.1504 L3.4019,23.1504 L3.4019,61.5964 C3.4019,63.7984 5.1919,65.5874 7.3929,65.5874 L24.2129,65.5874 L41.0319,65.5874 C43.2339,65.5874 45.0249,63.7984 45.0249,61.5964 L45.0249,23.1504 L24.2129,23.1504 Z" id="Stroke-8" stroke="#E2BC22"></path>
                    <polygon id="Fill-10" fill="#E5E3CC" points="24.2129 8.247 3.4019 8.247 3.4019 23.15 24.2129 23.15 45.0249 23.15 45.0249 8.247"></polygon>
                    <path d="M6.9619,32.0947 C6.9619,32.7267 6.4509,33.2397 5.8169,33.2397 C5.1879,33.2397 4.6769,32.7267 4.6769,32.0947 C4.6769,31.4647 5.1879,30.9537 5.8169,30.9537 C6.4509,30.9537 6.9619,31.4647 6.9619,32.0947" id="Fill-12" fill="#F2D260"></path>
                    <path d="M11.9209,29.8105 C11.9209,30.4405 11.4069,30.9535 10.7769,30.9535 C10.1479,30.9535 9.6349,30.4405 9.6349,29.8105 C9.6349,29.1805 10.1479,28.6675 10.7769,28.6675 C11.4069,28.6675 11.9209,29.1805 11.9209,29.8105" id="Fill-14" fill="#F2D260"></path>
                    <path d="M25.7354,28.4272 C25.7354,29.0592 25.2244,29.5702 24.5914,29.5702 C23.9584,29.5702 23.4474,29.0592 23.4474,28.4272 C23.4474,27.7952 23.9584,27.2842 24.5914,27.2842 C25.2244,27.2842 25.7354,27.7952 25.7354,28.4272" id="Fill-16" fill="#F2D260"></path>
                    <path d="M15.5264,26.769 C15.5264,27.402 15.0134,27.913 14.3844,27.913 C13.7524,27.913 13.2394,27.402 13.2394,26.769 C13.2394,26.14 13.7524,25.628 14.3844,25.628 C15.0134,25.628 15.5264,26.14 15.5264,26.769" id="Fill-18" fill="#F2D260"></path>
                    <path d="M12.71,37.2983 C12.71,37.9283 12.201,38.4393 11.569,38.4393 C10.937,38.4393 10.426,37.9283 10.426,37.2983 C10.426,36.6663 10.937,36.1553 11.569,36.1553 C12.201,36.1553 12.71,36.6663 12.71,37.2983" id="Fill-20" fill="#F2D260"></path>
                    <path d="M32.3594,25.6279 C32.3594,26.2579 31.8454,26.7719 31.2164,26.7719 C30.5844,26.7719 30.0734,26.2579 30.0734,25.6279 C30.0734,24.9959 30.5844,24.4849 31.2164,24.4849 C31.8454,24.4849 32.3594,24.9959 32.3594,25.6279" id="Fill-22" fill="#F2D260"></path>
                    <path d="M22.0781,36.8911 C22.0781,37.5221 21.5671,38.0331 20.9351,38.0331 C20.3051,38.0331 19.7931,37.5221 19.7931,36.8911 C19.7931,36.2611 20.3051,35.7471 20.9351,35.7471 C21.5671,35.7471 22.0781,36.2611 22.0781,36.8911" id="Fill-24" fill="#F2D260"></path>
                    <path d="M44.6611,29.8086 C44.6611,30.4406 44.1481,30.9536 43.5181,30.9536 C42.8861,30.9536 42.3741,30.4406 42.3741,29.8086 C42.3741,29.1806 42.8861,28.6676 43.5181,28.6676 C44.1481,28.6676 44.6611,29.1806 44.6611,29.8086" id="Fill-26" fill="#F2D260"></path>
                    <path d="M43.1387,38.0332 C43.1387,38.6662 42.6277,39.1772 41.9957,39.1772 C41.3647,39.1772 40.8547,38.6662 40.8547,38.0332 C40.8547,37.4042 41.3647,36.8912 41.9957,36.8912 C42.6277,36.8912 43.1387,37.4042 43.1387,38.0332" id="Fill-28" fill="#F2D260"></path>
                    <path d="M20.9375,25.6279 C20.9375,26.2579 20.4235,26.7719 19.7935,26.7719 C19.1625,26.7719 18.6495,26.2579 18.6495,25.6279 C18.6495,24.9959 19.1625,24.4849 19.7935,24.4849 C20.4235,24.4849 20.9375,24.9959 20.9375,25.6279" id="Fill-30" fill="#F2D260"></path>
                    <path d="M43.5186,24.9985 C43.5186,25.6305 43.0076,26.1415 42.3746,26.1415 C41.7436,26.1415 41.2326,25.6305 41.2326,24.9985 C41.2326,24.3685 41.7436,23.8545 42.3746,23.8545 C43.0076,23.8545 43.5186,24.3685 43.5186,24.9985" id="Fill-32" fill="#F2D260"></path>
                    <path d="M35.7617,30.3618 C35.7617,30.9918 35.2507,31.5058 34.6187,31.5058 C33.9867,31.5058 33.4757,30.9918 33.4757,30.3618 C33.4757,29.7298 33.9867,29.2188 34.6187,29.2188 C35.2507,29.2188 35.7617,29.7298 35.7617,30.3618" id="Fill-34" fill="#F2D260"></path>
                    <path d="M39.0762,33.9438 C39.0762,34.5748 38.5672,35.0878 37.9322,35.0878 C37.3032,35.0878 36.7902,34.5748 36.7902,33.9438 C36.7902,33.3128 37.3032,32.8018 37.9322,32.8018 C38.5672,32.8018 39.0762,33.3128 39.0762,33.9438" id="Fill-36" fill="#F2D260"></path>
                    <path d="M37.9326,26.1411 C37.9326,26.7731 37.4236,27.2851 36.7906,27.2851 C36.1606,27.2851 35.6466,26.7731 35.6466,26.1411 C35.6466,25.5111 36.1606,24.9981 36.7906,24.9981 C37.4236,24.9981 37.9326,25.5111 37.9326,26.1411" id="Fill-38" fill="#F2D260"></path>
                    <path d="M33.502,35.7475 C33.502,36.3795 32.989,36.8915 32.359,36.8915 C31.727,36.8915 31.217,36.3795 31.217,35.7475 C31.217,35.1185 31.727,34.6045 32.359,34.6045 C32.989,34.6045 33.502,35.1185 33.502,35.7475" id="Fill-40" fill="#F2D260"></path>
                    <path d="M17.8135,31.5034 C17.8135,32.1344 17.2995,32.6454 16.6695,32.6454 C16.0385,32.6454 15.5265,32.1344 15.5265,31.5034 C15.5265,30.8724 16.0385,30.3614 16.6695,30.3614 C17.2995,30.3614 17.8135,30.8724 17.8135,31.5034" id="Fill-42" fill="#F2D260"></path>
                    <path d="M28.0186,33.2378 C28.0186,33.8698 27.5086,34.3808 26.8756,34.3808 C26.2466,34.3808 25.7356,33.8698 25.7356,33.2378 C25.7356,32.6078 26.2466,32.0968 26.8756,32.0968 C27.5086,32.0968 28.0186,32.6078 28.0186,33.2378" id="Fill-44" fill="#F2D260"></path>
                    <path d="M8.1035,26.1411 C8.1035,26.7731 7.5935,27.2851 6.9615,27.2851 C6.3315,27.2851 5.8175,26.7731 5.8175,26.1411 C5.8175,25.5111 6.3315,24.9981 6.9615,24.9981 C7.5935,24.9981 8.1035,25.5111 8.1035,26.1411" id="Fill-46" fill="#F2D260"></path>
                    <path d="M45.0303,3.4507 L45.0303,8.2487 L3.4023,8.2487 L3.4023,3.4507 C3.4023,1.6407 5.0563,-0.6323 6.6903,0.1637 C8.5413,1.0737 9.7403,0.9497 10.7433,0.6487 C12.2523,0.2147 13.3183,-0.6223 15.5293,1.0117 C19.8003,4.1847 19.6763,-2.3393 24.2163,1.6307 C28.7543,5.6127 39.5793,0.8357 41.7413,0.1637 C42.5683,-0.0853 43.2393,0.0707 43.7573,0.4637 L44.2443,0.9497 C44.7603,1.6207 45.0303,2.5717 45.0303,3.4507" id="Fill-48" fill="#EFEEDF"></path>
                </g>
                <g id="Water" transform="translate(134.000000, 73.000000)">
                    <polygon id="Fill-1" fill="#D0D2D3" points="0 0 3.09 83.778 28.822 83.778 31.914 0"></polygon>
                    <g id="liquid" transform="translate(3.000000, 15.778300)" fill="#27A0CC">
                        <polygon id="Fill-2" fill-opacity="0.38" points="12.9561 0.4659 0.9381 0.4659 2.9471 54.9039 12.9561 54.9039 22.9691 54.9039 24.9741 0.4659"></polygon>
                        <path d="M12.8955,49.2505 C12.8975,50.3365 12.0135,51.2235 10.9195,51.2235 L6.6215,51.2345 C5.5315,51.2365 4.6455,50.3545 4.6425,49.2605 L4.6325,44.9615 C4.6325,43.8705 5.5175,42.9835 6.6105,42.9815 L10.9055,42.9715 C11.9975,42.9715 12.8875,43.8535 12.8885,44.9515 L12.8955,49.2505 Z" id="Fill-4"></path>
                        <path d="M20.6123,50.086 C20.1503,51.079 18.9753,51.506 17.9833,51.05 L14.0873,49.241 C13.0963,48.781 12.6653,47.607 13.1253,46.616 L14.9333,42.714 C15.3913,41.725 16.5673,41.297 17.5573,41.755 L21.4593,43.561 C22.4483,44.022 22.8793,45.198 22.4193,46.191 L20.6123,50.086 Z" id="Fill-6"></path>
                    </g>
                </g>
                <g id="Pump">
                    <path d="M49.0429,136.195 C51.0739,136.195 52.7219,137.842 52.7219,139.878 C52.7219,140.894 52.3099,141.813 51.6459,142.481 C51.0789,143.044 50.3379,143.424 49.5039,143.529 C49.3549,143.549 49.1999,143.557 49.0429,143.557 L16.6989,143.557 C16.5409,143.557 16.3879,143.549 16.2369,143.529 C14.4249,143.302 13.0159,141.752 13.0159,139.878 C13.0159,138.862 13.4289,137.94 14.0969,137.272 C14.7649,136.608 15.6839,136.195 16.6989,136.195 L18.3749,136.195 L47.3669,136.195 L49.0429,136.195 Z" id="Fill-1" fill="#E2BC22"></path>
                    <path d="M49.0429,143.5574 C49.1999,143.5574 49.3549,143.5494 49.5039,143.5294 C51.3059,148.0704 54.1629,152.8064 58.6959,156.7934 C60.3269,158.2294 59.2829,160.9294 57.1089,160.9294 L32.8729,160.9294 L8.6329,160.9294 C6.4589,160.9294 5.4149,158.2294 7.0459,156.7934 C11.5789,152.8064 14.4369,148.0704 16.2369,143.5294 C16.3879,143.5494 16.5409,143.5574 16.6989,143.5574 L49.0429,143.5574 Z" id="Fill-3" fill="#E2BC22"></path>
                    <path d="M47.2294,119.3899 C48.5334,119.9359 49.4154,121.2029 49.4154,122.6559 C49.4154,123.6319 49.0184,124.5139 48.3784,125.1539 C47.8894,125.6429 47.2534,125.9919 46.5414,126.1249 C46.3274,126.1699 46.1084,126.1899 45.8814,126.1899 L32.8694,126.1899 L19.8604,126.1899 C19.6334,126.1899 19.4154,126.1699 19.2004,126.1249 C18.4884,125.9919 17.8484,125.6429 17.3584,125.1539 C16.7194,124.5139 16.3224,123.6319 16.3224,122.6559 C16.3224,121.2029 17.2084,119.9359 18.5124,119.3899 L47.2294,119.3899 Z" id="Fill-5" fill="#E2BC22"></path>
                    <path d="M47.2294,119.3899 L18.5124,119.3899 C18.6904,119.3169 18.8764,119.2559 19.0714,119.2079 C21.4264,118.6489 24.6684,117.1919 26.1664,113.3949 C29.7854,104.2319 29.3874,86.2649 29.3874,86.2649 L36.3534,86.2649 C36.3534,86.2649 35.9574,104.2319 39.5754,113.3949 C41.0734,117.1919 44.3154,118.6489 46.6704,119.2079 C46.8654,119.2559 47.0514,119.3169 47.2294,119.3899" id="Fill-7" fill="#E2BC22"></path>
                    <path d="M46.5536,126.1897 C46.5536,126.1897 46.2256,130.4477 47.3666,136.1947 L18.3746,136.1947 C19.5166,130.4477 19.1886,126.1897 19.1886,126.1897 L19.1996,126.1247 C19.4146,126.1697 19.6336,126.1897 19.8606,126.1897 L32.8686,126.1897 L45.8816,126.1897 C46.1086,126.1897 46.3266,126.1697 46.5406,126.1247 L46.5536,126.1897 Z" id="Fill-9" fill="#E2BC22"></path>
                    <path d="M36.3535,12.8791 C44.8945,36.5981 44.8945,62.5501 36.3535,86.2651 L29.3875,86.2651 C20.8475,62.5501 20.8475,36.5981 29.3875,12.8791 L36.3535,12.8791 Z" id="Fill-11" fill="#5F7682"></path>
                    <path d="M34.6454,3.5256 C34.6454,2.5466 33.8524,1.7486 32.8694,1.7486 C31.8894,1.7486 31.0914,2.5466 31.0914,3.5256 C31.0914,4.5086 31.8894,5.3026 32.8694,5.3026 C33.8524,5.3026 34.6454,4.5086 34.6454,3.5256 M32.8694,0.0006 C34.8154,0.0006 36.3944,1.5786 36.3944,3.5256 C36.3944,5.0876 35.3774,6.4116 33.9734,6.8726 C33.6254,6.9896 33.2574,7.0506 32.8694,7.0506 C32.4804,7.0506 32.1124,6.9896 31.7634,6.8726 C30.3594,6.4116 29.3434,5.0876 29.3434,3.5256 C29.3434,1.5786 30.9214,0.0006 32.8694,0.0006" id="Fill-13" fill="#E2BC22"></path>
                    <path d="M34.124,9.779 C34.553,9.779 34.941,10.022 35.128,10.402 L36.353,12.879 L29.388,12.879 L30.61,10.402 C30.801,10.022 31.189,9.779 31.614,9.779 L31.764,9.779 L33.974,9.779 L34.124,9.779 Z" id="Fill-15" fill="#E2BC22"></path>
                    <path d="M33.9736,6.8728 L33.9736,9.7788 L31.7636,9.7788 L31.7636,6.8728 C32.1126,6.9898 32.4806,7.0508 32.8696,7.0508 C33.2576,7.0508 33.6256,6.9898 33.9736,6.8728" id="Fill-17" fill="#E2BC22"></path>
                    <path d="M46.541,126.2502 C46.541,126.2502 46.435,126.2712 46.234,126.3102 C46.034,126.3422 45.74,126.4032 45.366,126.4562 C44.993,126.5122 44.539,126.5852 44.019,126.6452 C43.498,126.7122 42.91,126.7862 42.27,126.8432 C41.949,126.8742 41.615,126.9072 41.27,126.9412 C40.925,126.9742 40.567,126.9932 40.2,127.0212 C39.466,127.0722 38.691,127.1342 37.891,127.1592 C37.09,127.1872 36.262,127.2422 35.421,127.2512 C34.58,127.2742 33.726,127.2762 32.871,127.2822 C32.017,127.2762 31.162,127.2732 30.321,127.2502 C29.48,127.2372 28.652,127.1862 27.852,127.1572 C27.05,127.1322 26.276,127.0682 25.542,127.0182 C24.808,126.9742 24.113,126.9042 23.473,126.8402 C22.832,126.7842 22.244,126.7092 21.724,126.6432 C21.203,126.5832 20.749,126.5102 20.375,126.4552 C20.001,126.4022 19.708,126.3422 19.508,126.3092 C19.308,126.2712 19.2,126.2502 19.2,126.2502 L19.2,126.1292 C19.2,126.1292 20.909,126.1162 23.473,126.0962 C26.036,126.0882 29.453,126.0782 32.871,126.0682 C36.288,126.0782 39.706,126.0882 42.27,126.0962 C44.833,126.1162 46.541,126.1292 46.541,126.1292 L46.541,126.2502 Z" id="Fill-19" fill="#B8860B"></path>
                    <path d="M49.4072,136.2825 C49.4072,136.2825 49.2782,136.2955 49.0362,136.3205 C48.7932,136.3425 48.4382,136.3855 47.9862,136.4195 C47.5342,136.4565 46.9842,136.5065 46.3552,136.5465 C45.7252,136.5905 45.0142,136.6395 44.2392,136.6775 C43.4652,136.7215 42.6252,136.7665 41.7362,136.7965 C40.8482,136.8305 39.9122,136.8715 38.9422,136.8885 C37.9732,136.9065 36.9722,136.9465 35.9552,136.9475 C34.9372,136.9545 33.9042,136.9625 32.8712,136.9705 C31.8382,136.9625 30.8032,136.9545 29.7862,136.9465 C28.7692,136.9435 27.7672,136.9055 26.7992,136.8865 C25.8302,136.8705 24.8932,136.8275 24.0052,136.7945 C23.1172,136.7645 22.2772,136.7185 21.5022,136.6765 C20.7272,136.6385 20.0162,136.5885 19.3862,136.5445 C18.7572,136.5055 18.2082,136.4555 17.7562,136.4185 C17.3032,136.3845 16.9482,136.3425 16.7062,136.3195 C16.4642,136.2955 16.3352,136.2825 16.3352,136.2825 L16.3352,136.2015 C16.3352,136.2015 24.6022,136.1815 32.8712,136.1615 C41.1382,136.1815 49.4072,136.2015 49.4072,136.2015 L49.4072,136.2825 Z" id="Fill-21" fill="#FFF9C7"></path>
                    <path d="M47.3671,119.4817 C47.3671,119.4817 47.2541,119.4947 47.0421,119.5197 C46.8291,119.5417 46.5171,119.5847 46.1211,119.6187 C45.7241,119.6557 45.2431,119.7057 44.6911,119.7457 C44.1391,119.7897 43.5161,119.8387 42.8371,119.8777 C42.1571,119.9207 41.4221,119.9657 40.6421,119.9957 C39.8641,120.0297 39.0431,120.0707 38.1931,120.0877 C37.3451,120.1057 36.4671,120.1457 35.5751,120.1467 C34.6821,120.1537 33.7771,120.1617 32.8711,120.1697 C31.9651,120.1617 31.0581,120.1537 30.1671,120.1457 C29.2751,120.1427 28.3971,120.1047 27.5481,120.0857 C26.6991,120.0697 25.8781,120.0267 25.0981,119.9937 C24.3201,119.9637 23.5841,119.9177 22.9051,119.8757 C22.2251,119.8377 21.6021,119.7877 21.0511,119.7437 C20.4981,119.7047 20.0161,119.6547 19.6201,119.6177 C19.2241,119.5837 18.9131,119.5417 18.7001,119.5187 C18.4881,119.4947 18.3751,119.4817 18.3751,119.4817 L18.3751,119.4007 C18.3751,119.4007 25.6231,119.3807 32.8711,119.3607 C40.1191,119.3807 47.3671,119.4007 47.3671,119.4007 L47.3671,119.4817 Z" id="Fill-23" fill="#FFF9C7"></path>
                    <path d="M49.4687,143.6184 C49.4687,143.6184 49.3387,143.6394 49.0957,143.6774 C48.8527,143.7104 48.4957,143.7704 48.0417,143.8234 C47.5877,143.8794 47.0367,143.9534 46.4057,144.0134 C45.7727,144.0804 45.0597,144.1544 44.2817,144.2104 C43.8927,144.2424 43.4877,144.2754 43.0687,144.3084 C42.6487,144.3414 42.2147,144.3614 41.7697,144.3894 C40.8777,144.4404 39.9377,144.5024 38.9647,144.5274 C37.9927,144.5554 36.9887,144.6094 35.9667,144.6194 C34.9457,144.6424 33.9077,144.6444 32.8707,144.6504 C31.8337,144.6444 30.7957,144.6404 29.7757,144.6184 C28.7537,144.6054 27.7487,144.5534 26.7767,144.5244 C25.8037,144.5004 24.8647,144.4364 23.9727,144.3864 C23.0807,144.3424 22.2387,144.2724 21.4597,144.2084 C20.6827,144.1524 19.9687,144.0764 19.3367,144.0114 C18.7047,143.9514 18.1537,143.8774 17.6997,143.8224 C17.2457,143.7704 16.8897,143.7094 16.6467,143.6774 C16.4037,143.6394 16.2737,143.6184 16.2737,143.6184 L16.2737,143.4964 C16.2737,143.4964 18.3487,143.4834 21.4597,143.4644 C24.5727,143.4564 28.7217,143.4464 32.8707,143.4364 C37.0207,143.4464 41.1697,143.4564 44.2817,143.4644 C47.3937,143.4834 49.4687,143.4964 49.4687,143.4964 L49.4687,143.6184 Z" id="Fill-25" fill="#B8860B"></path>
                    <path d="M8.3906,160.7146 C8.3906,160.7146 8.5816,160.6806 8.9406,160.6156 C9.2986,160.5606 9.8256,160.4606 10.4946,160.3726 C11.1636,160.2786 11.9766,160.1566 12.9096,160.0566 C13.3746,160.0026 13.8706,159.9446 14.3946,159.8836 C14.9166,159.8236 15.4666,159.7816 16.0406,159.7266 C16.6146,159.6746 17.2116,159.6196 17.8306,159.5636 C18.4496,159.5086 19.0886,159.4766 19.7456,159.4306 C21.0606,159.3436 22.4476,159.2446 23.8816,159.1896 C24.5996,159.1516 25.3276,159.1316 26.0666,159.1056 C26.8046,159.0776 27.5516,159.0576 28.3046,159.0466 C29.8106,159.0066 31.3406,159.0046 32.8706,158.9946 C34.4016,159.0046 35.9306,159.0096 37.4376,159.0486 C38.1906,159.0596 38.9376,159.0836 39.6756,159.1096 C40.4126,159.1336 41.1426,159.1566 41.8596,159.1936 C43.2936,159.2486 44.6806,159.3506 45.9956,159.4356 C46.6536,159.4826 47.2926,159.5116 47.9116,159.5686 C48.5306,159.6256 49.1276,159.6796 49.7016,159.7316 C50.2756,159.7866 50.8256,159.8266 51.3476,159.8876 C51.8706,159.9486 52.3676,160.0066 52.8326,160.0596 C53.7656,160.1586 54.5786,160.2816 55.2466,160.3746 C55.9166,160.4616 56.4436,160.5616 56.8016,160.6166 C57.1606,160.6806 57.3516,160.7146 57.3516,160.7146 L57.3516,160.9176 C57.3516,160.9176 56.5856,160.9226 55.2466,160.9336 C53.9096,160.9436 51.9956,160.9556 49.7016,160.9716 C45.1116,160.9846 38.9916,161.0016 32.8706,161.0176 C26.7506,161.0016 20.6306,160.9846 16.0406,160.9716 C13.7446,160.9556 11.8326,160.9436 10.4946,160.9336 C9.1556,160.9226 8.3906,160.9176 8.3906,160.9176 L8.3906,160.7146 Z" id="Fill-27" fill="#B8860B"></path>
                    <path d="M32.871,103.5412 C20.146,103.5412 9.794,93.1892 9.794,80.4642 C9.794,67.7402 20.146,57.3882 32.871,57.3882 C45.596,57.3882 55.947,67.7402 55.947,80.4642 C55.947,93.1892 45.596,103.5412 32.871,103.5412" id="Fill-29" fill="#27A0CC"></path>
                    <path d="M32.871,103.5412 C20.146,103.5412 9.794,93.1892 9.794,80.4642 C9.794,67.7402 20.146,57.3882 32.871,57.3882 C45.596,57.3882 55.947,67.7402 55.947,80.4642 C55.947,93.1892 45.596,103.5412 32.871,103.5412 Z" id="Stroke-31" stroke="#FF9933" stroke-width="0.227"></path>
                    <path d="M32.871,57.6154 C20.271,57.6154 10.021,67.8654 10.021,80.4644 C10.021,93.0634 20.271,103.3144 32.871,103.3144 C45.47,103.3144 55.72,93.0634 55.72,80.4644 C55.72,67.8654 45.47,57.6154 32.871,57.6154 M32.871,103.7684 C20.021,103.7684 9.567,93.3144 9.567,80.4644 C9.567,67.6154 20.021,57.1604 32.871,57.1604 C45.721,57.1604 56.175,67.6154 56.175,80.4644 C56.175,93.3144 45.721,103.7684 32.871,103.7684" id="Fill-33" fill="#27A0CC"></path>
                    <path d="M32.871,57.6154 C20.271,57.6154 10.021,67.8654 10.021,80.4644 C10.021,93.0634 20.271,103.3144 32.871,103.3144 C45.47,103.3144 55.72,93.0634 55.72,80.4644 C55.72,67.8654 45.47,57.6154 32.871,57.6154 Z M32.871,103.7684 C20.021,103.7684 9.567,93.3144 9.567,80.4644 C9.567,67.6154 20.021,57.1604 32.871,57.1604 C45.721,57.1604 56.175,67.6154 56.175,80.4644 C56.175,93.3144 45.721,103.7684 32.871,103.7684 Z" id="Stroke-35" stroke="#FF9933" stroke-width="0.227"></path>
                    <path d="M32.871,57.7595 C20.351,57.7595 10.166,67.9455 10.166,80.4645 C10.166,92.9845 20.351,103.1705 32.871,103.1705 C45.391,103.1705 55.576,92.9845 55.576,80.4645 C55.576,67.9455 45.391,57.7595 32.871,57.7595 M32.871,104.1305 C19.821,104.1305 9.205,93.5145 9.205,80.4645 C9.205,67.4155 19.821,56.7985 32.871,56.7985 C45.921,56.7985 56.537,67.4155 56.537,80.4645 C56.537,93.5145 45.921,104.1305 32.871,104.1305" id="Fill-37" fill="#D0D2D3"></path>
                    <path d="M32.871,57.7595 C20.351,57.7595 10.166,67.9455 10.166,80.4645 C10.166,92.9845 20.351,103.1705 32.871,103.1705 C45.391,103.1705 55.576,92.9845 55.576,80.4645 C55.576,67.9455 45.391,57.7595 32.871,57.7595 Z M32.871,104.1305 C19.821,104.1305 9.205,93.5145 9.205,80.4645 C9.205,67.4155 19.821,56.7985 32.871,56.7985 C45.921,56.7985 56.537,67.4155 56.537,80.4645 C56.537,93.5145 45.921,104.1305 32.871,104.1305 Z" id="Stroke-39" stroke="#E2BC22" stroke-width="0.861"></path>
                    <polygon id="Fill-41" fill="#3B7A9E" points="11.1308 72.7429 0.6478 72.7429 3.8848 80.4629 0.6478 88.1869 16.0908 88.1869 49.6508 88.1869 65.0948 88.1869 61.8578 80.4629 65.0948 72.7429 54.6108 72.7429"></polygon>
                    <polygon id="Stroke-43" stroke="#E2BC22" stroke-width="0.861" points="11.1308 72.7429 0.6478 72.7429 3.8848 80.4629 0.6478 88.1869 16.0908 88.1869 49.6508 88.1869 65.0948 88.1869 61.8578 80.4629 65.0948 72.7429 54.6108 72.7429"></polygon>
                    <path d="M65.0947,72.7429 L54.6117,72.7429 L11.1307,72.7429 L0.6477,72.7429 L3.8847,80.4629 L0.6477,88.1869 L16.0907,88.1869 L49.6507,88.1869 L65.0947,88.1869 L61.8577,80.4629 L65.0947,72.7429 Z M63.6497,73.7039 L60.9717,80.0909 L60.8157,80.4629 L60.9717,80.8339 L63.6497,87.2259 L49.6507,87.2259 L16.0907,87.2259 L2.0917,87.2259 L4.7707,80.8339 L4.9257,80.4629 L4.7707,80.0909 L2.0917,73.7039 L11.1307,73.7039 L54.6117,73.7039 L63.6497,73.7039 Z" id="Fill-45" fill="#3B7A9E"></path>
                    <path d="M65.0947,72.7429 L54.6117,72.7429 L11.1307,72.7429 L0.6477,72.7429 L3.8847,80.4629 L0.6477,88.1869 L16.0907,88.1869 L49.6507,88.1869 L65.0947,88.1869 L61.8577,80.4629 L65.0947,72.7429 Z M63.6497,73.7039 L60.9717,80.0909 L60.8157,80.4629 L60.9717,80.8339 L63.6497,87.2259 L49.6507,87.2259 L16.0907,87.2259 L2.0917,87.2259 L4.7707,80.8339 L4.9257,80.4629 L4.7707,80.0909 L2.0917,73.7039 L11.1307,73.7039 L54.6117,73.7039 L63.6497,73.7039 Z" id="Stroke-47" stroke="#E2BC22" stroke-width="0.861"></path>
                    <polygon id="Fill-49" fill="#E2BC22" points="32.871 64.6838 33.443 66.4468 35.297 66.4468 33.798 67.5358 34.37 69.2978 32.871 68.2088 31.372 69.2978 31.944 67.5358 30.445 66.4468 32.298 66.4468"></polygon>
                    <path d="M32.871,68.0139 L34.07,68.8859 L33.612,67.4749 L34.811,66.6039 L33.329,66.6039 L32.871,65.1939 L32.413,66.6039 L30.93,66.6039 L32.13,67.4749 L31.672,68.8859 L32.871,68.0139 Z M31.072,69.7099 L31.759,67.5959 L29.96,66.2889 L32.184,66.2889 L32.871,64.1739 L33.558,66.2889 L35.781,66.2889 L33.982,67.5959 L34.67,69.7099 L32.871,68.4039 L31.072,69.7099 Z" id="Fill-51" fill="#E2BC22"></path>
                    <polygon id="Fill-53" fill="#E2BC22" points="41.6718 64.6838 42.2448 66.4468 44.0978 66.4468 42.5988 67.5358 43.1718 69.2978 41.6718 68.2088 40.1728 69.2978 40.7458 67.5358 39.2468 66.4468 41.0998 66.4468"></polygon>
                    <path d="M41.6718,68.0139 L42.8718,68.8859 L42.4128,67.4749 L43.6128,66.6039 L42.1308,66.6039 L41.6718,65.1939 L41.2138,66.6039 L39.7318,66.6039 L40.9308,67.4749 L40.4728,68.8859 L41.6718,68.0139 Z M43.4708,69.7099 L41.6718,68.4039 L39.8728,69.7099 L40.5608,67.5959 L38.7618,66.2889 L40.9848,66.2889 L41.6718,64.1739 L42.3588,66.2889 L44.5828,66.2889 L42.7838,67.5959 L43.4708,69.7099 Z" id="Fill-55" fill="#E2BC22"></path>
                    <polygon id="Fill-57" fill="#E2BC22" points="24.0693 64.6838 23.4973 66.4468 21.6433 66.4468 23.1423 67.5358 22.5703 69.2978 24.0693 68.2088 25.5683 69.2978 24.9963 67.5358 26.4953 66.4468 24.6423 66.4468"></polygon>
                    <path d="M24.0693,68.0139 L25.2683,68.8859 L24.8103,67.4749 L26.0093,66.6039 L24.5273,66.6039 L24.0693,65.1939 L23.6113,66.6039 L22.1293,66.6039 L23.3283,67.4749 L22.8703,68.8859 L24.0693,68.0139 Z M22.2703,69.7099 L22.9583,67.5959 L21.1593,66.2889 L23.3823,66.2889 L24.0693,64.1739 L24.7563,66.2889 L26.9803,66.2889 L25.1813,67.5959 L25.8683,69.7099 L24.0693,68.4039 L22.2703,69.7099 Z" id="Fill-59" fill="#E2BC22"></path>
                </g>
            </g>
        </g>
    </g>
</svg>