<?xml version="1.0" encoding="utf-8"?>
<!-- Generator: Adobe Illustrator 23.0.0, SVG Export Plug-In . SVG Version: 6.00 Build 0)  -->
<svg version="1.1" id="Layer_1" xmlns="http://www.w3.org/2000/svg" xmlns:xlink="http://www.w3.org/1999/xlink" x="0px" y="0px"
	 viewBox="0 0 308 142.4" style="enable-background:new 0 0 308 142.4;" xml:space="preserve">
<style type="text/css">
	.st0{fill:#B8860B;}
	.st1{fill:#D5DDD3;}
	.st2{fill:#E8ECE7;}
	.st3{fill:#854147;}
	.st4{fill:#6E3339;}
	.st5{fill:#D0D2D3;}
	.st6{opacity:0.3;fill:#27A0CC;}
	.st7{fill:#27A0CC;}
	.st8{fill:#F0CA41;stroke:#E2BC22;stroke-width:0.9489;stroke-miterlimit:10;}
	.st9{fill:#E5E3CC;}
	.st10{fill:#F2D260;}
	.st11{fill:#EFEEDF;}
	.st12{fill:#E2BC22;}
	.st13{fill:#5F7682;}
	.st14{opacity:0.51;}
	.st15{fill:#FFF9C7;}
	.st16{fill:#27A0CC;stroke:#FF9933;stroke-width:0.1798;stroke-miterlimit:10;}
	.st17{fill:#D0D2D3;stroke:#E2BC22;stroke-width:0.6813;stroke-miterlimit:10;}
	.st18{fill:#3B7A9E;stroke:#E2BC22;stroke-width:0.6813;stroke-miterlimit:10;}
	.st19{fill:none;}
</style>
<title>Bar group</title>
<desc>Created with Sketch.</desc>
<rect x="0.1" y="126" class="st0" width="307.7" height="16.4"/>
<g>
	<path class="st1" d="M122,71.2c0.6-7.5-0.4-16.1-2.2-24H86.5c-1.9,8-2.8,16.5-2.3,24c0.8,10.6,7.4,18.6,16.9,19.5v35.7l-13.3,2.5
		v1.6h30.6v-1.6l-13.3-2.5V90.7C114.6,89.7,121.2,81.8,122,71.2z"/>
	<g>
		<path class="st2" d="M103.1,47.1H88.9c-0.8,3.8-1.3,8.4-1.6,12.8h15.9V47.1z"/>
		<path class="st1" d="M119,60c-0.3-4.4-0.8-9-1.6-12.8h-14.3V60H119z"/>
		<path class="st3" d="M87.2,60c-0.3,4.1-0.3,8-0.1,11c0.7,10.1,7.2,15.5,16,15.5V60H87.2z"/>
		<path class="st4" d="M119,60h-15.9v26.5h0c8.8,0,15.2-5.4,16-15.5C119.3,68,119.3,64.1,119,60z"/>
	</g>
</g>
<polygon class="st5" points="235.8,52.2 223.9,52.2 211.9,52.2 208.7,52.2 211.7,131.7 236.1,131.7 239,52.2 "/>
<polygon class="st6" points="223.9,67.6 212.5,67.6 214.4,119.3 223.9,119.3 233.4,119.3 235.3,67.6 "/>
<path class="st7" d="M223.6,115.9c0,1-0.8,1.9-1.9,1.9l-4.1,0c-1,0-1.9-0.8-1.9-1.9l0-4.1c0-1,0.8-1.9,1.9-1.9l4.1,0
	c1,0,1.9,0.8,1.9,1.9L223.6,115.9z"/>
<path class="st7" d="M230.9,116.7c-0.4,0.9-1.6,1.3-2.5,0.9l-3.7-1.7c-0.9-0.4-1.3-1.6-0.9-2.5l1.7-3.7c0.4-0.9,1.5-1.3,2.5-0.9
	l3.7,1.7c0.9,0.4,1.3,1.6,0.9,2.5L230.9,116.7z"/>
<g>
	<g>
		<path class="st5" d="M186.3,119.3h-15.1c-7.6,0-13.8-6.2-13.8-13.8v-9.5c0-7.6,6.2-13.8,13.8-13.8h15.1c7.6,0,13.8,6.2,13.8,13.8
			v9.5C200.1,113.1,193.9,119.3,186.3,119.3z M171.2,88.2c-4.3,0-7.7,3.5-7.7,7.7v9.5c0,4.2,3.5,7.7,7.7,7.7h15.1
			c4.3,0,7.7-3.5,7.7-7.7v-9.5c0-4.2-3.5-7.7-7.7-7.7H171.2z"/>
	</g>
	<path class="st1" d="M137,123.6c0,3.9,3.1,7,7,7H176c3.9,0,7-3.1,7-7V72.9h-46V123.6z"/>
	<path class="st8" d="M160,87.1h-19.7v36.5c0,2.1,1.7,3.8,3.8,3.8h16h16c2.1,0,3.8-1.7,3.8-3.8V87.1H160z"/>
	<polygon class="st9" points="160,72.9 140.3,72.9 140.3,87.1 160,87.1 179.8,87.1 179.8,72.9 	"/>
	<g>
		<path class="st10" d="M143.6,95.6c0,0.6-0.5,1.1-1.1,1.1c-0.6,0-1.1-0.5-1.1-1.1c0-0.6,0.5-1.1,1.1-1.1
			C143.2,94.5,143.6,95,143.6,95.6z"/>
		<path class="st10" d="M148.4,93.4c0,0.6-0.5,1.1-1.1,1.1c-0.6,0-1.1-0.5-1.1-1.1c0-0.6,0.5-1.1,1.1-1.1
			C147.9,92.3,148.4,92.8,148.4,93.4z"/>
		<path class="st10" d="M161.5,92.1c0,0.6-0.5,1.1-1.1,1.1c-0.6,0-1.1-0.5-1.1-1.1c0-0.6,0.5-1.1,1.1-1.1
			C161,91,161.5,91.5,161.5,92.1z"/>
		<path class="st10" d="M151.8,90.5c0,0.6-0.5,1.1-1.1,1.1c-0.6,0-1.1-0.5-1.1-1.1c0-0.6,0.5-1.1,1.1-1.1
			C151.3,89.4,151.8,89.9,151.8,90.5z"/>
		<path class="st10" d="M149.1,100.5c0,0.6-0.5,1.1-1.1,1.1c-0.6,0-1.1-0.5-1.1-1.1c0-0.6,0.5-1.1,1.1-1.1
			C148.6,99.4,149.1,99.9,149.1,100.5z"/>
		<path class="st10" d="M167.7,89.4c0,0.6-0.5,1.1-1.1,1.1c-0.6,0-1.1-0.5-1.1-1.1c0-0.6,0.5-1.1,1.1-1.1
			C167.3,88.3,167.7,88.8,167.7,89.4z"/>
		<path class="st10" d="M158,100.1c0,0.6-0.5,1.1-1.1,1.1c-0.6,0-1.1-0.5-1.1-1.1c0-0.6,0.5-1.1,1.1-1.1
			C157.5,99,158,99.5,158,100.1z"/>
		<path class="st10" d="M179.4,93.4c0,0.6-0.5,1.1-1.1,1.1c-0.6,0-1.1-0.5-1.1-1.1c0-0.6,0.5-1.1,1.1-1.1
			C178.9,92.3,179.4,92.8,179.4,93.4z"/>
		<path class="st10" d="M178,101.2c0,0.6-0.5,1.1-1.1,1.1s-1.1-0.5-1.1-1.1c0-0.6,0.5-1.1,1.1-1.1S178,100.6,178,101.2z"/>
		<path class="st10" d="M156.9,89.4c0,0.6-0.5,1.1-1.1,1.1c-0.6,0-1.1-0.5-1.1-1.1c0-0.6,0.5-1.1,1.1-1.1
			C156.4,88.3,156.9,88.8,156.9,89.4z"/>
		<path class="st10" d="M178.3,88.8c0,0.6-0.5,1.1-1.1,1.1c-0.6,0-1.1-0.5-1.1-1.1c0-0.6,0.5-1.1,1.1-1.1
			C177.8,87.7,178.3,88.2,178.3,88.8z"/>
		<path class="st10" d="M171,93.9c0,0.6-0.5,1.1-1.1,1.1c-0.6,0-1.1-0.5-1.1-1.1c0-0.6,0.5-1.1,1.1-1.1
			C170.5,92.8,171,93.3,171,93.9z"/>
		<path class="st10" d="M174.1,97.3c0,0.6-0.5,1.1-1.1,1.1c-0.6,0-1.1-0.5-1.1-1.1s0.5-1.1,1.1-1.1
			C173.6,96.2,174.1,96.7,174.1,97.3z"/>
		<path class="st10" d="M173,89.9c0,0.6-0.5,1.1-1.1,1.1c-0.6,0-1.1-0.5-1.1-1.1c0-0.6,0.5-1.1,1.1-1.1
			C172.6,88.8,173,89.3,173,89.9z"/>
		<path class="st10" d="M168.8,99c0,0.6-0.5,1.1-1.1,1.1c-0.6,0-1.1-0.5-1.1-1.1c0-0.6,0.5-1.1,1.1-1.1
			C168.3,97.9,168.8,98.4,168.8,99z"/>
		<path class="st10" d="M153.9,95c0,0.6-0.5,1.1-1.1,1.1c-0.6,0-1.1-0.5-1.1-1.1c0-0.6,0.5-1.1,1.1-1.1
			C153.5,93.9,153.9,94.4,153.9,95z"/>
		<path class="st10" d="M163.6,96.6c0,0.6-0.5,1.1-1.1,1.1c-0.6,0-1.1-0.5-1.1-1.1c0-0.6,0.5-1.1,1.1-1.1
			C163.1,95.6,163.6,96,163.6,96.6z"/>
		<path class="st10" d="M144.7,89.9c0,0.6-0.5,1.1-1.1,1.1c-0.6,0-1.1-0.5-1.1-1.1c0-0.6,0.5-1.1,1.1-1.1
			C144.2,88.8,144.7,89.3,144.7,89.9z"/>
	</g>
	<path class="st11" d="M179.8,68.4v4.6h-39.5v-4.6c0-1.7,1.6-3.9,3.1-3.1c1.8,0.9,2.9,0.7,3.8,0.5c1.4-0.4,2.4-1.2,4.5,0.3
		c4.1,3,3.9-3.2,8.2,0.6c4.3,3.8,14.6-0.8,16.6-1.4c0.8-0.2,1.4-0.1,1.9,0.3L179,66C179.5,66.6,179.8,67.6,179.8,68.4z"/>
</g>
<g>
	<g>
		<g>
			<g id="XMLID_5_">
				<g>
					<path class="st12" d="M57.9,110.6c1.6,0,2.9,1.3,2.9,2.9c0,0.8-0.3,1.5-0.9,2.1c-0.4,0.4-1,0.7-1.7,0.8c-0.1,0-0.2,0-0.4,0
						H32.3c-0.1,0-0.2,0-0.4,0c-1.4-0.2-2.5-1.4-2.5-2.9c0-0.8,0.3-1.5,0.9-2.1c0.5-0.5,1.3-0.9,2.1-0.9h1.3h22.9H57.9z"/>
					<path class="st12" d="M57.9,116.4c0.1,0,0.2,0,0.4,0c1.4,3.6,3.7,7.3,7.3,10.5c1.3,1.1,0.5,3.3-1.3,3.3H45.1H25.9
						c-1.7,0-2.5-2.1-1.3-3.3c3.6-3.2,5.8-6.9,7.3-10.5c0.1,0,0.2,0,0.4,0H57.9z"/>
					<path class="st12" d="M56.4,97.3c1,0.4,1.7,1.4,1.7,2.6c0,0.8-0.3,1.5-0.8,2c-0.4,0.4-0.9,0.7-1.5,0.8c-0.2,0-0.3,0.1-0.5,0.1
						H45.1H34.8c-0.2,0-0.4,0-0.5-0.1c-0.6-0.1-1.1-0.4-1.5-0.8c-0.5-0.5-0.8-1.2-0.8-2c0-1.1,0.7-2.2,1.7-2.6H56.4z"/>
					<path class="st12" d="M56.4,97.3H33.7c0.1-0.1,0.3-0.1,0.4-0.1c1.9-0.4,4.4-1.6,5.6-4.6c2.9-7.2,2.5-21.5,2.5-21.5
						c1.8,0,3.7,0,5.5,0c0,0-0.3,14.2,2.5,21.5c1.2,3,3.7,4.2,5.6,4.6C56.1,97.2,56.3,97.2,56.4,97.3z"/>
					<path class="st12" d="M55.9,102.7c0,0-0.3,3.4,0.6,7.9H33.6c0.9-4.5,0.6-7.9,0.6-7.9l0-0.1c0.2,0,0.3,0.1,0.5,0.1h10.3h10.3
						C55.5,102.7,55.7,102.7,55.9,102.7L55.9,102.7z"/>
					<path class="st13" d="M47.8,13c6.8,18.8,6.8,39.3,0,58c-1.8,0-3.7,0-5.5,0c-6.8-18.8-6.8-39.3,0-58H47.8z"/>
					<path class="st12" d="M45.1,2.9c1.5,0,2.8,1.2,2.8,2.8c0,1.2-0.8,2.3-1.9,2.6c-0.3,0.1-0.6,0.1-0.9,0.1s-0.6,0-0.9-0.1
						c-1.1-0.4-1.9-1.4-1.9-2.6C42.3,4.1,43.5,2.9,45.1,2.9z M46.5,5.6c0-0.8-0.6-1.4-1.4-1.4c-0.8,0-1.4,0.6-1.4,1.4
						c0,0.8,0.6,1.4,1.4,1.4C45.9,7,46.5,6.4,46.5,5.6z"/>
					<path class="st12" d="M46.1,10.6c0.3,0,0.6,0.2,0.8,0.5l1,2h-5.5l1-2c0.2-0.3,0.5-0.5,0.8-0.5h0.1h1.7H46.1z"/>
					<path class="st12" d="M45.9,8.3v2.3h-1.7V8.3c0.3,0.1,0.6,0.1,0.9,0.1S45.7,8.4,45.9,8.3z"/>
				</g>
			</g>
		</g>
		<g>
			<path class="st0" d="M55.9,102.7c0,0-0.1,0-0.2,0c-0.2,0-0.4,0.1-0.7,0.1c-0.3,0-0.7,0.1-1.1,0.1c-0.4,0.1-0.9,0.1-1.4,0.2
				c-0.3,0-0.5,0.1-0.8,0.1c-0.3,0-0.6,0-0.8,0.1c-0.6,0-1.2,0.1-1.8,0.1c-0.6,0-1.3,0.1-2,0.1c-0.7,0-1.3,0-2,0c-0.7,0-1.4,0-2,0
				c-0.7,0-1.3-0.1-2-0.1c-0.6,0-1.2-0.1-1.8-0.1c-0.6,0-1.1-0.1-1.6-0.1c-0.5,0-1-0.1-1.4-0.2c-0.4,0-0.8-0.1-1.1-0.1
				c-0.3,0-0.5-0.1-0.7-0.1c-0.2,0-0.2,0-0.2,0v-0.1c0,0,1.4,0,3.4,0c2,0,4.7,0,7.4,0c2.7,0,5.4,0,7.4,0
				C54.5,102.6,55.9,102.6,55.9,102.7L55.9,102.7z"/>
		</g>
		<g class="st14">
			<path class="st15" d="M58.2,110.7c0,0-0.1,0-0.3,0c-0.2,0-0.5,0.1-0.8,0.1c-0.4,0-0.8,0.1-1.3,0.1c-0.5,0-1.1,0.1-1.7,0.1
				c-0.6,0-1.3,0.1-2,0.1c-0.7,0-1.4,0.1-2.2,0.1c-0.8,0-1.6,0-2.4,0c-0.8,0-1.6,0-2.4,0c-0.8,0-1.6,0-2.4,0c-0.8,0-1.6,0-2.4,0
				c-0.8,0-1.5,0-2.2-0.1c-0.7,0-1.4-0.1-2-0.1c-0.6,0-1.2-0.1-1.7-0.1c-0.5,0-0.9-0.1-1.3-0.1c-0.4,0-0.6-0.1-0.8-0.1
				c-0.2,0-0.3,0-0.3,0v-0.1c0,0,6.5,0,13.1,0C51.6,110.6,58.2,110.6,58.2,110.7L58.2,110.7z"/>
		</g>
		<g class="st14">
			<path class="st15" d="M56.5,97.4c0,0-0.1,0-0.3,0c-0.2,0-0.4,0.1-0.7,0.1c-0.3,0-0.7,0.1-1.1,0.1c-0.4,0-0.9,0.1-1.5,0.1
				c-0.5,0-1.1,0.1-1.7,0.1c-0.6,0-1.3,0.1-1.9,0.1c-0.7,0-1.4,0-2.1,0c-0.7,0-1.4,0-2.1,0c-0.7,0-1.4,0-2.1,0c-0.7,0-1.4,0-2.1,0
				c-0.7,0-1.3,0-1.9-0.1c-0.6,0-1.2-0.1-1.7-0.1c-0.5,0-1-0.1-1.5-0.1c-0.4,0-0.8-0.1-1.1-0.1c-0.3,0-0.6-0.1-0.7-0.1
				c-0.2,0-0.3,0-0.3,0v-0.1c0,0,5.7,0,11.5,0C50.8,97.3,56.5,97.3,56.5,97.4L56.5,97.4z"/>
		</g>
		<g>
			<path class="st0" d="M58.2,116.5c0,0-0.1,0-0.3,0c-0.2,0-0.5,0.1-0.8,0.1c-0.4,0-0.8,0.1-1.3,0.2c-0.5,0.1-1.1,0.1-1.7,0.2
				c-0.3,0-0.6,0.1-1,0.1c-0.3,0-0.7,0-1,0.1c-0.7,0-1.4,0.1-2.2,0.1c-0.8,0-1.6,0.1-2.4,0.1c-0.8,0-1.6,0-2.4,0c-0.8,0-1.6,0-2.4,0
				c-0.8,0-1.6-0.1-2.4-0.1c-0.8,0-1.5-0.1-2.2-0.1c-0.7,0-1.4-0.1-2-0.1c-0.6,0-1.2-0.1-1.7-0.2c-0.5,0-0.9-0.1-1.3-0.1
				c-0.4,0-0.6-0.1-0.8-0.1c-0.2,0-0.3,0-0.3,0v-0.1c0,0,1.6,0,4.1,0c2.5,0,5.7,0,9,0c3.3,0,6.6,0,9,0
				C56.6,116.3,58.2,116.4,58.2,116.5L58.2,116.5z"/>
		</g>
		<g>
			<path class="st0" d="M25.7,130c0,0,0.2,0,0.4-0.1c0.3,0,0.7-0.1,1.2-0.2c0.5-0.1,1.2-0.2,1.9-0.3c0.4,0,0.8-0.1,1.2-0.1
				c0.4,0,0.8-0.1,1.3-0.1c0.5,0,0.9-0.1,1.4-0.1c0.5,0,1-0.1,1.5-0.1c1-0.1,2.1-0.1,3.3-0.2c0.6,0,1.1,0,1.7-0.1c0.6,0,1.2,0,1.8,0
				c1.2,0,2.4,0,3.6,0c1.2,0,2.4,0,3.6,0c0.6,0,1.2,0,1.8,0c0.6,0,1.2,0,1.7,0.1c1.1,0,2.2,0.1,3.3,0.2c0.5,0,1,0.1,1.5,0.1
				c0.5,0,1,0.1,1.4,0.1c0.5,0,0.9,0.1,1.3,0.1c0.4,0,0.8,0.1,1.2,0.1c0.7,0.1,1.4,0.2,1.9,0.2c0.5,0.1,0.9,0.1,1.2,0.2
				c0.3,0.1,0.4,0.1,0.4,0.1v0.2c0,0-0.6,0-1.7,0c-1.1,0-2.6,0-4.4,0c-3.6,0-8.5,0-13.3,0c-4.8,0-9.7,0-13.3,0c-1.8,0-3.3,0-4.4,0
				c-1.1,0-1.7,0-1.7,0V130z"/>
		</g>
	</g>
	<g>
		<circle class="st16" cx="45.1" cy="66.5" r="18.3"/>
		<path class="st16" d="M45.1,84.9c-10.2,0-18.4-8.3-18.4-18.4c0-10.2,8.3-18.4,18.4-18.4s18.4,8.3,18.4,18.4
			C63.5,76.7,55.2,84.9,45.1,84.9z M45.1,48.4c-10,0-18.1,8.1-18.1,18.1s8.1,18.1,18.1,18.1s18.1-8.1,18.1-18.1S55,48.4,45.1,48.4z"
			/>
	</g>
	<g>
		<path class="st17" d="M45.1,85.2c-10.3,0-18.7-8.4-18.7-18.7c0-10.3,8.4-18.7,18.7-18.7s18.7,8.4,18.7,18.7
			C63.8,76.8,55.4,85.2,45.1,85.2z M45.1,48.5c-9.9,0-18,8.1-18,18c0,9.9,8.1,18,18,18s18-8.1,18-18C63,56.6,55,48.5,45.1,48.5z"/>
	</g>
	<g>
		<polygon class="st18" points="27.9,60.4 19.6,60.4 22.1,66.5 19.6,72.6 31.8,72.6 58.3,72.6 70.6,72.6 68,66.5 70.6,60.4 
			62.3,60.4 		"/>
		<path class="st18" d="M69.4,61.2l-2.1,5.1l-0.1,0.3l0.1,0.3l2.1,5.1H58.3H31.8H20.7l2.1-5.1l0.1-0.3l-0.1-0.3l-2.1-5.1h7.1h34.4
			H69.4 M70.6,60.4h-8.3H27.9h-8.3l2.6,6.1l-2.6,6.1h12.2h26.5h12.2L68,66.5L70.6,60.4L70.6,60.4z"/>
	</g>
	<polygon class="st19" points="21.9,71.1 23.8,66.5 21.9,61.9 68.3,61.9 66.4,66.5 68.3,71.1 	"/>
	<g>
		<polygon class="st12" points="45.1,54 45.5,55.4 47,55.4 45.8,56.3 46.3,57.7 45.1,56.8 43.9,57.7 44.3,56.3 43.2,55.4 44.6,55.4 
					"/>
		<path class="st12" d="M43.7,58l0.5-1.7l-1.4-1h1.8l0.5-1.7l0.5,1.7h1.8l-1.4,1l0.5,1.7l-1.4-1L43.7,58z M45.1,56.7l0.9,0.7
			l-0.4-1.1l0.9-0.7h-1.2l-0.4-1.1l-0.4,1.1h-1.2l0.9,0.7l-0.4,1.1L45.1,56.7z"/>
	</g>
	<g>
		<polygon class="st12" points="52,54 52.5,55.4 54,55.4 52.8,56.3 53.2,57.7 52,56.8 50.9,57.7 51.3,56.3 50.1,55.4 51.6,55.4 		
			"/>
		<path class="st12" d="M53.5,58L52,57l-1.4,1l0.5-1.7l-1.4-1h1.8l0.5-1.7l0.5,1.7h1.8l-1.4,1L53.5,58z M52,56.7l0.9,0.7l-0.4-1.1
			l0.9-0.7h-1.2L52,54.4l-0.4,1.1h-1.2l0.9,0.7l-0.4,1.1L52,56.7z"/>
	</g>
	<g>
		<polygon class="st12" points="38.1,54 37.7,55.4 36.2,55.4 37.4,56.3 36.9,57.7 38.1,56.8 39.3,57.7 38.8,56.3 40,55.4 38.6,55.4 
					"/>
		<path class="st12" d="M36.7,58l0.5-1.7l-1.4-1h1.8l0.5-1.7l0.5,1.7h1.8l-1.4,1l0.5,1.7l-1.4-1L36.7,58z M38.1,56.7l0.9,0.7
			l-0.4-1.1l0.9-0.7h-1.2l-0.4-1.1l-0.4,1.1h-1.2l0.9,0.7l-0.4,1.1L38.1,56.7z"/>
	</g>
</g>
</svg>
