<?xml version="1.0" encoding="utf-8"?>
<!-- Generator: Adobe Illustrator 16.0.5, SVG Export Plug-In . SVG Version: 6.00 Build 0)  -->
<!DOCTYPE svg PUBLIC "-//W3C//DTD SVG 1.1//EN" "http://www.w3.org/Graphics/SVG/1.1/DTD/svg11.dtd">
<svg version="1.1" xmlns="http://www.w3.org/2000/svg" xmlns:xlink="http://www.w3.org/1999/xlink" x="0px" y="0px" width="300px"
	 height="100px" viewBox="0 0 300 100" enable-background="new 0 0 300 100" xml:space="preserve">
<g id="Layer_1">
	
		<polyline fill="none" stroke="#206095" stroke-width="4" stroke-linecap="round" stroke-linejoin="round" stroke-miterlimit="10" points="
		50.5,59.982 61.058,60.839 82.173,56.272 103.574,44.572 114.132,28.59 124.69,15.749 135.247,29.161 145.805,36.011 
		157.79,51.136 163.211,50.565 168.348,54.561 173.769,57.699 179.19,57.129 184.326,55.986 189.748,61.695 194.885,63.121 
		200.306,63.978 205.443,58.842 210.864,61.98 216.286,62.266 221.422,69.115 226.844,66.261 231.979,70.826 237.4,71.684 
		242.822,71.684 245.391,72.539 247.958,73.109 250.813,74.252 	"/>
</g>
<g id="text">
	<g>
		<path fill="#206095" d="M3.532,41.008v-1.8l1.848-1.704c3.672-3.408,5.4-5.28,5.424-7.345c0-1.392-0.744-2.616-2.784-2.616
			c-1.368,0-2.544,0.696-3.336,1.296L3.82,26.751c1.128-0.912,2.832-1.608,4.8-1.608c3.456,0,5.136,2.184,5.136,4.729
			c0,2.736-1.968,4.944-4.68,7.464l-1.368,1.176v0.048h6.409v2.448H3.532z"/>
		<path fill="#206095" d="M15.556,43.913c0.648-1.824,1.296-4.344,1.608-6.336l3.096-0.24c-0.672,2.256-1.752,4.849-2.688,6.385
			L15.556,43.913z"/>
		<path fill="#206095" d="M33.076,33.112c0,5.016-1.968,8.161-5.688,8.161c-3.6,0-5.521-3.265-5.544-8.017
			c0-4.849,2.064-8.113,5.712-8.113C31.324,25.143,33.076,28.503,33.076,33.112z M24.82,33.256c-0.024,3.792,1.032,5.76,2.664,5.76
			c1.728,0,2.64-2.112,2.64-5.856c0-3.625-0.864-5.761-2.64-5.761C25.9,27.399,24.796,29.343,24.82,33.256z"/>
		<path fill="#206095" d="M44.428,27.495c-0.432,0-0.912,0-1.512,0.072c-3.265,0.384-4.849,2.4-5.232,4.561h0.072
			c0.768-0.888,1.944-1.512,3.504-1.512c2.688,0,4.776,1.92,4.776,5.088c0,2.977-2.184,5.569-5.497,5.569
			c-3.792,0-5.88-2.88-5.88-6.721c0-3,1.08-5.449,2.712-7.009c1.44-1.344,3.312-2.112,5.544-2.304
			c0.648-0.072,1.128-0.072,1.488-0.048L44.428,27.495z M43.036,35.872c0-1.8-0.984-3.097-2.712-3.097
			c-1.104,0-2.088,0.672-2.544,1.608c-0.12,0.24-0.192,0.528-0.192,0.936c0.048,2.064,1.032,3.744,2.928,3.744
			C42.052,39.064,43.036,37.744,43.036,35.872z"/>
		<path fill="#206095" d="M48.387,37.96c0.6,0.36,2.064,0.96,3.552,0.96c2.256,0,3.168-1.272,3.144-2.496
			c0-1.848-1.728-2.64-3.528-2.64h-1.368v-2.16h1.32c1.368,0,3.096-0.624,3.096-2.184c0-1.056-0.792-1.944-2.496-1.944
			c-1.272,0-2.544,0.552-3.192,0.984l-0.672-2.136c0.888-0.625,2.616-1.2,4.488-1.2c3.216,0,4.873,1.776,4.873,3.816
			c0,1.632-0.96,2.976-2.88,3.648v0.048c1.896,0.336,3.432,1.776,3.432,3.888c0,2.64-2.208,4.729-6.072,4.729
			c-1.896,0-3.528-0.528-4.369-1.08L48.387,37.96z"/>
		<path fill="#206095" d="M59.811,43.913c0.648-1.824,1.296-4.344,1.608-6.336l3.096-0.24c-0.672,2.256-1.752,4.849-2.688,6.385
			L59.811,43.913z"/>
		<path fill="#206095" d="M77.331,33.112c0,5.016-1.968,8.161-5.688,8.161c-3.6,0-5.521-3.265-5.544-8.017
			c0-4.849,2.064-8.113,5.712-8.113C75.579,25.143,77.331,28.503,77.331,33.112z M69.075,33.256c-0.024,3.792,1.032,5.76,2.664,5.76
			c1.728,0,2.64-2.112,2.64-5.856c0-3.625-0.864-5.761-2.64-5.761C70.155,27.399,69.051,29.343,69.075,33.256z"/>
		<path fill="#206095" d="M90.195,33.112c0,5.016-1.968,8.161-5.688,8.161c-3.6,0-5.521-3.265-5.544-8.017
			c0-4.849,2.064-8.113,5.713-8.113C88.443,25.143,90.195,28.503,90.195,33.112z M81.938,33.256c-0.024,3.792,1.032,5.76,2.664,5.76
			c1.728,0,2.64-2.112,2.64-5.856c0-3.625-0.864-5.761-2.64-5.761C83.019,27.399,81.915,29.343,81.938,33.256z"/>
		<path fill="#206095" d="M103.059,33.112c0,5.016-1.968,8.161-5.688,8.161c-3.6,0-5.521-3.265-5.544-8.017
			c0-4.849,2.064-8.113,5.712-8.113C101.307,25.143,103.059,28.503,103.059,33.112z M94.802,33.256
			c-0.024,3.792,1.032,5.76,2.664,5.76c1.728,0,2.64-2.112,2.64-5.856c0-3.625-0.864-5.761-2.64-5.761
			C95.882,27.399,94.778,29.343,94.802,33.256z"/>
	</g>
	<g>
		<path fill="#206095" d="M200.664,39.354h-0.047l-2.857,1.44l-0.504-2.232l3.793-1.873h2.472v15.602h-2.856V39.354z"/>
		<path fill="#206095" d="M208.056,55.195c0.647-1.824,1.296-4.345,1.608-6.337l3.096-0.24c-0.672,2.256-1.752,4.849-2.688,6.385
			L208.056,55.195z"/>
		<path fill="#206095" d="M214.56,52.291V50.49l1.849-1.704c3.672-3.408,5.4-5.28,5.424-7.345c0-1.392-0.744-2.616-2.784-2.616
			c-1.368,0-2.544,0.696-3.337,1.296l-0.863-2.088c1.128-0.912,2.832-1.608,4.801-1.608c3.455,0,5.136,2.184,5.136,4.729
			c0,2.736-1.968,4.944-4.681,7.464l-1.367,1.176v0.048h6.408v2.449H214.56z"/>
		<path fill="#206095" d="M227.207,48.282c0-1.944,1.129-3.264,2.928-4.056v-0.072c-1.631-0.792-2.375-2.088-2.375-3.456
			c0-2.544,2.256-4.272,5.208-4.272c3.36,0,4.896,2.016,4.896,3.936c0,1.32-0.696,2.688-2.4,3.528v0.072
			c1.704,0.648,2.976,1.992,2.976,3.936c0,2.785-2.352,4.657-5.688,4.657C229.104,52.555,227.207,50.466,227.207,48.282z
			 M235.439,48.138c0-1.584-1.176-2.448-2.904-2.928c-1.464,0.432-2.304,1.44-2.304,2.736c-0.048,1.32,0.96,2.52,2.616,2.52
			C234.408,50.466,235.439,49.482,235.439,48.138z M230.567,40.578c0,1.272,1.056,2.04,2.544,2.448
			c1.057-0.312,1.944-1.176,1.944-2.353c0-1.08-0.647-2.208-2.231-2.208C231.336,38.465,230.567,39.449,230.567,40.578z"/>
		<path fill="#206095" d="M250.199,39.137h-6l-0.456,3.121c0.36-0.048,0.673-0.072,1.128-0.072c1.368,0,2.736,0.312,3.793,1.008
			c1.176,0.744,2.04,2.064,2.04,3.96c0,2.976-2.473,5.4-6.313,5.4c-1.799,0-3.312-0.456-4.127-0.912l0.6-2.232
			c0.672,0.36,2.016,0.816,3.432,0.816c1.729,0,3.385-0.984,3.385-2.856c0-1.776-1.32-2.952-4.44-2.952
			c-0.864,0-1.513,0.048-2.136,0.144l1.031-7.873h8.064V39.137z"/>
		<path fill="#206095" d="M252.311,55.195c0.648-1.824,1.297-4.345,1.608-6.337l3.097-0.24c-0.673,2.256-1.753,4.849-2.689,6.385
			L252.311,55.195z"/>
		<path fill="#206095" d="M269.831,44.394c0,5.016-1.968,8.161-5.688,8.161c-3.6,0-5.521-3.265-5.545-8.017
			c0-4.849,2.064-8.113,5.713-8.113C268.079,36.425,269.831,39.786,269.831,44.394z M261.574,44.538
			c-0.023,3.792,1.032,5.76,2.664,5.76c1.729,0,2.641-2.112,2.641-5.856c0-3.625-0.863-5.761-2.641-5.761
			C262.654,38.681,261.551,40.625,261.574,44.538z"/>
		<path fill="#206095" d="M282.695,44.394c0,5.016-1.969,8.161-5.689,8.161c-3.6,0-5.52-3.265-5.544-8.017
			c0-4.849,2.064-8.113,5.713-8.113C280.943,36.425,282.695,39.786,282.695,44.394z M274.438,44.538
			c-0.024,3.792,1.032,5.76,2.664,5.76c1.728,0,2.64-2.112,2.64-5.856c0-3.625-0.863-5.761-2.64-5.761
			C275.519,38.681,274.414,40.625,274.438,44.538z"/>
		<path fill="#206095" d="M295.559,44.394c0,5.016-1.968,8.161-5.688,8.161c-3.601,0-5.521-3.265-5.544-8.017
			c0-4.849,2.064-8.113,5.712-8.113C293.807,36.425,295.559,39.786,295.559,44.394z M287.303,44.538
			c-0.024,3.792,1.031,5.76,2.664,5.76c1.728,0,2.64-2.112,2.64-5.856c0-3.625-0.864-5.761-2.64-5.761
			C288.383,38.681,287.278,40.625,287.303,44.538z"/>
	</g>
	<g>
		<path fill="#206095" d="M33.818,85.557h-0.044l-2.486,1.343l-0.375-1.474l3.125-1.673h1.65v14.302h-1.87V85.557z"/>
		<path fill="#206095" d="M42.023,96.691c0.418,0.043,0.902,0,1.562-0.066c1.123-0.154,2.179-0.616,2.993-1.387
			c0.946-0.857,1.628-2.111,1.892-3.807h-0.066c-0.792,0.969-1.936,1.541-3.366,1.541c-2.575,0-4.225-1.937-4.225-4.379
			c0-2.707,1.958-5.082,4.884-5.082c2.927,0,4.731,2.375,4.731,6.028c0,3.146-1.056,5.347-2.464,6.711
			c-1.1,1.078-2.619,1.738-4.159,1.914c-0.704,0.11-1.32,0.132-1.782,0.11V96.691z M42.728,88.462c0,1.782,1.078,3.036,2.75,3.036
			c1.298,0,2.31-0.638,2.816-1.496c0.11-0.176,0.176-0.396,0.176-0.704c0-2.442-0.902-4.313-2.926-4.313
			C43.894,84.985,42.728,86.438,42.728,88.462z"/>
		<path fill="#206095" d="M52.011,94.425c0-1.804,1.078-3.081,2.838-3.829l-0.022-0.065c-1.584-0.749-2.266-1.98-2.266-3.212
			c0-2.268,1.914-3.807,4.422-3.807c2.772,0,4.159,1.738,4.159,3.52c0,1.211-0.594,2.509-2.354,3.345v0.065
			c1.782,0.705,2.882,1.959,2.882,3.697c0,2.486-2.134,4.158-4.863,4.158C53.815,98.297,52.011,96.516,52.011,94.425z
			 M59.712,94.336c0-1.738-1.21-2.574-3.146-3.123c-1.672,0.483-2.574,1.584-2.574,2.947c-0.066,1.453,1.034,2.729,2.86,2.729
			C58.59,96.889,59.712,95.811,59.712,94.336z M54.387,87.186c0,1.43,1.078,2.2,2.729,2.641c1.232-0.418,2.178-1.299,2.178-2.597
			c0-1.144-0.682-2.332-2.42-2.332C55.268,84.897,54.387,85.953,54.387,87.186z"/>
		<path fill="#206095" d="M67.675,85.557h-0.044l-2.486,1.343l-0.374-1.474l3.124-1.673h1.65v14.302h-1.87V85.557z"/>
	</g>
	<g>
		<path fill="#206095" d="M228.635,98.055v-1.188l1.519-1.475c3.653-3.477,5.303-5.324,5.325-7.48c0-1.453-0.705-2.795-2.839-2.795
			c-1.298,0-2.376,0.66-3.036,1.211l-0.616-1.365c0.99-0.836,2.398-1.451,4.048-1.451c3.081,0,4.379,2.111,4.379,4.158
			c0,2.641-1.914,4.774-4.928,7.679l-1.145,1.056v0.045h6.425v1.605H228.635z"/>
		<path fill="#206095" d="M249.426,90.75c0,4.863-1.804,7.547-4.973,7.547c-2.794,0-4.687-2.618-4.73-7.349
			c0-4.797,2.068-7.437,4.973-7.437C247.71,83.512,249.426,86.195,249.426,90.75z M241.659,90.971c0,3.718,1.144,5.83,2.904,5.83
			c1.98,0,2.927-2.311,2.927-5.963c0-3.52-0.902-5.83-2.904-5.83C242.891,85.008,241.659,87.076,241.659,90.971z"/>
		<path fill="#206095" d="M255.409,85.557h-0.044l-2.486,1.343l-0.375-1.474l3.125-1.673h1.65v14.302h-1.87V85.557z"/>
		<path fill="#206095" d="M263.614,96.691c0.418,0.043,0.902,0,1.562-0.066c1.123-0.154,2.18-0.616,2.993-1.387
			c0.946-0.857,1.628-2.111,1.892-3.807h-0.065c-0.792,0.969-1.937,1.541-3.366,1.541c-2.574,0-4.225-1.937-4.225-4.379
			c0-2.707,1.958-5.082,4.885-5.082c2.926,0,4.73,2.375,4.73,6.028c0,3.146-1.057,5.347-2.465,6.711
			c-1.1,1.078-2.618,1.738-4.158,1.914c-0.704,0.11-1.32,0.132-1.782,0.11V96.691z M264.318,88.462c0,1.782,1.078,3.036,2.75,3.036
			c1.299,0,2.311-0.638,2.816-1.496c0.11-0.176,0.176-0.396,0.176-0.704c0-2.442-0.901-4.313-2.926-4.313
			C265.484,84.985,264.318,86.438,264.318,88.462z"/>
	</g>
</g>
<g id="balls">
	<circle fill="#FF9933" cx="50.5" cy="60" r="5"/>
	<circle fill="#FF9933" cx="250.5" cy="74" r="5"/>
</g>
</svg>
