<?xml version="1.0" encoding="utf-8"?>
<!-- Generator: Adobe Illustrator 16.0.5, SVG Export Plug-In . SVG Version: 6.00 Build 0)  -->
<!DOCTYPE svg PUBLIC "-//W3C//DTD SVG 1.1//EN" "http://www.w3.org/Graphics/SVG/1.1/DTD/svg11.dtd">
<svg version="1.1" id="Layer_1" xmlns="http://www.w3.org/2000/svg" xmlns:xlink="http://www.w3.org/1999/xlink" x="0px" y="0px"
	 width="300px" height="100px" viewBox="0 0 300 100" enable-background="new 0 0 300 100" xml:space="preserve">
<g id="Layer_1_1_">
	
		<polyline fill="none" stroke="#206095" stroke-width="4" stroke-linecap="round" stroke-linejoin="round" stroke-miterlimit="10" points="
		49.214,13 61.405,20.006 73.357,32.85 85.547,35.186 97.738,37.288 109.928,45.695 122.119,50.833 134.309,58.307 146.5,61.811 
		158.689,64.379 170.88,66.714 183.07,67.881 195.264,69.75 207.452,68.35 219.643,65.08 231.834,63.678 237.811,63.678 
		244.023,62.979 250,62.512 	"/>
</g>
<g>
	<path fill="#206095" d="M7.165,47.071H7.117l-2.856,1.44l-0.504-2.232l3.792-1.873h2.472v15.601H7.165V47.071z"/>
	<path fill="#206095" d="M14.556,62.912c0.648-1.824,1.296-4.344,1.608-6.336l3.096-0.24c-0.672,2.256-1.752,4.85-2.688,6.385
		L14.556,62.912z"/>
	<path fill="#206095" d="M32.076,52.111c0,5.017-1.968,8.16-5.688,8.16c-3.6,0-5.521-3.265-5.544-8.017
		c0-4.849,2.064-8.113,5.712-8.113C30.324,44.143,32.076,47.503,32.076,52.111z M23.82,52.256c-0.024,3.792,1.032,5.76,2.664,5.76
		c1.728,0,2.64-2.111,2.64-5.854c0-3.625-0.864-5.761-2.64-5.761C24.9,46.399,23.796,48.343,23.82,52.256z"/>
	<path fill="#206095" d="M44.652,44.407v1.896l-6.601,13.705H34.93l6.577-13.104v-0.048h-7.345v-2.448L44.652,44.407L44.652,44.407z
		"/>
	<path fill="#206095" d="M53.292,60.008v-3.96h-7.057v-1.92l6.361-9.721h3.48v9.409h2.016v2.231h-2.016v3.96H53.292z M53.292,53.816
		v-4.25c0-0.888,0.024-1.8,0.096-2.712h-0.096c-0.48,0.984-0.888,1.776-1.368,2.641l-2.856,4.271l-0.024,0.049H53.292L53.292,53.816
		z"/>
	<path fill="#206095" d="M58.811,62.912c0.648-1.824,1.296-4.344,1.608-6.336l3.096-0.24c-0.672,2.256-1.752,4.85-2.688,6.385
		L58.811,62.912z"/>
	<path fill="#206095" d="M74.819,46.495c-0.432,0-0.912,0-1.512,0.072c-3.264,0.384-4.849,2.4-5.232,4.56h0.072
		c0.768-0.888,1.944-1.512,3.504-1.512c2.688,0,4.776,1.92,4.776,5.088c0,2.977-2.184,5.568-5.497,5.568
		c-3.792,0-5.88-2.879-5.88-6.721c0-3,1.08-5.449,2.712-7.009c1.44-1.344,3.312-2.112,5.544-2.304
		c0.648-0.072,1.128-0.072,1.488-0.048L74.819,46.495z M73.427,54.872c0-1.8-0.984-3.097-2.712-3.097
		c-1.104,0-2.088,0.672-2.544,1.607c-0.12,0.239-0.192,0.528-0.192,0.938c0.048,2.063,1.032,3.744,2.928,3.744
		C72.443,58.064,73.427,56.744,73.427,54.872z"/>
	<path fill="#206095" d="M88.091,46.855h-6l-0.456,3.121c0.36-0.048,0.672-0.072,1.128-0.072c1.368,0,2.736,0.312,3.792,1.008
		c1.176,0.744,2.041,2.064,2.041,3.96c0,2.976-2.473,5.399-6.313,5.399c-1.8,0-3.312-0.455-4.128-0.912l0.6-2.231
		c0.672,0.36,2.017,0.815,3.433,0.815c1.728,0,3.384-0.983,3.384-2.855c0-1.775-1.32-2.951-4.44-2.951
		c-0.864,0-1.512,0.047-2.136,0.143l1.032-7.872h8.064L88.091,46.855L88.091,46.855z"/>
	<path fill="#206095" d="M92.242,57.896c0.456,0.047,0.912,0.022,1.632-0.049c1.152-0.097,2.304-0.505,3.168-1.199
		c1.008-0.816,1.704-1.992,1.992-3.457l-0.048-0.023c-0.792,0.889-1.896,1.393-3.408,1.393c-2.712,0-4.729-1.969-4.729-4.849
		c0-2.976,2.304-5.568,5.641-5.568c3.625,0,5.568,2.856,5.568,6.648c0,3.336-1.104,5.712-2.712,7.249
		c-1.368,1.271-3.24,1.992-5.329,2.137c-0.672,0.071-1.344,0.071-1.776,0.049L92.242,57.896L92.242,57.896z M93.778,49.543
		c0.024,1.607,0.936,2.855,2.568,2.855c1.2,0,2.064-0.551,2.521-1.295c0.096-0.192,0.168-0.433,0.168-0.84
		c0.024-2.112-0.768-3.937-2.688-3.937C94.858,46.327,93.778,47.647,93.778,49.543z"/>
</g>
<g>
	<path fill="#206095" d="M219.09,51.291V47.33h-7.057v-1.92l6.359-9.721h3.479v9.409h2.017v2.232h-2.017v3.961H219.09z
		 M219.09,45.098V40.85c0-0.888,0.023-1.8,0.096-2.712h-0.096c-0.48,0.984-0.889,1.776-1.369,2.641l-2.854,4.272l-0.024,0.048
		L219.09,45.098L219.09,45.098z"/>
	<path fill="#206095" d="M231.953,51.291V47.33h-7.057v-1.92l6.36-9.721h3.479v9.409h2.017v2.232h-2.017v3.961H231.953z
		 M231.953,45.098V40.85c0-0.888,0.023-1.8,0.096-2.712h-0.096c-0.48,0.984-0.889,1.776-1.368,2.641l-2.856,4.272l-0.022,0.048
		L231.953,45.098L231.953,45.098z"/>
	<path fill="#206095" d="M242.945,38.354h-0.049l-2.855,1.44l-0.504-2.232l3.791-1.873h2.473v15.602h-2.855V38.354L242.945,38.354z"
		/>
	<path fill="#206095" d="M250.336,54.195c0.648-1.824,1.297-4.345,1.607-6.337l3.098-0.24c-0.673,2.256-1.753,4.849-2.689,6.385
		L250.336,54.195z"/>
	<path fill="#206095" d="M257.439,48.242c0.601,0.36,2.063,0.96,3.553,0.96c2.256,0,3.168-1.272,3.145-2.496
		c0-1.848-1.729-2.64-3.529-2.64h-1.366v-2.16h1.319c1.367,0,3.097-0.624,3.097-2.184c0-1.056-0.792-1.944-2.496-1.944
		c-1.271,0-2.545,0.552-3.192,0.984l-0.672-2.136c0.889-0.625,2.616-1.2,4.488-1.2c3.216,0,4.872,1.776,4.872,3.816
		c0,1.632-0.96,2.976-2.88,3.648v0.048c1.896,0.336,3.433,1.776,3.433,3.888c0,2.64-2.209,4.729-6.071,4.729
		c-1.896,0-3.529-0.527-4.369-1.08L257.439,48.242z"/>
	<path fill="#206095" d="M279.616,38.137h-6.001l-0.455,3.121c0.359-0.048,0.672-0.072,1.128-0.072c1.368,0,2.735,0.312,3.792,1.008
		c1.176,0.744,2.041,2.064,2.041,3.96c0,2.976-2.473,5.401-6.313,5.401c-1.801,0-3.313-0.457-4.129-0.912l0.6-2.232
		c0.673,0.36,2.018,0.816,3.434,0.816c1.729,0,3.385-0.984,3.385-2.856c0-1.776-1.32-2.952-4.439-2.952
		c-0.865,0-1.514,0.048-2.137,0.144l1.031-7.873h8.064L279.616,38.137L279.616,38.137z"/>
	<path fill="#206095" d="M287.199,38.354h-0.047l-2.857,1.44l-0.504-2.232l3.793-1.873h2.473v15.602H287.2L287.199,38.354
		L287.199,38.354z"/>
</g>
<g>
	<path fill="#206095" d="M228.635,98.055v-1.188l1.52-1.475c3.652-3.478,5.303-5.324,5.324-7.48c0-1.453-0.705-2.795-2.838-2.795
		c-1.299,0-2.377,0.66-3.037,1.211l-0.615-1.365c0.99-0.836,2.398-1.451,4.048-1.451c3.081,0,4.379,2.111,4.379,4.158
		c0,2.641-1.914,4.773-4.929,7.68l-1.145,1.055v0.046h6.426v1.604H228.635z"/>
	<path fill="#206095" d="M249.426,90.75c0,4.863-1.804,7.547-4.973,7.547c-2.794,0-4.688-2.617-4.73-7.35
		c0-4.797,2.068-7.436,4.973-7.436C247.71,83.512,249.426,86.195,249.426,90.75z M241.659,90.971c0,3.719,1.144,5.83,2.903,5.83
		c1.98,0,2.928-2.311,2.928-5.963c0-3.52-0.902-5.83-2.904-5.83C242.891,85.008,241.659,87.076,241.659,90.971z"/>
	<path fill="#206095" d="M255.409,85.557h-0.044l-2.486,1.344l-0.375-1.475l3.125-1.673h1.65v14.302h-1.87V85.557z"/>
	<path fill="#206095" d="M263.613,96.691c0.419,0.043,0.902,0,1.563-0.066c1.123-0.154,2.18-0.616,2.993-1.387
		c0.946-0.857,1.628-2.111,1.892-3.807h-0.064c-0.792,0.969-1.938,1.541-3.366,1.541c-2.573,0-4.226-1.938-4.226-4.379
		c0-2.707,1.959-5.082,4.886-5.082c2.926,0,4.729,2.375,4.729,6.027c0,3.146-1.057,5.348-2.465,6.711
		c-1.1,1.078-2.617,1.738-4.158,1.914c-0.703,0.109-1.319,0.132-1.781,0.109v-1.582H263.613z M264.318,88.462
		c0,1.782,1.078,3.036,2.75,3.036c1.299,0,2.311-0.639,2.815-1.496c0.11-0.176,0.177-0.396,0.177-0.704
		c0-2.442-0.901-4.313-2.927-4.313C265.484,84.984,264.318,86.438,264.318,88.462z"/>
</g>
<g id="balls">
	<circle fill="#FF9933" cx="50.5" cy="12" r="5"/>
	<circle fill="#FF9933" cx="250.5" cy="62" r="5"/>
</g>
<g>
	<path fill="#206095" d="M33.616,98.055v-1.188l1.518-1.475c3.653-3.477,5.303-5.324,5.325-7.48c0-1.453-0.704-2.795-2.838-2.795
		c-1.298,0-2.376,0.66-3.036,1.211l-0.616-1.365c0.99-0.836,2.398-1.451,4.048-1.451c3.081,0,4.379,2.111,4.379,4.158
		c0,2.641-1.915,4.774-4.929,7.679l-1.145,1.056v0.045h6.425v1.605H33.616z"/>
	<path fill="#206095" d="M54.407,90.75c0,4.863-1.804,7.547-4.973,7.547c-2.794,0-4.687-2.618-4.731-7.349
		c0-4.797,2.068-7.437,4.973-7.437C52.69,83.512,54.407,86.195,54.407,90.75z M46.64,90.971c0,3.718,1.144,5.83,2.904,5.83
		c1.98,0,2.926-2.311,2.926-5.963c0-3.52-0.902-5.83-2.904-5.83C47.872,85.008,46.64,87.076,46.64,90.971z"/>
	<path fill="#206095" d="M65.692,90.75c0,4.863-1.804,7.547-4.973,7.547c-2.794,0-4.687-2.618-4.731-7.349
		c0-4.797,2.068-7.437,4.973-7.437C63.976,83.512,65.692,86.195,65.692,90.75z M57.925,90.971c0,3.718,1.144,5.83,2.904,5.83
		c1.98,0,2.926-2.311,2.926-5.963c0-3.52-0.902-5.83-2.904-5.83C59.157,85.008,57.925,87.076,57.925,90.971z"/>
	<path fill="#206095" d="M67.935,95.833c0.55,0.353,1.826,0.901,3.168,0.901c2.486,0,3.256-1.584,3.234-2.771
		c-0.022-2.002-1.826-2.861-3.696-2.861h-1.078V89.65h1.078c1.408,0,3.19-0.727,3.19-2.421c0-1.144-0.726-2.156-2.508-2.156
		c-1.144,0-2.245,0.507-2.86,0.946l-0.506-1.408c0.748-0.551,2.2-1.1,3.741-1.1c2.816,0,4.092,1.672,4.092,3.41
		c0,1.475-0.88,2.729-2.64,3.366v0.044c1.76,0.352,3.19,1.672,3.19,3.674c0,2.289-1.782,4.291-5.215,4.291
		c-1.606,0-3.014-0.506-3.718-0.968L67.935,95.833z"/>
</g>
</svg>
