<?xml version="1.0" encoding="utf-8"?>
<!-- Generator: Adobe Illustrator 16.0.5, SVG Export Plug-In . SVG Version: 6.00 Build 0)  -->
<!DOCTYPE svg PUBLIC "-//W3C//DTD SVG 1.1//EN" "http://www.w3.org/Graphics/SVG/1.1/DTD/svg11.dtd">
<svg version="1.1" xmlns="http://www.w3.org/2000/svg" xmlns:xlink="http://www.w3.org/1999/xlink" x="0px" y="0px" width="300px"
	 height="100px" viewBox="0 0 300 100" enable-background="new 0 0 300 100" xml:space="preserve">
<g id="Layer_1">
	
		<polyline fill="none" stroke="#206095" stroke-width="4" stroke-linecap="round" stroke-linejoin="round" stroke-miterlimit="10" points="
		87,16.75 127.647,51.931 168.705,66.543 209.353,69.25 250,66.543 	"/>
</g>
<g id="text">
	<g>
		<path fill="#206095" d="M18.165,49.071h-0.048l-2.856,1.44l-0.504-2.232l3.792-1.873h2.472v15.601h-2.856V49.071z"/>
		<path fill="#206095" d="M25.556,64.912c0.648-1.824,1.296-4.344,1.608-6.336l3.096-0.24c-0.672,2.256-1.752,4.849-2.688,6.385
			L25.556,64.912z"/>
		<path fill="#206095" d="M42.789,46.407v1.896l-6.601,13.705h-3.121l6.577-13.104v-0.048h-7.345v-2.448H42.789z"/>
		<path fill="#206095" d="M54.428,48.495c-0.432,0-0.912,0-1.512,0.072c-3.265,0.384-4.849,2.4-5.232,4.56h0.072
			c0.768-0.888,1.944-1.512,3.504-1.512c2.688,0,4.776,1.92,4.776,5.088c0,2.977-2.184,5.569-5.497,5.569
			c-3.792,0-5.88-2.88-5.88-6.721c0-3.001,1.08-5.449,2.712-7.009c1.44-1.344,3.312-2.112,5.544-2.304
			c0.648-0.072,1.128-0.072,1.488-0.048L54.428,48.495z M53.036,56.872c0-1.8-0.984-3.097-2.712-3.097
			c-1.104,0-2.088,0.672-2.544,1.608c-0.12,0.239-0.192,0.528-0.192,0.937c0.048,2.063,1.032,3.744,2.928,3.744
			C52.052,60.064,53.036,58.744,53.036,56.872z"/>
		<path fill="#206095" d="M64.292,62.008v-3.96h-7.057v-1.92l6.361-9.721h3.48v9.41h2.016v2.231h-2.016v3.96H64.292z M64.292,55.816
			v-4.249c0-0.888,0.024-1.8,0.096-2.712h-0.096c-0.48,0.984-0.888,1.776-1.368,2.641l-2.856,4.271l-0.024,0.049H64.292z"/>
		<path fill="#206095" d="M69.811,64.912c0.648-1.824,1.296-4.344,1.608-6.336l3.096-0.24c-0.672,2.256-1.752,4.849-2.688,6.385
			L69.811,64.912z"/>
		<path fill="#206095" d="M87.331,54.111c0,5.017-1.968,8.161-5.688,8.161c-3.6,0-5.521-3.265-5.544-8.017
			c0-4.849,2.064-8.113,5.712-8.113C85.579,46.143,87.331,49.503,87.331,54.111z M79.075,54.256c-0.024,3.792,1.032,5.76,2.664,5.76
			c1.728,0,2.64-2.111,2.64-5.855c0-3.625-0.864-5.761-2.64-5.761C80.155,48.399,79.051,50.343,79.075,54.256z"/>
		<path fill="#206095" d="M100.195,54.111c0,5.017-1.968,8.161-5.688,8.161c-3.6,0-5.521-3.265-5.544-8.017
			c0-4.849,2.064-8.113,5.713-8.113C98.443,46.143,100.195,49.503,100.195,54.111z M91.938,54.256
			c-0.024,3.792,1.032,5.76,2.664,5.76c1.728,0,2.64-2.111,2.64-5.855c0-3.625-0.864-5.761-2.64-5.761
			C93.019,48.399,91.915,50.343,91.938,54.256z"/>
		<path fill="#206095" d="M113.059,54.111c0,5.017-1.968,8.161-5.688,8.161c-3.6,0-5.521-3.265-5.544-8.017
			c0-4.849,2.064-8.113,5.712-8.113C111.307,46.143,113.059,49.503,113.059,54.111z M104.802,54.256
			c-0.024,3.792,1.032,5.76,2.664,5.76c1.728,0,2.64-2.111,2.64-5.855c0-3.625-0.864-5.761-2.64-5.761
			C105.882,48.399,104.778,50.343,104.802,54.256z"/>
	</g>
	<g>
		<path fill="#206095" d="M201.664,40.354h-0.047l-2.857,1.44l-0.504-2.232l3.793-1.873h2.472v15.602h-2.856V40.354z"/>
		<path fill="#206095" d="M209.056,56.195c0.647-1.824,1.296-4.345,1.608-6.337l3.096-0.24c-0.672,2.257-1.752,4.849-2.688,6.385
			L209.056,56.195z"/>
		<path fill="#206095" d="M226.576,45.394c0,5.016-1.968,8.161-5.688,8.161c-3.601,0-5.521-3.265-5.544-8.017
			c0-4.849,2.064-8.113,5.712-8.113C224.824,37.425,226.576,40.786,226.576,45.394z M218.32,45.538
			c-0.024,3.792,1.031,5.761,2.664,5.761c1.728,0,2.64-2.113,2.64-5.857c0-3.625-0.864-5.761-2.64-5.761
			C219.4,39.681,218.296,41.625,218.32,45.538z"/>
		<path fill="#206095" d="M239.439,45.394c0,5.016-1.967,8.161-5.688,8.161c-3.601,0-5.521-3.265-5.545-8.017
			c0-4.849,2.064-8.113,5.713-8.113C237.688,37.425,239.439,40.786,239.439,45.394z M231.184,45.538
			c-0.023,3.792,1.031,5.761,2.664,5.761c1.729,0,2.641-2.113,2.641-5.857c0-3.625-0.864-5.761-2.641-5.761
			C232.264,39.681,231.16,41.625,231.184,45.538z"/>
		<path fill="#206095" d="M250.792,39.777c-0.433,0-0.912,0-1.513,0.072c-3.264,0.384-4.848,2.4-5.232,4.561h0.072
			c0.768-0.888,1.944-1.512,3.504-1.512c2.688,0,4.777,1.92,4.777,5.088c0,2.977-2.185,5.569-5.497,5.569
			c-3.792,0-5.88-2.88-5.88-6.721c0-3,1.08-5.449,2.712-7.009c1.44-1.344,3.312-2.112,5.544-2.304
			c0.648-0.072,1.129-0.072,1.488-0.048L250.792,39.777z M249.4,48.154c0-1.8-0.984-3.097-2.713-3.097
			c-1.104,0-2.088,0.672-2.545,1.608c-0.119,0.24-0.191,0.528-0.191,0.936c0.048,2.064,1.032,3.744,2.928,3.744
			C248.416,51.346,249.4,50.026,249.4,48.154z"/>
		<path fill="#206095" d="M253.311,56.195c0.648-1.824,1.297-4.345,1.608-6.337l3.097-0.24c-0.673,2.257-1.753,4.849-2.689,6.385
			L253.311,56.195z"/>
		<path fill="#206095" d="M270.831,45.394c0,5.016-1.968,8.161-5.688,8.161c-3.6,0-5.521-3.265-5.545-8.017
			c0-4.849,2.064-8.113,5.713-8.113C269.079,37.425,270.831,40.786,270.831,45.394z M262.574,45.538
			c-0.023,3.792,1.032,5.761,2.664,5.761c1.729,0,2.641-2.113,2.641-5.857c0-3.625-0.863-5.761-2.641-5.761
			C263.654,39.681,262.551,41.625,262.574,45.538z"/>
		<path fill="#206095" d="M283.695,45.394c0,5.016-1.969,8.161-5.689,8.161c-3.6,0-5.52-3.265-5.544-8.017
			c0-4.849,2.064-8.113,5.713-8.113C281.943,37.425,283.695,40.786,283.695,45.394z M275.438,45.538
			c-0.024,3.792,1.032,5.761,2.664,5.761c1.728,0,2.64-2.113,2.64-5.857c0-3.625-0.863-5.761-2.64-5.761
			C276.519,39.681,275.414,41.625,275.438,45.538z"/>
		<path fill="#206095" d="M296.559,45.394c0,5.016-1.968,8.161-5.688,8.161c-3.601,0-5.521-3.265-5.544-8.017
			c0-4.849,2.064-8.113,5.712-8.113C294.807,37.425,296.559,40.786,296.559,45.394z M288.303,45.538
			c-0.024,3.792,1.031,5.761,2.664,5.761c1.728,0,2.64-2.113,2.64-5.857c0-3.625-0.864-5.761-2.64-5.761
			C289.383,39.681,288.278,41.625,288.303,45.538z"/>
	</g>
	<g>
		<path fill="#206095" d="M64.616,98.055v-1.188l1.518-1.475c3.653-3.477,5.303-5.324,5.325-7.48c0-1.453-0.704-2.795-2.838-2.795
			c-1.298,0-2.376,0.66-3.036,1.211l-0.616-1.365c0.99-0.836,2.398-1.451,4.048-1.451c3.081,0,4.379,2.111,4.379,4.158
			c0,2.641-1.915,4.774-4.929,7.679l-1.145,1.056v0.045h6.425v1.605H64.616z"/>
		<path fill="#206095" d="M85.407,90.75c0,4.863-1.804,7.547-4.973,7.547c-2.794,0-4.687-2.618-4.731-7.349
			c0-4.797,2.068-7.437,4.973-7.437C83.69,83.512,85.407,86.195,85.407,90.75z M77.64,90.971c0,3.718,1.144,5.83,2.904,5.83
			c1.98,0,2.926-2.311,2.926-5.963c0-3.52-0.902-5.83-2.904-5.83C78.872,85.008,77.64,87.076,77.64,90.971z"/>
		<path fill="#206095" d="M91.39,85.557h-0.044l-2.486,1.343l-0.375-1.474l3.125-1.673h1.65v14.302h-1.87V85.557z"/>
		<path fill="#206095" d="M107.758,83.753v1.276l-6.227,13.025h-2.002l6.205-12.651v-0.044h-6.997v-1.606H107.758z"/>
	</g>
	<g>
		<path fill="#206095" d="M228.635,98.055v-1.188l1.519-1.475c3.653-3.477,5.303-5.324,5.325-7.48c0-1.453-0.705-2.795-2.839-2.795
			c-1.298,0-2.376,0.66-3.036,1.211l-0.616-1.365c0.99-0.836,2.398-1.451,4.048-1.451c3.081,0,4.379,2.111,4.379,4.158
			c0,2.641-1.914,4.774-4.928,7.679l-1.145,1.056v0.045h6.425v1.605H228.635z"/>
		<path fill="#206095" d="M249.426,90.75c0,4.863-1.804,7.547-4.973,7.547c-2.794,0-4.687-2.618-4.73-7.349
			c0-4.797,2.068-7.437,4.973-7.437C247.71,83.512,249.426,86.195,249.426,90.75z M241.659,90.971c0,3.718,1.144,5.83,2.904,5.83
			c1.98,0,2.927-2.311,2.927-5.963c0-3.52-0.902-5.83-2.904-5.83C242.891,85.008,241.659,87.076,241.659,90.971z"/>
		<path fill="#206095" d="M255.409,85.557h-0.044l-2.486,1.343l-0.375-1.474l3.125-1.673h1.65v14.302h-1.87V85.557z"/>
		<path fill="#206095" d="M263.614,96.691c0.418,0.043,0.902,0,1.562-0.066c1.123-0.154,2.18-0.616,2.993-1.387
			c0.946-0.857,1.628-2.111,1.892-3.807h-0.065c-0.792,0.969-1.937,1.541-3.366,1.541c-2.574,0-4.225-1.937-4.225-4.379
			c0-2.707,1.958-5.082,4.885-5.082c2.926,0,4.73,2.375,4.73,6.028c0,3.146-1.057,5.347-2.465,6.711
			c-1.1,1.078-2.618,1.738-4.158,1.914c-0.704,0.11-1.32,0.132-1.782,0.11V96.691z M264.318,88.462c0,1.782,1.078,3.036,2.75,3.036
			c1.299,0,2.311-0.638,2.816-1.496c0.11-0.176,0.176-0.396,0.176-0.704c0-2.442-0.901-4.313-2.926-4.313
			C265.484,84.985,264.318,86.438,264.318,88.462z"/>
	</g>
</g>
<g id="balls">
	<circle fill="#FF9933" cx="87.5" cy="16" r="5"/>
	<circle fill="#FF9933" cx="250.5" cy="65" r="5"/>
</g>
</svg>
