<?xml version="1.0" encoding="utf-8"?>
<!-- Generator: Adobe Illustrator 16.0.5, SVG Export Plug-In . SVG Version: 6.00 Build 0)  -->
<!DOCTYPE svg PUBLIC "-//W3C//DTD SVG 1.1//EN" "http://www.w3.org/Graphics/SVG/1.1/DTD/svg11.dtd">
<svg version="1.1" xmlns="http://www.w3.org/2000/svg" xmlns:xlink="http://www.w3.org/1999/xlink" x="0px" y="0px" width="300px"
	 height="100px" viewBox="0 0 300 100" enable-background="new 0 0 300 100" xml:space="preserve">
<g id="Layer_1">
	
		<polyline fill="none" stroke="#206095" stroke-width="3.9961" stroke-linecap="round" stroke-linejoin="round" stroke-miterlimit="10" points="
		50.027,16 61.942,23.476 74.097,38.429 86.251,42.167 98.405,44.57 110.559,48.842 122.714,48.842 134.867,53.382 147.021,55.251 
		159.176,57.653 171.092,61.927 183.245,63.795 195.399,67.267 207.554,68.334 219.708,66.999 231.862,67.801 237.82,68.602 
		244.017,69.136 249.974,70.471 	"/>
</g>
<g id="text">
	<g>
		<path fill="#206095" d="M6.316,58c0-1.944,1.128-3.264,2.928-4.057v-0.072c-1.632-0.791-2.376-2.088-2.376-3.456
			c0-2.544,2.256-4.272,5.208-4.272c3.36,0,4.896,2.016,4.896,3.936c0,1.32-0.696,2.688-2.4,3.528v0.072
			c1.704,0.648,2.976,1.992,2.976,3.936c0,2.785-2.352,4.657-5.688,4.657C8.212,62.272,6.316,60.184,6.316,58z M14.549,57.855
			c0-1.584-1.176-2.447-2.904-2.928c-1.464,0.432-2.304,1.439-2.304,2.736c-0.048,1.32,0.96,2.52,2.616,2.52
			C13.517,60.184,14.549,59.2,14.549,57.855z M9.676,50.295c0,1.272,1.056,2.041,2.544,2.449c1.056-0.313,1.944-1.177,1.944-2.353
			c0-1.08-0.648-2.208-2.232-2.208C10.444,48.183,9.676,49.167,9.676,50.295z"/>
		<path fill="#206095" d="M20.596,59.896c0.456,0.048,0.912,0.023,1.632-0.049c1.152-0.096,2.304-0.504,3.168-1.199
			c1.008-0.816,1.704-1.992,1.992-3.457l-0.048-0.023c-0.792,0.888-1.896,1.393-3.408,1.393c-2.712,0-4.729-1.969-4.729-4.85
			c0-2.976,2.304-5.568,5.641-5.568c3.625,0,5.568,2.856,5.568,6.648c0,3.337-1.104,5.713-2.712,7.249
			c-1.368,1.272-3.24,1.992-5.329,2.136c-0.672,0.072-1.344,0.072-1.776,0.049V59.896z M22.132,51.543
			c0.024,1.608,0.936,2.856,2.568,2.856c1.2,0,2.064-0.552,2.521-1.296c0.096-0.191,0.168-0.432,0.168-0.84
			c0.024-2.112-0.768-3.937-2.688-3.937C23.212,48.327,22.132,49.647,22.132,51.543z"/>
		<path fill="#206095" d="M43.276,54.111c0,5.017-1.968,8.161-5.688,8.161c-3.6,0-5.521-3.265-5.544-8.017
			c0-4.849,2.064-8.113,5.712-8.113C41.524,46.143,43.276,49.503,43.276,54.111z M35.02,54.256c-0.024,3.792,1.032,5.76,2.664,5.76
			c1.728,0,2.64-2.111,2.64-5.855c0-3.625-0.864-5.761-2.64-5.761C36.1,48.399,34.996,50.343,35.02,54.256z"/>
		<path fill="#206095" d="M44.283,64.912c0.648-1.824,1.296-4.344,1.608-6.336l3.096-0.24c-0.672,2.256-1.752,4.849-2.688,6.385
			L44.283,64.912z"/>
		<path fill="#206095" d="M61.804,54.111c0,5.017-1.968,8.161-5.688,8.161c-3.6,0-5.521-3.265-5.544-8.017
			c0-4.849,2.064-8.113,5.712-8.113C60.052,46.143,61.804,49.503,61.804,54.111z M53.547,54.256c-0.024,3.792,1.032,5.76,2.664,5.76
			c1.728,0,2.64-2.111,2.64-5.855c0-3.625-0.864-5.761-2.64-5.761C54.627,48.399,53.523,50.343,53.547,54.256z"/>
		<path fill="#206095" d="M64.851,59.896c0.456,0.048,0.912,0.023,1.632-0.049c1.152-0.096,2.304-0.504,3.168-1.199
			c1.008-0.816,1.704-1.992,1.992-3.457l-0.048-0.023c-0.792,0.888-1.896,1.393-3.408,1.393c-2.712,0-4.729-1.969-4.729-4.85
			c0-2.976,2.304-5.568,5.641-5.568c3.625,0,5.568,2.856,5.568,6.648c0,3.337-1.104,5.713-2.712,7.249
			c-1.368,1.272-3.24,1.992-5.329,2.136c-0.672,0.072-1.344,0.072-1.776,0.049V59.896z M66.387,51.543
			c0.024,1.608,0.936,2.856,2.568,2.856c1.2,0,2.064-0.552,2.521-1.296c0.096-0.191,0.168-0.432,0.168-0.84
			c0.024-2.112-0.768-3.937-2.688-3.937C67.467,48.327,66.387,49.647,66.387,51.543z"/>
		<path fill="#206095" d="M77.715,59.896c0.456,0.048,0.912,0.023,1.632-0.049c1.152-0.096,2.304-0.504,3.168-1.199
			c1.008-0.816,1.704-1.992,1.992-3.457l-0.048-0.023c-0.792,0.888-1.896,1.393-3.408,1.393c-2.712,0-4.729-1.969-4.729-4.85
			c0-2.976,2.304-5.568,5.641-5.568c3.625,0,5.568,2.856,5.568,6.648c0,3.337-1.104,5.713-2.712,7.249
			c-1.368,1.272-3.24,1.992-5.329,2.136c-0.672,0.072-1.344,0.072-1.776,0.049V59.896z M79.251,51.543
			c0.024,1.608,0.936,2.856,2.568,2.856c1.2,0,2.064-0.552,2.521-1.296c0.096-0.191,0.168-0.432,0.168-0.84
			c0.024-2.112-0.768-3.937-2.688-3.937C80.331,48.327,79.251,49.647,79.251,51.543z"/>
	</g>
	<g>
		<path fill="#206095" d="M213.633,56.242c0.6,0.359,2.063,0.96,3.552,0.96c2.256,0,3.168-1.272,3.144-2.496
			c0-1.849-1.728-2.64-3.527-2.64h-1.369v-2.161h1.32c1.369,0,3.097-0.624,3.097-2.184c0-1.056-0.792-1.944-2.496-1.944
			c-1.272,0-2.544,0.552-3.192,0.984l-0.672-2.136c0.888-0.625,2.616-1.2,4.488-1.2c3.217,0,4.873,1.776,4.873,3.816
			c0,1.632-0.961,2.976-2.881,3.648v0.048c1.896,0.335,3.432,1.776,3.432,3.888c0,2.641-2.207,4.729-6.072,4.729
			c-1.896,0-3.527-0.528-4.368-1.08L213.633,56.242z"/>
		<path fill="#206095" d="M225.68,55.282c0-1.944,1.129-3.265,2.928-4.056v-0.072c-1.631-0.792-2.375-2.089-2.375-3.457
			c0-2.544,2.256-4.272,5.208-4.272c3.36,0,4.896,2.016,4.896,3.936c0,1.32-0.696,2.688-2.4,3.528v0.072
			c1.704,0.647,2.976,1.992,2.976,3.937c0,2.784-2.352,4.656-5.688,4.656C227.576,59.555,225.68,57.467,225.68,55.282z
			 M233.912,55.139c0-1.584-1.176-2.449-2.904-2.929c-1.464,0.433-2.304,1.44-2.304,2.736c-0.048,1.319,0.96,2.521,2.616,2.521
			C232.881,57.467,233.912,56.482,233.912,55.139z M229.04,47.578c0,1.272,1.056,2.04,2.544,2.448
			c1.057-0.312,1.944-1.176,1.944-2.353c0-1.08-0.647-2.208-2.231-2.208C229.809,45.465,229.04,46.449,229.04,47.578z"/>
		<path fill="#206095" d="M249.776,51.395c0,5.016-1.968,8.16-5.688,8.16c-3.6,0-5.521-3.265-5.545-8.017
			c0-4.849,2.064-8.113,5.713-8.113C248.024,43.425,249.776,46.786,249.776,51.395z M241.52,51.538
			c-0.023,3.792,1.032,5.761,2.664,5.761c1.729,0,2.641-2.113,2.641-5.857c0-3.624-0.863-5.76-2.641-5.76
			C242.6,45.681,241.496,47.625,241.52,51.538z"/>
		<path fill="#206095" d="M250.783,62.195c0.648-1.824,1.297-4.345,1.608-6.337l3.097-0.24c-0.673,2.257-1.753,4.849-2.689,6.385
			L250.783,62.195z"/>
		<path fill="#206095" d="M267.199,46.137h-6l-0.456,3.121c0.36-0.048,0.673-0.072,1.128-0.072c1.368,0,2.736,0.312,3.793,1.008
			c1.176,0.744,2.04,2.064,2.04,3.96c0,2.977-2.473,5.4-6.313,5.4c-1.799,0-3.312-0.456-4.127-0.912l0.6-2.232
			c0.672,0.36,2.016,0.816,3.432,0.816c1.729,0,3.385-0.984,3.385-2.856c0-1.776-1.32-2.952-4.44-2.952
			c-0.864,0-1.513,0.048-2.136,0.145l1.031-7.874h8.064V46.137z"/>
		<path fill="#206095" d="M279.656,45.777c-0.433,0-0.912,0-1.513,0.072c-3.265,0.384-4.849,2.4-5.232,4.561h0.071
			c0.769-0.888,1.945-1.512,3.505-1.512c2.688,0,4.776,1.92,4.776,5.089c0,2.977-2.184,5.568-5.496,5.568
			c-3.793,0-5.881-2.881-5.881-6.721c0-3,1.08-5.449,2.713-7.009c1.439-1.344,3.312-2.112,5.544-2.304
			c0.647-0.072,1.128-0.072,1.487-0.048L279.656,45.777z M278.264,54.154c0-1.801-0.984-3.097-2.713-3.097
			c-1.104,0-2.088,0.673-2.544,1.608c-0.12,0.24-0.192,0.527-0.192,0.936c0.049,2.064,1.033,3.744,2.929,3.744
			C277.279,57.346,278.264,56.026,278.264,54.154z"/>
		<path fill="#206095" d="M293.744,43.689v1.896l-6.602,13.706h-3.12l6.577-13.105v-0.048h-7.346v-2.448H293.744z"/>
	</g>
	<g>
		<path fill="#206095" d="M29.616,98.055v-1.188l1.518-1.475c3.653-3.477,5.303-5.324,5.325-7.48c0-1.453-0.704-2.795-2.838-2.795
			c-1.298,0-2.376,0.66-3.036,1.211l-0.616-1.365c0.99-0.836,2.398-1.451,4.048-1.451c3.081,0,4.379,2.111,4.379,4.158
			c0,2.641-1.915,4.774-4.929,7.679l-1.145,1.056v0.045h6.425v1.605H29.616z"/>
		<path fill="#206095" d="M50.407,90.75c0,4.863-1.804,7.547-4.973,7.547c-2.794,0-4.687-2.618-4.731-7.349
			c0-4.797,2.068-7.437,4.973-7.437C48.69,83.512,50.407,86.195,50.407,90.75z M42.64,90.971c0,3.718,1.144,5.83,2.904,5.83
			c1.98,0,2.926-2.311,2.926-5.963c0-3.52-0.902-5.83-2.904-5.83C43.872,85.008,42.64,87.076,42.64,90.971z"/>
		<path fill="#206095" d="M61.692,90.75c0,4.863-1.804,7.547-4.973,7.547c-2.794,0-4.687-2.618-4.731-7.349
			c0-4.797,2.068-7.437,4.973-7.437C59.976,83.512,61.692,86.195,61.692,90.75z M53.925,90.971c0,3.718,1.144,5.83,2.904,5.83
			c1.98,0,2.926-2.311,2.926-5.963c0-3.52-0.902-5.83-2.904-5.83C55.157,85.008,53.925,87.076,53.925,90.971z"/>
		<path fill="#206095" d="M63.935,95.833c0.55,0.353,1.826,0.901,3.168,0.901c2.486,0,3.256-1.584,3.234-2.771
			c-0.022-2.002-1.826-2.861-3.696-2.861h-1.078V89.65h1.078c1.408,0,3.19-0.727,3.19-2.421c0-1.144-0.726-2.156-2.508-2.156
			c-1.144,0-2.245,0.507-2.86,0.946l-0.506-1.408c0.748-0.551,2.2-1.1,3.741-1.1c2.816,0,4.092,1.672,4.092,3.41
			c0,1.475-0.88,2.729-2.64,3.366v0.044c1.76,0.352,3.19,1.672,3.19,3.674c0,2.289-1.782,4.291-5.215,4.291
			c-1.606,0-3.014-0.506-3.718-0.968L63.935,95.833z"/>
	</g>
	<g>
		<path fill="#206095" d="M228.635,98.055v-1.188l1.519-1.475c3.653-3.477,5.303-5.324,5.325-7.48c0-1.453-0.705-2.795-2.839-2.795
			c-1.298,0-2.376,0.66-3.036,1.211l-0.616-1.365c0.99-0.836,2.398-1.451,4.048-1.451c3.081,0,4.379,2.111,4.379,4.158
			c0,2.641-1.914,4.774-4.928,7.679l-1.145,1.056v0.045h6.425v1.605H228.635z"/>
		<path fill="#206095" d="M249.426,90.75c0,4.863-1.804,7.547-4.973,7.547c-2.794,0-4.687-2.618-4.73-7.349
			c0-4.797,2.068-7.437,4.973-7.437C247.71,83.512,249.426,86.195,249.426,90.75z M241.659,90.971c0,3.718,1.144,5.83,2.904,5.83
			c1.98,0,2.927-2.311,2.927-5.963c0-3.52-0.902-5.83-2.904-5.83C242.891,85.008,241.659,87.076,241.659,90.971z"/>
		<path fill="#206095" d="M255.409,85.557h-0.044l-2.486,1.343l-0.375-1.474l3.125-1.673h1.65v14.302h-1.87V85.557z"/>
		<path fill="#206095" d="M263.614,96.691c0.418,0.043,0.902,0,1.562-0.066c1.123-0.154,2.18-0.616,2.993-1.387
			c0.946-0.857,1.628-2.111,1.892-3.807h-0.065c-0.792,0.969-1.937,1.541-3.366,1.541c-2.574,0-4.225-1.937-4.225-4.379
			c0-2.707,1.958-5.082,4.885-5.082c2.926,0,4.73,2.375,4.73,6.028c0,3.146-1.057,5.347-2.465,6.711
			c-1.1,1.078-2.618,1.738-4.158,1.914c-0.704,0.11-1.32,0.132-1.782,0.11V96.691z M264.318,88.462c0,1.782,1.078,3.036,2.75,3.036
			c1.299,0,2.311-0.638,2.816-1.496c0.11-0.176,0.176-0.396,0.176-0.704c0-2.442-0.901-4.313-2.926-4.313
			C265.484,84.985,264.318,86.438,264.318,88.462z"/>
	</g>
</g>
<g id="balls">
	<circle fill="#FF9933" cx="50.5" cy="16" r="5"/>
	<circle fill="#FF9933" cx="250.5" cy="71" r="5"/>
</g>
</svg>
