<?xml version="1.0" encoding="utf-8"?>
<!-- Generator: Adobe Illustrator 16.0.5, SVG Export Plug-In . SVG Version: 6.00 Build 0)  -->
<!DOCTYPE svg PUBLIC "-//W3C//DTD SVG 1.1//EN" "http://www.w3.org/Graphics/SVG/1.1/DTD/svg11.dtd">
<svg version="1.1" xmlns="http://www.w3.org/2000/svg" xmlns:xlink="http://www.w3.org/1999/xlink" x="0px" y="0px" width="300px"
	 height="100px" viewBox="0 0 300 100" enable-background="new 0 0 300 100" xml:space="preserve">
<g id="Layer_1">
	
		<polyline fill="none" stroke="#206095" stroke-width="4" stroke-linecap="round" stroke-linejoin="round" stroke-miterlimit="10" points="
		50,48.794 60.614,43.719 81.84,37.276 103.066,28.101 113.449,17.95 124.062,17.364 134.674,26.735 145.288,35.324 157.285,43.329 
		162.591,45.086 167.898,47.428 173.205,51.528 178.511,52.504 183.587,52.698 188.894,55.627 194.2,52.895 199.506,56.408 
		204.813,55.432 210.12,54.261 215.426,57.188 220.732,60.117 226.04,62.069 231.346,64.022 236.652,66.364 241.959,64.804 
		244.497,64.804 247.265,63.826 249.803,64.804 	"/>
</g>
<g id="text">
	<g>
		<path fill="#206095" d="M18.037,60.495c-0.432,0-0.912,0-1.512,0.071c-3.264,0.385-4.849,2.4-5.232,4.561h0.072
			c0.768-0.888,1.944-1.512,3.504-1.512c2.688,0,4.776,1.92,4.776,5.088c0,2.977-2.184,5.569-5.497,5.569
			c-3.792,0-5.88-2.88-5.88-6.721c0-3.001,1.08-5.448,2.712-7.009c1.44-1.344,3.312-2.111,5.544-2.305
			c0.648-0.071,1.128-0.071,1.488-0.047L18.037,60.495z M16.645,68.872c0-1.8-0.984-3.097-2.712-3.097
			c-1.104,0-2.088,0.672-2.544,1.608c-0.12,0.239-0.192,0.528-0.192,0.937c0.048,2.063,1.032,3.744,2.928,3.744
			C15.661,72.064,16.645,70.744,16.645,68.872z"/>
		<path fill="#206095" d="M20.556,76.912c0.648-1.824,1.296-4.344,1.608-6.336l3.096-0.24c-0.672,2.256-1.752,4.849-2.688,6.385
			L20.556,76.912z"/>
		<path fill="#206095" d="M27.06,74.008v-1.8l1.848-1.704c3.672-3.408,5.4-5.28,5.424-7.345c0-1.392-0.744-2.616-2.784-2.616
			c-1.368,0-2.544,0.696-3.336,1.297l-0.864-2.089c1.128-0.912,2.832-1.608,4.8-1.608c3.456,0,5.136,2.185,5.136,4.729
			c0,2.736-1.968,4.945-4.68,7.465l-1.368,1.176v0.049h6.409v2.447H27.06z"/>
		<path fill="#206095" d="M41.124,71.896c0.456,0.048,0.912,0.023,1.632-0.049c1.152-0.096,2.304-0.504,3.168-1.199
			c1.008-0.816,1.704-1.992,1.992-3.457l-0.048-0.023c-0.792,0.888-1.896,1.393-3.408,1.393c-2.712,0-4.729-1.969-4.729-4.85
			c0-2.976,2.304-5.568,5.641-5.568c3.625,0,5.568,2.856,5.568,6.648c0,3.337-1.104,5.713-2.712,7.249
			c-1.368,1.272-3.24,1.992-5.329,2.136c-0.672,0.072-1.344,0.072-1.776,0.049V71.896z M42.66,63.543
			c0.024,1.608,0.936,2.856,2.568,2.856c1.2,0,2.064-0.552,2.521-1.296c0.096-0.191,0.168-0.432,0.168-0.84
			c0.024-2.112-0.768-3.937-2.688-3.937C43.74,60.327,42.66,61.647,42.66,63.543z"/>
		<path fill="#206095" d="M52.787,74.008v-1.8l1.848-1.704c3.672-3.408,5.4-5.28,5.424-7.345c0-1.392-0.744-2.616-2.784-2.616
			c-1.368,0-2.544,0.696-3.336,1.297l-0.864-2.089c1.128-0.912,2.832-1.608,4.8-1.608c3.456,0,5.136,2.185,5.136,4.729
			c0,2.736-1.968,4.945-4.68,7.465l-1.368,1.176v0.049h6.409v2.447H52.787z"/>
		<path fill="#206095" d="M64.811,76.912c0.648-1.824,1.296-4.344,1.608-6.336l3.096-0.24c-0.672,2.256-1.752,4.849-2.688,6.385
			L64.811,76.912z"/>
		<path fill="#206095" d="M82.331,66.111c0,5.017-1.968,8.161-5.688,8.161c-3.6,0-5.521-3.265-5.544-8.017
			c0-4.849,2.064-8.113,5.712-8.113C80.579,58.143,82.331,61.504,82.331,66.111z M74.075,66.256c-0.024,3.792,1.032,5.76,2.664,5.76
			c1.728,0,2.64-2.111,2.64-5.855c0-3.625-0.864-5.762-2.64-5.762C75.155,60.398,74.051,62.344,74.075,66.256z"/>
		<path fill="#206095" d="M95.195,66.111c0,5.017-1.968,8.161-5.688,8.161c-3.6,0-5.521-3.265-5.544-8.017
			c0-4.849,2.064-8.113,5.713-8.113C93.443,58.143,95.195,61.504,95.195,66.111z M86.938,66.256c-0.024,3.792,1.032,5.76,2.664,5.76
			c1.728,0,2.64-2.111,2.64-5.855c0-3.625-0.864-5.762-2.64-5.762C88.019,60.398,86.915,62.344,86.938,66.256z"/>
		<path fill="#206095" d="M108.059,66.111c0,5.017-1.968,8.161-5.688,8.161c-3.6,0-5.521-3.265-5.544-8.017
			c0-4.849,2.064-8.113,5.712-8.113C106.307,58.143,108.059,61.504,108.059,66.111z M99.802,66.256
			c-0.024,3.792,1.032,5.76,2.664,5.76c1.728,0,2.64-2.111,2.64-5.855c0-3.625-0.864-5.762-2.64-5.762
			C100.882,60.398,99.778,62.344,99.802,66.256z"/>
	</g>
	<g>
		<path fill="#206095" d="M199.633,44.242c0.6,0.36,2.063,0.96,3.552,0.96c2.256,0,3.168-1.272,3.144-2.496
			c0-1.848-1.728-2.64-3.527-2.64h-1.369v-2.16h1.32c1.369,0,3.097-0.624,3.097-2.184c0-1.056-0.792-1.944-2.496-1.944
			c-1.272,0-2.544,0.552-3.192,0.984l-0.672-2.136c0.888-0.625,2.616-1.2,4.488-1.2c3.217,0,4.873,1.776,4.873,3.816
			c0,1.632-0.961,2.976-2.881,3.648v0.048c1.896,0.336,3.432,1.776,3.432,3.888c0,2.64-2.207,4.729-6.072,4.729
			c-1.896,0-3.527-0.528-4.368-1.08L199.633,44.242z"/>
		<path fill="#206095" d="M211.056,50.195c0.647-1.824,1.296-4.344,1.608-6.336l3.096-0.24c-0.672,2.256-1.752,4.849-2.688,6.385
			L211.056,50.195z"/>
		<path fill="#206095" d="M227.473,34.137h-6.001l-0.456,3.121c0.36-0.048,0.672-0.072,1.129-0.072c1.367,0,2.735,0.312,3.791,1.008
			c1.177,0.744,2.041,2.064,2.041,3.96c0,2.976-2.473,5.4-6.313,5.4c-1.801,0-3.313-0.456-4.129-0.912l0.6-2.232
			c0.673,0.36,2.018,0.816,3.434,0.816c1.728,0,3.384-0.984,3.384-2.856c0-1.776-1.32-2.952-4.44-2.952
			c-0.864,0-1.512,0.048-2.137,0.144l1.033-7.873h8.064V34.137z"/>
		<path fill="#206095" d="M241.152,31.689v1.896l-6.601,13.705h-3.12l6.576-13.105v-0.048h-7.345v-2.448H241.152z"/>
		<path fill="#206095" d="M243.07,43.282c0-1.944,1.129-3.264,2.929-4.056v-0.072c-1.632-0.792-2.376-2.088-2.376-3.456
			c0-2.544,2.256-4.272,5.209-4.272c3.359,0,4.896,2.016,4.896,3.936c0,1.32-0.697,2.688-2.4,3.528v0.072
			c1.703,0.648,2.976,1.992,2.976,3.936c0,2.785-2.353,4.657-5.688,4.657C244.967,47.555,243.07,45.466,243.07,43.282z
			 M251.304,43.138c0-1.584-1.177-2.448-2.904-2.928c-1.464,0.432-2.304,1.44-2.304,2.736c-0.049,1.32,0.959,2.52,2.615,2.52
			C250.271,45.466,251.304,44.482,251.304,43.138z M246.432,35.578c0,1.272,1.056,2.04,2.544,2.448
			c1.056-0.312,1.944-1.176,1.944-2.353c0-1.08-0.648-2.208-2.232-2.208C247.199,33.465,246.432,34.449,246.432,35.578z"/>
		<path fill="#206095" d="M255.311,50.195c0.648-1.824,1.297-4.344,1.608-6.336l3.097-0.24c-0.673,2.256-1.753,4.849-2.689,6.385
			L255.311,50.195z"/>
		<path fill="#206095" d="M272.831,39.394c0,5.016-1.968,8.161-5.688,8.161c-3.6,0-5.521-3.265-5.545-8.017
			c0-4.849,2.064-8.113,5.713-8.113C271.079,31.425,272.831,34.786,272.831,39.394z M264.574,39.538
			c-0.023,3.792,1.032,5.76,2.664,5.76c1.729,0,2.641-2.112,2.641-5.856c0-3.625-0.863-5.761-2.641-5.761
			C265.654,33.681,264.551,35.625,264.574,39.538z"/>
		<path fill="#206095" d="M285.695,39.394c0,5.016-1.969,8.161-5.689,8.161c-3.6,0-5.52-3.265-5.544-8.017
			c0-4.849,2.064-8.113,5.713-8.113C283.943,31.425,285.695,34.786,285.695,39.394z M277.438,39.538
			c-0.024,3.792,1.032,5.76,2.664,5.76c1.728,0,2.64-2.112,2.64-5.856c0-3.625-0.863-5.761-2.64-5.761
			C278.519,33.681,277.414,35.625,277.438,39.538z"/>
		<path fill="#206095" d="M298.559,39.394c0,5.016-1.968,8.161-5.688,8.161c-3.601,0-5.521-3.265-5.544-8.017
			c0-4.849,2.064-8.113,5.712-8.113C296.807,31.425,298.559,34.786,298.559,39.394z M290.303,39.538
			c-0.024,3.792,1.031,5.76,2.664,5.76c1.728,0,2.64-2.112,2.64-5.856c0-3.625-0.864-5.761-2.64-5.761
			C291.383,33.681,290.278,35.625,290.303,39.538z"/>
	</g>
	<g>
		<path fill="#206095" d="M33.818,85.557h-0.044l-2.486,1.343l-0.375-1.474l3.125-1.673h1.65v14.302h-1.87V85.557z"/>
		<path fill="#206095" d="M42.023,96.691c0.418,0.043,0.902,0,1.562-0.066c1.123-0.154,2.179-0.616,2.993-1.387
			c0.946-0.857,1.628-2.111,1.892-3.807h-0.066c-0.792,0.969-1.936,1.541-3.366,1.541c-2.575,0-4.225-1.937-4.225-4.379
			c0-2.707,1.958-5.082,4.884-5.082c2.927,0,4.731,2.375,4.731,6.028c0,3.146-1.056,5.347-2.464,6.711
			c-1.1,1.078-2.619,1.738-4.159,1.914c-0.704,0.11-1.32,0.132-1.782,0.11V96.691z M42.728,88.462c0,1.782,1.078,3.036,2.75,3.036
			c1.298,0,2.31-0.638,2.816-1.496c0.11-0.176,0.176-0.396,0.176-0.704c0-2.442-0.902-4.313-2.926-4.313
			C43.894,84.985,42.728,86.438,42.728,88.462z"/>
		<path fill="#206095" d="M52.011,94.425c0-1.804,1.078-3.081,2.838-3.829l-0.022-0.065c-1.584-0.749-2.266-1.98-2.266-3.212
			c0-2.268,1.914-3.807,4.422-3.807c2.772,0,4.159,1.738,4.159,3.52c0,1.211-0.594,2.509-2.354,3.345v0.065
			c1.782,0.705,2.882,1.959,2.882,3.697c0,2.486-2.134,4.158-4.863,4.158C53.815,98.297,52.011,96.516,52.011,94.425z
			 M59.712,94.336c0-1.738-1.21-2.574-3.146-3.123c-1.672,0.483-2.574,1.584-2.574,2.947c-0.066,1.453,1.034,2.729,2.86,2.729
			C58.59,96.889,59.712,95.811,59.712,94.336z M54.387,87.186c0,1.43,1.078,2.2,2.729,2.641c1.232-0.418,2.178-1.299,2.178-2.597
			c0-1.144-0.682-2.332-2.42-2.332C55.268,84.897,54.387,85.953,54.387,87.186z"/>
		<path fill="#206095" d="M67.675,85.557h-0.044l-2.486,1.343l-0.374-1.474l3.124-1.673h1.65v14.302h-1.87V85.557z"/>
	</g>
	<g>
		<path fill="#206095" d="M228.635,98.055v-1.188l1.519-1.475c3.653-3.477,5.303-5.324,5.325-7.48c0-1.453-0.705-2.795-2.839-2.795
			c-1.298,0-2.376,0.66-3.036,1.211l-0.616-1.365c0.99-0.836,2.398-1.451,4.048-1.451c3.081,0,4.379,2.111,4.379,4.158
			c0,2.641-1.914,4.774-4.928,7.679l-1.145,1.056v0.045h6.425v1.605H228.635z"/>
		<path fill="#206095" d="M249.426,90.75c0,4.863-1.804,7.547-4.973,7.547c-2.794,0-4.687-2.618-4.73-7.349
			c0-4.797,2.068-7.437,4.973-7.437C247.71,83.512,249.426,86.195,249.426,90.75z M241.659,90.971c0,3.718,1.144,5.83,2.904,5.83
			c1.98,0,2.927-2.311,2.927-5.963c0-3.52-0.902-5.83-2.904-5.83C242.891,85.008,241.659,87.076,241.659,90.971z"/>
		<path fill="#206095" d="M255.409,85.557h-0.044l-2.486,1.343l-0.375-1.474l3.125-1.673h1.65v14.302h-1.87V85.557z"/>
		<path fill="#206095" d="M263.614,96.691c0.418,0.043,0.902,0,1.562-0.066c1.123-0.154,2.18-0.616,2.993-1.387
			c0.946-0.857,1.628-2.111,1.892-3.807h-0.065c-0.792,0.969-1.937,1.541-3.366,1.541c-2.574,0-4.225-1.937-4.225-4.379
			c0-2.707,1.958-5.082,4.885-5.082c2.926,0,4.73,2.375,4.73,6.028c0,3.146-1.057,5.347-2.465,6.711
			c-1.1,1.078-2.618,1.738-4.158,1.914c-0.704,0.11-1.32,0.132-1.782,0.11V96.691z M264.318,88.462c0,1.782,1.078,3.036,2.75,3.036
			c1.299,0,2.311-0.638,2.816-1.496c0.11-0.176,0.176-0.396,0.176-0.704c0-2.442-0.901-4.313-2.926-4.313
			C265.484,84.985,264.318,86.438,264.318,88.462z"/>
	</g>
</g>
<g id="balls">
	<circle fill="#FF9933" cx="50.5" cy="49" r="5"/>
	<circle fill="#FF9933" cx="250.5" cy="64" r="5"/>
</g>
</svg>
