<?xml version="1.0" encoding="utf-8"?>
<!-- Generator: Adobe Illustrator 16.0.5, SVG Export Plug-In . SVG Version: 6.00 Build 0)  -->
<!DOCTYPE svg PUBLIC "-//W3C//DTD SVG 1.1//EN" "http://www.w3.org/Graphics/SVG/1.1/DTD/svg11.dtd">
<svg version="1.1" id="Layer_1" xmlns="http://www.w3.org/2000/svg" xmlns:xlink="http://www.w3.org/1999/xlink" x="0px" y="0px"
	 width="383px" height="464px" viewBox="0 0 383 464" enable-background="new 0 0 383 464" xml:space="preserve">
<line fill="none" stroke="#CCCCCC" stroke-miterlimit="10" x1="94.623" y1="390.781" x2="180.929" y2="390.781"/>
<g>
	<path fill="#4A4A49" d="M83.93,392.1c0,2.206-0.354,3.844-1.063,4.915s-1.793,1.606-3.252,1.606c-1.413,0-2.483-0.553-3.212-1.658
		c-0.729-1.106-1.094-2.727-1.094-4.863c0-2.24,0.354-3.891,1.063-4.953s1.79-1.594,3.243-1.594c1.418,0,2.492,0.556,3.222,1.667
		S83.93,389.958,83.93,392.1z M77.375,392.1c0,1.731,0.178,2.967,0.534,3.708s0.925,1.111,1.706,1.111
		c0.782,0,1.353-0.376,1.715-1.129c0.362-0.752,0.543-1.982,0.543-3.69c0-1.701-0.181-2.933-0.543-3.694
		c-0.362-0.761-0.933-1.142-1.715-1.142c-0.781,0-1.35,0.373-1.706,1.12C77.553,389.13,77.375,390.369,77.375,392.1z"/>
</g>
<g>
	<path fill="#4A4A49" d="M73.776,335.211h-8.605v-1.546l3.274-3.291c0.966-0.989,1.607-1.691,1.923-2.105
		c0.315-0.413,0.545-0.803,0.69-1.168c0.145-0.364,0.217-0.755,0.217-1.172c0-0.573-0.172-1.024-0.517-1.354
		c-0.345-0.33-0.821-0.495-1.428-0.495c-0.486,0-0.957,0.09-1.411,0.27c-0.455,0.18-0.98,0.503-1.576,0.973l-1.103-1.347
		c0.706-0.596,1.392-1.019,2.058-1.268s1.375-0.373,2.127-0.373c1.181,0,2.127,0.309,2.839,0.925s1.068,1.445,1.068,2.487
		c0,0.573-0.103,1.117-0.308,1.633s-0.521,1.046-0.946,1.593c-0.426,0.548-1.133,1.287-2.123,2.219l-2.206,2.137v0.086h6.026
		V335.211z"/>
	<path fill="#4A4A49" d="M83.926,328.863c0,2.206-0.354,3.844-1.063,4.915s-1.793,1.606-3.252,1.606
		c-1.413,0-2.483-0.553-3.212-1.658c-0.729-1.106-1.094-2.727-1.094-4.863c0-2.24,0.354-3.891,1.063-4.953s1.79-1.594,3.243-1.594
		c1.418,0,2.492,0.556,3.222,1.667S83.926,326.722,83.926,328.863z M77.371,328.863c0,1.731,0.178,2.967,0.534,3.708
		s0.925,1.111,1.706,1.111c0.782,0,1.353-0.376,1.715-1.129c0.362-0.752,0.543-1.982,0.543-3.69c0-1.701-0.181-2.933-0.543-3.694
		c-0.362-0.761-0.933-1.142-1.715-1.142c-0.781,0-1.35,0.373-1.706,1.12C77.549,325.894,77.371,327.133,77.371,328.863z"/>
</g>
<g>
	<path fill="#4A4A49" d="M74.228,269.223h-1.71v2.77h-1.988v-2.77h-5.8v-1.572l5.8-8.388h1.988v8.267h1.71V269.223z M70.529,267.529
		v-3.187c0-1.135,0.029-2.064,0.086-2.788h-0.069c-0.162,0.383-0.417,0.846-0.764,1.39l-3.152,4.585H70.529z"/>
	<path fill="#4A4A49" d="M83.926,265.645c0,2.206-0.354,3.844-1.063,4.915s-1.793,1.606-3.252,1.606
		c-1.413,0-2.483-0.553-3.212-1.658c-0.729-1.106-1.094-2.727-1.094-4.863c0-2.24,0.354-3.891,1.063-4.953s1.79-1.594,3.243-1.594
		c1.418,0,2.492,0.556,3.222,1.667S83.926,263.503,83.926,265.645z M77.371,265.645c0,1.731,0.178,2.967,0.534,3.708
		s0.925,1.111,1.706,1.111c0.782,0,1.353-0.376,1.715-1.129c0.362-0.752,0.543-1.982,0.543-3.69c0-1.701-0.181-2.933-0.543-3.694
		c-0.362-0.761-0.933-1.142-1.715-1.142c-0.781,0-1.35,0.373-1.706,1.12C77.549,262.675,77.371,263.914,77.371,265.645z"/>
</g>
<g>
	<path fill="#4A4A49" d="M65.206,203.346c0-4.967,2.023-7.45,6.069-7.45c0.637,0,1.175,0.049,1.615,0.148v1.702
		c-0.44-0.127-0.95-0.191-1.528-0.191c-1.36,0-2.382,0.365-3.065,1.094c-0.683,0.729-1.054,1.898-1.111,3.508h0.104
		c0.272-0.469,0.654-0.832,1.146-1.09c0.492-0.257,1.071-0.386,1.736-0.386c1.152,0,2.049,0.353,2.692,1.059
		c0.643,0.707,0.964,1.665,0.964,2.875c0,1.331-0.372,2.383-1.116,3.156c-0.744,0.772-1.758,1.159-3.043,1.159
		c-0.909,0-1.699-0.219-2.371-0.656s-1.188-1.074-1.55-1.91S65.206,204.521,65.206,203.346z M69.634,207.245
		c0.7,0,1.24-0.226,1.619-0.677c0.379-0.452,0.569-1.097,0.569-1.937c0-0.729-0.178-1.302-0.534-1.719
		c-0.356-0.417-0.89-0.625-1.602-0.625c-0.44,0-0.845,0.094-1.216,0.282c-0.371,0.188-0.663,0.446-0.877,0.772
		c-0.214,0.327-0.321,0.662-0.321,1.003c0,0.816,0.221,1.504,0.664,2.063S68.945,207.245,69.634,207.245z"/>
	<path fill="#4A4A49" d="M83.926,202.409c0,2.206-0.354,3.844-1.063,4.915s-1.793,1.606-3.252,1.606
		c-1.413,0-2.483-0.553-3.212-1.659c-0.729-1.105-1.094-2.727-1.094-4.862c0-2.24,0.354-3.892,1.063-4.954
		c0.709-1.062,1.79-1.593,3.243-1.593c1.418,0,2.492,0.556,3.222,1.667C83.562,198.64,83.926,200.267,83.926,202.409z
		 M77.371,202.409c0,1.731,0.178,2.967,0.534,3.708c0.356,0.741,0.925,1.111,1.706,1.111c0.782,0,1.353-0.376,1.715-1.129
		c0.362-0.752,0.543-1.982,0.543-3.69c0-1.702-0.181-2.934-0.543-3.695s-0.933-1.142-1.715-1.142c-0.781,0-1.35,0.374-1.706,1.121
		C77.549,199.439,77.371,200.678,77.371,202.409z"/>
</g>
<g>
	<path fill="#4A4A49" d="M69.46,132.66c1.204,0,2.156,0.277,2.857,0.83c0.7,0.553,1.051,1.292,1.051,2.218
		c0,1.303-0.782,2.339-2.345,3.109c0.996,0.498,1.703,1.021,2.123,1.571c0.42,0.55,0.629,1.164,0.629,1.841
		c0,1.048-0.385,1.887-1.155,2.518c-0.77,0.631-1.812,0.947-3.126,0.947c-1.377,0-2.446-0.295-3.204-0.886s-1.137-1.427-1.137-2.509
		c0-0.707,0.198-1.342,0.595-1.906s1.046-1.066,1.949-1.506c-0.775-0.463-1.328-0.952-1.658-1.468
		c-0.33-0.515-0.495-1.094-0.495-1.736c0-0.92,0.362-1.654,1.085-2.201S68.297,132.66,69.46,132.66z M67.107,142.229
		c0,0.602,0.211,1.07,0.634,1.402c0.422,0.333,0.996,0.5,1.719,0.5c0.747,0,1.327-0.172,1.741-0.517
		c0.414-0.345,0.621-0.812,0.621-1.402c0-0.469-0.191-0.897-0.573-1.285c-0.382-0.388-0.961-0.747-1.737-1.077l-0.252-0.113
		c-0.764,0.335-1.314,0.705-1.65,1.107C67.275,141.246,67.107,141.708,67.107,142.229z M69.443,134.231
		c-0.579,0-1.045,0.144-1.398,0.43c-0.354,0.287-0.53,0.676-0.53,1.168c0,0.301,0.063,0.57,0.191,0.808s0.313,0.453,0.556,0.647
		s0.654,0.427,1.233,0.699c0.695-0.307,1.186-0.629,1.472-0.968c0.286-0.339,0.43-0.734,0.43-1.186c0-0.492-0.178-0.881-0.534-1.168
		C70.507,134.375,70.034,134.231,69.443,134.231z"/>
	<path fill="#4A4A49" d="M83.926,139.172c0,2.206-0.354,3.844-1.063,4.915s-1.793,1.606-3.252,1.606
		c-1.413,0-2.483-0.553-3.212-1.659c-0.729-1.105-1.094-2.727-1.094-4.862c0-2.24,0.354-3.892,1.063-4.954
		c0.709-1.062,1.79-1.593,3.243-1.593c1.418,0,2.492,0.556,3.222,1.667C83.562,135.404,83.926,137.03,83.926,139.172z
		 M77.371,139.172c0,1.731,0.178,2.967,0.534,3.708c0.356,0.741,0.925,1.111,1.706,1.111c0.782,0,1.353-0.376,1.715-1.129
		c0.362-0.752,0.543-1.982,0.543-3.69c0-1.702-0.181-2.934-0.543-3.695s-0.933-1.142-1.715-1.142c-0.781,0-1.35,0.374-1.706,1.121
		C77.549,136.203,77.371,137.441,77.371,139.172z"/>
</g>
<g>
	<path fill="#4A4A49" d="M61.009,82.283h-2.041v-8.197c0-0.979,0.023-1.754,0.069-2.327c-0.133,0.139-0.297,0.292-0.491,0.46
		c-0.194,0.167-0.844,0.7-1.949,1.598l-1.024-1.294l3.733-2.935h1.702V82.283z"/>
	<path fill="#4A4A49" d="M73.772,75.936c0,2.206-0.354,3.844-1.063,4.915s-1.793,1.606-3.252,1.606
		c-1.413,0-2.483-0.553-3.212-1.659c-0.729-1.105-1.094-2.727-1.094-4.862c0-2.24,0.354-3.892,1.063-4.954
		c0.709-1.062,1.79-1.593,3.243-1.593c1.418,0,2.492,0.556,3.222,1.667C73.408,72.167,73.772,73.794,73.772,75.936z M67.217,75.936
		c0,1.731,0.178,2.967,0.534,3.708c0.356,0.741,0.925,1.111,1.706,1.111c0.782,0,1.353-0.376,1.715-1.129
		c0.362-0.752,0.543-1.982,0.543-3.69c0-1.702-0.181-2.934-0.543-3.695s-0.933-1.142-1.715-1.142c-0.781,0-1.35,0.374-1.706,1.121
		C67.395,72.966,67.217,74.205,67.217,75.936z"/>
	<path fill="#4A4A49" d="M83.923,75.936c0,2.206-0.354,3.844-1.063,4.915s-1.793,1.606-3.252,1.606
		c-1.413,0-2.483-0.553-3.212-1.659c-0.729-1.105-1.094-2.727-1.094-4.862c0-2.24,0.354-3.892,1.063-4.954
		c0.709-1.062,1.79-1.593,3.243-1.593c1.418,0,2.492,0.556,3.222,1.667C83.559,72.167,83.923,73.794,83.923,75.936z M77.367,75.936
		c0,1.731,0.178,2.967,0.534,3.708c0.356,0.741,0.925,1.111,1.706,1.111c0.782,0,1.353-0.376,1.715-1.129
		c0.362-0.752,0.543-1.982,0.543-3.69c0-1.702-0.181-2.934-0.543-3.695s-0.933-1.142-1.715-1.142c-0.781,0-1.35,0.374-1.706,1.121
		C77.545,72.966,77.367,74.205,77.367,75.936z"/>
</g>
<g>
	<path fill="#4A4A49" d="M75.699,42.379c0,1.332-0.239,2.331-0.716,3c-0.478,0.668-1.183,1.003-2.114,1.003
		c-0.88,0-1.562-0.346-2.045-1.038c-0.483-0.692-0.725-1.68-0.725-2.965c0-2.646,0.923-3.968,2.77-3.968
		c0.909,0,1.607,0.343,2.097,1.029S75.699,41.105,75.699,42.379z M71.792,42.396c0,0.863,0.084,1.505,0.252,1.928
		c0.168,0.423,0.443,0.634,0.825,0.634c0.764,0,1.146-0.854,1.146-2.562c0-1.708-0.382-2.562-1.146-2.562
		c-0.382,0-0.657,0.211-0.825,0.634C71.875,40.891,71.792,41.534,71.792,42.396z M81.387,38.593l-7.042,12.695H72.66l7.042-12.695
		H81.387z M83.965,47.467c0,1.332-0.24,2.33-0.721,2.996c-0.48,0.666-1.181,0.999-2.101,0.999c-0.88,0-1.563-0.343-2.049-1.029
		c-0.486-0.686-0.729-1.674-0.729-2.965c0-2.645,0.926-3.968,2.779-3.968c0.891,0,1.584,0.341,2.08,1.024
		C83.718,45.207,83.965,46.188,83.965,47.467z M80.058,47.467c0,0.863,0.085,1.508,0.256,1.937c0.171,0.429,0.447,0.643,0.83,0.643
		c0.758,0,1.137-0.859,1.137-2.579c0-1.696-0.379-2.544-1.137-2.544c-0.382,0-0.659,0.208-0.83,0.625
		C80.144,45.965,80.058,46.604,80.058,47.467z"/>
</g>
<line fill="none" stroke="#CCCCCC" stroke-miterlimit="10" x1="94.623" y1="327.553" x2="180.929" y2="327.553"/>
<line fill="none" stroke="#CCCCCC" stroke-miterlimit="10" x1="94.623" y1="264.324" x2="180.929" y2="264.324"/>
<line fill="none" stroke="#CCCCCC" stroke-miterlimit="10" x1="94.623" y1="201.096" x2="180.929" y2="201.096"/>
<line fill="none" stroke="#CCCCCC" stroke-miterlimit="10" x1="94.623" y1="137.867" x2="180.929" y2="137.867"/>
<line fill="none" stroke="#CCCCCC" stroke-miterlimit="10" x1="94.623" y1="74.639" x2="180.929" y2="74.639"/>
<g>
	<defs>
		<rect id="SVGID_1_" x="-213" y="9" width="596" height="443"/>
	</defs>
	<clipPath id="SVGID_2_">
		<use xlink:href="#SVGID_1_"  overflow="visible"/>
	</clipPath>
	<g opacity="0.9" clip-path="url(#SVGID_2_)">
		<g>
			<defs>
				<rect id="SVGID_3_" x="101.101" y="74.477" width="73.369" height="316.304"/>
			</defs>
			<clipPath id="SVGID_4_">
				<use xlink:href="#SVGID_3_"  overflow="visible"/>
			</clipPath>
		</g>
	</g>
</g>
<g>
	<path fill="#4A4A49" d="M204.369,87.193V74.498h2.075v12.695H204.369z"/>
	<path fill="#4A4A49" d="M217.672,87.193h-2.05v-5.922c0-0.735-0.139-1.284-0.417-1.646c-0.277-0.362-0.712-0.542-1.302-0.542
		c-0.787,0-1.365,0.256-1.732,0.768c-0.368,0.513-0.552,1.365-0.552,2.558v4.784h-2.04v-9.604h1.598l0.286,1.259h0.104
		c0.267-0.458,0.652-0.811,1.159-1.06s1.063-0.374,1.672-0.374c1.476,0,2.454,0.504,2.935,1.511h0.139
		c0.284-0.475,0.684-0.845,1.198-1.112c0.516-0.266,1.105-0.399,1.771-0.399c1.146,0,1.981,0.29,2.505,0.869
		c0.524,0.579,0.786,1.461,0.786,2.648v6.261h-2.041v-5.922c0-0.735-0.14-1.284-0.421-1.646c-0.28-0.362-0.716-0.542-1.307-0.542
		c-0.793,0-1.373,0.247-1.741,0.742c-0.367,0.495-0.551,1.255-0.551,2.279V87.193z"/>
	<path fill="#4A4A49" d="M231.452,87.367c-1.216,0-2.159-0.437-2.831-1.312H228.5c0.081,0.811,0.121,1.303,0.121,1.477v3.933h-2.04
		V77.589h1.649c0.047,0.18,0.142,0.608,0.287,1.285h0.104c0.637-0.973,1.592-1.459,2.865-1.459c1.198,0,2.132,0.434,2.801,1.303
		c0.669,0.868,1.003,2.087,1.003,3.655c0,1.569-0.34,2.793-1.021,3.673C233.59,86.927,232.65,87.367,231.452,87.367z
		 M230.957,79.083c-0.811,0-1.402,0.237-1.775,0.712c-0.374,0.475-0.561,1.233-0.561,2.275v0.304c0,1.169,0.186,2.016,0.556,2.54
		c0.371,0.524,0.976,0.786,1.815,0.786c0.706,0,1.25-0.289,1.632-0.868c0.382-0.579,0.573-1.404,0.573-2.475
		c0-1.077-0.189-1.892-0.568-2.444C232.249,79.359,231.692,79.083,230.957,79.083z"/>
	<path fill="#4A4A49" d="M242.532,77.416c0.411,0,0.749,0.029,1.016,0.087l-0.199,1.902c-0.29-0.07-0.591-0.104-0.903-0.104
		c-0.816,0-1.478,0.267-1.984,0.799c-0.506,0.533-0.76,1.225-0.76,2.075v5.019h-2.04v-9.604h1.598l0.269,1.693h0.104
		c0.318-0.573,0.733-1.028,1.246-1.363C241.391,77.583,241.941,77.416,242.532,77.416z"/>
	<path fill="#4A4A49" d="M253.846,82.374c0,1.569-0.402,2.793-1.207,3.673s-1.925,1.32-3.36,1.32c-0.896,0-1.69-0.203-2.379-0.608
		s-1.219-0.987-1.589-1.746c-0.37-0.758-0.556-1.638-0.556-2.64c0-1.557,0.399-2.772,1.198-3.646s1.925-1.312,3.378-1.312
		c1.389,0,2.489,0.447,3.3,1.342C253.44,79.651,253.846,80.857,253.846,82.374z M246.856,82.374c0,2.217,0.818,3.326,2.457,3.326
		c1.621,0,2.432-1.108,2.432-3.326c0-2.194-0.816-3.291-2.449-3.291c-0.856,0-1.478,0.284-1.862,0.851
		C247.049,80.501,246.856,81.314,246.856,82.374z"/>
	<path fill="#4A4A49" d="M258.378,87.193l-3.646-9.604h2.153l1.954,5.583c0.335,0.938,0.538,1.696,0.607,2.275h0.069
		c0.053-0.417,0.255-1.175,0.608-2.275l1.953-5.583h2.171l-3.664,9.604H258.378z"/>
	<path fill="#4A4A49" d="M269.9,87.367c-1.493,0-2.661-0.436-3.503-1.307c-0.843-0.871-1.264-2.071-1.264-3.599
		c0-1.568,0.391-2.802,1.172-3.699c0.782-0.897,1.855-1.346,3.222-1.346c1.268,0,2.27,0.385,3.004,1.155
		c0.735,0.77,1.104,1.83,1.104,3.178v1.103h-6.399c0.028,0.932,0.28,1.648,0.755,2.149c0.475,0.5,1.144,0.751,2.006,0.751
		c0.567,0,1.096-0.053,1.585-0.161c0.489-0.107,1.015-0.285,1.576-0.534v1.659c-0.498,0.237-1.002,0.405-1.511,0.503
		C271.137,87.317,270.555,87.367,269.9,87.367z M269.527,78.961c-0.648,0-1.168,0.206-1.559,0.616
		c-0.391,0.411-0.624,1.01-0.699,1.797h4.359c-0.012-0.793-0.203-1.394-0.573-1.802C270.686,79.166,270.176,78.961,269.527,78.961z"
		/>
	<path fill="#4A4A49" d="M279.191,87.367c-1.198,0-2.133-0.434-2.805-1.303c-0.671-0.868-1.007-2.087-1.007-3.655
		c0-1.575,0.34-2.8,1.021-3.678c0.68-0.877,1.622-1.315,2.826-1.315c1.262,0,2.223,0.466,2.883,1.398h0.104
		c-0.099-0.688-0.148-1.233-0.148-1.632v-3.499h2.05v13.511h-1.598l-0.356-1.259h-0.096
		C281.411,86.889,280.453,87.367,279.191,87.367z M279.738,85.717c0.84,0,1.45-0.236,1.833-0.708
		c0.382-0.472,0.578-1.238,0.59-2.297v-0.287c0-1.21-0.196-2.069-0.59-2.579c-0.395-0.51-1.011-0.764-1.85-0.764
		c-0.718,0-1.271,0.291-1.659,0.873c-0.388,0.582-0.581,1.411-0.581,2.488c0,1.065,0.188,1.877,0.564,2.436
		C278.422,85.438,278.986,85.717,279.738,85.717z"/>
</g>
<g>
	<path fill="#4A4A49" d="M214.945,267.096h-2.544l-6.243-10.116h-0.069l0.043,0.564c0.081,1.077,0.122,2.061,0.122,2.952v6.6h-1.885
		V254.4h2.519l6.226,10.064h0.052c-0.012-0.134-0.034-0.619-0.069-1.455s-0.052-1.489-0.052-1.958V254.4h1.901V267.096z"/>
	<path fill="#4A4A49" d="M226.598,262.275c0,1.569-0.402,2.794-1.207,3.674s-1.925,1.32-3.36,1.32c-0.896,0-1.69-0.203-2.379-0.608
		s-1.219-0.987-1.589-1.745s-0.556-1.639-0.556-2.641c0-1.557,0.399-2.771,1.198-3.646c0.799-0.873,1.925-1.311,3.378-1.311
		c1.389,0,2.489,0.447,3.3,1.342C226.192,259.554,226.598,260.76,226.598,262.275z M219.608,262.275
		c0,2.218,0.818,3.326,2.457,3.326c1.621,0,2.432-1.108,2.432-3.326c0-2.193-0.816-3.29-2.449-3.29
		c-0.856,0-1.478,0.284-1.862,0.851C219.801,260.403,219.608,261.217,219.608,262.275z"/>
	<path fill="#4A4A49" d="M242.079,262.275c0,1.569-0.402,2.794-1.207,3.674s-1.925,1.32-3.36,1.32c-0.896,0-1.69-0.203-2.379-0.608
		s-1.219-0.987-1.589-1.745s-0.556-1.639-0.556-2.641c0-1.557,0.399-2.771,1.198-3.646c0.799-0.873,1.925-1.311,3.378-1.311
		c1.389,0,2.489,0.447,3.3,1.342C241.674,259.554,242.079,260.76,242.079,262.275z M235.09,262.275c0,2.218,0.818,3.326,2.457,3.326
		c1.621,0,2.432-1.108,2.432-3.326c0-2.193-0.816-3.29-2.449-3.29c-0.856,0-1.478,0.284-1.862,0.851
		C235.282,260.403,235.09,261.217,235.09,262.275z"/>
	<path fill="#4A4A49" d="M246.611,267.096l-3.646-9.604h2.153l1.954,5.582c0.335,0.938,0.538,1.697,0.607,2.275h0.069
		c0.053-0.416,0.255-1.175,0.608-2.275l1.953-5.582h2.171l-3.664,9.604H246.611z"/>
	<path fill="#4A4A49" d="M258.134,267.27c-1.493,0-2.661-0.436-3.503-1.308c-0.843-0.871-1.264-2.071-1.264-3.599
		c0-1.568,0.391-2.803,1.172-3.699c0.782-0.897,1.855-1.346,3.222-1.346c1.268,0,2.27,0.385,3.004,1.154
		c0.735,0.77,1.104,1.83,1.104,3.178v1.104h-6.399c0.028,0.932,0.28,1.648,0.755,2.148c0.475,0.501,1.144,0.752,2.006,0.752
		c0.567,0,1.096-0.054,1.585-0.161c0.489-0.106,1.015-0.285,1.576-0.534v1.658c-0.498,0.238-1.002,0.406-1.511,0.504
		C259.37,267.22,258.788,267.27,258.134,267.27z M257.761,258.863c-0.648,0-1.168,0.206-1.559,0.617
		c-0.391,0.41-0.624,1.01-0.699,1.797h4.359c-0.012-0.793-0.203-1.394-0.573-1.802C258.919,259.068,258.409,258.863,257.761,258.863
		z"/>
	<path fill="#4A4A49" d="M269.058,257.318c0.411,0,0.749,0.029,1.016,0.086l-0.199,1.902c-0.29-0.07-0.591-0.104-0.903-0.104
		c-0.816,0-1.478,0.267-1.984,0.799c-0.506,0.532-0.76,1.225-0.76,2.075v5.02h-2.04v-9.604h1.598l0.269,1.693h0.104
		c0.318-0.574,0.733-1.028,1.246-1.363C267.916,257.486,268.467,257.318,269.058,257.318z"/>
	<path fill="#4A4A49" d="M277.862,267.096l-0.408-1.338h-0.069c-0.464,0.585-0.93,0.982-1.398,1.194
		c-0.469,0.211-1.071,0.317-1.806,0.317c-0.944,0-1.681-0.256-2.21-0.765c-0.53-0.509-0.795-1.229-0.795-2.162
		c0-0.989,0.368-1.737,1.103-2.24c0.735-0.504,1.855-0.778,3.36-0.825l1.659-0.052v-0.513c0-0.613-0.144-1.072-0.43-1.376
		c-0.287-0.304-0.731-0.456-1.333-0.456c-0.492,0-0.964,0.072-1.416,0.217c-0.451,0.145-0.885,0.316-1.302,0.513l-0.66-1.458
		c0.521-0.273,1.091-0.479,1.711-0.621c0.619-0.143,1.203-0.213,1.754-0.213c1.221,0,2.143,0.266,2.766,0.799
		c0.622,0.532,0.933,1.369,0.933,2.51v6.469H277.862z M274.823,265.706c0.74,0,1.335-0.207,1.784-0.621
		c0.448-0.413,0.673-0.994,0.673-1.741v-0.833l-1.233,0.052c-0.961,0.035-1.659,0.195-2.097,0.482
		c-0.438,0.286-0.655,0.725-0.655,1.314c0,0.43,0.127,0.76,0.382,0.995C273.932,265.589,274.313,265.706,274.823,265.706z"/>
	<path fill="#4A4A49" d="M284.209,267.096h-2.04v-13.512h2.04V267.096z"/>
	<path fill="#4A4A49" d="M289.167,267.096h-2.04v-13.512h2.04V267.096z"/>
	<path fill="#4A4A49" d="M300.576,267.27c-1.453,0-2.557-0.425-3.313-1.273c-0.755-0.848-1.133-2.064-1.133-3.65
		c0-1.615,0.395-2.857,1.186-3.725c0.79-0.869,1.932-1.303,3.425-1.303c1.014,0,1.925,0.188,2.735,0.564l-0.616,1.641
		c-0.862-0.336-1.575-0.504-2.136-0.504c-1.662,0-2.492,1.104-2.492,3.309c0,1.076,0.207,1.886,0.62,2.427
		c0.414,0.542,1.021,0.812,1.819,0.812c0.909,0,1.769-0.225,2.579-0.677v1.78c-0.364,0.214-0.754,0.367-1.168,0.46
		S301.167,267.27,300.576,267.27z"/>
	<path fill="#4A4A49" d="M313.957,267.096h-2.049v-5.904c0-0.742-0.149-1.295-0.447-1.659s-0.771-0.547-1.42-0.547
		c-0.856,0-1.486,0.256-1.889,0.769c-0.402,0.512-0.604,1.37-0.604,2.574v4.768h-2.04v-13.512h2.04v3.43
		c0,0.551-0.034,1.139-0.104,1.764h0.13c0.277-0.463,0.664-0.822,1.159-1.077s1.072-0.382,1.732-0.382
		c2.327,0,3.49,1.172,3.49,3.516V267.096z"/>
	<path fill="#4A4A49" d="M322.806,267.096l-0.408-1.338h-0.069c-0.464,0.585-0.93,0.982-1.398,1.194
		c-0.469,0.211-1.071,0.317-1.806,0.317c-0.944,0-1.681-0.256-2.21-0.765c-0.53-0.509-0.795-1.229-0.795-2.162
		c0-0.989,0.368-1.737,1.103-2.24c0.735-0.504,1.855-0.778,3.36-0.825l1.659-0.052v-0.513c0-0.613-0.144-1.072-0.43-1.376
		c-0.287-0.304-0.731-0.456-1.333-0.456c-0.492,0-0.964,0.072-1.416,0.217c-0.451,0.145-0.885,0.316-1.302,0.513l-0.66-1.458
		c0.521-0.273,1.091-0.479,1.711-0.621c0.619-0.143,1.203-0.213,1.754-0.213c1.221,0,2.143,0.266,2.766,0.799
		c0.622,0.532,0.933,1.369,0.933,2.51v6.469H322.806z M319.767,265.706c0.74,0,1.335-0.207,1.784-0.621
		c0.448-0.413,0.673-0.994,0.673-1.741v-0.833l-1.233,0.052c-0.961,0.035-1.659,0.195-2.097,0.482
		c-0.438,0.286-0.655,0.725-0.655,1.314c0,0.43,0.127,0.76,0.382,0.995C318.875,265.589,319.257,265.706,319.767,265.706z"/>
	<path fill="#4A4A49" d="M335.561,267.096h-2.049v-5.904c0-0.742-0.149-1.295-0.447-1.659s-0.771-0.547-1.42-0.547
		c-0.862,0-1.493,0.255-1.893,0.765c-0.399,0.509-0.6,1.363-0.6,2.561v4.785h-2.04v-9.604h1.598l0.286,1.259h0.104
		c0.289-0.458,0.7-0.811,1.233-1.06c0.532-0.249,1.122-0.373,1.771-0.373c2.305,0,3.456,1.172,3.456,3.516V267.096z"/>
	<path fill="#4A4A49" d="M346.51,257.492v1.119l-1.641,0.305c0.15,0.203,0.274,0.451,0.373,0.746s0.147,0.608,0.147,0.938
		c0,0.99-0.341,1.77-1.024,2.336c-0.683,0.568-1.623,0.852-2.822,0.852c-0.307,0-0.584-0.023-0.833-0.07
		c-0.44,0.273-0.66,0.592-0.66,0.956c0,0.22,0.103,0.385,0.309,0.495c0.205,0.109,0.583,0.164,1.133,0.164h1.676
		c1.06,0,1.864,0.227,2.414,0.678s0.825,1.104,0.825,1.953c0,1.089-0.449,1.928-1.346,2.519c-0.897,0.591-2.194,0.886-3.891,0.886
		c-1.309,0-2.307-0.231-2.995-0.694c-0.689-0.464-1.033-1.124-1.033-1.979c0-0.591,0.187-1.088,0.56-1.49s0.896-0.682,1.567-0.838
		c-0.272-0.115-0.496-0.302-0.673-0.56c-0.177-0.257-0.265-0.528-0.265-0.812c0-0.359,0.101-0.663,0.304-0.912
		c0.202-0.248,0.504-0.494,0.903-0.738c-0.498-0.214-0.902-0.563-1.212-1.046s-0.465-1.05-0.465-1.698
		c0-1.041,0.329-1.849,0.986-2.422c0.656-0.573,1.593-0.859,2.809-0.859c0.272,0,0.558,0.019,0.855,0.057
		c0.298,0.037,0.522,0.076,0.673,0.117H346.51z M338.965,268.589c0,0.439,0.198,0.778,0.595,1.016s0.953,0.356,1.671,0.356
		c1.112,0,1.939-0.16,2.483-0.479s0.816-0.74,0.816-1.268c0-0.416-0.149-0.713-0.447-0.89s-0.853-0.265-1.662-0.265h-1.546
		c-0.585,0-1.05,0.137-1.394,0.412C339.137,267.748,338.965,268.119,338.965,268.589z M339.842,260.6
		c0,0.603,0.154,1.066,0.464,1.391s0.754,0.485,1.333,0.485c1.182,0,1.771-0.631,1.771-1.893c0-0.626-0.146-1.107-0.438-1.446
		c-0.292-0.338-0.736-0.508-1.333-0.508c-0.59,0-1.037,0.168-1.341,0.504C339.993,259.469,339.842,259.957,339.842,260.6z"/>
	<path fill="#4A4A49" d="M352.483,267.27c-1.493,0-2.661-0.436-3.503-1.308c-0.843-0.871-1.264-2.071-1.264-3.599
		c0-1.568,0.391-2.803,1.172-3.699c0.782-0.897,1.855-1.346,3.222-1.346c1.268,0,2.27,0.385,3.004,1.154
		c0.735,0.77,1.104,1.83,1.104,3.178v1.104h-6.399c0.028,0.932,0.28,1.648,0.755,2.148c0.475,0.501,1.144,0.752,2.006,0.752
		c0.567,0,1.096-0.054,1.585-0.161c0.489-0.106,1.015-0.285,1.576-0.534v1.658c-0.498,0.238-1.002,0.406-1.511,0.504
		C353.72,267.22,353.138,267.27,352.483,267.27z M352.11,258.863c-0.648,0-1.168,0.206-1.559,0.617
		c-0.391,0.41-0.624,1.01-0.699,1.797h4.359c-0.012-0.793-0.203-1.394-0.573-1.802C353.269,259.068,352.759,258.863,352.11,258.863z
		"/>
</g>
<g>
	<path fill="#4A4A49" d="M214.945,328.439h-2.544l-6.243-10.116h-0.069l0.043,0.564c0.081,1.077,0.122,2.062,0.122,2.952v6.6h-1.885
		v-12.694h2.519l6.226,10.063h0.052c-0.012-0.133-0.034-0.618-0.069-1.454c-0.035-0.837-0.052-1.489-0.052-1.958v-6.651h1.901
		V328.439z"/>
	<path fill="#4A4A49" d="M226.598,323.62c0,1.569-0.402,2.793-1.207,3.673s-1.925,1.32-3.36,1.32c-0.896,0-1.69-0.203-2.379-0.608
		c-0.688-0.404-1.219-0.986-1.589-1.745c-0.37-0.758-0.556-1.638-0.556-2.64c0-1.557,0.399-2.772,1.198-3.646
		s1.925-1.312,3.378-1.312c1.389,0,2.489,0.447,3.3,1.342C226.192,320.898,226.598,322.104,226.598,323.62z M219.608,323.62
		c0,2.218,0.818,3.326,2.457,3.326c1.621,0,2.432-1.108,2.432-3.326c0-2.193-0.816-3.291-2.449-3.291
		c-0.856,0-1.478,0.284-1.862,0.852S219.608,322.561,219.608,323.62z"/>
	<path fill="#4A4A49" d="M232.52,326.963c0.498,0,0.996-0.078,1.493-0.234v1.537c-0.226,0.099-0.517,0.181-0.872,0.248
		c-0.356,0.066-0.726,0.1-1.107,0.1c-1.934,0-2.9-1.019-2.9-3.057v-5.175h-1.311v-0.903l1.406-0.747l0.695-2.031h1.259v2.136h2.735
		v1.546h-2.735v5.14c0,0.492,0.123,0.855,0.369,1.09S232.12,326.963,232.52,326.963z"/>
	<path fill="#4A4A49" d="M246.561,328.439l-0.408-1.337h-0.069c-0.464,0.584-0.93,0.982-1.398,1.193
		c-0.469,0.212-1.071,0.317-1.806,0.317c-0.944,0-1.681-0.255-2.21-0.765c-0.53-0.509-0.795-1.229-0.795-2.162
		c0-0.989,0.368-1.736,1.103-2.24c0.735-0.503,1.855-0.778,3.36-0.824l1.659-0.053v-0.512c0-0.613-0.144-1.072-0.43-1.377
		c-0.287-0.304-0.731-0.455-1.333-0.455c-0.492,0-0.964,0.072-1.416,0.217c-0.451,0.145-0.885,0.315-1.302,0.513l-0.66-1.459
		c0.521-0.272,1.091-0.479,1.711-0.621c0.619-0.142,1.203-0.213,1.754-0.213c1.221,0,2.143,0.267,2.766,0.799
		c0.622,0.533,0.933,1.369,0.933,2.51v6.469H246.561z M243.521,327.05c0.74,0,1.335-0.207,1.784-0.62
		c0.448-0.414,0.673-0.994,0.673-1.741v-0.834l-1.233,0.053c-0.961,0.034-1.659,0.195-2.097,0.481
		c-0.438,0.287-0.655,0.726-0.655,1.315c0,0.429,0.127,0.76,0.382,0.994S243.012,327.05,243.521,327.05z"/>
	<path fill="#4A4A49" d="M257.318,325.704c0,0.938-0.342,1.657-1.024,2.158c-0.684,0.501-1.661,0.751-2.935,0.751
		c-1.279,0-2.308-0.194-3.083-0.582v-1.763c1.129,0.521,2.18,0.781,3.152,0.781c1.256,0,1.884-0.379,1.884-1.137
		c0-0.243-0.069-0.446-0.208-0.608s-0.368-0.33-0.687-0.504c-0.318-0.173-0.761-0.37-1.328-0.59
		c-1.105-0.429-1.854-0.856-2.244-1.285c-0.392-0.429-0.587-0.984-0.587-1.667c0-0.822,0.332-1.46,0.994-1.915
		c0.663-0.454,1.564-0.682,2.705-0.682c1.129,0,2.197,0.229,3.204,0.687l-0.66,1.536c-1.036-0.428-1.907-0.643-2.613-0.643
		c-1.077,0-1.615,0.308-1.615,0.921c0,0.301,0.141,0.556,0.421,0.764c0.281,0.209,0.894,0.495,1.837,0.86
		c0.793,0.307,1.369,0.587,1.728,0.842c0.359,0.255,0.626,0.549,0.799,0.882C257.231,324.844,257.318,325.241,257.318,325.704z"/>
	<path fill="#4A4A49" d="M265.976,325.704c0,0.938-0.342,1.657-1.024,2.158c-0.684,0.501-1.661,0.751-2.935,0.751
		c-1.279,0-2.308-0.194-3.083-0.582v-1.763c1.129,0.521,2.18,0.781,3.152,0.781c1.256,0,1.884-0.379,1.884-1.137
		c0-0.243-0.069-0.446-0.208-0.608s-0.368-0.33-0.687-0.504c-0.318-0.173-0.761-0.37-1.328-0.59
		c-1.105-0.429-1.854-0.856-2.244-1.285c-0.392-0.429-0.587-0.984-0.587-1.667c0-0.822,0.332-1.46,0.994-1.915
		c0.663-0.454,1.564-0.682,2.705-0.682c1.129,0,2.197,0.229,3.204,0.687l-0.66,1.536c-1.036-0.428-1.907-0.643-2.613-0.643
		c-1.077,0-1.615,0.308-1.615,0.921c0,0.301,0.141,0.556,0.421,0.764c0.281,0.209,0.894,0.495,1.837,0.86
		c0.793,0.307,1.369,0.587,1.728,0.842c0.359,0.255,0.626,0.549,0.799,0.882C265.889,324.844,265.976,325.241,265.976,325.704z"/>
	<path fill="#4A4A49" d="M272.375,328.613c-1.493,0-2.661-0.436-3.503-1.307c-0.843-0.871-1.264-2.071-1.264-3.6
		c0-1.568,0.391-2.802,1.172-3.699c0.782-0.896,1.855-1.346,3.222-1.346c1.268,0,2.27,0.385,3.004,1.155
		c0.735,0.77,1.104,1.829,1.104,3.178v1.103h-6.399c0.028,0.933,0.28,1.648,0.755,2.149s1.144,0.751,2.006,0.751
		c0.567,0,1.096-0.054,1.585-0.16c0.489-0.107,1.015-0.285,1.576-0.534v1.658c-0.498,0.237-1.002,0.405-1.511,0.504
		C273.611,328.563,273.029,328.613,272.375,328.613z M272.002,320.208c-0.648,0-1.168,0.205-1.559,0.616s-0.624,1.011-0.699,1.798
		h4.359c-0.012-0.793-0.203-1.394-0.573-1.802S272.65,320.208,272.002,320.208z"/>
	<path fill="#4A4A49" d="M284.879,325.704c0,0.938-0.342,1.657-1.024,2.158c-0.684,0.501-1.661,0.751-2.935,0.751
		c-1.279,0-2.308-0.194-3.083-0.582v-1.763c1.129,0.521,2.18,0.781,3.152,0.781c1.256,0,1.884-0.379,1.884-1.137
		c0-0.243-0.069-0.446-0.208-0.608s-0.368-0.33-0.687-0.504c-0.318-0.173-0.761-0.37-1.328-0.59
		c-1.105-0.429-1.854-0.856-2.244-1.285c-0.392-0.429-0.587-0.984-0.587-1.667c0-0.822,0.332-1.46,0.994-1.915
		c0.663-0.454,1.564-0.682,2.705-0.682c1.129,0,2.197,0.229,3.204,0.687l-0.66,1.536c-1.036-0.428-1.907-0.643-2.613-0.643
		c-1.077,0-1.615,0.308-1.615,0.921c0,0.301,0.141,0.556,0.421,0.764c0.281,0.209,0.894,0.495,1.837,0.86
		c0.793,0.307,1.369,0.587,1.728,0.842c0.359,0.255,0.626,0.549,0.799,0.882C284.792,324.844,284.879,325.241,284.879,325.704z"/>
	<path fill="#4A4A49" d="M293.536,325.704c0,0.938-0.342,1.657-1.024,2.158c-0.684,0.501-1.661,0.751-2.935,0.751
		c-1.279,0-2.308-0.194-3.083-0.582v-1.763c1.129,0.521,2.18,0.781,3.152,0.781c1.256,0,1.884-0.379,1.884-1.137
		c0-0.243-0.069-0.446-0.208-0.608s-0.368-0.33-0.687-0.504c-0.318-0.173-0.761-0.37-1.328-0.59
		c-1.105-0.429-1.854-0.856-2.244-1.285c-0.392-0.429-0.587-0.984-0.587-1.667c0-0.822,0.332-1.46,0.994-1.915
		c0.663-0.454,1.564-0.682,2.705-0.682c1.129,0,2.197,0.229,3.204,0.687l-0.66,1.536c-1.036-0.428-1.907-0.643-2.613-0.643
		c-1.077,0-1.615,0.308-1.615,0.921c0,0.301,0.141,0.556,0.421,0.764c0.281,0.209,0.894,0.495,1.837,0.86
		c0.793,0.307,1.369,0.587,1.728,0.842c0.359,0.255,0.626,0.549,0.799,0.882C293.449,324.844,293.536,325.241,293.536,325.704z"/>
	<path fill="#4A4A49" d="M299.936,328.613c-1.493,0-2.661-0.436-3.503-1.307c-0.843-0.871-1.264-2.071-1.264-3.6
		c0-1.568,0.391-2.802,1.172-3.699c0.782-0.896,1.855-1.346,3.222-1.346c1.268,0,2.27,0.385,3.004,1.155
		c0.735,0.77,1.104,1.829,1.104,3.178v1.103h-6.399c0.028,0.933,0.28,1.648,0.755,2.149s1.144,0.751,2.006,0.751
		c0.567,0,1.096-0.054,1.585-0.16c0.489-0.107,1.015-0.285,1.576-0.534v1.658c-0.498,0.237-1.002,0.405-1.511,0.504
		C301.172,328.563,300.59,328.613,299.936,328.613z M299.563,320.208c-0.648,0-1.168,0.205-1.559,0.616s-0.624,1.011-0.699,1.798
		h4.359c-0.012-0.793-0.203-1.394-0.573-1.802S300.211,320.208,299.563,320.208z"/>
	<path fill="#4A4A49" d="M309.227,328.613c-1.198,0-2.133-0.435-2.805-1.303c-0.671-0.868-1.007-2.087-1.007-3.655
		c0-1.574,0.34-2.801,1.021-3.678c0.68-0.877,1.622-1.315,2.826-1.315c1.262,0,2.223,0.466,2.883,1.398h0.104
		c-0.099-0.689-0.148-1.233-0.148-1.633v-3.499h2.05v13.511h-1.598l-0.356-1.259h-0.096
		C311.446,328.136,310.488,328.613,309.227,328.613z M309.773,326.963c0.84,0,1.45-0.235,1.833-0.707
		c0.382-0.472,0.578-1.237,0.59-2.297v-0.286c0-1.21-0.196-2.07-0.59-2.579c-0.395-0.51-1.011-0.765-1.85-0.765
		c-0.718,0-1.271,0.291-1.659,0.873s-0.581,1.411-0.581,2.487c0,1.065,0.188,1.877,0.564,2.436
		C308.457,326.685,309.021,326.963,309.773,326.963z"/>
</g>
<g>
	<path fill="#4A4A49" d="M214.693,381.313c0,2.096-0.582,3.697-1.745,4.806c-1.164,1.108-2.84,1.663-5.027,1.663h-3.552v-12.694
		h3.925c2.021,0,3.592,0.544,4.715,1.632C214.132,377.808,214.693,379.339,214.693,381.313z M212.505,381.382
		c0-3.039-1.421-4.559-4.263-4.559h-1.798v9.213h1.477C210.977,386.036,212.505,384.484,212.505,381.382z"/>
	<path fill="#4A4A49" d="M221.396,387.955c-1.493,0-2.661-0.436-3.503-1.307c-0.843-0.871-1.264-2.071-1.264-3.6
		c0-1.568,0.391-2.802,1.172-3.699c0.782-0.896,1.855-1.346,3.222-1.346c1.268,0,2.27,0.385,3.004,1.155
		c0.735,0.77,1.104,1.829,1.104,3.178v1.103h-6.399c0.028,0.933,0.28,1.648,0.755,2.149s1.144,0.751,2.006,0.751
		c0.567,0,1.096-0.054,1.585-0.16c0.489-0.107,1.015-0.285,1.576-0.534v1.658c-0.498,0.237-1.002,0.405-1.511,0.504
		C222.633,387.905,222.051,387.955,221.396,387.955z M221.023,379.55c-0.648,0-1.168,0.205-1.559,0.616s-0.624,1.011-0.699,1.798
		h4.359c-0.012-0.793-0.203-1.394-0.573-1.802S221.672,379.55,221.023,379.55z"/>
	<path fill="#4A4A49" d="M231.026,386.305c0.498,0,0.996-0.078,1.493-0.234v1.537c-0.226,0.099-0.517,0.181-0.872,0.248
		c-0.356,0.066-0.726,0.1-1.107,0.1c-1.934,0-2.9-1.019-2.9-3.057v-5.175h-1.311v-0.903l1.406-0.747l0.695-2.031h1.259v2.136h2.735
		v1.546h-2.735v5.14c0,0.492,0.123,0.855,0.369,1.09S230.627,386.305,231.026,386.305z"/>
	<path fill="#4A4A49" d="M238.633,387.955c-1.493,0-2.661-0.436-3.503-1.307c-0.843-0.871-1.264-2.071-1.264-3.6
		c0-1.568,0.391-2.802,1.172-3.699c0.782-0.896,1.855-1.346,3.222-1.346c1.268,0,2.27,0.385,3.004,1.155
		c0.735,0.77,1.104,1.829,1.104,3.178v1.103h-6.399c0.028,0.933,0.28,1.648,0.755,2.149s1.144,0.751,2.006,0.751
		c0.567,0,1.096-0.054,1.585-0.16c0.489-0.107,1.015-0.285,1.576-0.534v1.658c-0.498,0.237-1.002,0.405-1.511,0.504
		C239.869,387.905,239.287,387.955,238.633,387.955z M238.26,379.55c-0.648,0-1.168,0.205-1.559,0.616s-0.624,1.011-0.699,1.798
		h4.359c-0.012-0.793-0.203-1.394-0.573-1.802S238.908,379.55,238.26,379.55z"/>
	<path fill="#4A4A49" d="M249.557,378.004c0.411,0,0.749,0.029,1.016,0.087l-0.199,1.901c-0.29-0.069-0.591-0.104-0.903-0.104
		c-0.816,0-1.478,0.266-1.984,0.799c-0.506,0.532-0.76,1.224-0.76,2.075v5.019h-2.04v-9.604h1.598l0.269,1.693h0.104
		c0.318-0.573,0.733-1.027,1.246-1.363S248.966,378.004,249.557,378.004z"/>
	<path fill="#4A4A49" d="M252.23,375.634c0-0.365,0.101-0.646,0.3-0.843c0.2-0.196,0.484-0.295,0.855-0.295
		c0.358,0,0.638,0.099,0.838,0.295c0.199,0.197,0.3,0.478,0.3,0.843c0,0.347-0.101,0.621-0.3,0.82c-0.2,0.2-0.479,0.3-0.838,0.3
		c-0.371,0-0.655-0.1-0.855-0.3C252.331,376.255,252.23,375.98,252.23,375.634z M254.393,387.781h-2.04v-9.604h2.04V387.781z"/>
	<path fill="#4A4A49" d="M265.828,382.962c0,1.569-0.402,2.793-1.207,3.673s-1.925,1.32-3.36,1.32c-0.896,0-1.69-0.203-2.379-0.608
		c-0.688-0.404-1.219-0.986-1.589-1.745c-0.37-0.758-0.556-1.638-0.556-2.64c0-1.557,0.399-2.772,1.198-3.646
		s1.925-1.312,3.378-1.312c1.389,0,2.489,0.447,3.3,1.342C265.423,380.24,265.828,381.445,265.828,382.962z M258.839,382.962
		c0,2.218,0.818,3.326,2.457,3.326c1.621,0,2.432-1.108,2.432-3.326c0-2.193-0.816-3.291-2.449-3.291
		c-0.856,0-1.478,0.284-1.862,0.852S258.839,381.902,258.839,382.962z"/>
	<path fill="#4A4A49" d="M273.044,378.004c0.411,0,0.749,0.029,1.016,0.087l-0.199,1.901c-0.29-0.069-0.591-0.104-0.903-0.104
		c-0.816,0-1.478,0.266-1.984,0.799c-0.506,0.532-0.76,1.224-0.76,2.075v5.019h-2.04v-9.604h1.598l0.269,1.693h0.104
		c0.318-0.573,0.733-1.027,1.246-1.363S272.453,378.004,273.044,378.004z"/>
	<path fill="#4A4A49" d="M281.849,387.781l-0.408-1.337h-0.069c-0.464,0.584-0.93,0.982-1.398,1.193
		c-0.469,0.212-1.071,0.317-1.806,0.317c-0.944,0-1.681-0.255-2.21-0.765c-0.53-0.509-0.795-1.229-0.795-2.162
		c0-0.989,0.368-1.736,1.103-2.24c0.735-0.503,1.855-0.778,3.36-0.824l1.659-0.053v-0.512c0-0.613-0.144-1.072-0.43-1.377
		c-0.287-0.304-0.731-0.455-1.333-0.455c-0.492,0-0.964,0.072-1.416,0.217c-0.451,0.145-0.885,0.315-1.302,0.513l-0.66-1.459
		c0.521-0.272,1.091-0.479,1.711-0.621c0.619-0.142,1.203-0.213,1.754-0.213c1.221,0,2.143,0.267,2.766,0.799
		c0.622,0.533,0.933,1.369,0.933,2.51v6.469H281.849z M278.81,386.392c0.74,0,1.335-0.207,1.784-0.62
		c0.448-0.414,0.673-0.994,0.673-1.741v-0.834l-1.233,0.053c-0.961,0.034-1.659,0.195-2.097,0.481
		c-0.438,0.287-0.655,0.726-0.655,1.315c0,0.429,0.127,0.76,0.382,0.994S278.3,386.392,278.81,386.392z"/>
	<path fill="#4A4A49" d="M289.732,386.305c0.498,0,0.996-0.078,1.493-0.234v1.537c-0.226,0.099-0.517,0.181-0.872,0.248
		c-0.356,0.066-0.726,0.1-1.107,0.1c-1.934,0-2.9-1.019-2.9-3.057v-5.175h-1.311v-0.903l1.406-0.747l0.695-2.031h1.259v2.136h2.735
		v1.546h-2.735v5.14c0,0.492,0.123,0.855,0.369,1.09S289.333,386.305,289.732,386.305z"/>
	<path fill="#4A4A49" d="M297.339,387.955c-1.493,0-2.661-0.436-3.503-1.307c-0.843-0.871-1.264-2.071-1.264-3.6
		c0-1.568,0.391-2.802,1.172-3.699c0.782-0.896,1.855-1.346,3.222-1.346c1.268,0,2.27,0.385,3.004,1.155
		c0.735,0.77,1.104,1.829,1.104,3.178v1.103h-6.399c0.028,0.933,0.28,1.648,0.755,2.149s1.144,0.751,2.006,0.751
		c0.567,0,1.096-0.054,1.585-0.16c0.489-0.107,1.015-0.285,1.576-0.534v1.658c-0.498,0.237-1.002,0.405-1.511,0.504
		C298.575,387.905,297.993,387.955,297.339,387.955z M296.966,379.55c-0.648,0-1.168,0.205-1.559,0.616s-0.624,1.011-0.699,1.798
		h4.359c-0.012-0.793-0.203-1.394-0.573-1.802S297.614,379.55,296.966,379.55z"/>
	<path fill="#4A4A49" d="M306.63,387.955c-1.198,0-2.133-0.435-2.805-1.303c-0.671-0.868-1.007-2.087-1.007-3.655
		c0-1.574,0.34-2.801,1.021-3.678c0.68-0.877,1.622-1.315,2.826-1.315c1.262,0,2.223,0.466,2.883,1.398h0.104
		c-0.099-0.689-0.148-1.233-0.148-1.633v-3.499h2.05v13.511h-1.598l-0.356-1.259h-0.096
		C308.85,387.478,307.892,387.955,306.63,387.955z M307.177,386.305c0.84,0,1.45-0.235,1.833-0.707
		c0.382-0.472,0.578-1.237,0.59-2.297v-0.286c0-1.21-0.196-2.07-0.59-2.579c-0.395-0.51-1.011-0.765-1.85-0.765
		c-0.718,0-1.271,0.291-1.659,0.873s-0.581,1.411-0.581,2.487c0,1.065,0.188,1.877,0.564,2.436
		C305.86,386.026,306.425,386.305,307.177,386.305z"/>
</g>
<g>
	<path fill="#4A4A49" d="M74.906,430.904l-0.273,2.508l2.526-0.705l0.165,1.155l-2.418,0.196l1.574,2.07l-1.092,0.596l-1.117-2.297
		l-1.016,2.297l-1.117-0.596l1.536-2.07l-2.393-0.196l0.184-1.155l2.482,0.705l-0.273-2.508H74.906z"/>
	<path fill="#4A4A49" d="M80.263,440.781h-1.079v-9.28h5.173v0.958h-4.094v3.396h3.847v0.959h-3.847V440.781z"/>
	<path fill="#4A4A49" d="M85.646,431.939c0-0.242,0.059-0.418,0.178-0.53c0.118-0.112,0.266-0.169,0.443-0.169
		c0.17,0,0.316,0.058,0.438,0.172s0.185,0.29,0.185,0.527c0,0.236-0.063,0.413-0.185,0.529s-0.269,0.175-0.438,0.175
		c-0.178,0-0.325-0.059-0.443-0.175C85.705,432.353,85.646,432.176,85.646,431.939z M86.789,440.781h-1.055v-6.957h1.055V440.781z"
		/>
	<path fill="#4A4A49" d="M94.717,433.824v0.666l-1.289,0.152c0.119,0.148,0.225,0.342,0.318,0.581
		c0.093,0.239,0.139,0.509,0.139,0.81c0,0.682-0.232,1.225-0.697,1.631c-0.466,0.406-1.105,0.609-1.918,0.609
		c-0.207,0-0.401-0.017-0.584-0.051c-0.448,0.237-0.672,0.536-0.672,0.896c0,0.19,0.078,0.331,0.234,0.422s0.426,0.137,0.807,0.137
		h1.23c0.754,0,1.332,0.159,1.736,0.476c0.404,0.318,0.606,0.779,0.606,1.385c0,0.77-0.31,1.356-0.927,1.761
		s-1.52,0.606-2.704,0.606c-0.909,0-1.611-0.169-2.104-0.508c-0.492-0.339-0.739-0.816-0.739-1.435c0-0.423,0.136-0.789,0.406-1.099
		c0.271-0.309,0.651-0.518,1.143-0.628c-0.178-0.08-0.327-0.205-0.448-0.374c-0.119-0.17-0.18-0.366-0.18-0.591
		c0-0.254,0.067-0.476,0.203-0.667c0.135-0.189,0.349-0.374,0.641-0.552c-0.359-0.148-0.652-0.399-0.879-0.755
		s-0.34-0.762-0.34-1.219c0-0.762,0.229-1.35,0.686-1.762c0.457-0.413,1.104-0.619,1.942-0.619c0.364,0,0.692,0.042,0.983,0.127
		H94.717z M89.169,441.949c0,0.377,0.159,0.662,0.476,0.857c0.318,0.194,0.773,0.291,1.365,0.291c0.885,0,1.539-0.132,1.965-0.396
		s0.638-0.623,0.638-1.076c0-0.376-0.116-0.638-0.349-0.783c-0.233-0.146-0.672-0.219-1.314-0.219h-1.264
		c-0.478,0-0.85,0.113-1.117,0.342C89.303,441.193,89.169,441.521,89.169,441.949z M89.74,436.053c0,0.486,0.138,0.854,0.412,1.104
		c0.275,0.25,0.658,0.375,1.149,0.375c1.028,0,1.542-0.499,1.542-1.498c0-1.045-0.52-1.568-1.561-1.568
		c-0.496,0-0.877,0.134-1.143,0.4C89.873,435.132,89.74,435.527,89.74,436.053z"/>
	<path fill="#4A4A49" d="M97.135,433.824v4.514c0,0.566,0.129,0.99,0.388,1.27s0.662,0.418,1.212,0.418
		c0.729,0,1.26-0.198,1.598-0.596c0.336-0.398,0.504-1.048,0.504-1.949v-3.656h1.054v6.957h-0.87l-0.152-0.934h-0.057
		c-0.216,0.344-0.516,0.605-0.898,0.787c-0.383,0.183-0.82,0.273-1.311,0.273c-0.846,0-1.48-0.201-1.9-0.604
		c-0.422-0.401-0.633-1.045-0.633-1.93v-4.551H97.135z"/>
	<path fill="#4A4A49" d="M107.298,433.697c0.31,0,0.586,0.025,0.831,0.076l-0.146,0.978c-0.288-0.063-0.542-0.095-0.762-0.095
		c-0.563,0-1.044,0.229-1.444,0.686c-0.399,0.457-0.6,1.025-0.6,1.707v3.732h-1.054v-6.957h0.87l0.12,1.289h0.051
		c0.259-0.453,0.569-0.803,0.933-1.048C106.462,433.82,106.861,433.697,107.298,433.697z"/>
	<path fill="#4A4A49" d="M112.369,440.908c-1.027,0-1.84-0.313-2.434-0.939c-0.595-0.626-0.893-1.496-0.893-2.609
		c0-1.121,0.276-2.012,0.829-2.672c0.552-0.66,1.294-0.99,2.225-0.99c0.872,0,1.562,0.287,2.069,0.86s0.762,1.329,0.762,2.269v0.667
		h-4.793c0.021,0.816,0.229,1.437,0.619,1.86c0.392,0.423,0.943,0.635,1.654,0.635c0.748,0,1.489-0.157,2.221-0.471v0.939
		c-0.372,0.161-0.725,0.276-1.057,0.347C113.24,440.873,112.84,440.908,112.369,440.908z M112.084,434.58
		c-0.559,0-1.004,0.182-1.336,0.545c-0.332,0.364-0.528,0.868-0.588,1.512h3.638c0-0.665-0.147-1.174-0.444-1.527
		S112.635,434.58,112.084,434.58z"/>
	<path fill="#4A4A49" d="M121.212,438.883c0,0.648-0.241,1.147-0.724,1.498c-0.482,0.352-1.16,0.527-2.031,0.527
		c-0.922,0-1.643-0.146-2.158-0.438v-0.979c0.334,0.17,0.693,0.303,1.076,0.4s0.752,0.146,1.107,0.146
		c0.551,0,0.973-0.088,1.27-0.264s0.444-0.443,0.444-0.803c0-0.271-0.118-0.503-0.353-0.695s-0.693-0.42-1.374-0.683
		c-0.647-0.241-1.108-0.452-1.38-0.632c-0.273-0.18-0.477-0.384-0.609-0.612c-0.135-0.229-0.201-0.501-0.201-0.819
		c0-0.566,0.23-1.014,0.692-1.342s1.094-0.492,1.897-0.492c0.75,0,1.481,0.152,2.197,0.457l-0.375,0.857
		c-0.698-0.288-1.331-0.432-1.898-0.432c-0.499,0-0.875,0.078-1.129,0.234s-0.381,0.372-0.381,0.647
		c0,0.187,0.047,0.345,0.143,0.476c0.096,0.132,0.248,0.257,0.46,0.375s0.618,0.29,1.219,0.514c0.825,0.301,1.383,0.604,1.673,0.908
		C121.066,438.039,121.212,438.422,121.212,438.883z"/>
	<path fill="#4A4A49" d="M135.17,440.781v-4.525c0-0.555-0.118-0.971-0.355-1.248c-0.236-0.277-0.604-0.416-1.104-0.416
		c-0.656,0-1.141,0.188-1.454,0.565s-0.47,0.956-0.47,1.739v3.885h-1.054v-4.525c0-0.555-0.118-0.971-0.355-1.248
		s-0.607-0.416-1.11-0.416c-0.66,0-1.145,0.198-1.451,0.594s-0.46,1.045-0.46,1.945v3.65h-1.054v-6.957h0.857l0.171,0.952h0.051
		c0.198-0.339,0.479-0.603,0.841-0.794c0.362-0.189,0.768-0.285,1.216-0.285c1.087,0,1.798,0.394,2.133,1.181h0.051
		c0.208-0.364,0.508-0.651,0.901-0.863s0.842-0.317,1.346-0.317c0.787,0,1.377,0.202,1.768,0.606
		c0.392,0.404,0.588,1.05,0.588,1.938v4.539H135.17z"/>
	<path fill="#4A4A49" d="M142.674,440.781l-0.21-0.99h-0.051c-0.347,0.436-0.692,0.731-1.038,0.886
		c-0.345,0.154-0.775,0.231-1.291,0.231c-0.69,0-1.23-0.178-1.623-0.533c-0.391-0.355-0.586-0.861-0.586-1.518
		c0-1.404,1.123-2.141,3.37-2.209l1.181-0.037v-0.432c0-0.547-0.117-0.949-0.352-1.21c-0.236-0.26-0.611-0.39-1.127-0.39
		c-0.58,0-1.236,0.178-1.969,0.533l-0.323-0.807c0.343-0.187,0.718-0.332,1.126-0.438c0.409-0.106,0.818-0.159,1.229-0.159
		c0.83,0,1.445,0.185,1.844,0.552c0.4,0.369,0.601,0.959,0.601,1.771v4.748H142.674z M140.293,440.039
		c0.656,0,1.172-0.181,1.545-0.54c0.375-0.359,0.563-0.863,0.563-1.511v-0.629l-1.054,0.045c-0.838,0.029-1.442,0.16-1.812,0.391
		c-0.371,0.23-0.557,0.589-0.557,1.076c0,0.381,0.115,0.67,0.346,0.869C139.556,439.939,139.879,440.039,140.293,440.039z"/>
	<path fill="#4A4A49" d="M144.521,433.824h1.13l1.523,3.967c0.334,0.906,0.541,1.56,0.622,1.962h0.051
		c0.056-0.216,0.171-0.585,0.346-1.107c0.176-0.522,0.751-2.13,1.724-4.821h1.13l-2.989,7.922c-0.297,0.783-0.643,1.338-1.038,1.666
		s-0.882,0.492-1.457,0.492c-0.321,0-0.64-0.036-0.952-0.107v-0.845c0.232,0.051,0.493,0.076,0.781,0.076
		c0.723,0,1.239-0.406,1.549-1.219l0.387-0.99L144.521,433.824z"/>
	<path fill="#4A4A49" d="M160.313,440.781v-4.5c0-0.567-0.129-0.99-0.388-1.27c-0.258-0.279-0.662-0.42-1.212-0.42
		c-0.728,0-1.261,0.197-1.6,0.591s-0.508,1.043-0.508,1.948v3.65h-1.054v-6.957h0.857l0.171,0.952h0.051
		c0.216-0.343,0.519-0.608,0.907-0.797c0.39-0.188,0.824-0.282,1.302-0.282c0.838,0,1.468,0.202,1.892,0.606s0.635,1.05,0.635,1.938
		v4.539H160.313z"/>
	<path fill="#4A4A49" d="M169.537,437.297c0,1.134-0.286,2.02-0.857,2.656s-1.36,0.955-2.367,0.955
		c-0.623,0-1.175-0.146-1.657-0.438c-0.482-0.293-0.854-0.711-1.117-1.258c-0.263-0.545-0.394-1.185-0.394-1.916
		c0-1.135,0.283-2.018,0.851-2.65s1.354-0.949,2.361-0.949c0.974,0,1.747,0.324,2.319,0.971
		C169.25,435.316,169.537,436.191,169.537,437.297z M164.236,437.297c0,0.889,0.178,1.565,0.533,2.031
		c0.355,0.465,0.878,0.697,1.568,0.697c0.689,0,1.213-0.231,1.57-0.694c0.357-0.464,0.537-1.142,0.537-2.034
		c0-0.885-0.18-1.557-0.537-2.016s-0.885-0.689-1.584-0.689c-0.689,0-1.21,0.227-1.561,0.68
		C164.412,435.725,164.236,436.399,164.236,437.297z"/>
	<path fill="#4A4A49" d="M173.631,440.039c0.186,0,0.366-0.015,0.539-0.042c0.174-0.027,0.312-0.056,0.413-0.085v0.806
		c-0.114,0.055-0.282,0.101-0.505,0.137c-0.222,0.036-0.422,0.054-0.6,0.054c-1.346,0-2.019-0.709-2.019-2.127v-4.139h-0.997v-0.508
		l0.997-0.438l0.444-1.485h0.609v1.612h2.019v0.818h-2.019v4.095c0,0.419,0.1,0.74,0.299,0.965
		C173.011,439.927,173.283,440.039,173.631,440.039z"/>
	<path fill="#4A4A49" d="M183.838,438.883c0,0.648-0.241,1.147-0.724,1.498c-0.482,0.352-1.159,0.527-2.031,0.527
		c-0.923,0-1.642-0.146-2.158-0.438v-0.979c0.335,0.17,0.692,0.303,1.075,0.4c0.384,0.098,0.753,0.146,1.108,0.146
		c0.55,0,0.974-0.088,1.27-0.264s0.444-0.443,0.444-0.803c0-0.271-0.117-0.503-0.352-0.695c-0.236-0.192-0.693-0.42-1.375-0.683
		c-0.647-0.241-1.107-0.452-1.381-0.632s-0.477-0.384-0.609-0.612s-0.199-0.501-0.199-0.819c0-0.566,0.23-1.014,0.691-1.342
		s1.094-0.492,1.898-0.492c0.748,0,1.48,0.152,2.195,0.457l-0.374,0.857c-0.698-0.288-1.331-0.432-1.897-0.432
		c-0.5,0-0.877,0.078-1.131,0.234s-0.381,0.372-0.381,0.647c0,0.187,0.049,0.345,0.143,0.476c0.096,0.132,0.25,0.257,0.461,0.375
		s0.617,0.29,1.219,0.514c0.825,0.301,1.383,0.604,1.672,0.908C183.693,438.039,183.838,438.422,183.838,438.883z"/>
	<path fill="#4A4A49" d="M186.542,433.824v4.514c0,0.566,0.129,0.99,0.388,1.27c0.258,0.279,0.662,0.418,1.212,0.418
		c0.728,0,1.26-0.198,1.597-0.596c0.336-0.398,0.504-1.048,0.504-1.949v-3.656h1.055v6.957h-0.87l-0.152-0.934h-0.058
		c-0.215,0.344-0.515,0.605-0.897,0.787c-0.384,0.183-0.82,0.273-1.312,0.273c-0.846,0-1.479-0.201-1.9-0.604
		c-0.422-0.401-0.632-1.045-0.632-1.93v-4.551H186.542z"/>
	<path fill="#4A4A49" d="M202.398,440.781v-4.525c0-0.555-0.119-0.971-0.355-1.248s-0.605-0.416-1.104-0.416
		c-0.655,0-1.141,0.188-1.454,0.565c-0.313,0.377-0.469,0.956-0.469,1.739v3.885h-1.055v-4.525c0-0.555-0.118-0.971-0.355-1.248
		c-0.236-0.277-0.607-0.416-1.11-0.416c-0.66,0-1.144,0.198-1.45,0.594s-0.461,1.045-0.461,1.945v3.65h-1.053v-6.957h0.856
		l0.171,0.952h0.051c0.199-0.339,0.48-0.603,0.842-0.794c0.361-0.189,0.767-0.285,1.215-0.285c1.088,0,1.799,0.394,2.133,1.181
		h0.051c0.208-0.364,0.508-0.651,0.902-0.863c0.393-0.212,0.842-0.317,1.346-0.317c0.787,0,1.376,0.202,1.768,0.606
		c0.391,0.404,0.587,1.05,0.587,1.938v4.539H202.398z"/>
	<path fill="#4A4A49" d="M213.735,439.848h-0.058c-0.486,0.707-1.214,1.061-2.184,1.061c-0.909,0-1.617-0.311-2.123-0.934
		c-0.506-0.621-0.758-1.506-0.758-2.652c0-1.147,0.254-2.038,0.762-2.673s1.214-0.952,2.119-0.952c0.944,0,1.668,0.343,2.172,1.028
		h0.082l-0.045-0.501l-0.025-0.489v-2.831h1.055v9.877h-0.857L213.735,439.848z M211.628,440.025c0.72,0,1.241-0.195,1.564-0.587
		c0.324-0.392,0.485-1.022,0.485-1.895v-0.222c0-0.986-0.164-1.69-0.491-2.111c-0.328-0.421-0.853-0.631-1.571-0.631
		c-0.617,0-1.091,0.239-1.419,0.72c-0.327,0.48-0.491,1.159-0.491,2.034c0,0.889,0.162,1.56,0.488,2.013
		S210.998,440.025,211.628,440.025z"/>
	<path fill="#4A4A49" d="M217.957,433.824v4.514c0,0.566,0.129,0.99,0.387,1.27s0.662,0.418,1.213,0.418
		c0.728,0,1.26-0.198,1.596-0.596c0.336-0.398,0.505-1.048,0.505-1.949v-3.656h1.054v6.957h-0.869l-0.152-0.934h-0.058
		c-0.216,0.344-0.515,0.605-0.897,0.787c-0.384,0.183-0.82,0.273-1.312,0.273c-0.847,0-1.479-0.201-1.901-0.604
		c-0.421-0.401-0.631-1.045-0.631-1.93v-4.551H217.957z"/>
	<path fill="#4A4A49" d="M227.885,440.908c-1.029,0-1.84-0.313-2.435-0.939s-0.892-1.496-0.892-2.609
		c0-1.121,0.275-2.012,0.828-2.672c0.552-0.66,1.293-0.99,2.225-0.99c0.871,0,1.562,0.287,2.069,0.86s0.762,1.329,0.762,2.269v0.667
		h-4.792c0.021,0.816,0.227,1.437,0.618,1.86c0.392,0.423,0.942,0.635,1.653,0.635c0.75,0,1.49-0.157,2.223-0.471v0.939
		c-0.373,0.161-0.725,0.276-1.058,0.347C228.755,440.873,228.354,440.908,227.885,440.908z M227.599,434.58
		c-0.559,0-1.004,0.182-1.336,0.545c-0.333,0.364-0.528,0.868-0.587,1.512h3.637c0-0.665-0.148-1.174-0.444-1.527
		S228.148,434.58,227.599,434.58z"/>
	<path fill="#4A4A49" d="M237.863,440.039c0.186,0,0.365-0.015,0.539-0.042s0.311-0.056,0.412-0.085v0.806
		c-0.113,0.055-0.281,0.101-0.504,0.137s-0.422,0.054-0.6,0.054c-1.346,0-2.02-0.709-2.02-2.127v-4.139h-0.996v-0.508l0.996-0.438
		l0.445-1.485h0.609v1.612h2.018v0.818h-2.018v4.095c0,0.419,0.1,0.74,0.298,0.965S237.516,440.039,237.863,440.039z"/>
	<path fill="#4A4A49" d="M246.21,437.297c0,1.134-0.286,2.02-0.856,2.656c-0.572,0.637-1.361,0.955-2.368,0.955
		c-0.622,0-1.175-0.146-1.657-0.438c-0.482-0.293-0.854-0.711-1.117-1.258c-0.262-0.545-0.393-1.185-0.393-1.916
		c0-1.135,0.283-2.018,0.85-2.65c0.567-0.633,1.354-0.949,2.361-0.949c0.974,0,1.747,0.324,2.32,0.971
		C245.924,435.316,246.21,436.191,246.21,437.297z M240.91,437.297c0,0.889,0.178,1.565,0.533,2.031
		c0.355,0.465,0.877,0.697,1.567,0.697s1.214-0.231,1.571-0.694c0.357-0.464,0.536-1.142,0.536-2.034
		c0-0.885-0.179-1.557-0.536-2.016s-0.886-0.689-1.584-0.689c-0.689,0-1.211,0.227-1.562,0.68S240.91,436.399,240.91,437.297z"/>
	<path fill="#4A4A49" d="M254.607,433.697c0.31,0,0.586,0.025,0.832,0.076l-0.146,0.978c-0.287-0.063-0.541-0.095-0.762-0.095
		c-0.563,0-1.043,0.229-1.443,0.686s-0.6,1.025-0.6,1.707v3.732h-1.055v-6.957h0.87l0.12,1.289h0.051
		c0.259-0.453,0.57-0.803,0.934-1.048S254.172,433.697,254.607,433.697z"/>
	<path fill="#4A4A49" d="M262.746,437.297c0,1.134-0.286,2.02-0.857,2.656s-1.36,0.955-2.367,0.955
		c-0.623,0-1.175-0.146-1.657-0.438c-0.482-0.293-0.854-0.711-1.117-1.258c-0.263-0.545-0.394-1.185-0.394-1.916
		c0-1.135,0.283-2.018,0.851-2.65s1.354-0.949,2.361-0.949c0.974,0,1.747,0.324,2.319,0.971
		C262.459,435.316,262.746,436.191,262.746,437.297z M257.445,437.297c0,0.889,0.178,1.565,0.533,2.031
		c0.355,0.465,0.878,0.697,1.568,0.697c0.689,0,1.213-0.231,1.57-0.694c0.357-0.464,0.537-1.142,0.537-2.034
		c0-0.885-0.18-1.557-0.537-2.016s-0.885-0.689-1.584-0.689c-0.689,0-1.21,0.227-1.561,0.68
		C257.621,435.725,257.445,436.399,257.445,437.297z"/>
	<path fill="#4A4A49" d="M265.583,433.824v4.514c0,0.566,0.129,0.99,0.388,1.27c0.258,0.279,0.662,0.418,1.212,0.418
		c0.728,0,1.26-0.198,1.597-0.596c0.336-0.398,0.504-1.048,0.504-1.949v-3.656h1.055v6.957h-0.87l-0.152-0.934h-0.058
		c-0.215,0.344-0.515,0.605-0.897,0.787c-0.384,0.183-0.82,0.273-1.312,0.273c-0.846,0-1.479-0.201-1.9-0.604
		c-0.422-0.401-0.632-1.045-0.632-1.93v-4.551H265.583z"/>
	<path fill="#4A4A49" d="M277.332,440.781v-4.5c0-0.567-0.129-0.99-0.387-1.27s-0.662-0.42-1.213-0.42
		c-0.727,0-1.26,0.197-1.6,0.591c-0.338,0.394-0.508,1.043-0.508,1.948v3.65h-1.053v-6.957h0.856l0.171,0.952h0.051
		c0.217-0.343,0.52-0.608,0.908-0.797s0.822-0.282,1.301-0.282c0.838,0,1.469,0.202,1.893,0.606c0.422,0.404,0.635,1.05,0.635,1.938
		v4.539H277.332z"/>
	<path fill="#4A4A49" d="M285.286,439.848h-0.058c-0.486,0.707-1.214,1.061-2.184,1.061c-0.909,0-1.617-0.311-2.123-0.934
		c-0.506-0.621-0.758-1.506-0.758-2.652c0-1.147,0.254-2.038,0.762-2.673s1.214-0.952,2.119-0.952c0.944,0,1.668,0.343,2.172,1.028
		h0.082l-0.045-0.501l-0.025-0.489v-2.831h1.055v9.877h-0.857L285.286,439.848z M283.179,440.025c0.72,0,1.241-0.195,1.564-0.587
		c0.324-0.392,0.485-1.022,0.485-1.895v-0.222c0-0.986-0.163-1.69-0.491-2.111s-0.852-0.631-1.571-0.631
		c-0.618,0-1.091,0.239-1.419,0.72s-0.491,1.159-0.491,2.034c0,0.889,0.162,1.56,0.488,2.013S282.548,440.025,283.179,440.025z"/>
	<path fill="#4A4A49" d="M288.429,431.939c0-0.242,0.06-0.418,0.178-0.53s0.267-0.169,0.444-0.169c0.169,0,0.315,0.058,0.438,0.172
		c0.123,0.114,0.185,0.29,0.185,0.527c0,0.236-0.062,0.413-0.185,0.529c-0.122,0.116-0.269,0.175-0.438,0.175
		c-0.178,0-0.326-0.059-0.444-0.175S288.429,432.176,288.429,431.939z M289.571,440.781h-1.054v-6.957h1.054V440.781z"/>
	<path fill="#4A4A49" d="M296.566,440.781v-4.5c0-0.567-0.129-0.99-0.388-1.27c-0.258-0.279-0.662-0.42-1.212-0.42
		c-0.728,0-1.261,0.197-1.6,0.591s-0.508,1.043-0.508,1.948v3.65h-1.054v-6.957h0.857l0.171,0.952h0.051
		c0.216-0.343,0.519-0.608,0.907-0.797c0.39-0.188,0.823-0.282,1.302-0.282c0.838,0,1.469,0.202,1.892,0.606s0.635,1.05,0.635,1.938
		v4.539H296.566z"/>
	<path fill="#4A4A49" d="M305.479,433.824v0.666l-1.288,0.152c0.118,0.148,0.225,0.342,0.317,0.581s0.14,0.509,0.14,0.81
		c0,0.682-0.232,1.225-0.698,1.631s-1.104,0.609-1.917,0.609c-0.207,0-0.402-0.017-0.584-0.051
		c-0.448,0.237-0.673,0.536-0.673,0.896c0,0.19,0.078,0.331,0.234,0.422c0.157,0.091,0.426,0.137,0.807,0.137h1.231
		c0.753,0,1.332,0.159,1.736,0.476c0.404,0.318,0.606,0.779,0.606,1.385c0,0.77-0.31,1.356-0.928,1.761
		c-0.617,0.404-1.519,0.606-2.703,0.606c-0.91,0-1.611-0.169-2.104-0.508s-0.739-0.816-0.739-1.435c0-0.423,0.135-0.789,0.406-1.099
		c0.271-0.309,0.651-0.518,1.143-0.628c-0.178-0.08-0.327-0.205-0.448-0.374c-0.12-0.17-0.181-0.366-0.181-0.591
		c0-0.254,0.067-0.476,0.203-0.667c0.136-0.189,0.35-0.374,0.641-0.552c-0.359-0.148-0.652-0.399-0.879-0.755
		s-0.34-0.762-0.34-1.219c0-0.762,0.229-1.35,0.686-1.762c0.457-0.413,1.105-0.619,1.943-0.619c0.363,0,0.691,0.042,0.983,0.127
		H305.479z M299.932,441.949c0,0.377,0.158,0.662,0.476,0.857c0.317,0.194,0.772,0.291,1.364,0.291c0.885,0,1.54-0.132,1.965-0.396
		c0.426-0.265,0.639-0.623,0.639-1.076c0-0.376-0.117-0.638-0.35-0.783c-0.232-0.146-0.671-0.219-1.314-0.219h-1.263
		c-0.479,0-0.851,0.113-1.117,0.342S299.932,441.521,299.932,441.949z M300.502,436.053c0,0.486,0.138,0.854,0.413,1.104
		c0.275,0.25,0.658,0.375,1.149,0.375c1.027,0,1.542-0.499,1.542-1.498c0-1.045-0.521-1.568-1.562-1.568
		c-0.495,0-0.876,0.134-1.143,0.4S300.502,435.527,300.502,436.053z"/>
</g>
<rect x="-213" y="9" fill="none" width="596" height="443"/>
<g>
	<path fill="#4A4A49" d="M103.192,38.193h-2.04V24.682h2.04V38.193z"/>
	<path fill="#4A4A49" d="M114.628,33.374c0,1.569-0.402,2.793-1.207,3.673s-1.925,1.32-3.36,1.32c-0.896,0-1.69-0.203-2.379-0.608
		s-1.219-0.987-1.589-1.746c-0.37-0.758-0.556-1.638-0.556-2.64c0-1.557,0.399-2.772,1.198-3.646s1.925-1.312,3.378-1.312
		c1.389,0,2.489,0.447,3.3,1.342C114.223,30.651,114.628,31.857,114.628,33.374z M107.639,33.374c0,2.217,0.818,3.326,2.457,3.326
		c1.621,0,2.432-1.108,2.432-3.326c0-2.194-0.816-3.291-2.449-3.291c-0.856,0-1.478,0.284-1.862,0.851
		C107.831,31.501,107.639,32.314,107.639,33.374z"/>
	<path fill="#4A4A49" d="M125.421,38.193h-2.049v-5.904c0-0.741-0.149-1.294-0.447-1.659s-0.771-0.547-1.42-0.547
		c-0.862,0-1.493,0.254-1.893,0.764c-0.399,0.509-0.6,1.363-0.6,2.562v4.784h-2.04v-9.604h1.598l0.286,1.259h0.104
		c0.289-0.458,0.7-0.811,1.233-1.06c0.532-0.249,1.122-0.374,1.771-0.374c2.305,0,3.456,1.172,3.456,3.517V38.193z"/>
	<path fill="#4A4A49" d="M136.37,28.589v1.12l-1.641,0.304c0.15,0.203,0.274,0.452,0.373,0.747c0.099,0.295,0.147,0.608,0.147,0.938
		c0,0.99-0.341,1.769-1.024,2.336c-0.683,0.567-1.623,0.851-2.822,0.851c-0.307,0-0.584-0.023-0.833-0.07
		c-0.44,0.272-0.66,0.591-0.66,0.956c0,0.22,0.103,0.385,0.309,0.495c0.205,0.11,0.583,0.165,1.133,0.165h1.676
		c1.06,0,1.864,0.226,2.414,0.677s0.825,1.103,0.825,1.954c0,1.088-0.449,1.928-1.346,2.518c-0.897,0.591-2.194,0.886-3.891,0.886
		c-1.309,0-2.307-0.231-2.995-0.694c-0.689-0.463-1.033-1.124-1.033-1.98c0-0.59,0.187-1.087,0.56-1.489s0.896-0.682,1.567-0.838
		c-0.272-0.116-0.496-0.302-0.673-0.56c-0.177-0.257-0.265-0.528-0.265-0.812c0-0.359,0.101-0.663,0.304-0.912
		c0.202-0.249,0.504-0.495,0.903-0.738c-0.498-0.214-0.902-0.563-1.212-1.046s-0.465-1.049-0.465-1.698
		c0-1.042,0.329-1.849,0.986-2.422c0.656-0.573,1.593-0.86,2.809-0.86c0.272,0,0.558,0.019,0.855,0.057s0.522,0.077,0.673,0.117
		H136.37z M128.825,39.687c0,0.439,0.198,0.778,0.595,1.016s0.953,0.356,1.671,0.356c1.112,0,1.939-0.159,2.483-0.478
		s0.816-0.741,0.816-1.268c0-0.417-0.149-0.713-0.447-0.89s-0.853-0.265-1.662-0.265h-1.546c-0.585,0-1.05,0.137-1.394,0.413
		C128.997,38.846,128.825,39.217,128.825,39.687z M129.702,31.698c0,0.602,0.154,1.065,0.464,1.39s0.754,0.486,1.333,0.486
		c1.182,0,1.771-0.631,1.771-1.893c0-0.625-0.146-1.107-0.438-1.446c-0.292-0.339-0.736-0.508-1.333-0.508
		c-0.59,0-1.037,0.168-1.341,0.503C129.854,30.566,129.702,31.055,129.702,31.698z"/>
	<path fill="#4A4A49" d="M137.317,34.294v-1.736h4.463v1.736H137.317z"/>
	<path fill="#4A4A49" d="M147.45,36.717c0.498,0,0.996-0.078,1.493-0.234v1.537c-0.226,0.099-0.517,0.181-0.872,0.248
		c-0.356,0.066-0.726,0.1-1.107,0.1c-1.934,0-2.9-1.019-2.9-3.057v-5.175h-1.311v-0.903l1.406-0.747l0.695-2.032h1.259v2.136h2.735
		v1.545h-2.735v5.141c0,0.492,0.123,0.855,0.369,1.09S147.051,36.717,147.45,36.717z"/>
	<path fill="#4A4A49" d="M155.057,38.367c-1.493,0-2.661-0.436-3.503-1.307c-0.843-0.871-1.264-2.071-1.264-3.599
		c0-1.568,0.391-2.802,1.172-3.699c0.782-0.897,1.855-1.346,3.222-1.346c1.268,0,2.27,0.385,3.004,1.155
		c0.735,0.77,1.104,1.83,1.104,3.178v1.103h-6.399c0.028,0.932,0.28,1.648,0.755,2.149c0.475,0.5,1.144,0.751,2.006,0.751
		c0.567,0,1.096-0.053,1.585-0.161c0.489-0.107,1.015-0.285,1.576-0.534v1.659c-0.498,0.237-1.002,0.405-1.511,0.503
		C156.293,38.317,155.711,38.367,155.057,38.367z M154.684,29.961c-0.648,0-1.168,0.206-1.559,0.616
		c-0.391,0.411-0.624,1.01-0.699,1.797h4.359c-0.012-0.793-0.203-1.394-0.573-1.802C155.842,30.166,155.332,29.961,154.684,29.961z"
		/>
	<path fill="#4A4A49" d="M165.98,28.416c0.411,0,0.749,0.029,1.016,0.087l-0.199,1.902c-0.29-0.07-0.591-0.104-0.903-0.104
		c-0.816,0-1.478,0.267-1.984,0.799c-0.506,0.533-0.76,1.225-0.76,2.075v5.019h-2.04v-9.604h1.598l0.269,1.693h0.104
		c0.318-0.573,0.733-1.028,1.246-1.363C164.839,28.583,165.39,28.416,165.98,28.416z"/>
	<path fill="#4A4A49" d="M176.869,38.193h-2.05v-5.922c0-0.735-0.139-1.284-0.417-1.646c-0.277-0.362-0.712-0.542-1.302-0.542
		c-0.787,0-1.365,0.256-1.732,0.768c-0.368,0.513-0.552,1.365-0.552,2.558v4.784h-2.04v-9.604h1.598l0.286,1.259h0.104
		c0.267-0.458,0.652-0.811,1.159-1.06s1.063-0.374,1.672-0.374c1.476,0,2.454,0.504,2.935,1.511h0.139
		c0.284-0.475,0.684-0.845,1.198-1.112c0.516-0.266,1.105-0.399,1.771-0.399c1.146,0,1.981,0.29,2.505,0.869
		c0.524,0.579,0.786,1.461,0.786,2.648v6.261h-2.041v-5.922c0-0.735-0.14-1.284-0.421-1.646c-0.28-0.362-0.716-0.542-1.307-0.542
		c-0.793,0-1.373,0.247-1.741,0.742c-0.367,0.495-0.551,1.255-0.551,2.279V38.193z"/>
	<path fill="#4A4A49" d="M194.27,38.367c-1.453,0-2.557-0.424-3.313-1.272c-0.755-0.848-1.133-2.065-1.133-3.651
		c0-1.615,0.395-2.857,1.186-3.725c0.79-0.869,1.932-1.303,3.425-1.303c1.014,0,1.925,0.188,2.735,0.564l-0.616,1.641
		c-0.862-0.335-1.575-0.503-2.136-0.503c-1.662,0-2.492,1.103-2.492,3.308c0,1.077,0.207,1.886,0.62,2.427
		c0.414,0.542,1.021,0.812,1.819,0.812c0.909,0,1.769-0.226,2.579-0.677v1.78c-0.364,0.214-0.754,0.368-1.168,0.46
		C195.362,38.32,194.86,38.367,194.27,38.367z"/>
	<path fill="#4A4A49" d="M207.65,38.193h-2.049v-5.904c0-0.741-0.149-1.294-0.447-1.659s-0.771-0.547-1.42-0.547
		c-0.856,0-1.486,0.256-1.889,0.768c-0.402,0.513-0.604,1.371-0.604,2.575v4.767h-2.04V24.682h2.04v3.43
		c0,0.55-0.034,1.138-0.104,1.763h0.13c0.277-0.463,0.664-0.822,1.159-1.077s1.072-0.382,1.732-0.382c2.327,0,3.49,1.172,3.49,3.517
		V38.193z"/>
	<path fill="#4A4A49" d="M216.499,38.193l-0.408-1.337h-0.069c-0.464,0.585-0.93,0.983-1.398,1.194
		c-0.469,0.211-1.071,0.317-1.806,0.317c-0.944,0-1.681-0.255-2.21-0.764c-0.53-0.509-0.795-1.23-0.795-2.162
		c0-0.99,0.368-1.737,1.103-2.24c0.735-0.504,1.855-0.779,3.36-0.825l1.659-0.052v-0.513c0-0.613-0.144-1.072-0.43-1.376
		c-0.287-0.304-0.731-0.456-1.333-0.456c-0.492,0-0.964,0.073-1.416,0.217c-0.451,0.145-0.885,0.315-1.302,0.512l-0.66-1.458
		c0.521-0.272,1.091-0.479,1.711-0.621c0.619-0.142,1.203-0.213,1.754-0.213c1.221,0,2.143,0.267,2.766,0.799
		c0.622,0.533,0.933,1.369,0.933,2.51v6.469H216.499z M213.46,36.804c0.74,0,1.335-0.207,1.784-0.621
		c0.448-0.414,0.673-0.994,0.673-1.741v-0.833l-1.233,0.052c-0.961,0.035-1.659,0.195-2.097,0.482s-0.655,0.725-0.655,1.315
		c0,0.429,0.127,0.76,0.382,0.995C212.568,36.687,212.95,36.804,213.46,36.804z"/>
	<path fill="#4A4A49" d="M229.254,38.193h-2.049v-5.904c0-0.741-0.149-1.294-0.447-1.659s-0.771-0.547-1.42-0.547
		c-0.862,0-1.493,0.254-1.893,0.764c-0.399,0.509-0.6,1.363-0.6,2.562v4.784h-2.04v-9.604h1.598l0.286,1.259h0.104
		c0.289-0.458,0.7-0.811,1.233-1.06c0.532-0.249,1.122-0.374,1.771-0.374c2.305,0,3.456,1.172,3.456,3.517V38.193z"/>
	<path fill="#4A4A49" d="M240.203,28.589v1.12l-1.641,0.304c0.15,0.203,0.274,0.452,0.373,0.747
		c0.099,0.295,0.147,0.608,0.147,0.938c0,0.99-0.341,1.769-1.024,2.336c-0.683,0.567-1.623,0.851-2.822,0.851
		c-0.307,0-0.584-0.023-0.833-0.07c-0.44,0.272-0.66,0.591-0.66,0.956c0,0.22,0.103,0.385,0.309,0.495
		c0.205,0.11,0.583,0.165,1.133,0.165h1.676c1.06,0,1.864,0.226,2.414,0.677s0.825,1.103,0.825,1.954
		c0,1.088-0.449,1.928-1.346,2.518c-0.897,0.591-2.194,0.886-3.891,0.886c-1.309,0-2.307-0.231-2.995-0.694
		c-0.689-0.463-1.033-1.124-1.033-1.98c0-0.59,0.187-1.087,0.56-1.489s0.896-0.682,1.567-0.838c-0.272-0.116-0.496-0.302-0.673-0.56
		c-0.177-0.257-0.265-0.528-0.265-0.812c0-0.359,0.101-0.663,0.304-0.912c0.202-0.249,0.504-0.495,0.903-0.738
		c-0.498-0.214-0.902-0.563-1.212-1.046s-0.465-1.049-0.465-1.698c0-1.042,0.329-1.849,0.986-2.422
		c0.656-0.573,1.593-0.86,2.809-0.86c0.272,0,0.558,0.019,0.855,0.057s0.522,0.077,0.673,0.117H240.203z M232.658,39.687
		c0,0.439,0.198,0.778,0.595,1.016s0.953,0.356,1.671,0.356c1.112,0,1.939-0.159,2.483-0.478s0.816-0.741,0.816-1.268
		c0-0.417-0.149-0.713-0.447-0.89s-0.853-0.265-1.662-0.265h-1.546c-0.585,0-1.05,0.137-1.394,0.413
		C232.83,38.846,232.658,39.217,232.658,39.687z M233.535,31.698c0,0.602,0.154,1.065,0.464,1.39s0.754,0.486,1.333,0.486
		c1.182,0,1.771-0.631,1.771-1.893c0-0.625-0.146-1.107-0.438-1.446c-0.292-0.339-0.736-0.508-1.333-0.508
		c-0.59,0-1.037,0.168-1.341,0.503C233.687,30.566,233.535,31.055,233.535,31.698z"/>
	<path fill="#4A4A49" d="M246.177,38.367c-1.493,0-2.661-0.436-3.503-1.307c-0.843-0.871-1.264-2.071-1.264-3.599
		c0-1.568,0.391-2.802,1.172-3.699c0.782-0.897,1.855-1.346,3.222-1.346c1.268,0,2.27,0.385,3.004,1.155
		c0.735,0.77,1.104,1.83,1.104,3.178v1.103h-6.399c0.028,0.932,0.28,1.648,0.755,2.149c0.475,0.5,1.144,0.751,2.006,0.751
		c0.567,0,1.096-0.053,1.585-0.161c0.489-0.107,1.015-0.285,1.576-0.534v1.659c-0.498,0.237-1.002,0.405-1.511,0.503
		C247.413,38.317,246.831,38.367,246.177,38.367z M245.804,29.961c-0.648,0-1.168,0.206-1.559,0.616
		c-0.391,0.411-0.624,1.01-0.699,1.797h4.359c-0.012-0.793-0.203-1.394-0.573-1.802C246.962,30.166,246.452,29.961,245.804,29.961z"
		/>
</g>
<g>
	<g>
		<rect x="105.496" y="75.349" fill="#007F42" width="66.561" height="188.975"/>
	</g>
</g>
<g>
	<g>
		<rect x="105.496" y="264.324" fill="#54808E" width="66.561" height="64.526"/>
	</g>
</g>
<g>
	<g>
		<rect x="105.496" y="327.082" fill="#015B77" width="66.561" height="37.762"/>
	</g>
</g>
<g>
	<g>
		<rect x="105.496" y="364.844" fill="#98000D" width="66.561" height="25.938"/>
	</g>
</g>
<g>
	<path fill="#007F42" d="M218.418,118.334h-14.971v-3.149l5.376-5.435c1.592-1.631,2.632-2.761,3.12-3.391s0.84-1.213,1.055-1.75
		s0.322-1.094,0.322-1.67c0-0.859-0.237-1.499-0.711-1.919s-1.105-0.63-1.896-0.63c-0.83,0-1.636,0.19-2.417,0.571
		s-1.597,0.923-2.446,1.626l-2.461-2.915c1.055-0.898,1.929-1.533,2.622-1.904s1.45-0.657,2.271-0.857s1.738-0.3,2.754-0.3
		c1.338,0,2.52,0.244,3.545,0.732s1.821,1.172,2.388,2.051s0.85,1.885,0.85,3.018c0,0.986-0.174,1.912-0.521,2.776
		s-0.884,1.75-1.611,2.659s-2.009,2.202-3.845,3.882l-2.754,2.593v0.205h9.331V118.334z"/>
	<path fill="#007F42" d="M220.425,109.237c0-4.238,0.896-7.393,2.688-9.463s4.476-3.105,8.05-3.105c1.221,0,2.178,0.073,2.871,0.22
		v3.618c-0.869-0.195-1.729-0.293-2.578-0.293c-1.553,0-2.819,0.234-3.802,0.703c-0.98,0.469-1.716,1.162-2.204,2.08
		s-0.776,2.222-0.864,3.911h0.19c0.967-1.66,2.515-2.49,4.644-2.49c1.914,0,3.413,0.601,4.497,1.802s1.626,2.861,1.626,4.98
		c0,2.285-0.645,4.094-1.934,5.427s-3.076,2-5.361,2c-1.582,0-2.962-0.366-4.139-1.099s-2.085-1.802-2.725-3.208
		S220.425,111.22,220.425,109.237z M228.159,115.009c0.967,0,1.709-0.325,2.227-0.974s0.776-1.575,0.776-2.776
		c0-1.045-0.241-1.868-0.726-2.468c-0.482-0.601-1.213-0.901-2.189-0.901c-0.918,0-1.702,0.298-2.352,0.894s-0.974,1.289-0.974,2.08
		c0,1.162,0.305,2.144,0.915,2.944S227.222,115.009,228.159,115.009z"/>
	<path fill="#007F42" d="M245.008,113.403c0-1.553,0.227-3.006,0.682-4.359c0.453-1.354,1.108-2.54,1.964-3.56h2.197
		c-0.826,1.131-1.45,2.373-1.872,3.727s-0.633,2.745-0.633,4.175c0,1.436,0.215,2.823,0.646,4.162
		c0.43,1.339,1.044,2.55,1.841,3.634h-2.18c-0.861-0.996-1.518-2.159-1.969-3.489S245.008,114.933,245.008,113.403z"/>
	<path fill="#007F42" d="M251.02,112.876c0-2.543,0.537-4.436,1.613-5.678c1.074-1.242,2.685-1.863,4.829-1.863
		c0.732,0,1.307,0.044,1.723,0.132v2.171c-0.521-0.117-1.037-0.176-1.547-0.176c-0.932,0-1.692,0.141-2.28,0.422
		c-0.59,0.281-1.03,0.697-1.323,1.248s-0.466,1.333-0.519,2.347h0.114c0.58-0.996,1.509-1.494,2.786-1.494
		c1.148,0,2.048,0.36,2.698,1.081s0.976,1.717,0.976,2.988c0,1.371-0.387,2.457-1.16,3.256s-1.846,1.2-3.217,1.2
		c-0.949,0-1.777-0.22-2.482-0.659c-0.707-0.439-1.252-1.081-1.635-1.925C251.211,115.082,251.02,114.065,251.02,112.876z
		 M255.66,116.339c0.58,0,1.025-0.195,1.336-0.584s0.466-0.945,0.466-1.666c0-0.627-0.146-1.121-0.435-1.481
		c-0.291-0.36-0.729-0.541-1.314-0.541c-0.551,0-1.021,0.179-1.41,0.536c-0.391,0.357-0.585,0.773-0.585,1.248
		c0,0.697,0.183,1.286,0.55,1.767C254.633,116.099,255.098,116.339,255.66,116.339z"/>
	<path fill="#007F42" d="M270.294,111.909c0,2.244-0.368,3.905-1.104,4.983s-1.867,1.617-3.396,1.617
		c-1.482,0-2.601-0.557-3.354-1.67s-1.129-2.757-1.129-4.931c0-2.268,0.366-3.939,1.099-5.014s1.86-1.613,3.384-1.613
		c1.482,0,2.603,0.563,3.361,1.688S270.294,109.741,270.294,111.909z M264.01,111.909c0,1.576,0.136,2.706,0.409,3.388
		c0.271,0.683,0.73,1.024,1.375,1.024c0.633,0,1.09-0.346,1.371-1.037s0.422-1.816,0.422-3.375c0-1.576-0.143-2.708-0.426-3.397
		c-0.285-0.688-0.74-1.033-1.367-1.033c-0.639,0-1.096,0.344-1.371,1.033S264.01,110.333,264.01,111.909z"/>
	<path fill="#007F42" d="M277.598,109.316c0,1.348-0.261,2.36-0.782,3.037s-1.286,1.015-2.294,1.015
		c-0.967,0-1.714-0.347-2.241-1.042s-0.791-1.698-0.791-3.01c0-2.678,1.011-4.017,3.032-4.017c0.99,0,1.75,0.347,2.281,1.042
		C277.332,107.036,277.598,108.027,277.598,109.316z M273.704,109.334c0,0.744,0.065,1.299,0.198,1.666
		c0.131,0.366,0.344,0.549,0.637,0.549c0.563,0,0.844-0.738,0.844-2.215c0-1.465-0.281-2.197-0.844-2.197
		c-0.293,0-0.506,0.18-0.637,0.541C273.77,108.038,273.704,108.59,273.704,109.334z M283.645,105.484l-7.128,12.85h-2.109
		l7.128-12.85H283.645z M286.598,114.449c0,1.342-0.261,2.351-0.782,3.028s-1.286,1.015-2.294,1.015
		c-0.967,0-1.714-0.347-2.241-1.042s-0.791-1.695-0.791-3.001c0-2.678,1.011-4.017,3.032-4.017c0.99,0,1.75,0.347,2.281,1.042
		C286.332,112.168,286.598,113.16,286.598,114.449z M282.704,114.467c0,0.744,0.065,1.299,0.198,1.666
		c0.131,0.366,0.344,0.549,0.637,0.549c0.563,0,0.844-0.738,0.844-2.215c0-1.465-0.281-2.197-0.844-2.197
		c-0.293,0-0.506,0.18-0.637,0.541C282.77,113.17,282.704,113.723,282.704,114.467z"/>
	<path fill="#007F42" d="M292.53,113.403c0,1.541-0.228,2.977-0.682,4.307s-1.108,2.487-1.964,3.472h-2.18
		c0.791-1.078,1.403-2.287,1.837-3.625s0.65-2.729,0.65-4.17c0-1.43-0.211-2.821-0.633-4.175s-1.046-2.596-1.872-3.727h2.197
		c0.861,1.025,1.518,2.216,1.969,3.573S292.53,111.862,292.53,113.403z"/>
</g>
<g>
	<path fill="#54808E" d="M218.989,289.725c0,4.219-0.889,7.368-2.666,9.448s-4.468,3.12-8.071,3.12c-1.27,0-2.231-0.068-2.886-0.205
		v-3.633c0.82,0.205,1.68,0.308,2.578,0.308c1.514,0,2.759-0.222,3.735-0.667c0.977-0.443,1.724-1.143,2.241-2.094
		c0.518-0.953,0.815-2.264,0.894-3.934h-0.176c-0.566,0.918-1.221,1.563-1.963,1.934s-1.67,0.557-2.783,0.557
		c-1.865,0-3.335-0.598-4.409-1.795c-1.074-1.195-1.611-2.858-1.611-4.987c0-2.295,0.652-4.108,1.955-5.442
		c1.305-1.332,3.079-1.999,5.325-1.999c1.582,0,2.966,0.371,4.153,1.113c1.186,0.742,2.097,1.819,2.731,3.229
		C218.672,286.09,218.989,287.771,218.989,289.725z M211.24,283.968c-0.938,0-1.67,0.322-2.197,0.967s-0.791,1.572-0.791,2.783
		c0,1.035,0.239,1.855,0.718,2.461s1.206,0.908,2.183,0.908c0.918,0,1.704-0.3,2.358-0.901c0.654-0.6,0.981-1.291,0.981-2.072
		c0-1.162-0.306-2.144-0.915-2.944C212.966,284.368,212.188,283.968,211.24,283.968z"/>
	<path fill="#54808E" d="M228.543,297.069c0-1.553,0.227-3.006,0.682-4.359c0.453-1.354,1.108-2.54,1.964-3.56h2.197
		c-0.826,1.131-1.45,2.373-1.872,3.727s-0.633,2.745-0.633,4.175c0,1.436,0.215,2.823,0.646,4.161
		c0.43,1.34,1.044,2.551,1.841,3.635h-2.18c-0.861-0.996-1.518-2.159-1.969-3.489S228.543,298.599,228.543,297.069z"/>
	<path fill="#54808E" d="M243.625,302h-8.982v-1.89l3.226-3.261c0.955-0.979,1.579-1.656,1.872-2.035
		c0.293-0.377,0.504-0.728,0.633-1.05s0.193-0.656,0.193-1.002c0-0.516-0.143-0.899-0.426-1.151
		c-0.285-0.252-0.664-0.378-1.139-0.378c-0.498,0-0.981,0.114-1.45,0.343s-0.958,0.554-1.468,0.976l-1.477-1.749
		c0.633-0.539,1.157-0.92,1.573-1.143s0.87-0.395,1.362-0.514c0.492-0.121,1.043-0.181,1.652-0.181c0.803,0,1.512,0.146,2.127,0.439
		s1.093,0.703,1.433,1.23s0.51,1.131,0.51,1.811c0,0.592-0.104,1.147-0.312,1.665c-0.209,0.52-0.531,1.051-0.967,1.596
		c-0.438,0.545-1.206,1.321-2.308,2.329l-1.652,1.556v0.123h5.599V302z"/>
	<path fill="#54808E" d="M251.632,302h-2.716v-7.436l0.026-1.222l0.044-1.336c-0.451,0.451-0.765,0.747-0.94,0.888l-1.477,1.187
		l-1.31-1.635l4.14-3.296h2.232V302z"/>
	<path fill="#54808E" d="M261.133,292.982c0,1.348-0.261,2.359-0.782,3.037c-0.521,0.676-1.286,1.015-2.294,1.015
		c-0.967,0-1.714-0.347-2.241-1.042c-0.527-0.693-0.791-1.697-0.791-3.01c0-2.678,1.011-4.017,3.032-4.017
		c0.99,0,1.75,0.347,2.281,1.042C260.867,290.701,261.133,291.693,261.133,292.982z M257.239,293c0,0.744,0.065,1.299,0.198,1.666
		c0.131,0.365,0.344,0.549,0.637,0.549c0.563,0,0.844-0.738,0.844-2.215c0-1.465-0.281-2.197-0.844-2.197
		c-0.293,0-0.506,0.18-0.637,0.541C257.305,291.703,257.239,292.256,257.239,293z M267.18,289.15L260.052,302h-2.109l7.128-12.85
		H267.18z M270.133,298.115c0,1.342-0.261,2.352-0.782,3.027c-0.521,0.678-1.286,1.016-2.294,1.016
		c-0.967,0-1.714-0.348-2.241-1.041c-0.527-0.695-0.791-1.695-0.791-3.002c0-2.678,1.011-4.017,3.032-4.017
		c0.99,0,1.75,0.347,2.281,1.042C269.867,295.834,270.133,296.826,270.133,298.115z M266.239,298.133
		c0,0.744,0.065,1.299,0.198,1.666c0.131,0.365,0.344,0.549,0.637,0.549c0.563,0,0.844-0.738,0.844-2.215
		c0-1.465-0.281-2.197-0.844-2.197c-0.293,0-0.506,0.18-0.637,0.541C266.305,296.836,266.239,297.389,266.239,298.133z"/>
	<path fill="#54808E" d="M276.065,297.069c0,1.541-0.228,2.977-0.682,4.307s-1.108,2.487-1.964,3.472h-2.18
		c0.791-1.078,1.403-2.287,1.837-3.625c0.434-1.34,0.65-2.729,0.65-4.171c0-1.43-0.211-2.821-0.633-4.175s-1.046-2.596-1.872-3.727
		h2.197c0.861,1.025,1.518,2.217,1.969,3.572C275.84,294.08,276.065,295.528,276.065,297.069z"/>
</g>
<g>
	<path fill="#015B77" d="M211.363,351.162c2.07,0,3.718,0.58,4.943,1.742s1.839,2.754,1.839,4.775c0,2.393-0.737,4.234-2.212,5.523
		s-3.584,1.934-6.328,1.934c-2.383,0-4.307-0.387-5.771-1.158v-3.91c0.771,0.41,1.67,0.744,2.695,1.003s1.997,0.388,2.915,0.388
		c2.764,0,4.146-1.133,4.146-3.398c0-2.158-1.431-3.236-4.292-3.236c-0.518,0-1.089,0.051-1.714,0.153s-1.133,0.212-1.523,0.329
		l-1.802-0.967l0.806-10.912h11.616v3.838h-7.646l-0.396,4.203l0.513-0.102C209.747,351.23,210.484,351.162,211.363,351.162z"/>
	<path fill="#015B77" d="M228.007,359.912c0-1.553,0.227-3.006,0.682-4.359c0.453-1.354,1.108-2.539,1.964-3.559h2.197
		c-0.826,1.131-1.45,2.373-1.872,3.727s-0.633,2.744-0.633,4.174c0,1.436,0.215,2.823,0.646,4.162
		c0.43,1.339,1.044,2.551,1.841,3.635h-2.18c-0.861-0.996-1.518-2.16-1.969-3.49S228.007,361.441,228.007,359.912z"/>
	<path fill="#015B77" d="M240.821,364.844h-2.716v-7.436l0.026-1.223l0.044-1.336c-0.451,0.451-0.765,0.748-0.94,0.889l-1.477,1.186
		l-1.31-1.635l4.14-3.295h2.232V364.844z"/>
	<path fill="#015B77" d="M253.363,364.844h-8.982v-1.891l3.226-3.26c0.955-0.979,1.579-1.657,1.872-2.035s0.504-0.729,0.633-1.051
		s0.193-0.656,0.193-1.002c0-0.516-0.143-0.898-0.426-1.15c-0.285-0.252-0.664-0.379-1.139-0.379c-0.498,0-0.981,0.115-1.45,0.344
		s-0.958,0.553-1.468,0.975l-1.477-1.748c0.633-0.539,1.157-0.92,1.573-1.143s0.87-0.395,1.362-0.515s1.043-0.181,1.652-0.181
		c0.803,0,1.512,0.146,2.127,0.439s1.093,0.703,1.433,1.23s0.51,1.131,0.51,1.811c0,0.592-0.104,1.147-0.312,1.666
		c-0.209,0.519-0.531,1.051-0.967,1.596c-0.438,0.545-1.206,1.32-2.308,2.328l-1.652,1.557v0.123h5.599V364.844z"/>
	<path fill="#015B77" d="M260.597,355.826c0,1.348-0.261,2.359-0.782,3.036s-1.286,1.015-2.294,1.015
		c-0.967,0-1.714-0.347-2.241-1.041s-0.791-1.697-0.791-3.01c0-2.678,1.011-4.018,3.032-4.018c0.99,0,1.75,0.348,2.281,1.042
		C260.331,353.545,260.597,354.537,260.597,355.826z M256.703,355.844c0,0.744,0.065,1.299,0.198,1.665
		c0.131,0.366,0.344,0.55,0.637,0.55c0.563,0,0.844-0.738,0.844-2.215c0-1.465-0.281-2.197-0.844-2.197
		c-0.293,0-0.506,0.18-0.637,0.54C256.769,354.547,256.703,355.1,256.703,355.844z M266.644,351.994l-7.128,12.85h-2.109
		l7.128-12.85H266.644z M269.597,360.959c0,1.342-0.261,2.351-0.782,3.027s-1.286,1.016-2.294,1.016
		c-0.967,0-1.714-0.348-2.241-1.042s-0.791-1.694-0.791-3.001c0-2.678,1.011-4.018,3.032-4.018c0.99,0,1.75,0.348,2.281,1.042
		C269.331,358.678,269.597,359.67,269.597,360.959z M265.703,360.977c0,0.744,0.065,1.299,0.198,1.665
		c0.131,0.366,0.344,0.55,0.637,0.55c0.563,0,0.844-0.738,0.844-2.215c0-1.465-0.281-2.197-0.844-2.197
		c-0.293,0-0.506,0.18-0.637,0.54C265.769,359.68,265.703,360.232,265.703,360.977z"/>
	<path fill="#015B77" d="M275.529,359.912c0,1.541-0.228,2.977-0.682,4.307s-1.108,2.488-1.964,3.473h-2.18
		c0.791-1.078,1.403-2.287,1.837-3.626s0.65-2.729,0.65-4.171c0-1.43-0.211-2.82-0.633-4.174s-1.046-2.596-1.872-3.727h2.197
		c0.861,1.025,1.518,2.216,1.969,3.572S275.529,358.371,275.529,359.912z"/>
</g>
<g>
	<path fill="#98000D" d="M217.584,402.551c0,1.338-0.406,2.475-1.217,3.412s-1.947,1.582-3.412,1.934v0.088
		c1.729,0.215,3.037,0.74,3.926,1.575s1.332,1.96,1.332,3.376c0,2.061-0.746,3.665-2.24,4.813s-3.629,1.721-6.402,1.721
		c-2.324,0-4.385-0.385-6.182-1.156v-3.854c0.83,0.42,1.744,0.762,2.74,1.025s1.982,0.396,2.959,0.396
		c1.494,0,2.598-0.254,3.311-0.762s1.068-1.324,1.068-2.447c0-1.006-0.41-1.719-1.23-2.139s-2.129-0.629-3.926-0.629h-1.625v-3.473
		h1.654c1.66,0,2.873-0.217,3.641-0.651c0.766-0.435,1.15-1.179,1.15-2.233c0-1.621-1.016-2.432-3.047-2.432
		c-0.703,0-1.42,0.117-2.146,0.352c-0.729,0.234-1.535,0.639-2.424,1.215l-2.096-3.119c1.953-1.406,4.283-2.109,6.988-2.109
		c2.217,0,3.967,0.449,5.25,1.348C216.941,399.699,217.584,400.949,217.584,402.551z"/>
	<path fill="#98000D" d="M227.885,414.246c0-1.553,0.227-3.006,0.682-4.359c0.453-1.354,1.107-2.541,1.963-3.561h2.197
		c-0.826,1.131-1.449,2.373-1.871,3.727s-0.633,2.746-0.633,4.176c0,1.436,0.215,2.822,0.646,4.161
		c0.43,1.339,1.043,2.55,1.84,3.634h-2.18c-0.861-0.996-1.518-2.158-1.969-3.488S227.885,415.775,227.885,414.246z"/>
	<path fill="#98000D" d="M235.258,419.176l4.826-10.547h-6.338v-2.285h9.221v1.705l-4.861,11.127H235.258z"/>
	<path fill="#98000D" d="M250.199,410.158c0,1.348-0.26,2.36-0.781,3.037s-1.287,1.016-2.295,1.016c-0.967,0-1.713-0.348-2.24-1.042
		s-0.791-1.698-0.791-3.011c0-2.678,1.01-4.016,3.031-4.016c0.99,0,1.75,0.347,2.281,1.041
		C249.934,407.878,250.199,408.869,250.199,410.158z M246.307,410.176c0,0.744,0.064,1.3,0.197,1.666
		c0.131,0.366,0.344,0.549,0.637,0.549c0.563,0,0.844-0.738,0.844-2.215c0-1.465-0.281-2.197-0.844-2.197
		c-0.293,0-0.506,0.181-0.637,0.541C246.371,408.88,246.307,409.432,246.307,410.176z M256.246,406.326l-7.127,12.85h-2.109
		l7.127-12.85H256.246z M259.199,415.291c0,1.342-0.26,2.352-0.781,3.028s-1.287,1.015-2.295,1.015c-0.967,0-1.713-0.347-2.24-1.041
		s-0.791-1.695-0.791-3.002c0-2.678,1.01-4.016,3.031-4.016c0.99,0,1.75,0.347,2.281,1.041
		C258.934,413.011,259.199,414.002,259.199,415.291z M255.307,415.309c0,0.744,0.064,1.3,0.197,1.666
		c0.131,0.366,0.344,0.549,0.637,0.549c0.563,0,0.844-0.738,0.844-2.215c0-1.465-0.281-2.197-0.844-2.197
		c-0.293,0-0.506,0.181-0.637,0.541C255.371,414.013,255.307,414.564,255.307,415.309z"/>
	<path fill="#98000D" d="M265.133,414.246c0,1.541-0.229,2.977-0.682,4.307c-0.455,1.33-1.109,2.486-1.965,3.471h-2.18
		c0.791-1.078,1.404-2.286,1.838-3.625s0.65-2.729,0.65-4.17c0-1.43-0.211-2.822-0.633-4.176s-1.047-2.596-1.873-3.727h2.197
		c0.861,1.025,1.518,2.217,1.969,3.573S265.133,412.705,265.133,414.246z"/>
</g>
</svg>
