<?xml version="1.0" encoding="utf-8"?>
<!-- Generator: Adobe Illustrator 16.0.5, SVG Export Plug-In . SVG Version: 6.00 Build 0)  -->
<!DOCTYPE svg PUBLIC "-//W3C//DTD SVG 1.1//EN" "http://www.w3.org/Graphics/SVG/1.1/DTD/svg11.dtd">
<svg version="1.1" id="Layer_1" xmlns="http://www.w3.org/2000/svg" xmlns:xlink="http://www.w3.org/1999/xlink" x="0px" y="0px"
	 width="88px" height="28.735px" viewBox="-43.333 -3.719 88 28.735" enable-background="new -43.333 -3.719 88 28.735"
	 xml:space="preserve">
<rect x="3.721" y="3.65" transform="matrix(0.7071 -0.7071 0.7071 0.7071 -5.1571 12.5501)" fill="#607D8B" width="17.7" height="17.7"/>
<line fill="none" stroke="#FFFFFF" stroke-miterlimit="10" x1="25" y1="12.5" x2="0" y2="12.5"/>
<line fill="none" stroke="#FFFFFF" stroke-miterlimit="10" x1="-9.263" y1="12.5" x2="-34.263" y2="12.5"/>
<g>
	<path d="M-38.419,7.81l-3.296-9.495h-0.062c0.087,1.41,0.132,2.731,0.132,3.965v5.53h-1.688V-3.559h2.621l3.157,9.044h0.046
		l3.25-9.044h2.628V7.81h-1.788V2.188c0-0.565,0.014-1.302,0.042-2.21c0.029-0.906,0.054-1.456,0.075-1.646h-0.062l-3.415,9.479
		H-38.419z"/>
</g>
<g>
	<path d="M-0.375,7.969H-2.27V-3.719h6.596v1.616h-4.701v3.652H4.03v1.623h-4.405V7.969z"/>
</g>
<rect x="-29.965" y="3.65" transform="matrix(0.7071 -0.7071 0.7071 0.7071 -15.0235 -11.2695)" fill="#607D8B" width="17.7" height="17.7"/>
<line fill="none" stroke="#FFFFFF" stroke-miterlimit="10" x1="-8.834" y1="12.5" x2="-33.834" y2="12.5"/>
</svg>
