<?xml version="1.0" encoding="utf-8"?>
<!-- Generator: Adobe Illustrator 19.2.0, SVG Export Plug-In . SVG Version: 6.00 Build 0)  -->
<svg version="1.1" id="Layer_1" xmlns="http://www.w3.org/2000/svg" xmlns:xlink="http://www.w3.org/1999/xlink" x="0px" y="0px"
	 viewBox="0 0 30 30" style="enable-background:new 0 0 30 30;" xml:space="preserve">
<style type="text/css">
	.st0{fill:#FFFFFF;}
	.st1{fill:#A6A8AB;}
</style>
<g>
	<g id="XMLID_45_">
		<path id="XMLID_51_" class="st0" d="M14.5,2.7C7.4,2.7,1.6,8.5,1.6,15.7c0,3,1,5.8,2.7,8H3.1v3.6H7v-1.1c2.1,1.5,4.7,2.4,7.5,2.4
			c7.1,0,12.9-5.8,12.9-12.9S21.6,2.7,14.5,2.7z"/>
	</g>
	<g id="XMLID_44_">
		<path id="XMLID_50_" class="st1" d="M22.3,19.7C22.3,19.7,22.3,19.6,22.3,19.7c0-0.1,0-0.3,0.1-0.5c0-0.1,0-0.2,0-0.3
			c0-0.3-0.1-0.5-0.3-0.6c-0.2-0.1-0.5-0.2-0.7-0.3c-0.5-0.3-1-0.5-1.6-0.8c-0.2-0.1-0.5-0.3-0.8-0.3c-0.1,0-0.1,0-0.2,0
			c0,0-0.1,0.1-0.1,0.1c-0.2,0.2-0.4,0.4-0.6,0.7c-0.2,0.2-0.3,0.4-0.5,0.7c-0.1,0.2-0.3,0.3-0.5,0.3c-0.3,0-0.5-0.1-0.7-0.2
			c-0.2-0.1-0.4-0.2-0.6-0.4c-0.3-0.1-0.5-0.3-0.9-0.6c-0.9-0.6-1.4-1.2-1.6-1.4c0,0-0.2-0.2-0.4-0.5c-0.3-0.3-0.5-0.6-0.7-0.9
			c-0.1-0.1-0.1-0.2-0.2-0.4c0,0,0-0.1-0.1-0.2c0-0.1,0-0.1,0-0.1c0-0.1,0-0.1,0-0.1c0-0.1,0.1-0.1,0.1-0.1c0,0,0,0,0.1-0.1
			c0.1-0.1,0.2-0.2,0.3-0.3c0.2-0.2,0.4-0.4,0.5-0.7c0-0.1,0.1-0.2,0.1-0.3c0-0.2,0-0.4-0.1-0.5c-0.1-0.3-0.3-0.6-0.4-0.9
			c-0.2-0.5-0.4-1-0.6-1.5c-0.1-0.2-0.2-0.5-0.4-0.6c-0.2-0.1-0.5-0.1-0.7-0.1c-0.3,0-0.5,0-0.8,0.1C9.7,8.8,9.5,9,9.3,9.2
			c0,0-0.1,0.1-0.1,0.1C9,9.6,8.9,9.8,8.8,9.9c-0.3,0.5-0.4,1-0.4,1c-0.1,0.3-0.1,0.7-0.1,1.2c0,0.6,0.2,1,0.3,1.4
			c0,0.1,0.2,0.5,0.5,1c0.2,0.3,0.4,0.7,1.1,1.6c0.4,0.5,0.7,0.9,1,1.3c1.2,1.4,2.4,2.2,2.7,2.4c0,0,2.3,1.5,4.6,1.8
			c0.5,0.1,0.9,0,1.1,0c0.8-0.1,1.3-0.4,1.5-0.6c0.3-0.2,0.6-0.4,0.8-0.8c0,0,0,0,0-0.1C22.1,20.1,22.2,19.9,22.3,19.7z"/>
	</g>
	<g id="XMLID_41_">
		<path id="XMLID_137_" class="st1" d="M27.9,9.8c-0.7-1.7-1.7-3.2-3.1-4.6c-1.3-1.3-2.8-2.4-4.5-3.1C18.5,1.4,16.7,1,14.7,1
			c-1.9,0-3.8,0.4-5.6,1.1C7.5,2.8,6,3.9,4.7,5.2C3.3,6.5,2.3,8,1.6,9.8c-0.7,1.8-1.1,3.6-1.1,5.6c0,2.3,0.6,4.6,1.6,6.6
			c0.1,0.2,0.3,0.5,0.4,0.7L0,30.3l7.8-2.5c2.1,1.2,4.5,1.8,6.9,1.8c1.9,0,3.8-0.4,5.6-1.1c1.7-0.7,3.2-1.8,4.5-3.1
			c1.3-1.3,2.3-2.8,3.1-4.6c0.7-1.8,1.1-3.6,1.1-5.6C29,13.4,28.6,11.5,27.9,9.8z M14.7,27.5c-2.5,0-4.8-0.7-6.8-2.1l-2.5,0.8
			c0,0,0,0,0,0l-1.9,0.6l0,0l0,0L5,22.5c-0.3-0.5-0.7-1-0.9-1.5c-0.9-1.7-1.4-3.6-1.4-5.6c0-6.7,5.4-12.1,12.1-12.1
			c6.7,0,12.1,5.4,12.1,12.1S21.4,27.5,14.7,27.5z"/>
	</g>
</g>
<g>
</g>
<g>
</g>
<g>
</g>
<g>
</g>
<g>
</g>
<g>
</g>
</svg>
