<?xml version="1.0" encoding="utf-8"?>
<!-- Generator: Adobe Illustrator 16.0.3, SVG Export Plug-In . SVG Version: 6.00 Build 0)  -->
<!DOCTYPE svg PUBLIC "-//W3C//DTD SVG 1.1//EN" "http://www.w3.org/Graphics/SVG/1.1/DTD/svg11.dtd">
<svg version="1.1" id="Layer_1" xmlns="http://www.w3.org/2000/svg" xmlns:xlink="http://www.w3.org/1999/xlink" x="0px" y="0px"
	 width="300px" height="100px" viewBox="0 0 300 100" enable-background="new 0 0 300 100" xml:space="preserve">
<g>
	<path fill="#206095" d="M10.132,35.96c0.6,0.36,2.064,0.96,3.552,0.96c2.256,0,3.168-1.272,3.144-2.496
		c0-1.848-1.728-2.64-3.528-2.64h-1.368v-2.16h1.32c1.368,0,3.096-0.624,3.096-2.184c0-1.056-0.792-1.944-2.496-1.944
		c-1.272,0-2.544,0.552-3.192,0.984l-0.672-2.136c0.888-0.625,2.616-1.2,4.488-1.2c3.216,0,4.873,1.776,4.873,3.816
		c0,1.632-0.96,2.976-2.88,3.648v0.048c1.896,0.336,3.432,1.776,3.432,3.888c0,2.64-2.208,4.729-6.072,4.729
		c-1.896,0-3.528-0.528-4.369-1.08L10.132,35.96z"/>
	<path fill="#206095" d="M33.413,31.112c0,5.016-1.968,8.161-5.688,8.161c-3.6,0-5.521-3.265-5.544-8.017
		c0-4.849,2.064-8.113,5.713-8.113C31.661,23.143,33.413,26.503,33.413,31.112z M25.156,31.256c-0.024,3.792,1.032,5.76,2.664,5.76
		c1.728,0,2.64-2.112,2.64-5.856c0-3.625-0.864-5.761-2.64-5.761C26.236,25.399,25.132,27.343,25.156,31.256z"/>
	<path fill="#206095" d="M34.419,41.913c0.648-1.824,1.296-4.344,1.608-6.336l3.096-0.24c-0.672,2.256-1.752,4.849-2.688,6.385
		L34.419,41.913z"/>
	<path fill="#206095" d="M50.429,25.495c-0.432,0-0.912,0-1.512,0.072c-3.264,0.384-4.849,2.4-5.232,4.561h0.072
		c0.768-0.888,1.944-1.512,3.504-1.512c2.688,0,4.776,1.92,4.776,5.088c0,2.977-2.184,5.569-5.497,5.569
		c-3.792,0-5.88-2.88-5.88-6.721c0-3,1.08-5.449,2.712-7.009c1.44-1.344,3.312-2.112,5.544-2.304
		c0.648-0.072,1.128-0.072,1.488-0.048L50.429,25.495z M49.037,33.872c0-1.8-0.984-3.097-2.712-3.097
		c-1.104,0-2.088,0.672-2.544,1.608c-0.12,0.24-0.192,0.528-0.192,0.936c0.048,2.064,1.032,3.744,2.928,3.744
		C48.052,37.064,49.037,35.744,49.037,33.872z"/>
	<path fill="#206095" d="M53.788,39.008v-1.8l1.848-1.704c3.672-3.408,5.4-5.28,5.424-7.345c0-1.392-0.744-2.616-2.784-2.616
		c-1.368,0-2.544,0.696-3.336,1.296l-0.864-2.088c1.128-0.912,2.832-1.608,4.8-1.608c3.456,0,5.136,2.184,5.136,4.729
		c0,2.736-1.968,4.944-4.68,7.464l-1.368,1.176v0.048h6.409v2.448H53.788z"/>
	<path fill="#206095" d="M77.668,31.112c0,5.016-1.968,8.161-5.688,8.161c-3.6,0-5.521-3.265-5.544-8.017
		c0-4.849,2.064-8.113,5.712-8.113C75.916,23.143,77.668,26.503,77.668,31.112z M69.412,31.256c-0.024,3.792,1.032,5.76,2.664,5.76
		c1.728,0,2.64-2.112,2.64-5.856c0-3.625-0.864-5.761-2.64-5.761C70.492,25.399,69.388,27.343,69.412,31.256z"/>
</g>
<g>
	<path fill="#206095" d="M29.616,98.055v-1.188l1.518-1.475c3.653-3.478,5.303-5.324,5.325-7.48c0-1.453-0.704-2.795-2.838-2.795
		c-1.298,0-2.376,0.66-3.036,1.211l-0.616-1.365c0.99-0.836,2.398-1.451,4.048-1.451c3.081,0,4.379,2.111,4.379,4.158
		c0,2.641-1.915,4.773-4.929,7.68l-1.145,1.055v0.046h6.425v1.604H29.616z"/>
	<path fill="#206095" d="M50.407,90.75c0,4.863-1.804,7.547-4.973,7.547c-2.794,0-4.687-2.617-4.731-7.35
		c0-4.797,2.068-7.436,4.973-7.436C48.69,83.512,50.407,86.195,50.407,90.75z M42.64,90.971c0,3.719,1.144,5.83,2.904,5.83
		c1.98,0,2.926-2.311,2.926-5.963c0-3.52-0.902-5.83-2.904-5.83C43.872,85.008,42.64,87.076,42.64,90.971z"/>
	<path fill="#206095" d="M56.39,85.557h-0.044L53.86,86.9l-0.375-1.475l3.125-1.673h1.65v14.302h-1.87V85.557z"/>
	<path fill="#206095" d="M67.675,85.557h-0.044L65.145,86.9l-0.374-1.475l3.124-1.673h1.65v14.302h-1.87V85.557z"/>
</g>
<g>
	<path fill="#206095" d="M228.635,98.055v-1.188l1.52-1.475c3.652-3.478,5.303-5.324,5.324-7.48c0-1.453-0.705-2.795-2.838-2.795
		c-1.299,0-2.377,0.66-3.037,1.211l-0.615-1.365c0.99-0.836,2.397-1.451,4.048-1.451c3.081,0,4.379,2.111,4.379,4.158
		c0,2.641-1.914,4.773-4.929,7.68l-1.145,1.055v0.046h6.426v1.604H228.635z"/>
	<path fill="#206095" d="M249.426,90.75c0,4.863-1.804,7.547-4.973,7.547c-2.794,0-4.688-2.617-4.73-7.35
		c0-4.797,2.068-7.436,4.973-7.436C247.71,83.512,249.426,86.195,249.426,90.75z M241.659,90.971c0,3.719,1.144,5.83,2.903,5.83
		c1.98,0,2.928-2.311,2.928-5.963c0-3.52-0.902-5.83-2.904-5.83C242.891,85.008,241.659,87.076,241.659,90.971z"/>
	<path fill="#206095" d="M255.409,85.557h-0.044l-2.486,1.344l-0.375-1.475l3.125-1.673h1.65v14.302h-1.87V85.557z"/>
	<path fill="#206095" d="M263.614,96.691c0.418,0.043,0.901,0,1.562-0.066c1.123-0.154,2.18-0.615,2.993-1.387
		c0.946-0.857,1.628-2.111,1.892-3.807h-0.064c-0.792,0.969-1.938,1.541-3.366,1.541c-2.573,0-4.225-1.938-4.225-4.379
		c0-2.707,1.958-5.082,4.885-5.082c2.926,0,4.729,2.375,4.729,6.027c0,3.146-1.057,5.348-2.465,6.711
		c-1.1,1.078-2.617,1.738-4.158,1.914c-0.703,0.109-1.319,0.132-1.781,0.109L263.614,96.691L263.614,96.691z M264.318,88.462
		c0,1.782,1.078,3.036,2.75,3.036c1.299,0,2.311-0.639,2.815-1.496c0.11-0.176,0.177-0.396,0.177-0.704
		c0-2.442-0.901-4.313-2.927-4.313C265.484,84.984,264.318,86.438,264.318,88.462z"/>
</g>
<polyline fill="none" stroke="#206095" stroke-width="4" stroke-linecap="round" stroke-linejoin="round" stroke-miterlimit="10" points="
	49.752,48.897 73.22,52.145 97.197,62.705 120.665,64.33 144.133,63.518 167.6,56.207 191.578,40.773 215.046,25.34 226.779,19.653 
	238.513,17.216 250.247,12.343 "/>
<g id="balls">
	<circle fill="#FF9933" cx="50.5" cy="49" r="5"/>
	<circle fill="#FF9933" cx="250.5" cy="13" r="5"/>
</g>
<g>
	<path fill="#206095" d="M234.656,41.594v-3.96H227.6v-1.92l6.36-9.721h3.479v9.409h2.017v2.232h-2.017v3.96H234.656z
		 M234.656,35.402v-4.249c0-0.888,0.023-1.8,0.096-2.712h-0.096c-0.48,0.984-0.889,1.776-1.369,2.641l-2.855,4.272l-0.024,0.048
		H234.656z"/>
	<path fill="#206095" d="M250.928,28.441h-6l-0.457,3.121c0.361-0.048,0.673-0.072,1.129-0.072c1.367,0,2.736,0.312,3.792,1.008
		c1.177,0.744,2.04,2.064,2.04,3.96c0,2.976-2.473,5.4-6.313,5.4c-1.8,0-3.313-0.456-4.128-0.912l0.6-2.232
		c0.673,0.36,2.017,0.816,3.433,0.816c1.729,0,3.385-0.984,3.385-2.856c0-1.776-1.32-2.952-4.441-2.952
		c-0.863,0-1.512,0.048-2.136,0.144l1.032-7.873h8.064V28.441z"/>
	<path fill="#206095" d="M253.039,44.499c0.647-1.824,1.296-4.344,1.607-6.336l3.097-0.24c-0.672,2.256-1.753,4.849-2.688,6.385
		L253.039,44.499z"/>
	<path fill="#206095" d="M269.048,28.081c-0.433,0-0.912,0-1.513,0.072c-3.264,0.384-4.848,2.4-5.232,4.561h0.072
		c0.768-0.888,1.944-1.512,3.504-1.512c2.688,0,4.777,1.92,4.777,5.088c0,2.977-2.185,5.569-5.497,5.569
		c-3.792,0-5.88-2.88-5.88-6.721c0-3,1.08-5.449,2.712-7.009c1.44-1.344,3.312-2.112,5.544-2.304
		c0.648-0.072,1.129-0.072,1.488-0.048L269.048,28.081z M267.656,36.458c0-1.8-0.984-3.097-2.713-3.097
		c-1.104,0-2.088,0.672-2.545,1.608c-0.119,0.24-0.191,0.528-0.191,0.936c0.048,2.064,1.032,3.744,2.928,3.744
		C266.672,39.65,267.656,38.33,267.656,36.458z"/>
	<path fill="#206095" d="M272.406,41.594v-1.8l1.849-1.704c3.673-3.408,5.4-5.28,5.425-7.345c0-1.392-0.744-2.616-2.785-2.616
		c-1.367,0-2.544,0.696-3.336,1.296l-0.863-2.088c1.127-0.912,2.832-1.608,4.8-1.608c3.456,0,5.136,2.184,5.136,4.729
		c0,2.736-1.968,4.944-4.68,7.464l-1.368,1.176v0.048h6.409v2.448H272.406z"/>
	<path fill="#206095" d="M296,25.993v1.896l-6.602,13.705h-3.12l6.577-13.105v-0.048h-7.346v-2.448H296z"/>
</g>
</svg>
