<?xml version="1.0" encoding="utf-8"?>
<!-- Generator: Adobe Illustrator 16.0.3, SVG Export Plug-In . SVG Version: 6.00 Build 0)  -->
<!DOCTYPE svg PUBLIC "-//W3C//DTD SVG 1.1//EN" "http://www.w3.org/Graphics/SVG/1.1/DTD/svg11.dtd">
<svg version="1.1" id="Layer_1" xmlns="http://www.w3.org/2000/svg" xmlns:xlink="http://www.w3.org/1999/xlink" x="0px" y="0px"
	 width="300px" height="100px" viewBox="0 0 300 100" enable-background="new 0 0 300 100" xml:space="preserve">
<g>
	<path fill="#206095" d="M12.132,37.96c0.6,0.36,2.064,0.96,3.552,0.96c2.256,0,3.168-1.272,3.144-2.496
		c0-1.848-1.728-2.64-3.528-2.64h-1.368v-2.16h1.32c1.368,0,3.096-0.624,3.096-2.184c0-1.056-0.792-1.944-2.496-1.944
		c-1.272,0-2.544,0.552-3.192,0.984l-0.672-2.136c0.888-0.625,2.616-1.2,4.488-1.2c3.216,0,4.873,1.776,4.873,3.816
		c0,1.632-0.96,2.976-2.88,3.648v0.048c1.896,0.336,3.432,1.776,3.432,3.888c0,2.64-2.208,4.729-6.072,4.729
		c-1.896,0-3.528-0.528-4.369-1.08L12.132,37.96z"/>
	<path fill="#206095" d="M23.556,43.913c0.648-1.824,1.296-4.344,1.608-6.336l3.096-0.24c-0.672,2.256-1.752,4.849-2.688,6.385
		L23.556,43.913z"/>
	<path fill="#206095" d="M30.66,37.96c0.6,0.36,2.064,0.96,3.552,0.96c2.256,0,3.168-1.272,3.144-2.496
		c0-1.848-1.728-2.64-3.528-2.64H32.46v-2.16h1.32c1.368,0,3.096-0.624,3.096-2.184c0-1.056-0.792-1.944-2.496-1.944
		c-1.272,0-2.544,0.552-3.192,0.984l-0.672-2.136c0.888-0.625,2.616-1.2,4.488-1.2c3.216,0,4.873,1.776,4.873,3.816
		c0,1.632-0.96,2.976-2.88,3.648v0.048c1.896,0.336,3.432,1.776,3.432,3.888c0,2.64-2.208,4.729-6.072,4.729
		c-1.896,0-3.528-0.528-4.369-1.08L30.66,37.96z"/>
	<path fill="#206095" d="M44.124,38.896c0.456,0.048,0.912,0.024,1.632-0.048c1.152-0.096,2.304-0.504,3.168-1.2
		c1.008-0.816,1.704-1.992,1.992-3.456l-0.048-0.024c-0.792,0.888-1.896,1.393-3.408,1.393c-2.712,0-4.729-1.968-4.729-4.849
		c0-2.976,2.304-5.568,5.641-5.568c3.625,0,5.568,2.856,5.568,6.648c0,3.336-1.104,5.712-2.712,7.249
		c-1.368,1.272-3.24,1.992-5.329,2.136c-0.672,0.072-1.344,0.072-1.776,0.048L44.124,38.896L44.124,38.896z M45.66,30.543
		c0.024,1.608,0.936,2.856,2.568,2.856c1.2,0,2.064-0.552,2.521-1.296c0.096-0.192,0.168-0.432,0.168-0.84
		c0.024-2.112-0.768-3.937-2.688-3.937C46.74,27.327,45.66,28.647,45.66,30.543z"/>
	<path fill="#206095" d="M65.7,27.855h-6l-0.456,3.121c0.36-0.048,0.672-0.072,1.128-0.072c1.368,0,2.736,0.312,3.792,1.008
		c1.176,0.744,2.041,2.064,2.041,3.96c0,2.976-2.473,5.4-6.313,5.4c-1.8,0-3.312-0.456-4.128-0.912l0.6-2.232
		c0.672,0.36,2.017,0.816,3.433,0.816c1.728,0,3.384-0.984,3.384-2.856c0-1.776-1.32-2.952-4.44-2.952
		c-0.864,0-1.512,0.048-2.136,0.144l1.032-7.873H65.7V27.855z"/>
	<path fill="#206095" d="M67.811,43.913c0.648-1.824,1.296-4.344,1.608-6.336l3.096-0.24c-0.672,2.256-1.752,4.849-2.688,6.385
		L67.811,43.913z"/>
	<path fill="#206095" d="M85.331,33.112c0,5.016-1.968,8.161-5.688,8.161c-3.6,0-5.521-3.265-5.544-8.017
		c0-4.849,2.064-8.113,5.712-8.113C83.579,25.143,85.331,28.503,85.331,33.112z M77.075,33.256c-0.024,3.792,1.032,5.76,2.664,5.76
		c1.728,0,2.64-2.112,2.64-5.856c0-3.625-0.864-5.761-2.64-5.761C78.155,27.399,77.051,29.343,77.075,33.256z"/>
	<path fill="#206095" d="M98.195,33.112c0,5.016-1.968,8.161-5.688,8.161c-3.6,0-5.521-3.265-5.544-8.017
		c0-4.849,2.064-8.113,5.713-8.113C96.443,25.143,98.195,28.503,98.195,33.112z M89.938,33.256c-0.024,3.792,1.032,5.76,2.664,5.76
		c1.728,0,2.64-2.112,2.64-5.856c0-3.625-0.864-5.761-2.64-5.761C91.019,27.399,89.915,29.343,89.938,33.256z"/>
	<path fill="#206095" d="M111.059,33.112c0,5.016-1.968,8.161-5.688,8.161c-3.6,0-5.521-3.265-5.544-8.017
		c0-4.849,2.064-8.113,5.712-8.113C109.307,25.143,111.059,28.503,111.059,33.112z M102.802,33.256
		c-0.024,3.792,1.032,5.76,2.664,5.76c1.728,0,2.64-2.112,2.64-5.856c0-3.625-0.864-5.761-2.64-5.761
		C103.882,27.399,102.778,29.343,102.802,33.256z"/>
</g>
<g>
	<path fill="#206095" d="M64.616,98.055v-1.188l1.518-1.475c3.653-3.479,5.303-5.324,5.325-7.48c0-1.453-0.704-2.795-2.838-2.795
		c-1.298,0-2.376,0.66-3.036,1.211l-0.616-1.365c0.99-0.836,2.398-1.451,4.048-1.451c3.081,0,4.379,2.111,4.379,4.158
		c0,2.641-1.915,4.773-4.929,7.68l-1.145,1.055v0.047h6.425v1.604H64.616z"/>
	<path fill="#206095" d="M85.407,90.75c0,4.863-1.804,7.547-4.973,7.547c-2.794,0-4.687-2.617-4.731-7.35
		c0-4.797,2.068-7.436,4.973-7.436C83.69,83.512,85.407,86.195,85.407,90.75z M77.64,90.971c0,3.719,1.144,5.83,2.904,5.83
		c1.98,0,2.926-2.311,2.926-5.963c0-3.52-0.902-5.83-2.904-5.83C78.872,85.008,77.64,87.076,77.64,90.971z"/>
	<path fill="#206095" d="M91.39,85.557h-0.044L88.86,86.9l-0.375-1.476l3.125-1.673h1.65v14.303h-1.87V85.557z"/>
	<path fill="#206095" d="M107.758,83.753v1.276l-6.227,13.025h-2.002l6.205-12.652v-0.043h-6.997v-1.606H107.758z"/>
</g>
<g>
	<path fill="#206095" d="M228.635,98.055v-1.188l1.52-1.475c3.652-3.479,5.304-5.324,5.324-7.48c0-1.453-0.705-2.795-2.838-2.795
		c-1.299,0-2.377,0.66-3.037,1.211l-0.615-1.365c0.99-0.836,2.398-1.451,4.049-1.451c3.081,0,4.379,2.111,4.379,4.158
		c0,2.641-1.914,4.773-4.93,7.68l-1.145,1.055v0.047h6.426v1.604H228.635z"/>
	<path fill="#206095" d="M249.426,90.75c0,4.863-1.804,7.547-4.973,7.547c-2.794,0-4.688-2.617-4.73-7.35
		c0-4.797,2.068-7.436,4.973-7.436C247.71,83.512,249.426,86.195,249.426,90.75z M241.659,90.971c0,3.719,1.144,5.83,2.903,5.83
		c1.979,0,2.928-2.311,2.928-5.963c0-3.52-0.902-5.83-2.904-5.83C242.891,85.008,241.659,87.076,241.659,90.971z"/>
	<path fill="#206095" d="M255.409,85.557h-0.044l-2.486,1.344l-0.375-1.475l3.125-1.673h1.65v14.302h-1.87V85.557z"/>
	<path fill="#206095" d="M263.614,96.691c0.418,0.043,0.901,0,1.562-0.066c1.123-0.154,2.18-0.615,2.993-1.387
		c0.946-0.857,1.628-2.111,1.892-3.807h-0.063c-0.792,0.969-1.938,1.541-3.366,1.541c-2.572,0-4.225-1.938-4.225-4.379
		c0-2.707,1.958-5.082,4.885-5.082c2.926,0,4.729,2.375,4.729,6.026c0,3.146-1.057,5.349-2.465,6.711
		c-1.1,1.078-2.617,1.737-4.158,1.914c-0.703,0.108-1.318,0.132-1.78,0.108L263.614,96.691L263.614,96.691z M264.318,88.462
		c0,1.782,1.078,3.036,2.75,3.036c1.299,0,2.311-0.639,2.814-1.496c0.11-0.176,0.178-0.396,0.178-0.704
		c0-2.442-0.901-4.313-2.928-4.313C265.484,84.984,264.318,86.438,264.318,88.462z"/>
</g>
<polyline fill="none" stroke="#206095" stroke-width="4" stroke-linecap="round" stroke-linejoin="round" stroke-miterlimit="10" points="
	87.466,51.297 152.492,64.277 185.434,27.807 217.945,12.972 250.458,22.244 "/>
<circle fill="#FF9933" cx="87.5" cy="51" r="5"/>
<circle fill="#FF9933" cx="250.5" cy="23" r="5"/>
<path fill="#206095" d="M197.026,49.432c0.602,0.359,2.064,0.96,3.553,0.96c2.256,0,3.168-1.272,3.146-2.496
	c0-1.849-1.729-2.64-3.528-2.64h-1.367v-2.16h1.319c1.367,0,3.097-0.625,3.097-2.185c0-1.056-0.793-1.944-2.496-1.944
	c-1.271,0-2.545,0.553-3.192,0.984l-0.672-2.136c0.888-0.625,2.616-1.2,4.487-1.2c3.217,0,4.873,1.776,4.873,3.817
	c0,1.631-0.961,2.976-2.881,3.647v0.048c1.896,0.336,3.434,1.776,3.434,3.889c0,2.641-2.209,4.729-6.072,4.729
	c-1.896,0-3.529-0.528-4.369-1.08L197.026,49.432z"/>
<path fill="#206095" d="M208.45,55.385c0.648-1.824,1.297-4.345,1.608-6.336l3.097-0.24c-0.673,2.256-1.752,4.849-2.688,6.385
	L208.45,55.385z"/>
<path fill="#206095" d="M225.683,36.879v1.897l-6.6,13.704h-3.121l6.576-13.104v-0.049h-7.344v-2.448H225.683z"/>
<path fill="#206095" d="M232.45,39.543h-0.047l-2.856,1.439l-0.505-2.231l3.793-1.873h2.472V52.48h-2.854V39.543H232.45z"/>
<path fill="#206095" d="M251.698,44.584c0,5.016-1.968,8.16-5.688,8.16c-3.602,0-5.521-3.265-5.544-8.017
	c0-4.849,2.063-8.113,5.712-8.113C249.946,36.615,251.698,39.975,251.698,44.584z M243.442,44.728
	c-0.023,3.792,1.031,5.761,2.664,5.761c1.729,0,2.641-2.113,2.641-5.857c0-3.624-0.864-5.76-2.641-5.76
	C244.522,38.871,243.417,40.815,243.442,44.728z"/>
<path fill="#206095" d="M252.704,55.385c0.647-1.824,1.297-4.345,1.608-6.336l3.097-0.24c-0.672,2.256-1.752,4.849-2.688,6.385
	L252.704,55.385z"/>
<path fill="#206095" d="M270.226,44.584c0,5.016-1.968,8.16-5.688,8.16c-3.602,0-5.521-3.265-5.545-8.017
	c0-4.849,2.064-8.113,5.713-8.113C268.474,36.615,270.226,39.975,270.226,44.584z M261.97,44.728
	c-0.023,3.792,1.031,5.761,2.664,5.761c1.729,0,2.64-2.113,2.64-5.857c0-3.624-0.864-5.76-2.64-5.76
	C263.05,38.871,261.946,40.815,261.97,44.728z"/>
<path fill="#206095" d="M283.089,44.584c0,5.016-1.967,8.16-5.688,8.16c-3.602,0-5.521-3.265-5.546-8.017
	c0-4.849,2.063-8.113,5.714-8.113C281.337,36.615,283.089,39.975,283.089,44.584z M274.833,44.728
	c-0.023,3.792,1.031,5.761,2.664,5.761c1.729,0,2.641-2.113,2.641-5.857c0-3.624-0.864-5.76-2.641-5.76
	C275.913,38.871,274.81,40.815,274.833,44.728z"/>
<path fill="#206095" d="M296.089,44.584c0,5.016-1.967,8.16-5.688,8.16c-3.602,0-5.521-3.265-5.546-8.017
	c0-4.849,2.063-8.113,5.714-8.113C294.337,36.615,296.089,39.975,296.089,44.584z M287.833,44.728
	c-0.023,3.792,1.031,5.761,2.664,5.761c1.729,0,2.641-2.113,2.641-5.857c0-3.624-0.864-5.76-2.641-5.76
	C288.913,38.871,287.81,40.815,287.833,44.728z"/>
</svg>
