<?xml version="1.0" encoding="utf-8"?>
<!-- Generator: Adobe Illustrator 16.0.3, SVG Export Plug-In . SVG Version: 6.00 Build 0)  -->
<!DOCTYPE svg PUBLIC "-//W3C//DTD SVG 1.1//EN" "http://www.w3.org/Graphics/SVG/1.1/DTD/svg11.dtd">
<svg version="1.1" id="Layer_1" xmlns="http://www.w3.org/2000/svg" xmlns:xlink="http://www.w3.org/1999/xlink" x="0px" y="0px"
	 width="300px" height="100px" viewBox="0 0 300 100" enable-background="new 0 0 300 100" xml:space="preserve">
<g>
	<path fill="#206095" d="M3.532,41.008v-1.8l1.848-1.704c3.672-3.408,5.4-5.28,5.424-7.345c0-1.392-0.744-2.616-2.784-2.616
		c-1.368,0-2.544,0.696-3.336,1.296L3.82,26.751c1.128-0.912,2.832-1.608,4.8-1.608c3.456,0,5.136,2.184,5.136,4.729
		c0,2.736-1.968,4.944-4.68,7.464l-1.368,1.176v0.048h6.409v2.448H3.532z"/>
	<path fill="#206095" d="M15.556,43.913c0.648-1.824,1.296-4.344,1.608-6.336l3.096-0.24c-0.672,2.256-1.752,4.849-2.688,6.385
		L15.556,43.913z"/>
	<path fill="#206095" d="M33.076,33.112c0,5.016-1.968,8.161-5.688,8.161c-3.6,0-5.521-3.265-5.544-8.017
		c0-4.849,2.064-8.113,5.712-8.113C31.324,25.143,33.076,28.503,33.076,33.112z M24.82,33.256c-0.024,3.792,1.032,5.76,2.664,5.76
		c1.728,0,2.64-2.112,2.64-5.856c0-3.625-0.864-5.761-2.64-5.761C25.9,27.399,24.796,29.343,24.82,33.256z"/>
	<path fill="#206095" d="M44.428,27.495c-0.432,0-0.912,0-1.512,0.072c-3.265,0.384-4.849,2.4-5.232,4.561h0.072
		c0.768-0.888,1.944-1.512,3.504-1.512c2.688,0,4.776,1.92,4.776,5.088c0,2.977-2.184,5.569-5.497,5.569
		c-3.792,0-5.88-2.88-5.88-6.721c0-3,1.08-5.449,2.712-7.009c1.44-1.344,3.312-2.112,5.544-2.304
		c0.648-0.072,1.128-0.072,1.488-0.048L44.428,27.495z M43.036,35.872c0-1.8-0.984-3.097-2.712-3.097
		c-1.104,0-2.088,0.672-2.544,1.608c-0.12,0.24-0.192,0.528-0.192,0.936c0.048,2.064,1.032,3.744,2.928,3.744
		C42.052,39.064,43.036,37.744,43.036,35.872z"/>
	<path fill="#206095" d="M48.387,37.96c0.6,0.36,2.064,0.96,3.552,0.96c2.256,0,3.168-1.272,3.144-2.496
		c0-1.848-1.728-2.64-3.528-2.64h-1.368v-2.16h1.32c1.368,0,3.096-0.624,3.096-2.184c0-1.056-0.792-1.944-2.496-1.944
		c-1.272,0-2.544,0.552-3.192,0.984l-0.672-2.136c0.888-0.625,2.616-1.2,4.488-1.2c3.216,0,4.873,1.776,4.873,3.816
		c0,1.632-0.96,2.976-2.88,3.648v0.048c1.896,0.336,3.432,1.776,3.432,3.888c0,2.64-2.208,4.729-6.072,4.729
		c-1.896,0-3.528-0.528-4.369-1.08L48.387,37.96z"/>
	<path fill="#206095" d="M59.811,43.913c0.648-1.824,1.296-4.344,1.608-6.336l3.096-0.24c-0.672,2.256-1.752,4.849-2.688,6.385
		L59.811,43.913z"/>
	<path fill="#206095" d="M77.331,33.112c0,5.016-1.968,8.161-5.688,8.161c-3.6,0-5.521-3.265-5.544-8.017
		c0-4.849,2.064-8.113,5.712-8.113C75.579,25.143,77.331,28.503,77.331,33.112z M69.075,33.256c-0.024,3.792,1.032,5.76,2.664,5.76
		c1.728,0,2.64-2.112,2.64-5.856c0-3.625-0.864-5.761-2.64-5.761C70.155,27.399,69.051,29.343,69.075,33.256z"/>
	<path fill="#206095" d="M90.195,33.112c0,5.016-1.968,8.161-5.688,8.161c-3.6,0-5.521-3.265-5.544-8.017
		c0-4.849,2.064-8.113,5.713-8.113C88.443,25.143,90.195,28.503,90.195,33.112z M81.938,33.256c-0.024,3.792,1.032,5.76,2.664,5.76
		c1.728,0,2.64-2.112,2.64-5.856c0-3.625-0.864-5.761-2.64-5.761C83.019,27.399,81.915,29.343,81.938,33.256z"/>
	<path fill="#206095" d="M103.059,33.112c0,5.016-1.968,8.161-5.688,8.161c-3.6,0-5.521-3.265-5.544-8.017
		c0-4.849,2.064-8.113,5.712-8.113C101.307,25.143,103.059,28.503,103.059,33.112z M94.802,33.256
		c-0.024,3.792,1.032,5.76,2.664,5.76c1.728,0,2.64-2.112,2.64-5.856c0-3.625-0.864-5.761-2.64-5.761
		C95.882,27.399,94.778,29.343,94.802,33.256z"/>
</g>
<g>
	<path fill="#206095" d="M33.818,85.557h-0.044L31.288,86.9l-0.375-1.475l3.125-1.673h1.65v14.302h-1.87V85.557z"/>
	<path fill="#206095" d="M42.023,96.691c0.418,0.043,0.902,0,1.562-0.066c1.123-0.154,2.179-0.615,2.993-1.387
		c0.946-0.857,1.628-2.111,1.892-3.807h-0.066c-0.792,0.969-1.936,1.541-3.366,1.541c-2.575,0-4.225-1.938-4.225-4.379
		c0-2.707,1.958-5.082,4.884-5.082c2.927,0,4.731,2.375,4.731,6.027c0,3.146-1.056,5.348-2.464,6.711
		c-1.1,1.078-2.619,1.738-4.159,1.914c-0.704,0.109-1.32,0.132-1.782,0.109V96.691z M42.728,88.462c0,1.782,1.078,3.036,2.75,3.036
		c1.298,0,2.31-0.639,2.816-1.496c0.11-0.176,0.176-0.396,0.176-0.704c0-2.442-0.902-4.313-2.926-4.313
		C43.894,84.984,42.728,86.438,42.728,88.462z"/>
	<path fill="#206095" d="M52.011,94.425c0-1.804,1.078-3.081,2.838-3.829l-0.022-0.064c-1.584-0.75-2.266-1.98-2.266-3.213
		c0-2.268,1.914-3.807,4.422-3.807c2.772,0,4.159,1.738,4.159,3.52c0,1.212-0.594,2.51-2.354,3.346v0.064
		c1.782,0.705,2.882,1.959,2.882,3.697c0,2.486-2.134,4.158-4.863,4.158C53.815,98.297,52.011,96.516,52.011,94.425z M59.712,94.336
		c0-1.738-1.21-2.574-3.146-3.123c-1.672,0.482-2.574,1.584-2.574,2.947c-0.066,1.453,1.034,2.729,2.86,2.729
		C58.59,96.889,59.712,95.811,59.712,94.336z M54.387,87.186c0,1.43,1.078,2.201,2.729,2.642c1.232-0.418,2.178-1.3,2.178-2.597
		c0-1.145-0.682-2.332-2.42-2.332C55.268,84.896,54.387,85.953,54.387,87.186z"/>
	<path fill="#206095" d="M67.675,85.557h-0.044L65.145,86.9l-0.374-1.475l3.124-1.673h1.65v14.302h-1.87V85.557z"/>
</g>
<g>
	<path fill="#206095" d="M228.635,98.055v-1.188l1.52-1.475c3.652-3.478,5.303-5.324,5.324-7.48c0-1.453-0.705-2.795-2.838-2.795
		c-1.299,0-2.377,0.66-3.037,1.211l-0.615-1.365c0.99-0.836,2.397-1.451,4.048-1.451c3.081,0,4.379,2.111,4.379,4.158
		c0,2.641-1.914,4.773-4.929,7.68l-1.145,1.055v0.046h6.426v1.604H228.635z"/>
	<path fill="#206095" d="M249.426,90.75c0,4.863-1.804,7.547-4.973,7.547c-2.794,0-4.688-2.617-4.73-7.35
		c0-4.797,2.068-7.436,4.973-7.436C247.71,83.512,249.426,86.195,249.426,90.75z M241.659,90.971c0,3.719,1.144,5.83,2.903,5.83
		c1.98,0,2.928-2.311,2.928-5.963c0-3.52-0.902-5.83-2.904-5.83C242.891,85.008,241.659,87.076,241.659,90.971z"/>
	<path fill="#206095" d="M255.409,85.557h-0.044l-2.486,1.344l-0.375-1.475l3.125-1.673h1.65v14.302h-1.87V85.557z"/>
	<path fill="#206095" d="M263.614,96.691c0.418,0.043,0.901,0,1.562-0.066c1.123-0.154,2.18-0.615,2.993-1.387
		c0.946-0.857,1.628-2.111,1.892-3.807h-0.064c-0.792,0.969-1.938,1.541-3.366,1.541c-2.573,0-4.225-1.938-4.225-4.379
		c0-2.707,1.958-5.082,4.885-5.082c2.926,0,4.729,2.375,4.729,6.027c0,3.146-1.057,5.348-2.465,6.711
		c-1.1,1.078-2.617,1.738-4.158,1.914c-0.703,0.109-1.319,0.132-1.781,0.109L263.614,96.691L263.614,96.691z M264.318,88.462
		c0,1.782,1.078,3.036,2.75,3.036c1.299,0,2.311-0.639,2.815-1.496c0.11-0.176,0.177-0.396,0.177-0.704
		c0-2.442-0.901-4.313-2.927-4.313C265.484,84.984,264.318,86.438,264.318,88.462z"/>
</g>
<g>
	<path fill="#206095" d="M195.928,36.021h-0.047l-2.857,1.44l-0.504-2.232l3.793-1.873h2.472v15.602h-2.856V36.021z"/>
	<path fill="#206095" d="M203.319,51.862c0.647-1.824,1.296-4.344,1.608-6.336l3.096-0.24c-0.672,2.256-1.752,4.849-2.688,6.384
		L203.319,51.862z"/>
	<path fill="#206095" d="M209.823,48.958v-1.8l1.849-1.704c3.672-3.408,5.4-5.28,5.424-7.345c0-1.392-0.744-2.616-2.784-2.616
		c-1.368,0-2.544,0.696-3.337,1.296l-0.863-2.088c1.128-0.912,2.832-1.608,4.801-1.608c3.455,0,5.136,2.184,5.136,4.729
		c0,2.736-1.968,4.944-4.681,7.464L214,46.462v0.048h6.408v2.448H209.823z"/>
	<path fill="#206095" d="M229.191,48.958v-3.96h-7.057v-1.92l6.361-9.721h3.479v9.409h2.017v2.232h-2.017v3.96H229.191z
		 M229.191,42.766v-4.249c0-0.888,0.023-1.8,0.096-2.712h-0.096c-0.48,0.984-0.889,1.776-1.368,2.641l-2.856,4.272l-0.023,0.048
		H229.191z"/>
	<path fill="#206095" d="M235.551,48.958v-1.8l1.848-1.704c3.673-3.408,5.4-5.28,5.425-7.345c0-1.392-0.744-2.616-2.784-2.616
		c-1.368,0-2.545,0.696-3.336,1.296l-0.864-2.088c1.128-0.912,2.832-1.608,4.8-1.608c3.457,0,5.137,2.184,5.137,4.729
		c0,2.736-1.969,4.944-4.68,7.464l-1.369,1.176v0.048h6.409v2.448H235.551z"/>
	<path fill="#206095" d="M247.574,51.862c0.648-1.824,1.297-4.344,1.608-6.336l3.097-0.24c-0.673,2.256-1.753,4.849-2.689,6.384
		L247.574,51.862z"/>
	<path fill="#206095" d="M265.095,41.062c0,5.016-1.968,8.161-5.688,8.161c-3.6,0-5.521-3.265-5.545-8.017
		c0-4.849,2.064-8.113,5.713-8.113C263.343,33.093,265.095,36.453,265.095,41.062z M256.838,41.206
		c-0.023,3.792,1.032,5.76,2.664,5.76c1.729,0,2.641-2.112,2.641-5.856c0-3.625-0.863-5.761-2.641-5.761
		C257.918,35.349,256.814,37.293,256.838,41.206z"/>
	<path fill="#206095" d="M277.959,41.062c0,5.016-1.969,8.161-5.689,8.161c-3.6,0-5.52-3.265-5.544-8.017
		c0-4.849,2.064-8.113,5.713-8.113C276.207,33.093,277.959,36.453,277.959,41.062z M269.702,41.206
		c-0.024,3.792,1.032,5.76,2.664,5.76c1.728,0,2.64-2.112,2.64-5.856c0-3.625-0.863-5.761-2.64-5.761
		C270.782,35.349,269.678,37.293,269.702,41.206z"/>
	<path fill="#206095" d="M290.822,41.062c0,5.016-1.968,8.161-5.688,8.161c-3.601,0-5.521-3.265-5.544-8.017
		c0-4.849,2.064-8.113,5.712-8.113C289.07,33.093,290.822,36.453,290.822,41.062z M282.566,41.206
		c-0.024,3.792,1.031,5.76,2.664,5.76c1.728,0,2.64-2.112,2.64-5.856c0-3.625-0.864-5.761-2.64-5.761
		C283.646,35.349,282.542,37.293,282.566,41.206z"/>
</g>
<polyline fill="none" stroke="#206095" stroke-width="4" stroke-linecap="round" stroke-linejoin="round" stroke-miterlimit="10" points="
	50.936,59.273 61.504,60.49 82.643,55.615 103.782,44.036 114.353,28.799 124.921,16 135.492,28.799 146.589,35.502 158.215,50.738 
	163.5,50.131 168.785,54.396 174.069,56.834 179.354,56.225 184.639,55.615 190.453,61.1 195.738,62.318 201.021,63.537 
	206.307,58.053 211.592,61.1 216.877,61.709 222.161,68.414 227.445,65.367 232.73,70.242 238.017,70.85 243.3,70.85 245.942,72.07 
	248.584,72.682 251.227,74.508 "/>
<g id="balls">
	<circle fill="#FF9933" cx="50.5" cy="60" r="5"/>
	<circle fill="#FF9933" cx="250.5" cy="74" r="5"/>
</g>
</svg>
