<?xml version="1.0" encoding="utf-8"?>
<!-- Generator: Adobe Illustrator 16.0.3, SVG Export Plug-In . SVG Version: 6.00 Build 0)  -->
<!DOCTYPE svg PUBLIC "-//W3C//DTD SVG 1.1//EN" "http://www.w3.org/Graphics/SVG/1.1/DTD/svg11.dtd">
<svg version="1.1" id="Layer_1" xmlns="http://www.w3.org/2000/svg" xmlns:xlink="http://www.w3.org/1999/xlink" x="0px" y="0px"
	 width="300px" height="100px" viewBox="0 0 300 100" enable-background="new 0 0 300 100" xml:space="preserve">
<g>
	<path fill="#206095" d="M23.416,44.82h-0.048l-2.856,1.44l-0.504-2.232l3.792-1.873h2.472v15.602h-2.856V44.82z"/>
	<path fill="#206095" d="M30.807,60.662c0.648-1.824,1.296-4.346,1.608-6.337l3.096-0.24c-0.672,2.257-1.752,4.849-2.688,6.386
		L30.807,60.662z"/>
	<path fill="#206095" d="M48.327,49.861c0,5.016-1.968,8.161-5.688,8.161c-3.6,0-5.521-3.265-5.544-8.017
		c0-4.849,2.064-8.113,5.712-8.113C46.575,41.892,48.327,45.252,48.327,49.861z M40.071,50.005
		c-0.024,3.792,1.032,5.761,2.664,5.761c1.728,0,2.64-2.113,2.64-5.856c0-3.625-0.864-5.761-2.64-5.761
		C41.151,44.148,40.047,46.092,40.071,50.005z"/>
	<path fill="#206095" d="M56.679,57.758v-3.961h-7.057v-1.92l6.361-9.721h3.48v9.409h2.016v2.232h-2.016v3.961H56.679z
		 M56.679,51.564v-4.249c0-0.888,0.024-1.8,0.096-2.712h-0.096c-0.48,0.984-0.888,1.776-1.368,2.641l-2.856,4.272l-0.024,0.047
		H56.679L56.679,51.564z"/>
	<path fill="#206095" d="M73.767,42.156v1.896l-6.601,13.706h-3.121l6.577-13.105v-0.048h-7.345v-2.448L73.767,42.156L73.767,42.156
		z"/>
</g>
<g>
	<path fill="#206095" d="M29.616,98.055v-1.188l1.518-1.475c3.653-3.478,5.303-5.324,5.325-7.48c0-1.453-0.704-2.795-2.838-2.795
		c-1.298,0-2.376,0.66-3.036,1.211l-0.616-1.365c0.99-0.836,2.398-1.451,4.048-1.451c3.081,0,4.379,2.111,4.379,4.158
		c0,2.641-1.915,4.773-4.929,7.68l-1.145,1.055v0.046h6.425v1.604H29.616z"/>
	<path fill="#206095" d="M50.407,90.75c0,4.863-1.804,7.547-4.973,7.547c-2.794,0-4.687-2.617-4.731-7.35
		c0-4.797,2.068-7.436,4.973-7.436C48.69,83.512,50.407,86.195,50.407,90.75z M42.64,90.971c0,3.719,1.144,5.83,2.904,5.83
		c1.98,0,2.926-2.311,2.926-5.963c0-3.52-0.902-5.83-2.904-5.83C43.872,85.008,42.64,87.076,42.64,90.971z"/>
	<path fill="#206095" d="M61.692,90.75c0,4.863-1.804,7.547-4.973,7.547c-2.794,0-4.687-2.617-4.731-7.35
		c0-4.797,2.068-7.436,4.973-7.436C59.976,83.512,61.692,86.195,61.692,90.75z M53.925,90.971c0,3.719,1.144,5.83,2.904,5.83
		c1.98,0,2.926-2.311,2.926-5.963c0-3.52-0.902-5.83-2.904-5.83C55.157,85.008,53.925,87.076,53.925,90.971z"/>
	<path fill="#206095" d="M63.935,95.833c0.55,0.353,1.826,0.901,3.168,0.901c2.486,0,3.256-1.584,3.234-2.771
		c-0.022-2.002-1.826-2.861-3.696-2.861h-1.078V89.65h1.078c1.408,0,3.19-0.728,3.19-2.422c0-1.144-0.726-2.156-2.508-2.156
		c-1.144,0-2.245,0.508-2.86,0.947l-0.506-1.408c0.748-0.551,2.2-1.1,3.741-1.1c2.816,0,4.092,1.672,4.092,3.409
		c0,1.476-0.88,2.729-2.64,3.366v0.044c1.76,0.353,3.19,1.672,3.19,3.674c0,2.289-1.782,4.291-5.215,4.291
		c-1.606,0-3.014-0.506-3.718-0.968L63.935,95.833z"/>
</g>
<g>
	<path fill="#206095" d="M228.635,98.055v-1.188l1.52-1.475c3.652-3.478,5.303-5.324,5.324-7.48c0-1.453-0.705-2.795-2.838-2.795
		c-1.299,0-2.377,0.66-3.037,1.211l-0.615-1.365c0.99-0.836,2.397-1.451,4.048-1.451c3.081,0,4.379,2.111,4.379,4.158
		c0,2.641-1.914,4.773-4.929,7.68l-1.145,1.055v0.046h6.426v1.604H228.635z"/>
	<path fill="#206095" d="M249.426,90.75c0,4.863-1.804,7.547-4.973,7.547c-2.794,0-4.688-2.617-4.73-7.35
		c0-4.797,2.068-7.436,4.973-7.436C247.71,83.512,249.426,86.195,249.426,90.75z M241.659,90.971c0,3.719,1.144,5.83,2.903,5.83
		c1.98,0,2.928-2.311,2.928-5.963c0-3.52-0.902-5.83-2.904-5.83C242.891,85.008,241.659,87.076,241.659,90.971z"/>
	<path fill="#206095" d="M255.409,85.557h-0.044l-2.486,1.344l-0.375-1.475l3.125-1.673h1.65v14.302h-1.87V85.557z"/>
	<path fill="#206095" d="M263.614,96.691c0.418,0.043,0.901,0,1.562-0.066c1.123-0.154,2.18-0.615,2.993-1.387
		c0.946-0.857,1.628-2.111,1.892-3.807h-0.064c-0.792,0.969-1.938,1.541-3.366,1.541c-2.573,0-4.225-1.938-4.225-4.379
		c0-2.707,1.958-5.082,4.885-5.082c2.926,0,4.729,2.375,4.729,6.027c0,3.146-1.057,5.348-2.465,6.711
		c-1.1,1.078-2.617,1.738-4.158,1.914c-0.703,0.109-1.319,0.132-1.781,0.109L263.614,96.691L263.614,96.691z M264.318,88.462
		c0,1.782,1.078,3.036,2.75,3.036c1.299,0,2.311-0.639,2.815-1.496c0.11-0.176,0.177-0.396,0.177-0.704
		c0-2.442-0.901-4.313-2.927-4.313C265.484,84.984,264.318,86.438,264.318,88.462z"/>
</g>
<polyline fill="none" stroke="#206095" stroke-width="4" stroke-linecap="round" stroke-linejoin="round" stroke-miterlimit="10" points="
	50.667,18 62.644,33.218 74.236,37.146 86.214,47.945 98.192,48.436 109.784,46.473 121.762,58.254 133.74,62.672 145.331,60.709 
	157.311,70.036 168.901,69.055 180.878,72 192.856,71.51 204.448,67.091 216.427,52.363 228.018,61.691 234.201,59.236 
	239.996,62.182 245.793,57.764 "/>
<circle fill="#FF9933" cx="50.5" cy="18" r="5"/>
<circle fill="#FF9933" cx="250.5" cy="56" r="5"/>
<g>
	<path fill="#206095" d="M268.816,47.759c-0.432,0-0.912,0-1.512,0.072c-3.265,0.384-4.85,2.4-5.232,4.56h0.071
		c0.769-0.888,1.944-1.512,3.505-1.512c2.688,0,4.775,1.92,4.775,5.088c0,2.977-2.184,5.569-5.496,5.569
		c-3.792,0-5.881-2.88-5.881-6.721c0-3.001,1.08-5.449,2.713-7.009c1.439-1.344,3.313-2.112,5.545-2.304
		c0.647-0.072,1.127-0.072,1.487-0.048L268.816,47.759z M267.424,56.136c0-1.8-0.984-3.097-2.712-3.097
		c-1.104,0-2.089,0.672-2.544,1.608c-0.12,0.239-0.192,0.528-0.192,0.937c0.048,2.063,1.032,3.744,2.929,3.744
		C266.439,59.328,267.424,58.008,267.424,56.136z"/>
	<path fill="#206095" d="M282.904,45.67v1.896l-6.601,13.705h-3.12l6.576-13.104v-0.048h-7.345V45.67H282.904z"/>
	<path fill="#206095" d="M296.056,53.375c0,5.017-1.968,8.161-5.688,8.161c-3.6,0-5.521-3.265-5.545-8.017
		c0-4.849,2.064-8.113,5.713-8.113C294.304,45.407,296.056,48.767,296.056,53.375z M287.799,53.52
		c-0.023,3.792,1.032,5.76,2.664,5.76c1.729,0,2.641-2.111,2.641-5.855c0-3.625-0.863-5.761-2.641-5.761
		C288.879,47.663,287.775,49.607,287.799,53.52z"/>
</g>
</svg>
