<?xml version="1.0" encoding="utf-8"?>
<!-- Generator: Adobe Illustrator 16.0.3, SVG Export Plug-In . SVG Version: 6.00 Build 0)  -->
<!DOCTYPE svg PUBLIC "-//W3C//DTD SVG 1.1//EN" "http://www.w3.org/Graphics/SVG/1.1/DTD/svg11.dtd">
<svg version="1.1" id="Layer_1" xmlns="http://www.w3.org/2000/svg" xmlns:xlink="http://www.w3.org/1999/xlink" x="0px" y="0px"
	 width="300px" height="100px" viewBox="0 0 300 100" enable-background="new 0 0 300 100" xml:space="preserve">
<g>
	<path fill="#206095" d="M18.037,60.495c-0.432,0-0.912,0-1.512,0.071c-3.264,0.385-4.849,2.399-5.232,4.561h0.072
		c0.768-0.889,1.944-1.512,3.504-1.512c2.688,0,4.776,1.92,4.776,5.088c0,2.977-2.184,5.568-5.497,5.568
		c-3.792,0-5.88-2.879-5.88-6.721c0-3.001,1.08-5.447,2.712-7.009c1.44-1.345,3.312-2.11,5.544-2.306
		c0.648-0.07,1.128-0.07,1.488-0.047L18.037,60.495z M16.645,68.872c0-1.8-0.984-3.097-2.712-3.097
		c-1.104,0-2.088,0.672-2.544,1.607c-0.12,0.239-0.192,0.528-0.192,0.938c0.048,2.063,1.032,3.744,2.928,3.744
		C15.661,72.064,16.645,70.744,16.645,68.872z"/>
	<path fill="#206095" d="M20.556,76.912c0.648-1.824,1.296-4.344,1.608-6.336l3.096-0.24c-0.672,2.256-1.752,4.85-2.688,6.385
		L20.556,76.912z"/>
	<path fill="#206095" d="M27.06,74.008v-1.8l1.848-1.704c3.672-3.408,5.4-5.279,5.424-7.345c0-1.392-0.744-2.616-2.784-2.616
		c-1.368,0-2.544,0.695-3.336,1.297l-0.864-2.089c1.128-0.912,2.832-1.608,4.8-1.608c3.456,0,5.136,2.186,5.136,4.729
		c0,2.735-1.968,4.944-4.68,7.465l-1.368,1.177v0.049h6.409v2.446L27.06,74.008L27.06,74.008z"/>
	<path fill="#206095" d="M41.124,71.896c0.456,0.047,0.912,0.022,1.632-0.049c1.152-0.097,2.304-0.504,3.168-1.199
		c1.008-0.816,1.704-1.992,1.992-3.457l-0.048-0.023c-0.792,0.889-1.896,1.393-3.408,1.393c-2.712,0-4.729-1.969-4.729-4.85
		c0-2.977,2.304-5.568,5.641-5.568c3.625,0,5.568,2.856,5.568,6.648c0,3.337-1.104,5.713-2.712,7.249
		c-1.368,1.272-3.24,1.991-5.329,2.136c-0.672,0.072-1.344,0.072-1.776,0.049L41.124,71.896L41.124,71.896z M42.66,63.543
		c0.024,1.607,0.936,2.855,2.568,2.855c1.2,0,2.064-0.551,2.521-1.295c0.096-0.191,0.168-0.433,0.168-0.84
		c0.024-2.113-0.768-3.938-2.688-3.938C43.74,60.327,42.66,61.646,42.66,63.543z"/>
	<path fill="#206095" d="M52.787,74.008v-1.8l1.848-1.704c3.672-3.408,5.4-5.279,5.424-7.345c0-1.392-0.744-2.616-2.784-2.616
		c-1.368,0-2.544,0.695-3.336,1.297l-0.864-2.089c1.128-0.912,2.832-1.608,4.8-1.608c3.456,0,5.136,2.186,5.136,4.729
		c0,2.735-1.968,4.944-4.68,7.465l-1.368,1.177v0.049h6.409v2.446L52.787,74.008L52.787,74.008z"/>
	<path fill="#206095" d="M64.811,76.912c0.648-1.824,1.296-4.344,1.608-6.336l3.096-0.24c-0.672,2.256-1.752,4.85-2.688,6.385
		L64.811,76.912z"/>
	<path fill="#206095" d="M82.331,66.111c0,5.017-1.968,8.16-5.688,8.16c-3.6,0-5.521-3.265-5.544-8.017
		c0-4.849,2.064-8.112,5.712-8.112C80.579,58.143,82.331,61.504,82.331,66.111z M74.075,66.256c-0.024,3.792,1.032,5.76,2.664,5.76
		c1.728,0,2.64-2.111,2.64-5.854c0-3.625-0.864-5.763-2.64-5.763C75.155,60.398,74.051,62.344,74.075,66.256z"/>
	<path fill="#206095" d="M95.195,66.111c0,5.017-1.968,8.16-5.688,8.16c-3.6,0-5.521-3.265-5.544-8.017
		c0-4.849,2.064-8.112,5.713-8.112C93.443,58.143,95.195,61.504,95.195,66.111z M86.938,66.256c-0.024,3.792,1.032,5.76,2.664,5.76
		c1.728,0,2.64-2.111,2.64-5.854c0-3.625-0.864-5.763-2.64-5.763C88.019,60.398,86.915,62.344,86.938,66.256z"/>
	<path fill="#206095" d="M108.059,66.111c0,5.017-1.968,8.16-5.688,8.16c-3.6,0-5.521-3.265-5.544-8.017
		c0-4.849,2.064-8.112,5.712-8.112C106.307,58.143,108.059,61.504,108.059,66.111z M99.802,66.256
		c-0.024,3.792,1.032,5.76,2.664,5.76c1.728,0,2.64-2.111,2.64-5.854c0-3.625-0.864-5.763-2.64-5.763
		C100.882,60.398,99.778,62.344,99.802,66.256z"/>
</g>
<g>
	<path fill="#206095" d="M33.818,85.557h-0.044L31.288,86.9l-0.375-1.475l3.125-1.673h1.65v14.302h-1.87V85.557z"/>
	<path fill="#206095" d="M42.023,96.691c0.418,0.043,0.902,0,1.562-0.066c1.123-0.154,2.179-0.615,2.993-1.387
		c0.946-0.857,1.628-2.111,1.892-3.807h-0.066c-0.792,0.969-1.936,1.541-3.366,1.541c-2.575,0-4.225-1.938-4.225-4.379
		c0-2.707,1.958-5.082,4.884-5.082c2.927,0,4.731,2.375,4.731,6.027c0,3.146-1.056,5.348-2.464,6.711
		c-1.1,1.078-2.619,1.738-4.159,1.914c-0.704,0.109-1.32,0.132-1.782,0.109V96.691z M42.728,88.462c0,1.782,1.078,3.036,2.75,3.036
		c1.298,0,2.31-0.639,2.816-1.496c0.11-0.176,0.176-0.396,0.176-0.704c0-2.442-0.902-4.313-2.926-4.313
		C43.894,84.984,42.728,86.438,42.728,88.462z"/>
	<path fill="#206095" d="M52.011,94.425c0-1.804,1.078-3.081,2.838-3.829l-0.022-0.064c-1.584-0.75-2.266-1.98-2.266-3.213
		c0-2.268,1.914-3.807,4.422-3.807c2.772,0,4.159,1.738,4.159,3.52c0,1.212-0.594,2.51-2.354,3.346v0.064
		c1.782,0.705,2.882,1.959,2.882,3.697c0,2.486-2.134,4.158-4.863,4.158C53.815,98.297,52.011,96.516,52.011,94.425z M59.712,94.336
		c0-1.738-1.21-2.574-3.146-3.123c-1.672,0.482-2.574,1.584-2.574,2.947c-0.066,1.453,1.034,2.729,2.86,2.729
		C58.59,96.889,59.712,95.811,59.712,94.336z M54.387,87.186c0,1.43,1.078,2.201,2.729,2.642c1.232-0.418,2.178-1.3,2.178-2.597
		c0-1.145-0.682-2.332-2.42-2.332C55.268,84.896,54.387,85.953,54.387,87.186z"/>
	<path fill="#206095" d="M67.675,85.557h-0.044L65.145,86.9l-0.374-1.475l3.124-1.673h1.65v14.302h-1.87V85.557z"/>
</g>
<g>
	<path fill="#206095" d="M228.635,98.055v-1.188l1.52-1.475c3.652-3.478,5.303-5.324,5.324-7.48c0-1.453-0.705-2.795-2.838-2.795
		c-1.299,0-2.377,0.66-3.037,1.211l-0.615-1.365c0.99-0.836,2.397-1.451,4.048-1.451c3.081,0,4.379,2.111,4.379,4.158
		c0,2.641-1.914,4.773-4.929,7.68l-1.145,1.055v0.046h6.426v1.604H228.635z"/>
	<path fill="#206095" d="M249.426,90.75c0,4.863-1.804,7.547-4.973,7.547c-2.794,0-4.688-2.617-4.73-7.35
		c0-4.797,2.068-7.436,4.973-7.436C247.71,83.512,249.426,86.195,249.426,90.75z M241.659,90.971c0,3.719,1.144,5.83,2.903,5.83
		c1.98,0,2.928-2.311,2.928-5.963c0-3.52-0.902-5.83-2.904-5.83C242.891,85.008,241.659,87.076,241.659,90.971z"/>
	<path fill="#206095" d="M255.409,85.557h-0.044l-2.486,1.344l-0.375-1.475l3.125-1.673h1.65v14.302h-1.87V85.557z"/>
	<path fill="#206095" d="M263.614,96.691c0.418,0.043,0.901,0,1.562-0.066c1.123-0.154,2.18-0.615,2.993-1.387
		c0.946-0.857,1.628-2.111,1.892-3.807h-0.064c-0.792,0.969-1.938,1.541-3.366,1.541c-2.573,0-4.225-1.938-4.225-4.379
		c0-2.707,1.958-5.082,4.885-5.082c2.926,0,4.729,2.375,4.729,6.027c0,3.146-1.057,5.348-2.465,6.711
		c-1.1,1.078-2.617,1.738-4.158,1.914c-0.703,0.109-1.319,0.132-1.781,0.109L263.614,96.691L263.614,96.691z M264.318,88.462
		c0,1.782,1.078,3.036,2.75,3.036c1.299,0,2.311-0.639,2.815-1.496c0.11-0.176,0.177-0.396,0.177-0.704
		c0-2.442-0.901-4.313-2.927-4.313C265.484,84.984,264.318,86.438,264.318,88.462z"/>
</g>
<polyline fill="none" stroke="#206095" stroke-width="4" stroke-linecap="round" stroke-linejoin="round" stroke-miterlimit="10" points="
	50.079,49.915 60.303,44.886 81.679,38.599 102.589,29.378 112.813,19.318 123.501,18.479 134.189,28.12 144.412,36.503 
	156.494,44.467 161.606,46.144 167.182,48.658 172.294,52.85 177.404,53.688 182.517,53.688 188.093,57.041 193.206,54.107 
	198.315,57.879 203.894,56.623 209.004,55.364 214.117,58.298 219.692,61.232 224.805,63.327 229.917,65.424 235.491,67.52 
	240.604,65.843 243.392,65.004 245.716,65.004 248.504,67.101 "/>
<circle fill="#FF9933" cx="50.5" cy="49" r="5"/>
<circle fill="#FF9933" cx="250.5" cy="68" r="5"/>
<g>
	<path fill="#206095" d="M197.883,44.471c0.601,0.36,2.064,0.96,3.553,0.96c2.256,0,3.168-1.272,3.145-2.496
		c0-1.848-1.729-2.64-3.529-2.64h-1.367v-2.16h1.32c1.367,0,3.096-0.624,3.096-2.184c0-1.056-0.792-1.944-2.496-1.944
		c-1.271,0-2.545,0.552-3.192,0.984l-0.672-2.136c0.888-0.625,2.616-1.2,4.488-1.2c3.216,0,4.872,1.776,4.872,3.816
		c0,1.632-0.96,2.976-2.88,3.648v0.048c1.896,0.336,3.433,1.776,3.433,3.888c0,2.64-2.209,4.729-6.072,4.729
		c-1.896,0-3.529-0.528-4.369-1.08L197.883,44.471z"/>
	<path fill="#206095" d="M209.307,50.423c0.648-1.824,1.297-4.344,1.608-6.336l3.097-0.24c-0.673,2.256-1.753,4.849-2.689,6.385
		L209.307,50.423z"/>
	<path fill="#206095" d="M222.314,47.519v-3.96h-7.057v-1.92l6.361-9.721h3.48v9.409h2.016v2.232H225.1v3.96H222.314z
		 M222.314,41.327v-4.249c0-0.888,0.024-1.8,0.097-2.712h-0.097c-0.479,0.984-0.888,1.776-1.367,2.641l-2.856,4.272l-0.024,0.048
		H222.314z"/>
	<path fill="#206095" d="M239.691,39.623c0,5.016-1.969,8.161-5.689,8.161c-3.6,0-5.52-3.265-5.544-8.017
		c0-4.849,2.064-8.113,5.713-8.113C237.939,31.654,239.691,35.014,239.691,39.623z M231.435,39.767
		c-0.024,3.792,1.032,5.76,2.664,5.76c1.728,0,2.64-2.112,2.64-5.856c0-3.625-0.863-5.761-2.64-5.761
		C232.515,33.91,231.41,35.854,231.435,39.767z"/>
	<path fill="#206095" d="M241.538,47.519v-1.8l1.849-1.704c3.672-3.408,5.4-5.28,5.424-7.345c0-1.392-0.744-2.616-2.784-2.616
		c-1.368,0-2.544,0.696-3.337,1.296l-0.863-2.088c1.128-0.912,2.832-1.608,4.801-1.608c3.455,0,5.136,2.184,5.136,4.729
		c0,2.736-1.968,4.944-4.681,7.464l-1.367,1.176v0.048h6.408v2.448H241.538z"/>
	<path fill="#206095" d="M253.562,50.423c0.647-1.824,1.296-4.344,1.608-6.336l3.096-0.24c-0.672,2.256-1.752,4.849-2.688,6.385
		L253.562,50.423z"/>
	<path fill="#206095" d="M271.082,39.623c0,5.016-1.968,8.161-5.688,8.161c-3.601,0-5.521-3.265-5.544-8.017
		c0-4.849,2.064-8.113,5.712-8.113C269.33,31.654,271.082,35.014,271.082,39.623z M262.826,39.767
		c-0.024,3.792,1.031,5.76,2.664,5.76c1.728,0,2.64-2.112,2.64-5.856c0-3.625-0.864-5.761-2.64-5.761
		C263.906,33.91,262.802,35.854,262.826,39.767z"/>
	<path fill="#206095" d="M283.945,39.623c0,5.016-1.967,8.161-5.688,8.161c-3.601,0-5.521-3.265-5.545-8.017
		c0-4.849,2.064-8.113,5.713-8.113C282.193,31.654,283.945,35.014,283.945,39.623z M275.689,39.767
		c-0.023,3.792,1.031,5.76,2.664,5.76c1.729,0,2.641-2.112,2.641-5.856c0-3.625-0.864-5.761-2.641-5.761
		C276.77,33.91,275.666,35.854,275.689,39.767z"/>
	<path fill="#206095" d="M296.81,39.623c0,5.016-1.968,8.161-5.688,8.161c-3.6,0-5.521-3.265-5.545-8.017
		c0-4.849,2.064-8.113,5.713-8.113C295.058,31.654,296.81,35.014,296.81,39.623z M288.553,39.767
		c-0.023,3.792,1.032,5.76,2.664,5.76c1.729,0,2.641-2.112,2.641-5.856c0-3.625-0.863-5.761-2.641-5.761
		C289.633,33.91,288.529,35.854,288.553,39.767z"/>
</g>
</svg>
