<?xml version="1.0" encoding="utf-8"?>
<!-- Generator: Adobe Illustrator 16.0.3, SVG Export Plug-In . SVG Version: 6.00 Build 0)  -->
<!DOCTYPE svg PUBLIC "-//W3C//DTD SVG 1.1//EN" "http://www.w3.org/Graphics/SVG/1.1/DTD/svg11.dtd">
<svg version="1.1" id="Layer_1" xmlns="http://www.w3.org/2000/svg" xmlns:xlink="http://www.w3.org/1999/xlink" x="0px" y="0px"
	 width="300px" height="100px" viewBox="0 0 300 100" enable-background="new 0 0 300 100" xml:space="preserve">
<g>
	<path fill="#206095" d="M13.165,43.103h-0.048l-2.856,1.44l-0.504-2.232l3.792-1.873h2.472V56.04h-2.856V43.103z"/>
	<path fill="#206095" d="M26.028,43.103H25.98l-2.856,1.44l-0.504-2.232l3.792-1.873h2.472V56.04h-2.856V43.103z"/>
	<path fill="#206095" d="M45.276,48.143c0,5.017-1.968,8.162-5.688,8.162c-3.6,0-5.521-3.266-5.544-8.018
		c0-4.849,2.064-8.113,5.712-8.113C43.524,40.174,45.276,43.535,45.276,48.143z M37.02,48.287c-0.024,3.792,1.032,5.76,2.664,5.76
		c1.728,0,2.64-2.111,2.64-5.855c0-3.625-0.864-5.761-2.64-5.761C38.1,42.43,36.996,44.375,37.02,48.287z"/>
	<path fill="#206095" d="M46.283,58.943c0.648-1.823,1.296-4.344,1.608-6.336l3.096-0.239c-0.672,2.256-1.752,4.849-2.688,6.385
		L46.283,58.943z"/>
	<path fill="#206095" d="M52.787,56.04v-1.8l1.848-1.704c3.672-3.408,5.4-5.28,5.424-7.345c0-1.392-0.744-2.616-2.784-2.616
		c-1.368,0-2.544,0.696-3.336,1.296l-0.864-2.088c1.128-0.912,2.832-1.608,4.8-1.608c3.456,0,5.136,2.184,5.136,4.729
		c0,2.737-1.968,4.944-4.68,7.464l-1.368,1.176v0.048h6.409v2.448H52.787z"/>
	<path fill="#206095" d="M76.38,40.438v1.896L69.779,56.04h-3.121l6.577-13.105v-0.048H65.89v-2.448L76.38,40.438L76.38,40.438z"/>
	<path fill="#206095" d="M83.147,43.103h-0.048l-2.856,1.44l-0.504-2.232l3.792-1.873h2.472V56.04h-2.856V43.103z"/>
</g>
<g>
	<path fill="#206095" d="M228.635,98.055v-1.188l1.52-1.475c3.652-3.479,5.304-5.324,5.324-7.48c0-1.453-0.705-2.795-2.838-2.795
		c-1.299,0-2.377,0.66-3.037,1.211l-0.615-1.365c0.99-0.836,2.398-1.451,4.049-1.451c3.081,0,4.379,2.111,4.379,4.158
		c0,2.641-1.914,4.773-4.93,7.68l-1.145,1.055v0.047h6.426v1.604H228.635z"/>
	<path fill="#206095" d="M249.426,90.75c0,4.863-1.804,7.547-4.973,7.547c-2.794,0-4.688-2.617-4.73-7.35
		c0-4.797,2.068-7.436,4.973-7.436C247.71,83.512,249.426,86.195,249.426,90.75z M241.659,90.971c0,3.719,1.144,5.83,2.903,5.83
		c1.979,0,2.928-2.311,2.928-5.963c0-3.52-0.902-5.83-2.904-5.83C242.891,85.008,241.659,87.076,241.659,90.971z"/>
	<path fill="#206095" d="M255.409,85.557h-0.044l-2.486,1.344l-0.375-1.475l3.125-1.673h1.65v14.302h-1.87V85.557z"/>
	<path fill="#206095" d="M263.613,96.691c0.419,0.043,0.902,0,1.563-0.066c1.123-0.154,2.18-0.615,2.993-1.387
		c0.946-0.857,1.628-2.111,1.892-3.807h-0.063c-0.792,0.969-1.938,1.541-3.366,1.541c-2.572,0-4.227-1.938-4.227-4.379
		c0-2.707,1.96-5.082,4.887-5.082c2.926,0,4.729,2.375,4.729,6.026c0,3.146-1.057,5.349-2.465,6.711
		c-1.1,1.078-2.617,1.737-4.158,1.914c-0.703,0.108-1.318,0.132-1.78,0.108v-1.582h-0.003V96.691z M264.318,88.462
		c0,1.782,1.078,3.036,2.75,3.036c1.299,0,2.311-0.639,2.814-1.496c0.11-0.176,0.178-0.396,0.178-0.704
		c0-2.442-0.901-4.313-2.928-4.313C265.484,84.984,264.318,86.438,264.318,88.462z"/>
</g>
<polyline fill="none" stroke="#206095" stroke-width="4" stroke-linecap="round" stroke-linejoin="round" stroke-miterlimit="10" points="
	50.5,18.654 61.401,23.643 72.82,33.621 83.721,28.009 94.622,25.514 106.041,38.61 116.942,41.728 127.842,46.094 139.262,44.846 
	150.162,46.094 161.582,53.576 172.482,59.189 183.383,65.426 194.802,64.179 205.703,57.941 216.604,49.835 228.023,46.094 
	238.923,43.599 250.343,39.233 "/>
<circle fill="#FF9933" cx="50.5" cy="19" r="5"/>
<circle fill="#FF9933" cx="250.5" cy="39" r="5"/>
<g>
	<path fill="#206095" d="M33.616,98.055v-1.188l1.518-1.475c3.653-3.478,5.303-5.324,5.325-7.48c0-1.453-0.704-2.795-2.838-2.795
		c-1.298,0-2.376,0.66-3.036,1.211l-0.616-1.365c0.99-0.836,2.398-1.451,4.048-1.451c3.081,0,4.379,2.111,4.379,4.158
		c0,2.641-1.915,4.773-4.929,7.68l-1.145,1.055v0.046h6.425v1.604H33.616z"/>
	<path fill="#206095" d="M54.407,90.75c0,4.863-1.804,7.547-4.973,7.547c-2.794,0-4.687-2.617-4.731-7.35
		c0-4.797,2.068-7.436,4.973-7.436C52.69,83.512,54.407,86.195,54.407,90.75z M46.64,90.971c0,3.719,1.144,5.83,2.904,5.83
		c1.98,0,2.926-2.311,2.926-5.963c0-3.52-0.902-5.83-2.904-5.83C47.872,85.008,46.64,87.076,46.64,90.971z"/>
	<path fill="#206095" d="M65.692,90.75c0,4.863-1.804,7.547-4.973,7.547c-2.794,0-4.687-2.617-4.731-7.35
		c0-4.797,2.068-7.436,4.973-7.436C63.976,83.512,65.692,86.195,65.692,90.75z M57.925,90.971c0,3.719,1.144,5.83,2.904,5.83
		c1.98,0,2.926-2.311,2.926-5.963c0-3.52-0.902-5.83-2.904-5.83C59.157,85.008,57.925,87.076,57.925,90.971z"/>
	<path fill="#206095" d="M67.935,95.833c0.55,0.353,1.826,0.901,3.168,0.901c2.486,0,3.256-1.584,3.234-2.771
		c-0.022-2.002-1.826-2.861-3.696-2.861h-1.078V89.65h1.078c1.408,0,3.19-0.728,3.19-2.422c0-1.144-0.726-2.156-2.508-2.156
		c-1.144,0-2.245,0.508-2.86,0.947l-0.506-1.408c0.748-0.551,2.2-1.1,3.741-1.1c2.816,0,4.092,1.672,4.092,3.409
		c0,1.476-0.88,2.729-2.64,3.366v0.044c1.76,0.353,3.19,1.672,3.19,3.674c0,2.289-1.782,4.291-5.215,4.291
		c-1.606,0-3.014-0.506-3.718-0.968L67.935,95.833z"/>
</g>
<g>
	<path fill="#206095" d="M214.479,24.473c0-1.944,1.129-3.264,2.929-4.057v-0.072c-1.632-0.791-2.376-2.088-2.376-3.455
		c0-2.545,2.256-4.273,5.209-4.273c3.359,0,4.896,2.017,4.896,3.937c0,1.32-0.697,2.688-2.4,3.528v0.072
		c1.703,0.648,2.976,1.992,2.976,3.936c0,2.785-2.353,4.657-5.688,4.657C216.376,28.745,214.479,26.656,214.479,24.473z
		 M222.713,24.328c0-1.584-1.177-2.447-2.904-2.928c-1.464,0.432-2.304,1.439-2.304,2.736c-0.049,1.32,0.959,2.52,2.615,2.52
		C221.681,26.656,222.713,25.673,222.713,24.328z M217.841,16.768c0,1.272,1.056,2.041,2.544,2.449
		c1.056-0.313,1.944-1.177,1.944-2.354c0-1.08-0.648-2.207-2.232-2.207C218.608,14.656,217.841,15.64,217.841,16.768z"/>
	<path fill="#206095" d="M228.16,25.433c0.601,0.36,2.063,0.96,3.552,0.96c2.256,0,3.168-1.271,3.145-2.496
		c0-1.848-1.729-2.641-3.528-2.641h-1.368v-2.16h1.32c1.368,0,3.096-0.623,3.096-2.184c0-1.057-0.791-1.944-2.496-1.944
		c-1.271,0-2.544,0.552-3.191,0.983l-0.672-2.135c0.887-0.625,2.615-1.201,4.488-1.201c3.216,0,4.872,1.776,4.872,3.816
		c0,1.633-0.96,2.977-2.88,3.648v0.049c1.896,0.336,3.432,1.775,3.432,3.888c0,2.64-2.208,4.729-6.072,4.729
		c-1.896,0-3.528-0.528-4.369-1.08L228.16,25.433z"/>
	<path fill="#206095" d="M239.583,31.385c0.648-1.824,1.297-4.344,1.609-6.336l3.096-0.24c-0.672,2.256-1.752,4.849-2.688,6.385
		L239.583,31.385z"/>
	<path fill="#206095" d="M247.288,26.369c0.456,0.048,0.912,0.023,1.632-0.049c1.152-0.096,2.304-0.504,3.169-1.199
		c1.008-0.816,1.703-1.992,1.992-3.457l-0.049-0.023c-0.792,0.888-1.896,1.393-3.408,1.393c-2.712,0-4.729-1.969-4.729-4.85
		c0-2.976,2.305-5.568,5.641-5.568c3.625,0,5.568,2.856,5.568,6.648c0,3.337-1.104,5.713-2.712,7.249
		c-1.368,1.272-3.24,1.992-5.329,2.136c-0.672,0.072-1.344,0.072-1.775,0.049V26.369z M248.824,18.016
		c0.024,1.608,0.937,2.856,2.567,2.856c1.201,0,2.064-0.552,2.521-1.296c0.096-0.191,0.168-0.432,0.168-0.84
		c0.023-2.112-0.769-3.937-2.689-3.937C249.904,14.8,248.824,16.12,248.824,18.016z"/>
	<path fill="#206095" d="M259.552,25.433c0.6,0.36,2.064,0.96,3.553,0.96c2.256,0,3.168-1.271,3.144-2.496
		c0-1.848-1.728-2.641-3.528-2.641h-1.368v-2.16h1.32c1.368,0,3.097-0.623,3.097-2.184c0-1.057-0.793-1.944-2.496-1.944
		c-1.272,0-2.545,0.552-3.193,0.983l-0.672-2.135c0.889-0.625,2.617-1.201,4.488-1.201c3.217,0,4.873,1.776,4.873,3.816
		c0,1.633-0.961,2.977-2.881,3.648v0.049c1.896,0.336,3.433,1.775,3.433,3.888c0,2.64-2.208,4.729-6.072,4.729
		c-1.896,0-3.528-0.528-4.368-1.08L259.552,25.433z"/>
	<path fill="#206095" d="M282.832,20.584c0,5.017-1.968,8.161-5.688,8.161c-3.6,0-5.521-3.265-5.545-8.017
		c0-4.849,2.064-8.113,5.713-8.113C281.08,12.615,282.832,15.977,282.832,20.584z M274.575,20.729
		c-0.023,3.792,1.032,5.76,2.664,5.76c1.729,0,2.641-2.111,2.641-5.855c0-3.625-0.863-5.762-2.641-5.762
		C275.655,14.871,274.552,16.816,274.575,20.729z"/>
</g>
</svg>
