<?xml version="1.0" encoding="utf-8"?>
<!-- Generator: Adobe Illustrator 23.0.2, SVG Export Plug-In . SVG Version: 6.00 Build 0)  -->
<svg version="1.1" id="Layer_1" xmlns="http://www.w3.org/2000/svg" xmlns:xlink="http://www.w3.org/1999/xlink" x="0px" y="0px"
	 viewBox="0 0 78.03 78.03" style="enable-background:new 0 0 78.03 78.03;" xml:space="preserve">
<style type="text/css">
	.st0{fill:#DDE4EC;}
	.st1{fill:#FFFFFF;}
	.st2{fill:#8F9FA7;}
	.st3{fill:#DD9B0A;}
	.st4{fill:#EAB318;}
	.st5{fill:#EFD378;}
	.st6{fill:#EA9313;}
	.st7{fill:#EFD9D0;}
	.st8{fill:#FFD34E;}
	.st9{fill:#674D3B;}
	.st10{fill:#343232;}
	.st11{fill:#4C4946;}
	.st12{fill:#E8AF95;}
	.st13{fill:#F2C340;}
	.st14{fill:#EFECE4;}
	.st15{fill:#79A2AB;}
	.st16{fill:#D1DBE6;}
	.st17{fill:#003C57;}
	.st18{fill:#EAEAEA;}
	.st19{fill:#D0D2D3;}
	.st20{fill:#5F7682;stroke:#EAEAEA;stroke-width:0.2;stroke-miterlimit:10;}
	.st21{fill:#1A4C83;stroke:#EAEAEA;stroke-width:0.2;stroke-miterlimit:10;}
	.st22{fill:none;stroke:#D0D2D3;stroke-linecap:round;stroke-miterlimit:10;stroke-dasharray:4,6;}
	.st23{fill:none;stroke:#D0D2D3;stroke-width:4;stroke-miterlimit:10;}
	.st24{fill:#008080;}
	.st25{fill:none;stroke:#5F7682;stroke-width:0.5;stroke-miterlimit:10;}
	.st26{fill:#1A4C83;}
	.st27{fill:none;stroke:#D0D2D3;stroke-width:2;stroke-miterlimit:10;}
	.st28{fill:none;stroke:#008080;stroke-width:0.75;stroke-miterlimit:10;}
	.st29{fill:none;stroke:#1A4C83;stroke-width:2.5;stroke-linecap:round;stroke-linejoin:round;stroke-miterlimit:10;}
	.st30{fill:none;stroke:#1A4C83;stroke-width:0.75;stroke-miterlimit:10;}
	.st31{fill:none;stroke:#1A4C83;stroke-width:1.5;stroke-miterlimit:10;}
	.st32{fill:none;stroke:#1A4C83;stroke-miterlimit:10;}
	.st33{fill:none;stroke:#5F7682;stroke-miterlimit:10;}
	.st34{fill:none;stroke:#1A4C83;stroke-width:2;stroke-miterlimit:10;}
	.st35{fill:none;stroke:#008080;stroke-miterlimit:10;}
	.st36{fill:none;stroke:#008080;stroke-width:2;stroke-miterlimit:10;}
	.st37{fill:none;stroke:#003C57;stroke-width:0.75;stroke-miterlimit:10;}
	.st38{fill:none;stroke:#003C57;stroke-miterlimit:10;}
	.st39{fill:none;stroke:#003C57;stroke-width:2;stroke-miterlimit:10;}
	.st40{fill:none;stroke:#D0D2D3;stroke-miterlimit:10;}
	.st41{fill:#1A4C83;stroke:#1A4C83;stroke-width:2;stroke-miterlimit:10;}
	.st42{fill:none;stroke:#FFFFFF;stroke-width:2.5;stroke-linecap:round;stroke-linejoin:round;stroke-miterlimit:10;}
	.st43{fill:none;stroke:#D0D2D3;stroke-width:3;stroke-miterlimit:10;}
	.st44{fill:none;stroke:#5F7682;stroke-width:2;stroke-miterlimit:10;}
	.st45{fill:none;stroke:#5F7682;stroke-width:1.5;stroke-miterlimit:10;}
	.st46{fill:none;stroke:#FF9933;stroke-width:1.5;stroke-miterlimit:10;}
	.st47{fill:none;stroke:#1A4C83;stroke-width:2.5;stroke-miterlimit:10;}
	.st48{fill:none;stroke:#003C57;stroke-width:2.5;stroke-miterlimit:10;}
	.st49{fill:none;stroke:#008080;stroke-width:2.5;stroke-miterlimit:10;}
	.st50{fill:none;stroke:#FF9933;stroke-width:2;stroke-miterlimit:10;}
	.st51{fill:none;stroke:#003C57;stroke-width:3;stroke-miterlimit:10;}
	.st52{fill:none;stroke:#008080;stroke-width:3;stroke-miterlimit:10;}
	.st53{fill:none;stroke:#D0D2D3;stroke-width:6;stroke-miterlimit:10;}
	.st54{fill:none;stroke:#5F7682;stroke-width:0.25;stroke-miterlimit:10;}
	.st55{fill:#766FAF;stroke:#766FAF;stroke-width:3;stroke-miterlimit:10;}
	.st56{fill:#766FAF;}
	.st57{fill:none;stroke:#FF9933;stroke-width:2;stroke-linecap:round;stroke-linejoin:round;stroke-miterlimit:10;}
	.st58{fill:none;stroke:#5F7682;stroke-width:0.75;stroke-miterlimit:10;}
	.st59{fill:#FFFFFF;stroke:#008080;stroke-width:3;stroke-miterlimit:10;}
	.st60{fill:none;stroke:#1A4C83;stroke-width:3;stroke-miterlimit:10;}
	.st61{fill:#5F7682;}
	.st62{fill:none;stroke:#FF9933;stroke-width:3;stroke-miterlimit:10;}
	.st63{fill:none;stroke:#5F7682;stroke-width:3;stroke-miterlimit:10;}
	.st64{fill:none;stroke:#323132;stroke-linecap:round;stroke-linejoin:round;stroke-miterlimit:10;}
	.st65{fill:none;stroke:#1A4C83;stroke-width:2;stroke-linecap:round;stroke-linejoin:round;stroke-miterlimit:10;}
	.st66{fill:none;stroke:#1A4C83;stroke-width:1.5;stroke-linecap:round;stroke-linejoin:round;stroke-miterlimit:10;}
	.st67{fill:#FF9933;}
	.st68{fill:#5F7682;stroke:#5F7682;stroke-width:2;stroke-miterlimit:10;}
	.st69{fill:#EAEAEA;stroke:#EAEAEA;stroke-width:1.5;stroke-miterlimit:10;}
	.st70{fill:none;stroke:#FFFFFF;stroke-width:2;stroke-linecap:round;stroke-linejoin:round;stroke-miterlimit:10;}
	.st71{fill:none;stroke:#FFFFFF;stroke-width:1.5;stroke-linecap:round;stroke-linejoin:round;stroke-miterlimit:10;}
	.st72{fill:#5F7682;stroke:#FFFFFF;stroke-width:0.3;}
	.st73{fill:none;stroke:#EAEAEA;stroke-width:3;stroke-miterlimit:10;}
	.st74{fill:none;stroke:#FFFFFF;stroke-width:3;stroke-linecap:round;stroke-linejoin:round;stroke-miterlimit:10;}
	.st75{fill:none;stroke:#D1DBE6;stroke-miterlimit:10;}
	.st76{fill:url(#SVGID_1_);}
	.st77{fill:#27A0CC;}
	.st78{fill:none;stroke:#1A4C83;stroke-width:4;stroke-linecap:round;stroke-linejoin:round;stroke-miterlimit:10;}
	.st79{fill:none;stroke:#00A5A1;stroke-width:4;stroke-linecap:round;stroke-linejoin:round;stroke-miterlimit:10;}
	.st80{fill:none;stroke:#1A4C83;stroke-width:5;stroke-linecap:round;stroke-linejoin:round;stroke-miterlimit:10;}
	.st81{fill:none;stroke:#00A5A1;stroke-width:5;stroke-linecap:round;stroke-linejoin:round;stroke-miterlimit:10;}
	.st82{fill:none;stroke:#FF9933;stroke-width:4;stroke-linecap:round;stroke-linejoin:round;stroke-miterlimit:10;}
	.st83{fill:#A3B7CD;}
	.st84{fill:#7694B4;}
	.st85{fill:#F08F27;}
	.st86{fill:#F08F26;}
	.st87{fill:#652318;}
	.st88{fill:#CCD3D8;}
	.st89{fill:#CCD5DB;}
	.st90{fill:#652216;}
	.st91{fill:#FEB636;}
	.st92{fill:#FED369;}
	.st93{fill:#FEFDFC;}
	.st94{fill:#E1A043;}
	.st95{fill:#3D6795;}
	.st96{fill:#3B7A9E;}
	.st97{fill:none;stroke:#D1DBE6;stroke-width:3;stroke-miterlimit:10;}
	.st98{fill:#323132;}
	.st99{fill:#206095;}
	.st100{fill:#5A371D;}
	.st101{fill:#0F8243;}
	.st102{fill:#00722F;}
	.st103{clip-path:url(#SVGID_5_);}
	.st104{clip-path:url(#SVGID_7_);fill:#D4D4D4;}
	.st105{clip-path:url(#SVGID_9_);}
	.st106{clip-path:url(#SVGID_11_);fill:#D4D4D4;}
	.st107{clip-path:url(#SVGID_13_);}
	.st108{clip-path:url(#SVGID_15_);fill:#D0D2D3;}
	.st109{clip-path:url(#SVGID_17_);}
	.st110{clip-path:url(#SVGID_19_);fill:#EAEAEA;}
	.st111{fill:#379E43;}
	.st112{fill:#6CB743;}
	.st113{fill:none;stroke:#323132;stroke-width:14.4;stroke-miterlimit:10;}
	.st114{fill:none;stroke:#D0D2D3;stroke-width:14;stroke-miterlimit:10;}
	.st115{fill:#414042;}
	.st116{fill:none;stroke:#5F7682;stroke-width:8;stroke-miterlimit:10;}
	.st117{fill:none;stroke:#FFFFFF;stroke-width:8;stroke-miterlimit:10;}
	.st118{fill:none;stroke:#FFFFFF;stroke-width:2;stroke-miterlimit:10;}
	.st119{fill:none;stroke:#414042;stroke-width:8;stroke-miterlimit:10;}
	.st120{fill:#697E89;}
	.st121{fill:none;stroke:#414042;stroke-width:2;stroke-miterlimit:10;}
	.st122{fill:#009EE2;}
	.st123{fill:#3C3C3B;}
	.st124{fill:none;stroke:#D1DBE6;stroke-linecap:round;stroke-linejoin:round;stroke-miterlimit:10;}
	.st125{fill:#00A5A1;}
	.st126{fill:none;stroke:#FFFFFF;stroke-linecap:round;stroke-linejoin:round;stroke-miterlimit:10;}
	.st127{fill:none;stroke:#323132;stroke-width:14;stroke-miterlimit:10;}
	.st128{fill:none;stroke:#5F7682;stroke-width:14.4;stroke-miterlimit:10;}
	.st129{fill:#D32F2F;}
	.st130{fill:none;stroke:#DDE4EC;stroke-width:2;stroke-miterlimit:10;}
	.st131{fill:#F9BF36;}
	.st132{fill:#AFBAC0;}
	.st133{clip-path:url(#SVGID_21_);fill:#1A4C83;}
	.st134{clip-path:url(#SVGID_23_);fill:#1A4C83;}
	.st135{fill:#93BEC4;}
	.st136{fill:none;}
	.st137{fill:#B9E8F2;}
	.st138{fill:#1A4C83;stroke:#5F7682;stroke-width:2;stroke-miterlimit:10;}
	.st139{clip-path:url(#SVGID_25_);}
	.st140{clip-path:url(#SVGID_27_);}
	.st141{clip-path:url(#SVGID_29_);fill:#00A5A1;}
	.st142{clip-path:url(#SVGID_31_);fill:#00A5A1;}
	.st143{fill:#00A5A1;stroke:#D0D2D3;stroke-miterlimit:10;}
	.st144{clip-path:url(#SVGID_33_);fill:#CB4642;}
	.st145{clip-path:url(#SVGID_35_);fill:#00A5A1;}
	.st146{clip-path:url(#SVGID_37_);fill:#CB4642;}
	.st147{clip-path:url(#SVGID_39_);fill:#00A5A1;}
	.st148{fill:#CB4642;}
	.st149{clip-path:url(#SVGID_41_);fill:#CB4642;}
	.st150{clip-path:url(#SVGID_43_);fill:#CB4642;}
	.st151{clip-path:url(#SVGID_45_);fill:#CB4642;}
	.st152{clip-path:url(#SVGID_47_);fill:#CB4642;}
	.st153{fill:#556E79;}
	.st154{fill:#556E79;stroke:#556E79;stroke-width:2;stroke-miterlimit:10;}
	.st155{fill:#444444;}
	.st156{fill:#E48C15;}
	.st157{fill:#E06055;}
	.st158{fill:#CE453E;}
	.st159{fill:#78A3AD;}
	.st160{clip-path:url(#SVGID_49_);fill:#CE453E;}
	.st161{clip-path:url(#SVGID_51_);fill:#CE453E;}
	.st162{clip-path:url(#SVGID_53_);fill:#CE453E;}
	.st163{clip-path:url(#SVGID_55_);fill:#CE453E;}
	.st164{fill:#546E7A;}
	.st165{fill:#B8E9F4;}
	.st166{fill:#64878E;}
	.st167{fill:#93BFC6;}
	.st168{fill:#EDA29B;}
	.st169{fill:#546E7A;stroke:#546E7A;stroke-width:4;stroke-miterlimit:10;}
	.st170{clip-path:url(#SVGID_57_);fill:#00A5A1;}
	.st171{clip-path:url(#SVGID_59_);fill:#00A5A1;}
	.st172{fill:#FFFFFF;stroke:#DDE4EC;stroke-width:2;stroke-miterlimit:10;}
	.st173{fill-rule:evenodd;clip-rule:evenodd;fill:#206095;}
	.st174{fill-rule:evenodd;clip-rule:evenodd;fill:#D0D2D3;}
	.st175{fill-rule:evenodd;clip-rule:evenodd;fill:#4D80AA;}
	.st176{fill-rule:evenodd;clip-rule:evenodd;fill:#79A0BF;}
	.st177{fill-rule:evenodd;clip-rule:evenodd;fill:#A6BFD5;}
	.st178{fill-rule:evenodd;clip-rule:evenodd;fill:#D2DFEA;}
	.st179{fill:none;stroke:#FFFFFF;stroke-miterlimit:10;}
	.st180{clip-path:url(#SVGID_61_);fill:#00A5A1;}
	.st181{clip-path:url(#SVGID_63_);fill:#00A5A1;}
	.st182{clip-path:url(#SVGID_65_);fill:#00A5A1;}
	.st183{clip-path:url(#SVGID_67_);fill:#00A5A1;}
	.st184{fill-rule:evenodd;clip-rule:evenodd;fill:#5F82A8;}
	.st185{fill-rule:evenodd;clip-rule:evenodd;fill:#1A4C83;}
	.st186{fill:none;stroke:#DDE4EC;stroke-miterlimit:10;}
	.st187{fill:#5F82A8;}
	.st188{fill:none;stroke:#147234;stroke-width:1.5;stroke-linecap:round;stroke-linejoin:round;stroke-miterlimit:10;}
	.st189{fill:none;stroke:#D32F2F;stroke-width:1.5;stroke-linecap:round;stroke-linejoin:round;stroke-miterlimit:10;}
	.st190{fill:#147234;}
	.st191{fill:none;stroke:#147234;stroke-width:2;stroke-linecap:round;stroke-linejoin:round;stroke-miterlimit:10;}
	.st192{fill:none;stroke:#D32F2F;stroke-width:2;stroke-linecap:round;stroke-linejoin:round;stroke-miterlimit:10;}
	.st193{fill-rule:evenodd;clip-rule:evenodd;fill:#147234;}
	.st194{fill:none;stroke:#EAEAEA;stroke-miterlimit:10;}
</style>
<g>
	<path class="st0" d="M39.01,78.03C17.5,78.03,0,60.53,0,39.01S17.5,0,39.01,0s39.01,17.5,39.01,39.01S60.53,78.03,39.01,78.03z
		 M39.01,2C18.6,2,2,18.6,2,39.01s16.6,37.01,37.01,37.01s37.01-16.6,37.01-37.01S59.42,2,39.01,2z"/>
</g>
<g>
	<circle class="st26" cx="64.3" cy="70.74" r="7.28"/>
</g>
<g>
	<path class="st26" d="M47.08,21.93c-0.33-2.26-2.25-4.01-4.61-4.01h-8.28c-2.36,0-4.29,1.75-4.61,4.01
		c-0.62,0.09-1.11,0.6-1.11,1.25v0.83h1.04v4.13h17.63v-4.13h1.06h0v-0.83C48.21,22.53,47.71,22.01,47.08,21.93z"/>
</g>
<g id="path11_7_">
	<path class="st132" d="M60.52,38.42l0.82-18.22c0.02-0.55,0.48-0.99,1.04-0.99l0,0c0.57,0,1.04,0.46,1.04,1.04v23.42
		c0,0.33-0.16,0.64-0.42,0.84l-2.94,2.15L60.52,38.42z"/>
</g>
<g id="path13_7_">
	<path class="st132" d="M16.26,38.42l-0.81-18.22c-0.03-0.55-0.48-0.99-1.04-0.99l0,0c-0.57,0-1.04,0.46-1.04,1.04v23.42
		c0,0.33,0.16,0.64,0.42,0.84l2.94,2.15L16.26,38.42z"/>
</g>
<g>
	<defs>
		<ellipse id="SVGID_24_" cx="18.53" cy="41.93" rx="3.7" ry="6.89"/>
	</defs>
	<use xlink:href="#SVGID_24_"  style="overflow:visible;fill:#1A4C83;"/>
	<clipPath id="SVGID_1_">
		<use xlink:href="#SVGID_24_"  style="overflow:visible;"/>
	</clipPath>
	<g style="clip-path:url(#SVGID_1_);">
		<path class="st26" d="M20.01,39.27c0-3.88-1.53-7.09-3.53-7.67v-0.11H15.3v0.07c-2.06,0.48-3.66,3.74-3.66,7.71
			s1.6,7.23,3.66,7.71v0.07h1.18v-0.11C18.48,46.36,20.01,43.15,20.01,39.27z"/>
	</g>
</g>
<g>
	<defs>
		<ellipse id="SVGID_26_" cx="58.39" cy="41.93" rx="3.7" ry="6.89"/>
	</defs>
	<use xlink:href="#SVGID_26_"  style="overflow:visible;fill:#1A4C83;"/>
	<clipPath id="SVGID_3_">
		<use xlink:href="#SVGID_26_"  style="overflow:visible;"/>
	</clipPath>
	<g style="clip-path:url(#SVGID_3_);">
		<path class="st26" d="M65.17,39.27c0-3.97-1.6-7.24-3.67-7.71v-0.07h-1.18v0.11c-2,0.59-3.53,3.79-3.53,7.67
			c0,3.88,1.53,7.08,3.53,7.67v0.11h1.18v-0.07C63.57,46.51,65.17,43.24,65.17,39.27z"/>
	</g>
</g>
<g id="path59_8_">
	<path class="st132" d="M57.1,29.33l-4.4-4.3c-0.81-0.79-1.88-1.23-3.01-1.23H27.16c-1.12,0-2.2,0.44-3.01,1.23l-4.4,4.3
		c-0.83,0.81-1.29,1.92-1.29,3.08v5.33v10.79v5.33c0,1.16,0.47,2.27,1.29,3.08l4.4,4.3c0.81,0.79,1.88,1.23,3.01,1.23h22.53
		c1.12,0,2.2-0.44,3.01-1.23l4.4-4.3c0.83-0.81,1.29-1.92,1.29-3.08v-5.32V37.74v-5.33C58.39,31.25,57.92,30.14,57.1,29.33z"/>
</g>
<g id="circle65_17_">
	<circle class="st61" cx="28.97" cy="37.57" r="5.81"/>
</g>
<g id="circle67_32_">
	<circle class="st1" cx="28.97" cy="37.57" r="3.65"/>
</g>
<g id="circle71_17_">
	<circle class="st61" cx="47.51" cy="37.57" r="5.81"/>
</g>
<g id="circle73_17_">
	<ellipse transform="matrix(0.2298 -0.9732 0.9732 0.2298 0.029 75.1704)" class="st1" cx="47.51" cy="37.57" rx="3.65" ry="3.65"/>
</g>
<g id="path83_17_">
	<path class="st26" d="M37.53,41.46l-2.14,5.14c-0.22,0.53,0.17,1.12,0.75,1.12h4.2c0.57,0,0.96-0.58,0.75-1.11l-2.06-5.14
		C38.76,40.8,37.81,40.8,37.53,41.46z"/>
</g>
<g id="path97_7_">
	<path class="st137" d="M45.07,55.3H31.32c-1.95,0-3.53-1.58-3.53-3.53v-0.52H48.6v0.52C48.6,53.71,47.02,55.3,45.07,55.3z"/>
</g>
<g id="path101_8_">
	<path class="st26" d="M45.26,55.3H31.27c-1.76,0-3.18-1.43-3.18-3.18l0,0c0-0.48,0.69-0.87,1.17-0.87h18.31
		c0.48,0,0.87,0.39,0.87,0.87l0,0C48.44,53.87,47.02,55.3,45.26,55.3z"/>
	<path class="st61" d="M45.26,56.3H31.27c-2.31,0-4.18-1.88-4.18-4.18c0-1.16,1.26-1.87,2.17-1.87h18.31c1.03,0,1.87,0.84,1.87,1.87
		C49.44,54.42,47.56,56.3,45.26,56.3z M29.1,52.3c0.09,1.12,1.03,2,2.17,2h13.99c1.16,0,2.11-0.91,2.18-2.05H29.26
		C29.22,52.24,29.15,52.27,29.1,52.3z"/>
</g>
<g id="rect109_8_">
	<rect x="33.11" y="52.09" class="st1" width="2.46" height="2.37"/>
</g>
<g id="rect111_8_">
	<rect x="37.01" y="52.09" class="st1" width="2.46" height="2.37"/>
</g>
<g id="rect113_8_">
	<rect x="40.9" y="52.09" class="st1" width="2.46" height="2.37"/>
</g>
<g id="path115_8_">
	<path class="st1" d="M44.89,54.46h-0.1v-2.37h2.46l0,0C47.26,53.4,46.2,54.46,44.89,54.46z"/>
</g>
<g id="path117_8_">
	<path class="st1" d="M31.68,54.46h-0.1c-1.31,0-2.37-1.06-2.37-2.37l0,0h2.46V54.46z"/>
</g>
</svg>
