<?xml version="1.0" encoding="utf-8"?>
<!-- Generator: Adobe Illustrator 20.1.0, SVG Export Plug-In . SVG Version: 6.00 Build 0)  -->
<svg version="1.1" id="Layer_1" xmlns="http://www.w3.org/2000/svg" xmlns:xlink="http://www.w3.org/1999/xlink" x="0px" y="0px"
	 viewBox="0 0 90 90" style="enable-background:new 0 0 90 90;" xml:space="preserve">
<style type="text/css">
	.st0{fill:#656f6b;stroke:#FFFFFF;stroke-width:8;stroke-miterlimit:10;}
	.st1{fill:#FFFFFF;}
</style>
<g>
	<g>
		<circle class="st0" cx="45" cy="45" r="39.4"/>
	</g>
</g>
<g>
	<path class="st1" d="M36.7,66.5h-8.8v-24l0.1-3.9l0.1-4.3c-1.5,1.5-2.5,2.4-3,2.9l-4.8,3.8l-4.2-5.3L29.5,25h7.2V66.5z"/>
	<path class="st1" d="M67.6,34.3c0,2.6-0.8,4.8-2.4,6.6c-1.6,1.8-3.8,3.1-6.6,3.8v0.2c3.4,0.4,5.9,1.4,7.6,3.1
		c1.7,1.6,2.6,3.8,2.6,6.5c0,4-1.4,7.1-4.3,9.3c-2.9,2.2-7,3.3-12.4,3.3c-4.5,0-8.5-0.7-12-2.2v-7.5c1.6,0.8,3.4,1.5,5.3,2
		c1.9,0.5,3.8,0.8,5.7,0.8c2.9,0,5-0.5,6.4-1.5c1.4-1,2.1-2.6,2.1-4.7c0-2-0.8-3.3-2.4-4.1c-1.6-0.8-4.1-1.2-7.6-1.2h-3.2v-6.7h3.2
		c3.2,0,5.6-0.4,7.1-1.3c1.5-0.8,2.2-2.3,2.2-4.3c0-3.1-2-4.7-5.9-4.7c-1.4,0-2.8,0.2-4.2,0.7s-3,1.2-4.7,2.4l-4.1-6.1
		c3.8-2.7,8.3-4.1,13.6-4.1c4.3,0,7.7,0.9,10.2,2.6C66.4,28.8,67.6,31.2,67.6,34.3z"/>
</g>
</svg>
