<?xml version="1.0" encoding="utf-8"?>
<!-- Generator: Adobe Illustrator 16.0.5, SVG Export Plug-In . SVG Version: 6.00 Build 0)  -->
<!DOCTYPE svg PUBLIC "-//W3C//DTD SVG 1.1//EN" "http://www.w3.org/Graphics/SVG/1.1/DTD/svg11.dtd">
<svg version="1.1" id="Layer_1" xmlns="http://www.w3.org/2000/svg" xmlns:xlink="http://www.w3.org/1999/xlink" x="0px" y="0px"
	 width="600px" height="800px" viewBox="0 0 600 800" enable-background="new 0 0 600 800" xml:space="preserve">
<g>
	<g>
		<circle fill="#656F6B" stroke="#FFFFFF" stroke-width="8" stroke-miterlimit="10" cx="300" cy="400" r="262.667"/>
	</g>
</g>
<g>
	<path fill="#FFFFFF" d="M247.333,540h-58.667V380l0.667-26L190,325.334c-10,10-16.667,16-20,19.333L138,370l-28-35.333
		l89.333-71.333h48V540z"/>
</g>
<g>
	<path fill="#FFFFFF" d="M389.152,361.759c25.541,0,46.099,7.476,61.672,22.426c14.95,14.951,23.049,35.507,23.049,61.048
		c0,30.524-9.344,54.196-27.41,71.016c-18.065,16.819-44.229,24.918-78.49,24.918c-29.901,0-53.573-4.983-71.639-14.95v-49.836
		c9.344,4.983,20.558,9.345,33.639,13.082c13.082,3.737,24.918,4.983,36.132,4.983c34.261,0,51.704-14.327,51.704-43.606
		c0-27.409-18.065-41.736-53.573-41.736c-6.229,0-13.705,0.622-21.181,1.868s-14.327,2.491-18.688,4.36l-22.426-12.459
		l9.968-139.539H456.43v49.212h-96.557l-4.983,53.574l6.229-1.247C369.218,363.004,377.939,361.759,389.152,361.759z"/>
</g>
</svg>
