<?xml version="1.0" encoding="utf-8"?>
<!-- Generator: Adobe Illustrator 19.1.0, SVG Export Plug-In . SVG Version: 6.00 Build 0)  -->
<!DOCTYPE svg PUBLIC "-//W3C//DTD SVG 1.1//EN" "http://www.w3.org/Graphics/SVG/1.1/DTD/svg11.dtd">
<svg version="1.1" id="Layer_1" xmlns="http://www.w3.org/2000/svg" xmlns:xlink="http://www.w3.org/1999/xlink" x="0px" y="0px"
	 viewBox="25 -25 90 90" style="enable-background:new 25 -25 90 90;" xml:space="preserve">
<style type="text/css">
	.st0{fill:#656f6b;stroke:#FFFFFF;stroke-width:8;stroke-miterlimit:10;}
	.st1{fill:#FFFFFF;}
</style>
<g>
	<circle class="st0" cx="70" cy="19.5" r="39.4"/>
	<g>
		<path class="st1" d="M84.6,40.5H54.7V34l10.7-11.2c3.2-3.4,5.2-5.7,6.2-7s1.7-2.5,2.1-3.6c0.4-1.1,0.6-2.2,0.6-3.4
			c0-1.8-0.5-3.1-1.4-3.9C72,4,70.7,3.6,69.1,3.6c-1.7,0-3.3,0.4-4.8,1.2c-1.5,0.8-3.2,1.9-4.9,3.3l-4.9-6c2.1-1.8,3.8-3.2,5.2-3.9
			c1.4-0.8,2.9-1.4,4.5-1.8s3.5-0.6,5.5-0.6c2.7,0,5,0.5,7.1,1.5c2,1,3.6,2.4,4.8,4.2c1.1,1.8,1.7,3.9,1.7,6.2c0,2-0.3,3.9-1,5.7
			s-1.8,3.6-3.2,5.5c-1.5,1.9-4,4.5-7.7,8L66,32.2v0.4h18.6V40.5z"/>
	</g>
</g>
</svg>
