<?xml version="1.0" encoding="utf-8"?>
<!-- Generator: Adobe Illustrator 18.1.1, SVG Export Plug-In . SVG Version: 6.00 Build 0)  -->
<!DOCTYPE svg PUBLIC "-//W3C//DTD SVG 1.1//EN" "http://www.w3.org/Graphics/SVG/1.1/DTD/svg11.dtd">
<svg version="1.1" id="Layer_1" xmlns="http://www.w3.org/2000/svg" xmlns:xlink="http://www.w3.org/1999/xlink" x="0px" y="0px"
	 viewBox="0 0 90 90" enable-background="new 0 0 90 90" xml:space="preserve">
<g>
	<circle fill="#656f6b" stroke="#FFFFFF" stroke-width="8" stroke-miterlimit="10" cx="45" cy="45" r="39.4"/>
	<g>
		<path fill="#FFFFFF" d="M44.5,22.2c4.1,0,7.4,1,9.9,2.9c2.5,1.9,3.8,4.5,3.8,7.8c0,2.2-0.6,4.3-1.8,6c-1.2,1.8-3.2,3.3-5.8,4.7
			c3.2,1.8,5.5,3.6,6.9,5.5s2.1,4,2.1,6.3c0,3.6-1.4,6.5-4.1,8.7c-2.7,2.2-6.4,3.3-10.8,3.3c-4.7,0-8.3-1-11-3.1c-2.7-2-4-5-4-8.7
			c0-2.5,0.6-4.7,1.9-6.7c1.3-1.9,3.4-3.7,6.2-5.2c-2.4-1.6-4.2-3.3-5.3-5.1c-1.1-1.8-1.6-3.8-1.6-5.9c0-3.2,1.3-5.7,3.8-7.7
			C37.1,23.1,40.4,22.2,44.5,22.2z M37.8,55.1c0,1.7,0.6,3.1,1.8,4s2.8,1.4,4.8,1.4c2.2,0,3.9-0.5,5-1.5s1.7-2.3,1.7-3.9
			c0-1.3-0.6-2.6-1.7-3.8s-2.9-2.4-5.4-3.8C39.9,49.6,37.8,52.1,37.8,55.1z M44.4,29c-1.5,0-2.8,0.4-3.7,1.2
			c-0.9,0.8-1.4,1.9-1.4,3.3c0,1.2,0.4,2.3,1.1,3.2c0.7,1,2.1,1.9,4.1,2.9c1.9-0.9,3.2-1.9,4-2.8c0.8-1,1.1-2.1,1.1-3.3
			c0-1.4-0.5-2.5-1.5-3.3C47.2,29.4,45.9,29,44.4,29z"/>
	</g>
</g>
</svg>
