<?xml version="1.0" encoding="utf-8"?>
<!-- Generator: Adobe Illustrator 19.1.0, SVG Export Plug-In . SVG Version: 6.00 Build 0)  -->
<!DOCTYPE svg PUBLIC "-//W3C//DTD SVG 1.1//EN" "http://www.w3.org/Graphics/SVG/1.1/DTD/svg11.dtd">
<svg version="1.1" id="Layer_1" xmlns="http://www.w3.org/2000/svg" xmlns:xlink="http://www.w3.org/1999/xlink" x="0px" y="0px"
	 viewBox="25 -25 90 90" style="enable-background:new 25 -25 90 90;" xml:space="preserve">
<style type="text/css">
	.st0{fill:#656f6b;stroke:#FFFFFF;stroke-width:8;stroke-miterlimit:10;}
	.st1{fill:#FFFFFF;}
</style>
<g>
	<circle class="st0" cx="70" cy="20" r="39.4"/>
	<g>
		<path class="st1" d="M85.4,16.5c0,8.7-1.8,15.2-5.3,19.4c-3.5,4.3-8.9,6.4-16.1,6.4c-2.5,0-4.5-0.1-5.8-0.4v-7.5
			c1.6,0.4,3.4,0.6,5.1,0.6c3,0,5.5-0.5,7.5-1.4s3.4-2.3,4.5-4.3c1-2,1.6-4.7,1.8-8.1h-0.4c-1.1,1.9-2.4,3.2-3.9,4s-3.3,1.1-5.6,1.1
			c-3.7,0-6.7-1.2-8.8-3.7c-2.1-2.5-3.2-5.9-3.2-10.3c0-4.7,1.3-8.5,3.9-11.2C61.7-1.6,65.2-3,69.7-3c3.2,0,5.9,0.8,8.3,2.3
			c2.4,1.5,4.2,3.7,5.5,6.6C84.8,9.1,85.4,12.5,85.4,16.5z M70,4.7c-1.9,0-3.3,0.7-4.4,2S64,9.9,64,12.4c0,2.1,0.5,3.8,1.4,5.1
			c1,1.2,2.4,1.9,4.4,1.9c1.8,0,3.4-0.6,4.7-1.9c1.3-1.2,2-2.7,2-4.3c0-2.4-0.6-4.4-1.8-6.1S71.9,4.7,70,4.7z"/>
	</g>
</g>
</svg>
