<?xml version="1.0" encoding="utf-8"?>
<!-- Generator: Adobe Illustrator 21.0.2, SVG Export Plug-In . SVG Version: 6.00 Build 0)  -->
<svg version="1.1" id="Layer_1" xmlns="http://www.w3.org/2000/svg" xmlns:xlink="http://www.w3.org/1999/xlink" x="0px" y="0px"
	 width="112px" height="48px" viewBox="0 0 112 48" style="enable-background:new 0 0 112 48;" xml:space="preserve">
<style type="text/css">
	.st0{fill:#FFFFFF;}
</style>
<g>
	<circle class="st0" cx="17.1" cy="8.7" r="3.2"/>
	<path class="st0" d="M25.7,25.7l-1.8-9c-0.3-1.9-2.1-4.1-4.8-4.1h-4.2c-2.7,0-4.4,2.2-4.8,4.1l-1.8,9c-0.1,0.6,0.3,1.2,0.9,1.3
		s1.1-0.3,1.3-0.9l2.3-7.6c0-0.1,0.2-0.2,0.3-0.2c0.1,0,0.2,0.2,0.2,0.3l-2.9,12.6c0,0.4,0.3,0.8,0.8,0.8H12c0.4,0,0.9,0.4,1,0.8
		l1.3,7.6c0.1,0.5,0.5,0.8,1,0.8h3.6c0.5,0,0.9-0.4,1-0.8l1.1-7.6c0.1-0.5,0.5-0.8,1-0.8h0.8c0.5,0,0.8-0.4,0.7-0.8l-2.6-12.6
		c0-0.1,0-0.3,0.2-0.3c0.1,0,0.3,0.1,0.3,0.2l2.3,7.6c0.2,0.6,0.6,1,1.3,0.9C25.4,26.9,25.8,26.3,25.7,25.7z"/>
</g>
</svg>
