<?xml version="1.0" encoding="utf-8"?>
<!-- Generator: Adobe Illustrator 21.0.2, SVG Export Plug-In . SVG Version: 6.00 Build 0)  -->
<svg version="1.1" id="Layer_1" xmlns="http://www.w3.org/2000/svg" xmlns:xlink="http://www.w3.org/1999/xlink" x="0px" y="0px"
	 width="112px" height="48px" viewBox="0 0 112 48" style="enable-background:new 0 0 112 48;" xml:space="preserve">
<style type="text/css">
	.st0{fill:#FFFFFF;}
</style>
<g>
	<circle class="st0" cx="16.7" cy="8.7" r="3.2"/>
	<path class="st0" d="M23.9,17.6c0.1-1.9-1.4-5-4.6-5H14c-3.2,0-4.7,3.2-4.6,5l-0.1,9.2c0,0.6,0.5,1.1,1.2,1c0.6,0,1-0.5,1-1.2
		l0.4-7.6c0-0.2,0.1-0.3,0.3-0.3s0.3,0.1,0.3,0.3l0,0v21.4c0,0.5,0.4,0.9,0.9,0.9h1.5c0.5,0,0.8-0.4,0.9-0.9l0.5-11.9
		c0-0.4,0-0.5,0.4-0.5l0,0c0.3,0,0.3,0.2,0.4,0.5l0.5,11.9c0,0.5,0.4,0.9,0.9,0.9H20c0.5,0,0.9-0.4,0.9-0.9V19.1l0,0
		c0-0.2,0.1-0.3,0.3-0.3s0.3,0.1,0.3,0.3l0.4,7.6c0,0.6,0.5,1.2,1,1.2c0.6,0,1.2-0.4,1.2-1L23.9,17.6z"/>
</g>
</svg>
