<?xml version="1.0" encoding="utf-8"?>
<!-- Generator: Adobe Illustrator 22.1.0, SVG Export Plug-In . SVG Version: 6.00 Build 0)  -->
<svg version="1.1" id="Layer_1" xmlns="http://www.w3.org/2000/svg" xmlns:xlink="http://www.w3.org/1999/xlink" x="0px" y="0px"
	 viewBox="0 0 200 200" style="enable-background:new 0 0 200 200;" xml:space="preserve">
<style type="text/css">
	.st0{fill:#EAEAEA;}
	.st1{fill:#206095;stroke:#FF9933;stroke-width:3;stroke-miterlimit:10;}
	.st2{fill:#FFFFFF;stroke:#206095;stroke-width:2;stroke-miterlimit:10;}
	.st3{fill:#FFFFFF;}
	.st4{fill:#206095;}
	.st5{fill:#D0D2D3;stroke:#D0D2D3;stroke-width:2;stroke-miterlimit:10;}
	.st6{fill:none;stroke:#FF9933;stroke-width:2.5;stroke-miterlimit:10;}
	.st7{fill:none;stroke:#206095;stroke-miterlimit:10;}
	.st8{fill:none;stroke:#D0D2D3;stroke-width:0.75;stroke-miterlimit:10;}
	.st9{fill:#008080;}
	.st10{fill:#014462;}
	.st11{fill:#414042;}
	.st12{fill:none;stroke:#79A0BF;stroke-width:3;stroke-miterlimit:10;}
	.st13{fill:none;stroke:#206095;stroke-width:3;stroke-miterlimit:10;}
	.st14{fill:#0F8243;}
	.st15{enable-background:new    ;}
	.st16{fill:#6DBB94;}
	.st17{fill:#3DA470;}
	.st18{fill:none;stroke:#3DA470;stroke-width:3;stroke-miterlimit:10;}
	.st19{fill:none;stroke:#D0D2D3;stroke-width:4;stroke-miterlimit:10;}
	.st20{fill:none;stroke:#D0D2D3;stroke-width:2;stroke-miterlimit:10;}
	.st21{fill:#FF9933;}
	.st22{fill:none;stroke:#D0D2D3;stroke-width:6;stroke-miterlimit:10;}
	.st23{fill:none;stroke:#D0D2D3;stroke-width:3;stroke-miterlimit:10;}
	.st24{fill:#F88B2D;}
	.st25{fill:#5F7682;}
	.st26{fill:none;stroke:#FF9933;stroke-width:2;stroke-linecap:round;stroke-linejoin:round;stroke-miterlimit:10;}
	.st27{fill:#00A7A3;}
	.st28{fill:none;stroke:#FFFFFF;stroke-width:1.5;stroke-miterlimit:10;}
	.st29{fill:none;stroke:#FFFFFF;stroke-width:3;stroke-miterlimit:10;}
	.st30{fill:#2E99CC;}
	.st31{fill-rule:evenodd;clip-rule:evenodd;fill:#206095;}
	.st32{fill-rule:evenodd;clip-rule:evenodd;fill:#008080;}
	.st33{fill:#206095;stroke:#008080;stroke-width:4;stroke-miterlimit:10;}
	.st34{fill:none;stroke:#D0D2D3;stroke-width:0.75;stroke-miterlimit:10;stroke-dasharray:6;}
	.st35{fill:none;stroke:#206095;stroke-width:1.5;stroke-miterlimit:10;}
	.st36{fill:#DEE7EF;}
	.st37{fill:none;stroke:#FFFFFF;stroke-width:2;stroke-miterlimit:10;}
	.st38{fill:none;stroke:#0F8243;stroke-width:4;stroke-miterlimit:10;}
	.st39{fill:#86C6A6;}
	.st40{fill:none;stroke:#206095;stroke-width:2;stroke-miterlimit:10;}
	.st41{fill:#D2DFEA;}
	
		.st42{fill:none;stroke:#0F8243;stroke-width:2;stroke-linecap:round;stroke-linejoin:round;stroke-miterlimit:10;stroke-dasharray:4,8;}
	
		.st43{fill:none;stroke:#0F8243;stroke-width:2;stroke-linecap:round;stroke-linejoin:round;stroke-miterlimit:10;stroke-dasharray:3.8,8;}
	
		.st44{fill:none;stroke:#0F8243;stroke-width:2;stroke-linecap:round;stroke-linejoin:round;stroke-miterlimit:10;stroke-dasharray:3.8,5;}
	.st45{fill:#D32F2F;}
	.st46{fill:none;stroke:#FFFFFF;stroke-miterlimit:10;}
	
		.st47{fill:none;stroke:#0F8243;stroke-width:3;stroke-linecap:round;stroke-linejoin:round;stroke-miterlimit:10;stroke-dasharray:3.8,8;}
	
		.st48{fill:none;stroke:#0F8243;stroke-width:3;stroke-linecap:round;stroke-linejoin:round;stroke-miterlimit:10;stroke-dasharray:3.8,5;}
</style>
<path class="st10" d="M160.7,191.2c2.2,0,4-1.8,4-4V98.5h17.7l0,0c1.9-0.1,3.5-1.6,3.5-3.6c0-0.9-0.4-1.8-1-2.4l0,0l-0.1-0.1
	c0,0,0,0-0.1-0.1l-31.7-31.6V22.1c0-2-1.3-3.6-3.2-3.6l-15.9,0c-2,0-3.6,1.6-3.6,3.6l0,15.8L104.3,12c-2.8-2.9-3.4-3.4-5.1-3.4
	C97.5,8.6,97,9.1,94.1,12L73.8,32.2L47.4,58.5L13.7,92.3c0,0,0,0-0.1,0.1l-0.1,0.1l0,0c-0.6,0.6-1,1.5-1,2.4c0,1.9,1.5,3.5,3.5,3.6
	l0,0h17.7v88.8c0,2.2,1.8,4,4,4h44.2v-45.5c0-2.2,1.8-4,4-4h14.8H114c2.2,0,4,1.8,4,4v45.5H160.7z"/>
<polygon class="st3" points="131.1,72.1 123.6,64.6 89.8,98.4 78.2,86.8 70.5,94.4 89.7,113.5 89.7,113.5 89.7,113.5 "/>
</svg>
