<?xml version="1.0" encoding="utf-8"?>
<!-- Generator: Adobe Illustrator 22.1.0, SVG Export Plug-In . SVG Version: 6.00 Build 0)  -->
<svg version="1.1" id="Layer_1" xmlns="http://www.w3.org/2000/svg" xmlns:xlink="http://www.w3.org/1999/xlink" x="0px" y="0px"
	 viewBox="0 0 200 128" style="enable-background:new 0 0 200 128;" xml:space="preserve">
<style type="text/css">
	.st0{fill:#5F7682;}
	.st1{fill:#A8BD3A;}
	.st2{fill:#003C57;}
	.st3{fill:#00A7A3;}
	.st4{fill:#FFFFFF;}
	.st5{fill:#36ADD9;}
	.st6{fill:none;}
	.st7{fill:#3B7A9E;}
	.st8{fill:#003D58;}
	.st9{fill:none;stroke:#FFFFFF;stroke-width:1.5935;stroke-linecap:round;stroke-linejoin:round;stroke-dasharray:12.428,12.428;}
	.st10{fill:#3DAED7;}
	.st11{fill:#003D58;stroke:#3B7A9E;stroke-width:3;stroke-miterlimit:10;}
	.st12{fill-rule:evenodd;clip-rule:evenodd;fill:#003B56;}
	.st13{fill:#D1376D;}
	.st14{fill:#EB92BB;}
	.st15{fill:#F0CFB4;}
	.st16{fill:#FCE5D8;}
	.st17{fill:#EB92BB;stroke:#D1376D;stroke-miterlimit:10;}
	.st18{fill:#6EBEA1;}
	.st19{fill-rule:evenodd;clip-rule:evenodd;fill:#6EBEA1;}
	.st20{fill:#0075A3;}
	.st21{fill-rule:evenodd;clip-rule:evenodd;fill:#003C57;}
	.st22{fill:#008080;}
	.st23{fill:#003C56;}
	.st24{fill:#E4E5E6;}
	.st25{fill-rule:evenodd;clip-rule:evenodd;fill:#FFFFFF;}
	.st26{clip-path:url(#SVGID_2_);fill:none;stroke:#FFFFFF;stroke-width:0.3612;stroke-miterlimit:10;}
	.st27{clip-path:url(#SVGID_4_);fill:#FFFFFF;}
	.st28{clip-path:url(#SVGID_6_);}
	.st29{clip-path:url(#SVGID_6_);fill:#003C57;}
	.st30{clip-path:url(#SVGID_8_);fill:#003C57;}
	.st31{clip-path:url(#SVGID_8_);}
	.st32{fill:none;stroke:#864D86;stroke-width:0.1806;stroke-miterlimit:10;}
	.st33{clip-path:url(#SVGID_10_);}
	.st34{clip-path:url(#SVGID_10_);fill:#003C57;}
	.st35{clip-path:url(#SVGID_12_);fill:#003C57;}
	.st36{clip-path:url(#SVGID_12_);}
	.st37{clip-path:url(#SVGID_12_);fill:none;stroke:#FFFFFF;stroke-width:0.5417;stroke-miterlimit:10;}
	.st38{fill:none;stroke:#FFFFFF;stroke-width:0.5417;stroke-miterlimit:10;}
	.st39{clip-path:url(#SVGID_14_);fill:#003C57;}
	.st40{clip-path:url(#SVGID_14_);fill:none;stroke:#FFFFFF;stroke-width:0.5417;stroke-miterlimit:10;}
	.st41{clip-path:url(#SVGID_16_);fill:#003D58;}
	.st42{clip-path:url(#SVGID_18_);}
	.st43{clip-path:url(#SVGID_20_);fill:#003C57;}
	.st44{clip-path:url(#SVGID_20_);}
	.st45{clip-path:url(#SVGID_22_);fill:#003C57;}
	.st46{clip-path:url(#SVGID_22_);}
	.st47{clip-path:url(#SVGID_24_);fill:none;stroke:#FFFFFF;stroke-width:0.3266;stroke-miterlimit:10;}
	.st48{clip-path:url(#SVGID_26_);fill:#FFFFFF;}
	.st49{clip-path:url(#SVGID_28_);fill:#003D58;}
	.st50{clip-path:url(#SVGID_28_);fill:#003C57;}
	.st51{clip-path:url(#SVGID_28_);}
	.st52{clip-path:url(#SVGID_30_);fill:#003C57;}
	.st53{clip-path:url(#SVGID_30_);}
	.st54{fill:none;stroke:#864D86;stroke-width:0.1633;stroke-miterlimit:10;}
	.st55{clip-path:url(#SVGID_32_);fill:#003D58;}
	.st56{clip-path:url(#SVGID_34_);fill:#003D58;}
	.st57{clip-path:url(#SVGID_34_);fill:none;stroke:#FFFFFF;stroke-width:0.4898;stroke-miterlimit:10;}
	.st58{fill:none;stroke:#FFFFFF;stroke-width:0.4898;stroke-miterlimit:10;}
	.st59{clip-path:url(#SVGID_36_);fill:#003D58;}
	.st60{clip-path:url(#SVGID_36_);fill:none;stroke:#FFFFFF;stroke-width:0.4898;stroke-miterlimit:10;}
	.st61{clip-path:url(#SVGID_38_);fill:#003D58;}
	.st62{clip-path:url(#SVGID_40_);fill:#003D58;}
	.st63{clip-path:url(#SVGID_42_);fill:#003D58;}
	.st64{clip-path:url(#SVGID_44_);fill:#003D58;}
	.st65{fill:#E9E9EA;}
	.st66{fill:#F8F3F3;}
	.st67{fill:#F6EEEF;}
	.st68{fill:#E1BB23;}
	.st69{fill:#E15052;}
	.st70{fill:#A8BD39;}
	.st71{opacity:0.3;fill:#FFFFFF;}
</style>
<path class="st21" d="M195.4,52.1c-0.5-1-1.8-1.3-2.7-0.8c-3.3,1.8-8,3.1-12,1.8c0,0,0,0,0,0c1.1-3.8,1.3-9.3-2-12.2
	c-2.1-1.8-5.2-1.8-7.2,0.1c-1.7,1.6-2,4.4-1,7.3c0.9,2.6,2.7,4.9,4.8,6.5c-0.7,0.8-1.6,1.5-2.6,2c-2.7,1.2-6.4,1.1-9.8-0.2
	c-3.1-25.2-24.9-43.8-49.2-49.3c-10.6-2.4-21.6-2.6-32.4-1.2c-5.1,0.7-10.1,1.7-15,3c-0.2,0.1-0.5,0.1-0.7,0.2
	C64.6,9.6,51.6,14.4,52,15C47.5,8.9,38.6,3.6,28.2,4.6l-0.6,0.1c-1.2,0-2.1,1-2.1,2.1c0,0.6,0.8,1.8,0.8,1.8
	c2.9,3.7,6.7,10.6,6.4,20.1c-8.1,10.3-24,11-24,11c-2.2,0-4,1.8-4,4v24.3c0,1.6,1,3,2.4,3.7c0,0,29.4,10.9,29.4,47.8
	c0,2.2,1.8,4,4,4h25.6c2.6,0,3.1-1.4,3.1-1.4c0,0,0,0,0.1,0c4.8-7.6,13.2-12.6,22.8-12.6c9.5,0,17.8,4.9,22.6,12.2l0,0
	c0.7,1.1,1.7,1.8,2.8,1.8c0,0,15.5,0,15.5,0h10.7c2.2,0,4-1.8,4-4v-7.7c-0.1-4.2,1.1-7.3,2.9-10.2c1.5-1.9,2.8-4,4-6.1
	c0.1-0.1,0.1-0.2,0.2-0.3c5.6-9.5,8.8-20.6,8.8-32.4c0-0.7,0-1.3-0.1-2c1.7,0.5,3.3,0.7,5,0.7c2.2,0,4.3-0.4,6.1-1.2
	c1.8-0.8,3.4-2.1,4.5-3.7c5.4,2,11.5,0.5,15.7-1.9C195.6,54.3,195.9,53.1,195.4,52.1z M42.3,47c-3.2,0-5.8-2.6-5.8-5.8
	c0-3.2,2.6-5.8,5.8-5.8c3.2,0,5.8,2.6,5.8,5.8C48.1,44.4,45.5,47,42.3,47z M105.8,73.5c0,0.4-0.1,0.9-0.2,1.4H81.4l-0.1-0.2
	c0.5-0.4,0.9-0.9,1.4-1.5c0.6-0.8,1.2-1.8,1.7-2.8c0.5-1.1,0.9-2.2,1.2-3.5c0.3-1.3,0.4-2.6,0.4-4c0-0.8-0.1-1.6-0.2-2.5l-0.1-1H81
	c-0.1-0.5-0.1-0.9-0.1-1.2c-0.1-0.6-0.1-1.1-0.1-1.7c0-0.5,0-1,0.1-1.5c0-0.3,0.1-0.7,0.1-1.1h3.8l-0.1-1.3
	c-0.1-0.7-0.1-1.4-0.2-2.1c0-0.8-0.1-1.5-0.1-2.3c0-1.4,0.3-2.9,0.8-4.3c0.5-1.4,1.3-2.6,2.3-3.7c1-1.1,2.3-2,3.9-2.7
	c1.6-0.7,3.5-1,5.7-1c1.9,0,3.6,0.2,5.1,0.5c1.2,0.3,2.4,0.6,3.5,1.1c-0.1,0.8-0.3,1.7-0.5,2.7c-0.2,1-0.6,2.1-1.1,3.1
	c-0.6-0.3-1.2-0.5-1.8-0.7c-1.2-0.4-2.5-0.6-4.1-0.6c-1.1,0-2.1,0.2-2.9,0.6c-0.8,0.4-1.5,0.9-2,1.5c-0.5,0.6-0.9,1.3-1.1,2
	c-0.2,0.7-0.3,1.4-0.3,2.1c0,0.8,0,1.5,0.1,2.3c0.1,0.7,0.2,1.3,0.2,1.9l0.1,1h8.3c0.1,0.4,0.1,0.8,0.1,1.2c0.1,0.6,0.1,1.1,0.1,1.7
	c0,0.5,0,1-0.1,1.5c0,0.3-0.1,0.7-0.1,1.1l-7.7,0l0.5,1.5v0.4c0,0.9-0.1,1.9-0.2,2.9c-0.1,1-0.4,1.9-0.8,2.7l-0.7,1.7h14
	c0.1,0.5,0.1,0.9,0.1,1.3c0,0.7,0.1,1.3,0.1,1.8C105.8,72.2,105.8,72.8,105.8,73.5z M115.3,17.2c-0.2,0.7-0.8,1.2-1.5,1.2
	c-0.1,0-0.2,0-0.3,0c-9.9-2.3-20.6-2.6-31.9-1.1c-1.9,0.3-3.9,0.6-5.9,0.9c-0.8,0.2-1.6-0.4-1.8-1.2c-0.2-0.8,0.4-1.6,1.2-1.8
	c2-0.4,4-0.7,6-1c11.6-1.5,22.7-1.1,32.9,1.2C115,15.6,115.5,16.4,115.3,17.2z M177.1,51c-1.2-1.1-2.2-2.6-2.8-4.1
	c-0.4-1.1-0.6-2.5,0-3.1c0.2-0.2,0.5-0.3,0.8-0.3c0.3,0,0.7,0.1,0.9,0.3C177.5,45.1,177.6,48.2,177.1,51z"/>
</svg>
