<?xml version="1.0" encoding="utf-8"?>
<!-- Generator: Adobe Illustrator 19.2.1, SVG Export Plug-In . SVG Version: 6.00 Build 0)  -->
<svg version="1.1" id="Layer_1" xmlns="http://www.w3.org/2000/svg" xmlns:xlink="http://www.w3.org/1999/xlink" x="0px" y="0px"
	 width="107px" height="50px" viewBox="0 0 107 50" style="enable-background:new 0 0 107 50;" xml:space="preserve">
<style type="text/css">
	.st0{fill:#575F74;}
</style>
<title>1</title>
<g>
	<g>
		<g>
			<path class="st0" d="M64.4,13.6v7.7c0,2.1-1.7,3.6-3.6,3.6c-2.1,0-3.6-1.7-3.6-3.6v-7.7c-5.7,1.6-9.8,6.7-9.8,12.9v0.1v14.1h1
				c2.4,0,4.5,1.9,4.7,4.2h19.4c1,0,1.9-0.9,1.9-1.9V26.6v-0.1C74.2,20.3,70,15.1,64.4,13.6z M60.8,40.3c-2.2,0-3.7-1.8-3.7-3.7
				c0-2.2,1.8-3.7,3.7-3.7c2.2,0,3.7,1.8,3.7,3.7C64.6,38.7,63,40.3,60.8,40.3z"/>
		</g>
		<circle class="st0" cx="60.8" cy="36.6" r="2.2"/>
	</g>
	<path class="st0" d="M62.8,12.5c0-6.3-5.1-11.3-11.3-11.3S40,6.2,40,12.5l0,0v29.7h-4c-1.9,0-3.4,1.6-3.4,3.4v0.6
		c0,0.9,0.7,1.5,1.5,1.5h15.8c0.9,0,1.5-0.7,1.5-1.5v-0.6c0-1.9-1.6-3.4-3.4-3.4h-4V12.5l0,0c0-4.1,3.3-7.4,7.4-7.4s7.4,3.3,7.4,7.4
		l0,0v8.9c0,1.1,0.9,2,2,2c1.1,0,2-0.9,2-2L62.8,12.5L62.8,12.5z"/>
</g>
</svg>
