<?xml version="1.0" encoding="utf-8"?>
<!-- Generator: Adobe Illustrator 19.2.1, SVG Export Plug-In . SVG Version: 6.00 Build 0)  -->
<svg version="1.1" id="Layer_1" xmlns="http://www.w3.org/2000/svg" xmlns:xlink="http://www.w3.org/1999/xlink" x="0px" y="0px"
	 width="107px" height="65px" viewBox="0 0 107 65" style="enable-background:new 0 0 107 65;" xml:space="preserve">
<style type="text/css">
	.st0{fill:#575F74;}
</style>
<title>1</title>
<g>
	<g>
		<g>
			<path class="st0" d="M67,17.8v9.9c0,2.6-2.1,4.6-4.6,4.6c-2.6,0-4.6-2.1-4.6-4.6v-9.9c-7.2,2-12.5,8.6-12.5,16.5v0.1v18h1.2
				c3.1,0,5.7,2.4,6,5.4h24.7c1.3,0,2.4-1.1,2.4-2.4v-21v-0.1C79.5,26.4,74.2,19.8,67,17.8z M62.4,52c-2.7,0-4.8-2.2-4.8-4.8
				c0-2.7,2.2-4.8,4.8-4.8c2.7,0,4.8,2.2,4.8,4.8C67.3,49.9,65.1,52,62.4,52z"/>
		</g>
		<circle class="st0" cx="62.4" cy="47.2" r="2.8"/>
	</g>
	<path class="st0" d="M64.9,16.4c0-8-6.5-14.5-14.5-14.5S35.8,8.4,35.8,16.4l0,0v38h-5.1c-2.4,0-4.4,2-4.4,4.4v0.8
		c0,1.1,0.9,1.9,1.9,1.9h20.2c1.1,0,1.9-0.9,1.9-1.9v-0.8c0-2.4-2-4.4-4.4-4.4h-5.1v-38l0,0c0-5.2,4.2-9.5,9.5-9.5s9.5,4.2,9.5,9.5
		l0,0v11.4c0,1.4,1.1,2.5,2.5,2.5s2.5-1.1,2.5-2.5L64.9,16.4L64.9,16.4z"/>
</g>
</svg>
