<?xml version="1.0" encoding="utf-8"?>
<!-- Generator: Adobe Illustrator 19.2.1, SVG Export Plug-In . SVG Version: 6.00 Build 0)  -->
<svg version="1.1" id="Layer_1" xmlns="http://www.w3.org/2000/svg" xmlns:xlink="http://www.w3.org/1999/xlink" x="0px" y="0px"
	 width="107px" height="50px" viewBox="0 0 107 50" style="enable-background:new 0 0 107 50;" xml:space="preserve">
<style type="text/css">
	.st0{fill:#576074;}
</style>
<g>
	<circle class="st0" cx="53.3" cy="7.9" r="7.3"/>
	<path class="st0" d="M69.2,21.3l-8.4-5.4l0,0l0,0l0,0l0,0c-1.2-0.7-2.2-0.8-3-0.5l0,0c-0.4,0.2-0.7,0.3-1.1,0.5
		c-0.8,0.4-1.6,0.6-2.4,0.8v11.2c0,0.3-0.2,0.6-0.5,0.8c-0.1,0-0.2,0.1-0.2,0.1c-0.1,0-0.2,0-0.2-0.1c-0.3-0.1-0.5-0.4-0.5-0.8V16.7
		c-0.9-0.1-1.7-0.3-2.4-0.8c-0.4-0.2-0.7-0.4-1.1-0.5l0,0c-0.8-0.3-1.9-0.2-3,0.5l0,0l0,0l0,0l0,0L37.8,21c-1.8,1-2.1,2.7-1.3,4
		c0.8,1.3,2.3,1.9,4.1,0.8l5.2-2.6c-0.5,3.9-0.6,5.2-0.5,7.2c0,0.3,0,1.3,0,1.3c-1.6,0.9-3.4,3-4.1,3.9c-2.8,3.2-2.1,6-1.6,7.1
		c0.9,1.9,1.9,3.4,2,3.5c0.6,0.9,1.6,1.4,2.7,1.4c0.6,0,1.3-0.2,1.8-0.5c1.4-0.9,1.6-3,0.6-4.5c0,0-0.6-0.9-1.3-2.1
		c0.7-0.5,2.1-1.3,3.2-2c0.5-0.2,1.3-0.8,1.8-1c0,0.1,1.4,0.8,3.4,0.8l0,0c0.1,0,0.1,0,0.2,0s0.1,0,0.2,0l0,0c2.2,0,3.2-0.8,3.1-0.8
		c0.3,0.2,1.3,0.8,1.7,0.9c1.1,0.6,2.5,1.4,3.2,2c-0.6,1.3-1.3,2.1-1.3,2.1c-0.9,1.4-0.8,3.4,0.6,4.5c0.5,0.3,1.2,0.5,1.8,0.5
		c1,0,2-0.5,2.7-1.4c0.1-0.1,1-1.6,2-3.5c0.5-1.1,1.3-3.9-1.6-7.2c-0.7-0.8-2.7-3-4.1-3.8c0,0,0-0.9,0-1.2c0.1-2,0-3.5-0.5-7.4
		l5.2,2.8c1.9,1.1,3.4,0.5,4.1-0.8C71.3,23.9,70.9,22.3,69.2,21.3z"/>
</g>
</svg>
