<?xml version="1.0" encoding="utf-8"?>
<!-- Generator: Adobe Illustrator 19.2.1, SVG Export Plug-In . SVG Version: 6.00 Build 0)  -->
<svg version="1.1" id="Layer_1" xmlns="http://www.w3.org/2000/svg" xmlns:xlink="http://www.w3.org/1999/xlink" x="0px" y="0px"
	 width="107px" height="65px" viewBox="0 0 107 65" style="enable-background:new 0 0 107 65;" xml:space="preserve">
<style type="text/css">
	.st0{fill:#576074;}
</style>
<g>
	<circle class="st0" cx="53.7" cy="10.3" r="9.3"/>
	<path class="st0" d="M74,27.4l-10.8-6.9l0,0l0,0l0,0l0,0c-1.5-0.9-2.8-1-3.8-0.6l0,0c-0.5,0.2-0.9,0.4-1.4,0.7c-1,0.5-2,0.8-3.1,1
		v14.3c0,0.4-0.3,0.8-0.7,1c-0.1,0-0.2,0.1-0.3,0.1s-0.2,0-0.3-0.1c-0.4-0.1-0.7-0.5-0.7-1V21.6c-1.1-0.1-2.2-0.4-3.1-1
		c-0.5-0.3-0.9-0.5-1.4-0.7l0,0c-1-0.4-2.4-0.3-3.8,0.6l0,0l0,0l0,0l0,0l-10.8,6.6c-2.3,1.3-2.7,3.4-1.7,5.1s2.9,2.4,5.2,1l6.7-3.3
		c-0.7,5-0.8,6.6-0.7,9.2c0,0.4,0,1.7,0,1.7c-2,1.1-4.4,3.9-5.2,5c-3.6,4.1-2.7,7.7-2.1,9.1c1.1,2.4,2.4,4.4,2.5,4.5
		c0.8,1.1,2.1,1.8,3.4,1.8c0.8,0,1.6-0.3,2.3-0.7c1.8-1.2,2.1-3.8,0.8-5.7c0,0-0.8-1.1-1.6-2.7c0.9-0.7,2.7-1.7,4.1-2.5
		c0.6-0.3,1.7-1,2.3-1.3c0,0.1,1.8,1,4.4,1l0,0c0.1,0,0.1,0,0.2,0c0.1,0,0.1,0,0.2,0l0,0c2.8,0,4.1-1,4-1c0.4,0.3,1.6,1,2.2,1.2
		c1.4,0.8,3.2,1.8,4.1,2.5c-0.8,1.6-1.6,2.7-1.6,2.7c-1.2,1.8-1,4.4,0.8,5.7c0.7,0.4,1.5,0.7,2.3,0.7c1.3,0,2.6-0.6,3.4-1.8
		c0.1-0.1,1.3-2,2.5-4.5c0.6-1.4,1.6-5-2-9.2c-0.9-1-3.4-3.8-5.3-4.9c0,0,0-1.1,0-1.5c0.1-2.6,0-4.5-0.7-9.5l6.7,3.6
		c2.4,1.4,4.3,0.7,5.2-1C76.7,30.8,76.2,28.7,74,27.4z"/>
</g>
</svg>
