<?xml version="1.0" encoding="utf-8"?>
<!-- Generator: Adobe Illustrator 19.2.1, SVG Export Plug-In . SVG Version: 6.00 Build 0)  -->
<svg version="1.1" id="Layer_1" xmlns="http://www.w3.org/2000/svg" xmlns:xlink="http://www.w3.org/1999/xlink" x="0px" y="0px"
	 width="107px" height="50px" viewBox="0 0 107 50" style="enable-background:new 0 0 107 50;" xml:space="preserve">
<style type="text/css">
	.st0{fill:#586074;}
</style>
<title>3</title>
<path class="st0" d="M31.5,16.5c12.7-11.4,31.7-11.4,44.3,0H31.5z"/>
<path class="st0" d="M31.5,16.5c12.7-11.4,31.7-11.4,44.3,0H31.5z"/>
<path class="st0" d="M75.8,20.5v-2.1H31.5v19c0,5,4.1,9.1,9.1,9.1h26.1c5,0,9.1-4.1,9.1-9.1C75.8,37.5,75.8,20.5,75.8,20.5z
	 M47.2,41.2h-8c-0.6,0-1-0.5-1-1s0.5-1,1-1h8.1c0.6,0,1,0.5,1,1C48.2,40.8,47.8,41.2,47.2,41.2z M47.2,35.9h-8c-0.6,0-1-0.5-1-1
	s0.5-1,1-1h8.1c0.6,0,1,0.5,1,1C48.3,35.6,47.8,36,47.2,35.9L47.2,35.9z M47.2,30.7h-8c-0.6,0-1-0.5-1-1s0.5-1,1-1h8.1
	c0.6,0,1,0.5,1,1C48.2,30.2,47.8,30.7,47.2,30.7L47.2,30.7z M47.2,25.4h-8c-0.6,0-1-0.5-1-1s0.5-1,1-1h8.1c0.6,0,1,0.5,1,1
	S47.8,25.4,47.2,25.4L47.2,25.4z"/>
<path class="st0" d="M31.5,16.5c12.7-11.4,31.7-11.4,44.3,0H31.5z"/>
<path class="st0" d="M31.5,16.5c12.7-11.4,31.7-11.4,44.3,0H31.5z"/>
<path class="st0" d="M53.8,6.1c1.3,0,2.7,0.1,4,0.2V4.4c0-2.2-1.8-4-4-4s-4,1.8-4,4l0,0v1.8C51,6.2,52.4,6.1,53.8,6.1z"/>
<path class="st0" d="M29.6,18.4h-1.1c-2.2,0-4,1.8-4,4s1.8,4,4,4h1.2L29.6,18.4L29.6,18.4z"/>
<path class="st0" d="M78.8,18.4h-1.2v8.2h1.2c2.2,0,4-1.8,4-4C82.9,20.2,81,18.4,78.8,18.4z"/>
</svg>
