<?xml version="1.0" encoding="utf-8"?>
<!-- Generator: Adobe Illustrator 19.2.1, SVG Export Plug-In . SVG Version: 6.00 Build 0)  -->
<svg version="1.1" id="Layer_1" xmlns="http://www.w3.org/2000/svg" xmlns:xlink="http://www.w3.org/1999/xlink" x="0px" y="0px"
	 width="107px" height="65px" viewBox="0 0 107 65" style="enable-background:new 0 0 107 65;" xml:space="preserve">
<style type="text/css">
	.st0{fill:#586074;}
</style>
<title>3</title>
<path class="st0" d="M25.5,21.9c16-14.4,40-14.4,56,0H25.5z"/>
<path class="st0" d="M25.5,21.9c16-14.4,40-14.4,56,0H25.5z"/>
<path class="st0" d="M81.4,27v-2.6h-56v23.9c0,6.3,5.2,11.5,11.5,11.5h32.9c6.3,0,11.5-5.2,11.5-11.5C81.4,48.4,81.4,27,81.4,27z
	 M45.3,53H35.2c-0.8,0-1.3-0.6-1.3-1.3s0.6-1.3,1.3-1.3h10.2c0.8,0,1.3,0.6,1.3,1.3C46.5,52.5,46,53,45.3,53z M45.3,46.4H35.2
	c-0.8,0-1.3-0.6-1.3-1.3s0.6-1.3,1.3-1.3h10.2c0.8,0,1.3,0.6,1.3,1.3C46.6,46,46,46.5,45.3,46.4L45.3,46.4z M45.3,39.8H35.2
	c-0.8,0-1.3-0.6-1.3-1.3c0-0.6,0.6-1.3,1.3-1.3h10.2c0.8,0,1.3,0.6,1.3,1.3C46.5,39.2,46,39.8,45.3,39.8L45.3,39.8z M45.3,33.1H35.2
	c-0.8,0-1.3-0.6-1.3-1.3s0.6-1.3,1.3-1.3h10.2c0.8,0,1.3,0.6,1.3,1.3S46,33.1,45.3,33.1L45.3,33.1z"/>
<path class="st0" d="M25.5,21.9c16-14.4,40-14.4,56,0H25.5z"/>
<path class="st0" d="M25.5,21.9c16-14.4,40-14.4,56,0H25.5z"/>
<path class="st0" d="M53.6,8.8c1.6,0,3.4,0.1,5,0.3V6.7c0-2.8-2.3-5-5-5c-2.8,0-5,2.3-5,5l0,0v2.3C50,8.9,51.8,8.8,53.6,8.8z"/>
<path class="st0" d="M23.1,24.3h-1.4c-2.8,0-5,2.3-5,5s2.3,5,5,5h1.5L23.1,24.3L23.1,24.3z"/>
<path class="st0" d="M85.2,24.3h-1.5v10.3h1.5c2.8,0,5-2.3,5-5C90.4,26.6,88,24.3,85.2,24.3z"/>
</svg>
