<?xml version="1.0" encoding="utf-8"?>
<!-- Generator: Adobe Illustrator 19.2.1, SVG Export Plug-In . SVG Version: 6.00 Build 0)  -->
<svg version="1.1" id="Layer_1" xmlns="http://www.w3.org/2000/svg" xmlns:xlink="http://www.w3.org/1999/xlink" x="0px" y="0px"
	 width="107px" height="50px" viewBox="0 0 107 50" style="enable-background:new 0 0 107 50;" xml:space="preserve">
<style type="text/css">
	.st0{fill:#576074;}
</style>
<title>4</title>
<path class="st0" d="M67.8,1.6H39.3c-1.5,0-2.7,1.2-2.7,2.7v4.3h34.1V4.3C70.6,2.9,69.4,1.6,67.8,1.6z M40.3,6.7
	c-0.7,0-1.3-0.6-1.3-1.3s0.6-1.3,1.3-1.3c0.7,0,1.3,0.6,1.3,1.3S41,6.7,40.3,6.7z M44,6.7c-0.7,0-1.3-0.6-1.3-1.3s0.6-1.3,1.3-1.3
	s1.3,0.6,1.3,1.3S44.7,6.7,44,6.7L44,6.7z M47.7,6.7c-0.7,0-1.3-0.6-1.3-1.3s0.6-1.3,1.3-1.3c0.7,0,1.3,0.6,1.3,1.3l0,0
	C49,6.1,48.4,6.7,47.7,6.7L47.7,6.7L47.7,6.7z M51.4,6.7c-0.7,0-1.3-0.6-1.3-1.3s0.6-1.3,1.3-1.3s1.3,0.6,1.3,1.3S52.1,6.7,51.4,6.7
	L51.4,6.7z M66.1,7.2c-1,0-2-0.9-2-2s0.9-2,2-2s2,0.9,2,2S67.1,7.2,66.1,7.2L66.1,7.2z"/>
<path class="st0" d="M53.5,16.5c-5.4,0-9.8,4.3-9.8,9.7s4.3,9.7,9.8,9.7s9.7-4.4,9.7-9.7S59,16.5,53.5,16.5z M53.5,33.5
	c-4,0-7.3-3.3-7.3-7.4c0,0,3.1-2.3,7.4,0s7.4,0,7.4,0C60.9,30.2,57.6,33.5,53.5,33.5L53.5,33.5L53.5,33.5z"/>
<path class="st0" d="M36.6,10.3V42h34.1V10.3C70.6,10.3,36.6,10.3,36.6,10.3z M53.5,38.2c-6.7,0-12.1-5.4-12.1-12.2S46.9,14,53.6,14
	s12.1,5.4,12.1,12.1C65.7,32.9,60.2,38.2,53.5,38.2L53.5,38.2z"/>
<path class="st0" d="M36.6,43.6v0.9c0,1.5,1.2,2.7,2.7,2.7h28.5c1.5,0,2.7-1.2,2.7-2.7v-0.9H36.6z"/>
</svg>
