<?xml version="1.0" encoding="utf-8"?>
<!-- Generator: Adobe Illustrator 19.2.1, SVG Export Plug-In . SVG Version: 6.00 Build 0)  -->
<svg version="1.1" id="Layer_1" xmlns="http://www.w3.org/2000/svg" xmlns:xlink="http://www.w3.org/1999/xlink" x="0px" y="0px"
	 width="107px" height="65px" viewBox="0 0 107 65" style="enable-background:new 0 0 107 65;" xml:space="preserve">
<style type="text/css">
	.st0{fill:#576074;}
</style>
<title>4</title>
<path class="st0" d="M71.4,3H35.7c-1.9,0-3.4,1.5-3.4,3.4v5.4h42.6V6.4C74.8,4.6,73.3,3,71.4,3z M37,9.4c-0.9,0-1.6-0.7-1.6-1.6
	s0.7-1.6,1.6-1.6c0.9,0,1.6,0.7,1.6,1.6S37.9,9.4,37,9.4z M41.6,9.4c-0.9,0-1.6-0.7-1.6-1.6s0.7-1.6,1.6-1.6c0.9,0,1.6,0.7,1.6,1.6
	S42.5,9.4,41.6,9.4L41.6,9.4z M46.2,9.4c-0.9,0-1.6-0.7-1.6-1.6s0.7-1.6,1.6-1.6c0.9,0,1.6,0.7,1.6,1.6l0,0
	C47.8,8.7,47.1,9.4,46.2,9.4L46.2,9.4L46.2,9.4z M50.8,9.4c-0.9,0-1.6-0.7-1.6-1.6s0.7-1.6,1.6-1.6c0.9,0,1.6,0.7,1.6,1.6
	S51.7,9.4,50.8,9.4L50.8,9.4z M69.2,10c-1.3,0-2.5-1.1-2.5-2.5S67.8,5,69.2,5s2.5,1.1,2.5,2.5S70.5,10,69.2,10L69.2,10z"/>
<path class="st0" d="M53.5,21.6c-6.8,0-12.2,5.4-12.2,12.1s5.4,12.1,12.2,12.1s12.1-5.5,12.1-12.1S60.3,21.6,53.5,21.6z M53.5,42.9
	c-5,0-9.1-4.1-9.1-9.2c0,0,3.9-2.9,9.2,0s9.2,0,9.2,0C62.7,38.8,58.6,42.9,53.5,42.9L53.5,42.9L53.5,42.9z"/>
<path class="st0" d="M32.3,13.9v39.6h42.6V13.9C74.8,13.9,32.3,13.9,32.3,13.9z M53.5,48.8c-8.4,0-15.1-6.8-15.1-15.2
	s6.8-15.1,15.2-15.1s15.1,6.8,15.1,15.1C68.7,42.1,61.9,48.8,53.5,48.8L53.5,48.8z"/>
<path class="st0" d="M32.3,55.5v1.1c0,1.9,1.5,3.4,3.4,3.4h35.6c1.9,0,3.4-1.5,3.4-3.4v-1.1H32.3z"/>
</svg>
