<?xml version="1.0" encoding="utf-8"?>
<!-- Generator: Adobe Illustrator 19.2.1, SVG Export Plug-In . SVG Version: 6.00 Build 0)  -->
<svg version="1.1" id="Layer_1" xmlns="http://www.w3.org/2000/svg" xmlns:xlink="http://www.w3.org/1999/xlink" x="0px" y="0px"
	 width="107px" height="50px" viewBox="0 0 107 50" style="enable-background:new 0 0 107 50;" xml:space="preserve">
<style type="text/css">
	.st0{fill:#586074;}
</style>
<title>5</title>
<path class="st0" d="M80.6,14.4h-4c-0.5,0-0.9,0.2-1.1,0.6c-1.7-2.5-2.6-4.2-3.6-5.4c-1.3-1.5-3.1-2.5-5.1-2.6H40.2
	c-2.2,0-4.4,1.1-5.7,3c-0.9,1.2-1.8,2.7-3.3,4.9c-0.2-0.4-0.6-0.6-1.1-0.6h-4c-0.7,0-1.4,0.6-1.4,1.3l0,0v1c0,0.4,0.2,0.8,0.5,1
	c0.2,0.2,0.6,0.3,0.9,0.4l3.2,0.3c-0.6,1.1-2.2,2.8-2.9,4.7v0.1c-0.4,1-0.6,2-0.6,3.1l0,0L25.5,37c0,1.2,0.7,2.2,1.7,2.2h7.6
	c1,0,1.7-1,1.7-2.2v-0.7h33.6V37c0,1.2,0.7,2.2,1.7,2.2h7.6c1,0,1.7-1,1.7-2.2l-0.3-10.7l0,0c0-1-0.2-2.1-0.6-3.1v-0.1
	c-0.7-2-2.2-3.7-2.9-4.7l3.2-0.3c0.3,0,0.6-0.2,0.9-0.4c0.3-0.2,0.5-0.6,0.5-1v-1c0.1-0.6-0.3-1.2-1-1.3
	C80.8,14.4,80.7,14.4,80.6,14.4L80.6,14.4z M33.4,15.3l0.2-0.2l2.6-4c0.9-1.4,2.4-2.2,4.1-2.2h26.4c1.7,0,3.2,0.8,4.1,2.2l2.6,4
	l0.2,0.2c0.2,0.3,0.1,0.7-0.2,0.9l0,0c-0.1,0.1-0.2,0.1-0.4,0.1h-39c-0.3,0-0.6-0.3-0.6-0.6c0,0,0,0,0-0.1
	C33.3,15.6,33.3,15.4,33.4,15.3z M33.4,28.8c-2,0-3.6-1.6-3.5-3.6c0-2,1.6-3.6,3.6-3.5c2,0,3.6,1.6,3.5,3.6l0,0
	C37,27.2,35.4,28.8,33.4,28.8L33.4,28.8z M64.9,28.1h-23c-0.6,0-1-0.4-1-1c0-0.6,0.4-1,1-1h23c0.6,0,1,0.4,1,1
	c0.1,0.5-0.2,0.9-0.7,1C65.1,28.1,65,28.1,64.9,28.1L64.9,28.1z M64.9,24.2h-23c-0.6,0-1-0.4-1-1c0-0.6,0.4-1,1-1l0,0h23
	c0.6,0,1,0.4,1,1c0.1,0.5-0.2,0.9-0.7,1C65.1,24.2,65,24.2,64.9,24.2L64.9,24.2z M73.6,28.8c-2,0-3.6-1.6-3.5-3.6
	c0-2,1.6-3.6,3.6-3.5c2,0,3.6,1.6,3.5,3.6l0,0C77.2,27.2,75.6,28.8,73.6,28.8L73.6,28.8L73.6,28.8z"/>
</svg>
