<?xml version="1.0" encoding="utf-8"?>
<!-- Generator: Adobe Illustrator 19.2.1, SVG Export Plug-In . SVG Version: 6.00 Build 0)  -->
<svg version="1.1" id="Layer_1" xmlns="http://www.w3.org/2000/svg" xmlns:xlink="http://www.w3.org/1999/xlink" x="0px" y="0px"
	 width="107px" height="65px" viewBox="0 0 107 65" style="enable-background:new 0 0 107 65;" xml:space="preserve">
<style type="text/css">
	.st0{fill:#586074;}
</style>
<title>5</title>
<path class="st0" d="M87.4,19.7h-5c-0.6,0-1.1,0.3-1.4,0.7c-2.1-3.1-3.3-5.3-4.5-6.7c-1.6-1.9-3.9-3.1-6.4-3.2H36.9
	c-2.8,0-5.5,1.4-7.1,3.8c-1.1,1.5-2.2,3.4-4.1,6.1c-0.3-0.5-0.8-0.7-1.4-0.7h-5c-0.9,0-1.7,0.7-1.7,1.6l0,0v1.2c0,0.5,0.2,1,0.6,1.3
	c0.3,0.2,0.7,0.4,1.1,0.5l4,0.4c-0.8,1.4-2.7,3.5-3.6,5.9v0.1c-0.5,1.2-0.7,2.5-0.7,3.9l0,0L18.6,48c0,1.5,0.9,2.8,2.1,2.8h9.5
	c1.2,0,2.1-1.2,2.1-2.8v-0.9h42V48c0,1.5,0.9,2.8,2.1,2.8h9.5c1.2,0,2.1-1.2,2.1-2.8l-0.4-13.4l0,0c0-1.3-0.3-2.6-0.7-3.9v-0.1
	c-0.9-2.5-2.8-4.6-3.6-5.9l4-0.4c0.4,0,0.8-0.2,1.1-0.5c0.4-0.3,0.6-0.8,0.6-1.3v-1.2c0.1-0.8-0.4-1.5-1.2-1.6
	C87.7,19.7,87.5,19.7,87.4,19.7L87.4,19.7z M28.4,20.9l0.2-0.3l3.3-5c1.1-1.7,3-2.8,5.1-2.8h33c2.1,0,4,1,5.1,2.8l3.3,5l0.2,0.3
	c0.2,0.4,0.1,0.9-0.3,1.1l0,0c-0.1,0.1-0.3,0.1-0.5,0.1H29.1c-0.4,0-0.7-0.4-0.7-0.8c0,0,0,0,0-0.1C28.3,21.2,28.3,21,28.4,20.9z
	 M28.4,37.7c-2.5,0-4.5-2-4.4-4.5c0-2.5,2-4.5,4.5-4.4c2.5,0,4.5,2,4.4,4.5l0,0C32.9,35.7,30.9,37.7,28.4,37.7L28.4,37.7z
	 M67.8,36.8H39c-0.7,0-1.2-0.5-1.2-1.2s0.5-1.2,1.2-1.2h28.8c0.7,0,1.2,0.5,1.2,1.2c0.1,0.6-0.3,1.1-0.9,1.2
	C68,36.8,67.9,36.8,67.8,36.8L67.8,36.8z M67.8,32H39c-0.7,0-1.2-0.5-1.2-1.2s0.5-1.2,1.2-1.2l0,0h28.8c0.7,0,1.2,0.5,1.2,1.2
	c0.1,0.6-0.3,1.1-0.9,1.2C68,32,67.9,32,67.8,32L67.8,32z M78.7,37.7c-2.5,0-4.5-2-4.4-4.5c0-2.5,2-4.5,4.5-4.4c2.5,0,4.5,2,4.4,4.5
	l0,0C83.2,35.7,81.2,37.7,78.7,37.7L78.7,37.7L78.7,37.7z"/>
</svg>
