<?xml version="1.0" encoding="utf-8"?>
<!-- Generator: Adobe Illustrator 19.2.1, SVG Export Plug-In . SVG Version: 6.00 Build 0)  -->
<svg version="1.1" id="Layer_1" xmlns="http://www.w3.org/2000/svg" xmlns:xlink="http://www.w3.org/1999/xlink" x="0px" y="0px"
	 width="107px" height="50px" viewBox="0 0 107 50" style="enable-background:new 0 0 107 50;" xml:space="preserve">
<style type="text/css">
	.st0{fill:#576074;}
</style>
<title>6</title>
<circle class="st0" cx="45.9" cy="5.3" r="4.2"/>
<path class="st0" d="M50.2,37c-1.1,0-2.2-0.8-2.2-2.1c0-0.2,0-0.4,0.1-0.6L49,30c-0.4,0.2-0.7,0.2-0.9,0.2c-1.4,0-2.7-1.2-2.6-2.7
	c0-0.2,0-0.3,0-0.5l0,0l2.3-11.7c0.4-2.1,1.4-3.8,3.1-5c-0.6-0.2-0.9-0.2-1.5-0.2h-6.9c-4.2,0-6.2,4-6,6.6l-0.1,12
	c0.1,0.8,0.8,1.3,1.5,1.3c0.8-0.1,1.3-0.8,1.3-1.5l0.7-9.8c0-0.2,0.2-0.4,0.4-0.4s0.4,0.2,0.4,0.4v28c0,0.6,0.6,1,1,1h2.1
	c0.6,0,1-0.5,1-1l0,0l0.8-15.5c0.1-0.5,0-0.8,0.5-0.8l0,0c0.4,0,0.4,0.3,0.5,0.8l0.8,15.5c0,0.6,0.6,1,1,1h0.1h2.1c0.6,0,1-0.6,1-1
	V37H50.2z"/>
<path class="st0" d="M67.3,13.2h0.2c0.8,0,1.4-0.7,1.4-1.4l0,0c0-0.8-0.7-1.4-1.4-1.4l0,0h-2.8C65.8,11,66.7,12.1,67.3,13.2z"/>
<path class="st0" d="M57.8,9.5c2.3,0,4.2-2,4.2-4.2s-1.9-4.2-4.2-4.2c-2.3,0-4.2,1.8-4.2,4.2S55.5,9.5,57.8,9.5L57.8,9.5z"/>
<path class="st0" d="M62.6,18.1c-0.1-0.2,0.1-0.4,0.2-0.5c0.2-0.1,0.4,0.1,0.5,0.2l3,9.9c0.7-0.8,1.6-1.3,2.7-1.3l0,0l-2.2-10.9
	c-0.6-3.1-3.2-5.3-6.2-5.4h-5.4c-3.2,0.1-5.8,2.3-6.2,5.4l-2.3,11.7c-0.2,0.8,0.5,1.5,1.1,1.7c0.8,0.1,1.4-0.4,1.6-1.1l3-9.9
	c0.1-0.2,0.2-0.3,0.5-0.2c0.2,0.1,0.3,0.2,0.2,0.5l-3.6,16.5c-0.2,0.5,0.2,0.9,0.6,1c0.1,0,0.2,0.1,0.3,0h1c0.7,0,1.1,0.5,1.3,1
	l1.6,9.9c0.2,0.7,0.7,1,1.3,1h4.7c0.7,0,1.1-0.6,1.2-1l1.3-9.9c0.1-0.7,0.7-1,1.2-1h1c0.6,0,0.8-0.4,0.9-0.8c0-0.1,0-0.2,0-0.3
	L62.6,18.1z"/>
<path class="st0" d="M69.8,46.8V30c-0.1-0.5-0.5-0.8-0.8-0.8c-0.3,0-0.7,0.3-0.8,0.7V30c0,0.5-0.4,0.8-0.8,0.8
	c-0.4,0-0.8-0.4-0.8-0.8c0-1.3,1-2.4,2.4-2.4c1.3,0,2.4,1,2.4,2.4v17.2c0,0.5-0.4,0.8-0.8,0.8c-0.4,0-0.8-0.4-0.8-0.8V46.8
	L69.8,46.8z"/>
</svg>
