<?xml version="1.0" encoding="utf-8"?>
<!-- Generator: Adobe Illustrator 19.2.1, SVG Export Plug-In . SVG Version: 6.00 Build 0)  -->
<svg version="1.1" id="Layer_1" xmlns="http://www.w3.org/2000/svg" xmlns:xlink="http://www.w3.org/1999/xlink" x="0px" y="0px"
	 width="107px" height="65px" viewBox="0 0 107 65" style="enable-background:new 0 0 107 65;" xml:space="preserve">
<style type="text/css">
	.st0{fill:#576074;}
</style>
<title>6</title>
<circle class="st0" cx="44.2" cy="6.3" r="5.3"/>
<path class="st0" d="M49.6,46.5c-1.4,0-2.8-1-2.8-2.7c0-0.3,0-0.5,0.1-0.8l1.2-5.4c-0.5,0.2-0.9,0.3-1.2,0.3c-1.8,0-3.4-1.5-3.3-3.4
	c0-0.2,0-0.4,0-0.6l0,0l2.9-14.8c0.5-2.6,1.8-4.8,3.9-6.3c-0.7-0.2-1.2-0.3-1.9-0.3h-8.8c-5.3,0-7.8,5.1-7.6,8.4L32,36.1
	c0.1,1,1,1.7,1.9,1.6c1-0.1,1.6-1,1.6-1.9l0.9-12.4c0-0.2,0.2-0.5,0.5-0.5c0.3,0,0.5,0.2,0.5,0.5v35.5c0,0.8,0.7,1.3,1.3,1.3h2.6
	c0.8,0,1.3-0.6,1.3-1.3l0,0l1-19.7c0.1-0.6,0-1,0.6-1l0,0c0.5,0,0.5,0.4,0.6,1l1,19.7c0,0.8,0.7,1.3,1.3,1.3h0.1h2.6
	c0.8,0,1.3-0.7,1.3-1.3V46.5H49.6z"/>
<path class="st0" d="M71.3,16.4h0.3c1,0,1.8-0.9,1.8-1.8l0,0c0-1-0.9-1.8-1.8-1.8l0,0h-3.5C69.4,13.6,70.6,15,71.3,16.4z"/>
<path class="st0" d="M59.3,11.6c2.9,0,5.3-2.5,5.3-5.3S62.2,1,59.3,1S54,3.3,54,6.3S56.4,11.6,59.3,11.6L59.3,11.6z"/>
<path class="st0" d="M65.4,22.6c-0.1-0.2,0.1-0.5,0.3-0.6c0.2-0.1,0.5,0.1,0.6,0.3l3.8,12.6c0.9-1,2-1.6,3.4-1.6l0,0l-2.8-13.8
	c-0.7-3.9-4-6.7-7.9-6.8h-6.9c-4,0.1-7.3,2.9-7.9,6.8l-2.9,14.9c-0.2,1,0.6,1.9,1.4,2.1c1,0.1,1.8-0.5,2-1.4l3.8-12.6
	c0.1-0.2,0.3-0.4,0.6-0.3c0.2,0.1,0.4,0.3,0.3,0.6l-4.6,20.9c-0.2,0.6,0.2,1.1,0.8,1.3c0.1,0,0.3,0.1,0.4,0h1.3
	c0.9,0,1.4,0.6,1.6,1.3l2,12.6c0.2,0.9,0.9,1.3,1.6,1.3h6c0.9,0,1.4-0.7,1.5-1.3l1.6-12.6c0.1-0.9,0.9-1.3,1.5-1.3h1.3
	c0.7,0,1-0.5,1.1-1c0-0.1,0-0.2,0-0.4L65.4,22.6z"/>
<path class="st0" d="M74.5,59V37.6c-0.1-0.6-0.6-1-1-1s-0.9,0.4-1,0.9v0.1c0,0.6-0.5,1-1,1s-1-0.5-1-1c0-1.6,1.3-3,3-3
	c1.7,0,3,1.3,3,3v21.8c0,0.6-0.5,1-1,1s-1-0.5-1-1L74.5,59L74.5,59z"/>
</svg>
