<?xml version="1.0" encoding="utf-8"?>
<!-- Generator: Adobe Illustrator 19.2.1, SVG Export Plug-In . SVG Version: 6.00 Build 0)  -->
<svg version="1.1" id="Layer_1" xmlns="http://www.w3.org/2000/svg" xmlns:xlink="http://www.w3.org/1999/xlink" x="0px" y="0px"
	 width="107px" height="50px" viewBox="0 0 107 50" style="enable-background:new 0 0 107 50;" xml:space="preserve">
<style type="text/css">
	.st0{fill:#586074;}
</style>
<title>7</title>
<g>
	<path class="st0" d="M65.5,1.7c-3.1,0-6.2,1-8.7,2.9c-0.3,0.2-0.6,0.3-0.8,0.6l-0.5,0.5l-0.2,0.2l5.9,5.9c2,2.2,1.8,5.6-0.5,7.6
		c-2.1,1.8-5.2,1.8-7.1,0l-4-4l0,0l-1.9-1.9l-0.3,0.3l0,0L36.7,24.5c-1.1,1.1-1.1,3,0,4.2c1.1,1.2,3,1.1,4.2,0l7.8-7.8
		c0.4-0.4,1-0.4,1.4,0c0.4,0.4,0.4,1,0,1.4l0,0l-7.9,7.9c-1.1,1.1-1.1,3,0,4.2c1.1,1.2,3,1.1,4.2,0l7.9-7.9l0,0l-0.7,0.7l0,0
		c0.4-0.4,1-0.4,1.4,0c0.4,0.4,0.4,1,0,1.4l0,0l0.8-0.8l0,0l-8,8c-1.1,1.1-1.2,3.1,0,4.2c1.1,1.1,3.1,1.2,4.2,0l9.2-9.2l0,0
		l-0.6,0.6l0,0c0.4-0.4,1-0.4,1.4,0c0.3,0.3,0.4,0.8,0.1,1.2l-8.8,8.8c-1.1,1.1-1.1,3,0,4.1c1.1,1.1,3,1.1,4.1,0l17.4-17.5
		c0.8-0.7,1.5-1.4,2.2-2.2l0.2-0.2c5-6.6,3.8-15.9-2.7-21C72,2.8,68.8,1.7,65.5,1.7z M50.1,22.2l1.2-1.1l0,0L50.1,22.2z"/>
	<path class="st0" d="M46.4,12L46.4,12l-2.8-2.8L45,7.8l3.5,3.5l0,0l0.8,0.8l5.9,5.9l0,0c0.3,0.3,0.7,0.6,1.1,0.8
		c0.4,0.2,0.8,0.2,1.3,0.2l0,0c1.9,0,3.4-1.5,3.4-3.4c0-0.9-0.4-1.8-1-2.4l-2.6-2.8l-1.4-1.2l0,0L51.9,5l-0.1-0.1
		c-2.6-2.5-6.2-3.6-9.7-2.8H42C34,3.9,29,11.9,30.8,20c0.5,2.2,1.4,4.1,2.7,5.8l0.2,0.2l0.1,0.1c0.2-1.1,0.6-2.2,1.4-2.9L46.4,12
		L46.4,12L46.4,12z"/>
</g>
</svg>
