<?xml version="1.0" encoding="utf-8"?>
<!-- Generator: Adobe Illustrator 19.2.1, SVG Export Plug-In . SVG Version: 6.00 Build 0)  -->
<svg version="1.1" id="Layer_1" xmlns="http://www.w3.org/2000/svg" xmlns:xlink="http://www.w3.org/1999/xlink" x="0px" y="0px"
	 width="107px" height="65px" viewBox="0 0 107 65" style="enable-background:new 0 0 107 65;" xml:space="preserve">
<style type="text/css">
	.st0{fill:#586074;}
</style>
<title>7</title>
<g>
	<path class="st0" d="M68,3.6c-3.9,0-7.8,1.2-10.9,3.6c-0.4,0.2-0.7,0.4-1,0.7l-0.6,0.6l-0.2,0.2l7.4,7.4c2.5,2.8,2.2,7-0.6,9.5
		c-2.6,2.3-6.5,2.3-8.9,0l-5-5l0,0l-2.4-2.4l-0.4,0.4l0,0L32,32.1c-1.4,1.4-1.4,3.8,0,5.3c1.4,1.5,3.8,1.4,5.3,0l9.8-9.8
		c0.5-0.5,1.2-0.5,1.7,0s0.5,1.2,0,1.7l0,0l-9.9,9.9c-1.4,1.4-1.4,3.8,0,5.3c1.4,1.5,3.8,1.4,5.3,0l9.9-9.9l0,0l-0.9,0.9l0,0
		c0.5-0.5,1.2-0.5,1.7,0c0.5,0.5,0.5,1.2,0,1.7l0,0l1-1l0,0l-10,10c-1.4,1.4-1.5,3.9,0,5.3c1.4,1.4,3.9,1.5,5.3,0l11.5-11.5l0,0
		l-0.7,0.7l0,0c0.5-0.5,1.2-0.5,1.7,0c0.4,0.4,0.5,1,0.1,1.5l-11,11c-1.4,1.4-1.4,3.7,0,5.1c1.4,1.4,3.7,1.4,5.1,0l21.8-21.9
		c1-0.9,1.9-1.7,2.7-2.8l0.2-0.3c6.3-8.2,4.8-19.9-3.4-26.2C76.1,5,72.1,3.6,68,3.6z M48.8,29.2l1.5-1.4l0,0L48.8,29.2z"/>
	<path class="st0" d="M44.1,16.5L44.1,16.5L40.6,13l1.8-1.8l4.4,4.4l0,0l1,1l7.4,7.4l0,0c0.4,0.4,0.9,0.7,1.4,1
		c0.5,0.2,1,0.3,1.6,0.3l0,0c2.4,0,4.3-1.9,4.3-4.3c0-1.1-0.5-2.2-1.2-3L58,14.5L56.3,13l0,0L51,7.7l-0.1-0.1
		c-3.2-3.1-7.7-4.5-12.1-3.5h-0.1C28.6,6.4,22.4,16.4,24.7,26.5c0.6,2.7,1.8,5.1,3.4,7.2l0.2,0.3l0.1,0.1c0.2-1.4,0.8-2.7,1.8-3.6
		L44.1,16.5L44.1,16.5L44.1,16.5z"/>
</g>
</svg>
