<?xml version="1.0" encoding="utf-8"?>
<!-- Generator: Adobe Illustrator 16.0.4, SVG Export Plug-In . SVG Version: 6.00 Build 0)  -->
<!DOCTYPE svg PUBLIC "-//W3C//DTD SVG 1.1//EN" "http://www.w3.org/Graphics/SVG/1.1/DTD/svg11.dtd">
<svg version="1.1" id="Layer_1" xmlns="http://www.w3.org/2000/svg" xmlns:xlink="http://www.w3.org/1999/xlink" x="0px" y="0px"
	 width="62.887px" height="63.917px" viewBox="0 0 62.887 63.917" enable-background="new 0 0 62.887 63.917" xml:space="preserve">
<g>
	<circle fill="#413F41" stroke="#413F41" stroke-miterlimit="10" cx="31.906" cy="32.989" r="28.346"/>
	<g>
		<path fill="#FFFFFF" stroke="#FFFFFF" stroke-miterlimit="10" d="M29.287,45.566c-1.432-1.432-1.432-3.753,0-5.186L43.43,26.239
			c1.432-1.433,3.754-1.433,5.186,0l0,0c1.432,1.432,1.432,3.753,0,5.186L34.473,45.566C33.041,46.999,30.719,46.999,29.287,45.566
			L29.287,45.566z"/>
		<path fill="#FFFFFF" stroke="#FFFFFF" stroke-miterlimit="10" d="M15.288,26.24c1.432-1.434,3.754-1.434,5.185,0l14.142,14.142
			c1.432,1.433,1.432,3.754,0,5.186l0,0c-1.432,1.433-3.753,1.433-5.186,0L15.288,31.424C13.855,29.993,13.855,27.671,15.288,26.24
			L15.288,26.24z"/>
	</g>
</g>
</svg>
