<?xml version="1.0" encoding="utf-8"?>
<!-- Generator: Adobe Illustrator 16.0.4, SVG Export Plug-In . SVG Version: 6.00 Build 0)  -->
<!DOCTYPE svg PUBLIC "-//W3C//DTD SVG 1.1//EN" "http://www.w3.org/Graphics/SVG/1.1/DTD/svg11.dtd">
<svg version="1.1" id="Layer_1" xmlns="http://www.w3.org/2000/svg" xmlns:xlink="http://www.w3.org/1999/xlink" x="0px" y="0px"
	 width="62.887px" height="63.917px" viewBox="0 0 62.887 63.917" enable-background="new 0 0 62.887 63.917" xml:space="preserve">
<g>
	<circle fill="#413F41" stroke="#413F41" stroke-miterlimit="10" cx="31.907" cy="32.991" r="28.347"/>
	<g>
		<path fill="#FFFFFF" stroke="#FFFFFF" stroke-miterlimit="10" d="M34.526,20.413c1.432,1.432,1.432,3.753,0,5.186L20.383,39.739
			c-1.432,1.433-3.754,1.433-5.186,0l0,0c-1.432-1.432-1.432-3.753,0-5.186L29.34,20.412C30.772,18.979,33.094,18.979,34.526,20.413
			L34.526,20.413z"/>
		<path fill="#FFFFFF" stroke="#FFFFFF" stroke-miterlimit="10" d="M48.526,39.738c-1.432,1.434-3.754,1.434-5.186,0L29.198,25.596
			c-1.432-1.433-1.432-3.754,0-5.186l0,0c1.432-1.433,3.754-1.433,5.186,0l14.143,14.144C49.959,35.985,49.959,38.307,48.526,39.738
			L48.526,39.738z"/>
	</g>
</g>
</svg>
