<?xml version="1.0" encoding="utf-8"?>
<!-- Generator: Adobe Illustrator 18.0.0, SVG Export Plug-In . SVG Version: 6.00 Build 0)  -->
<!DOCTYPE svg PUBLIC "-//W3C//DTD SVG 1.1//EN" "http://www.w3.org/Graphics/SVG/1.1/DTD/svg11.dtd">
<svg version="1.1" id="Layer_1" xmlns="http://www.w3.org/2000/svg" xmlns:xlink="http://www.w3.org/1999/xlink" x="0px" y="0px"
	 viewBox="250 0 500 500" enable-background="new 250 0 500 500" xml:space="preserve">
<g>
	<rect x="250" fill="#B3B3B3" stroke="#FFFFFF" stroke-miterlimit="10" width="500" height="500"/>
	<path fill="#FFFFFF" d="M589.4,215.9c-16-2.9-31.1-10.4-43.2-22.5c-12-12-19.6-27.2-22.4-43.2c16.2-10.1,39.7-6.6,55.9,9.7
		C595.9,176.3,599.5,199.7,589.4,215.9z M578.2,227.1c-15.4-4.3-29.8-12.3-41.6-24.1c-11.8-11.8-19.8-26.2-24-41.6
		c-10.1,16.2-6.5,39.7,9.7,55.9C538.5,233.6,562,237.2,578.2,227.1z M513.9,299.1c-20.2,0-34.6,12.6-47.4,23.8
		c-14.1,12.3-26.3,23-44.2,17.4c-3.6-2.6-3.7-4.8-3.7-5.5c-0.2-4.9,5.6-11.4,8.5-13.8c0.4-0.3,0.6-0.7,0.8-1
		c4.7,1.6,10.2,0.7,14-3.1l92-75.7c-7.6-3.2-14.9-7.9-21.2-14.2c-6.3-6.3-11-13.6-14.2-21.2l-75.7,92c-3.4,3.4-4.3,8-3.4,12.4
		c-0.3,0.2-0.6,0.2-0.9,0.5c-1.4,1.2-14.1,11.9-13.5,24.9c0.2,4.5,2.2,11.1,10.4,16.6l1.6,0.8c5.3,1.8,10.2,2.5,14.8,2.5
		c18,0,31.4-11.7,43.5-22.3c12-10.5,23.4-20.4,38.5-20.4c34.9,0,61.8,37.4,62.1,37.7c2.2,3.1,6.4,3.8,9.4,1.6
		c3.1-2.2,3.8-6.4,1.6-9.4C585.8,340.7,555.8,299.1,513.9,299.1z"/>
</g>
</svg>
