<?xml version="1.0" encoding="utf-8"?>
<!-- Generator: Adobe Illustrator 21.0.2, SVG Export Plug-In . SVG Version: 6.00 Build 0)  -->
<svg version="1.1" id="Layer_1" xmlns="http://www.w3.org/2000/svg" xmlns:xlink="http://www.w3.org/1999/xlink" x="0px" y="0px"
	 viewBox="0 0 20 20" style="enable-background:new 0 0 20 20;" xml:space="preserve">
<style type="text/css">
	.st0{fill:#3B5998;}
</style>
<g id="_x23_020201ff">
	<path class="st0" d="M8.2,1.6c0.7-0.7,1.8-0.9,2.8-1c1.1,0,2.1,0,3.2,0c0,1.1,0,2.2,0,3.3c-0.7,0-1.4,0-2,0c-0.4,0-0.9,0.3-1,0.7
		c0,0.7,0,1.5,0,2.2c1,0,2,0,3,0C14,8,13.9,9.1,13.7,10.1c-0.9,0-1.8,0-2.6,0c0,3.2,0,6.4,0,9.5c-1.3,0-2.6,0-3.9,0
		c0-3.2,0-6.4,0-9.5c-0.6,0-1.3,0-1.9,0c0-1.1,0-2.1,0-3.2c0.6,0,1.3,0,1.9,0c0-1,0-2.1,0-3.1C7.2,3,7.5,2.2,8.2,1.6z"/>
</g>
</svg>
