<?xml version="1.0" encoding="utf-8"?>
<!-- Generator: Adobe Illustrator 22.1.0, SVG Export Plug-In . SVG Version: 6.00 Build 0)  -->
<svg version="1.1" id="Layer_1" xmlns="http://www.w3.org/2000/svg" xmlns:xlink="http://www.w3.org/1999/xlink" x="0px" y="0px"
	 viewBox="0 0 700 89.1" style="enable-background:new 0 0 700 89.1;" xml:space="preserve">
<style type="text/css">
	.st0{fill:#FFFFFF;stroke:#206095;stroke-width:2;stroke-miterlimit:10;}
	.st1{fill:#EAEAEA;}
	.st2{fill:#414042;}
	.st3{fill:none;stroke:#D0D2D3;stroke-width:4;stroke-miterlimit:10;}
	.st4{fill:#FF9933;}
	.st5{fill:#206095;}
	.st6{fill:#FFFFFF;}
	.st7{fill:#EB92BB;}
	.st8{fill:#014462;}
	.st9{fill:#36ADD9;}
	.st10{fill:none;stroke:#FFFFFF;stroke-width:2;stroke-miterlimit:10;}
	.st11{fill:none;stroke:#FFFFFF;stroke-width:3.5;stroke-linecap:round;stroke-linejoin:round;stroke-miterlimit:10;}
	.st12{fill:none;stroke:#206095;stroke-width:4;stroke-linecap:round;stroke-linejoin:round;stroke-miterlimit:10;}
	.st13{enable-background:new    ;}
	.st14{fill:none;stroke:#D0D2D3;stroke-width:2;stroke-miterlimit:10;}
	.st15{fill:#008080;}
	.st16{fill:#6E66A0;}
	.st17{fill:#766FAF;}
	.st18{fill:#BEE5EC;}
	.st19{fill:#5F7682;}
	.st20{fill:none;stroke:#FF9933;stroke-width:3;stroke-miterlimit:10;}
	.st21{fill:none;stroke:#FFFFFF;stroke-width:1.5;stroke-miterlimit:10;}
	.st22{fill:none;stroke:#D0D2D3;stroke-width:6;stroke-miterlimit:10;}
	.st23{fill:none;stroke:#D0D2D3;stroke-width:3;stroke-miterlimit:10;}
	.st24{opacity:0.6;fill:#6E66A0;}
	.st25{opacity:0.6;fill:#D0D2D3;}
	.st26{fill:#D0D2D3;}
	.st27{fill:#4CC1BF;}
	.st28{fill:#A8BD3A;}
	.st29{fill:#C2E3E3;stroke:#414042;stroke-width:0.25;stroke-miterlimit:10;}
	.st30{fill:#59B0AE;stroke:#414042;stroke-width:0.25;stroke-miterlimit:10;}
	.st31{fill:#FFFFFF;stroke:#414042;stroke-width:0.25;}
	.st32{fill:#18807E;stroke:#414042;stroke-width:0.25;stroke-miterlimit:10;}
	.st33{fill:#073939;stroke:#414042;stroke-width:0.25;stroke-miterlimit:10;}
	.st34{fill:#4F4E4E;}
	.st35{fill:#C2E3E3;}
	.st36{fill:#59B0AE;}
	.st37{fill:#18807E;}
	.st38{fill:#073939;}
	.st39{fill:none;stroke:#999999;}
	.st40{fill:none;}
	.st41{fill:#DAD7E6;stroke:#414042;stroke-width:0.25;stroke-miterlimit:10;}
	.st42{fill:#968FB9;stroke:#414042;stroke-width:0.25;stroke-miterlimit:10;}
	.st43{fill:#5B508E;stroke:#414042;stroke-width:0.25;stroke-miterlimit:10;}
	.st44{fill:#FFFFFF;stroke:#C0C0C0;stroke-width:0.5;}
	.st45{fill:#29253F;stroke:#414042;stroke-width:0.25;stroke-miterlimit:10;}
	.st46{fill:#DAD7E6;}
	.st47{fill:#968FB9;}
	.st48{fill:#5B508E;}
	.st49{fill:#29253F;}
	.st50{fill:#999999;}
	.st51{fill:none;stroke:#FF9933;stroke-width:3.5485;stroke-miterlimit:10;}
	.st52{fill:none;stroke:#FFFFFF;stroke-width:2.5;stroke-linecap:round;stroke-miterlimit:10;}
</style>
<path class="st15" d="M178.6,30.1c-0.1-0.1-0.5-0.1-0.9,0c0.4-0.1,0.7-0.4,0.8-0.8c0.6,0.2,1.8,0.2,2.7-0.7c0.6-0.7,1.2-1.9,1.5-2.5
	c0.1-0.1-0.1-0.2-0.2-0.2c-0.5,0.2-1.7,0.5-2.6,0.5c-1,0.1-1.2,1.5-1.4,2.2l0-0.2c-0.1-0.6-0.6-1-1.1-0.9l-0.6,0.1
	c-0.5,0-0.8,0.4-0.9,0.8c-0.4-0.6-0.9-1.1-1.7-1.1c-0.8,0-2.1-0.1-2.6-0.2c-0.1,0-0.2,0.1-0.1,0.2c0.3,0.5,1,1.7,1.8,2.3
	c0.9,0.8,2.2,0.3,2.8,0c0.2,0.4,0.6,0.7,1,0.6l0.5,0c-0.5,0.1-0.9,0.2-1.1,0.4c-4.7,5-11.1,19.2-9.8,26.8c1.4,8.1,8.3,9.4,16.4,8
	c8.1-1.4,14.2-4.9,12.8-13C194.5,44.7,183.9,33.9,178.6,30.1z M179.3,44.7c-2.6,0.4-4.9-0.4-5.2-2.4c-0.3-1.9,1.5-9.7,3.1-11
	c0.1-0.1,0.6-0.4,0.7-0.3c1.7,0.8,5.3,7.9,5.6,9.7C183.8,42.7,181.9,44.3,179.3,44.7z"/>
<path class="st17" d="M40.3,8.9c-5.4,0.2-8.2-0.3-3,5.8c1.4,1.7,5.8,4.2,10.7,4.7c0.1,0.4,0.1,0.4,0.1,0.8c-4.2,1.5-8,0.4-3.5,4.1
	c1.3,1,4.2,2.9,8,2.9c0,0.1,0.4,1,0.5,1.1c-4,1.6-7.7,0.6-3.1,4.1c1.3,1,4.3,2.8,8.2,2.7c0,0.1,0.5,0.9,0.5,1.1
	c-4.2,1.8-8,0.8-3.3,4.3c1.3,1,4.7,2.7,8.5,2.5c0,0.1,0.5,1,0.6,1.2c-4,1.9-8.2,1-3.4,4.3c1.2,0.8,4.2,2.4,7.4,2.3
	c0.4,0.5,0.6,1.2,0.8,1.3c-3.3,0.5-17,4-17.7,4.6c-0.4,0.3,0.5,4.7,4.8,8.9c-0.2,1.2-0.3,3.1,0.2,4.4c0,0-35,8.1-35.1,8.1
	c-0.2-0.3-0.8-0.9-1.8-0.8c-1.6,0.1-6,1.1-7,1.4c-1.9,0.6,1.8,3.6,5.7,2.8c1.6-0.3,40.2-7.5,40.2-7.5c1.9,0.5,5,0.9,7.7,0.1
	c2.1,1.6,6.4,3.4,14.5,2.2c16-2.5,29-10.8,37.1-18.5c6.9-6.6,16.3-10.6,19.9-11.9c2.1,0.7,4.7,1.1,7.2,0.3c3.2-1,5.1-3.4,6.3-6.2
	c4.2-1.4,23.8-6.7,32.4-9.4c0.5-0.1,0.3-0.8-0.2-0.8c-9.8,1.2-33.7,3.5-33.4,3.9c-2-2.6-5.7-3.7-9.4-2.6c-3.8,1.2-5,2.9-6.8,6.2
	c-1.8,1.4-19.6,5.3-24.3,5.8c-5.1-0.1-8.1-2.3-11.1-5.1c-6.8-8.3-16.2-25-19.8-27.7C75.1,7.5,43,8.7,40.3,8.9z"/>
<path class="st18" d="M270.7,57.4c-0.1-3.3-2.8-6-6.1-6c-1.1,0-2.2,0.3-3.1,0.8c-2.1-5.6-7.5-9.6-13.8-9.6c-1.3,0-2.5,0.2-3.7,0.5
	c-3.5-6.3-10.3-10.6-18-10.6c-9.8,0-17.9,6.8-20.1,15.9c-1.4-0.6-2.9-0.9-4.5-0.9c-4.3,0-8.1,2.4-10,5.9c-1.1-0.9-2.5-1.5-4-1.5
	c-3.2,0-5.8,2.5-6.1,5.6H270.7z"/>
<path class="st18" d="M357.5,30.3c0-1.9-1.6-3.5-3.6-3.5c-0.7,0-1.3,0.2-1.8,0.5c-1.2-3.3-4.4-5.6-8.1-5.6c-0.7,0-1.5,0.1-2.1,0.3
	c-2.1-3.7-6-6.2-10.5-6.2c-5.7,0-10.5,4-11.7,9.3c-0.8-0.3-1.7-0.5-2.6-0.5c-2.5,0-4.7,1.4-5.8,3.5c-0.6-0.6-1.5-0.9-2.4-0.9
	c-1.9,0-3.4,1.4-3.6,3.3H357.5z"/>
<path class="st18" d="M464.6,79c0-1.9-1.6-3.5-3.6-3.5c-0.7,0-1.3,0.2-1.8,0.5c-1.2-3.3-4.4-5.6-8.1-5.6c-0.7,0-1.5,0.1-2.1,0.3
	c-2.1-3.7-6-6.2-10.5-6.2c-5.7,0-10.5,4-11.7,9.3c-0.8-0.3-1.7-0.5-2.6-0.5c-2.5,0-4.7,1.4-5.8,3.5c-0.6-0.6-1.5-0.9-2.4-0.9
	c-1.9,0-3.4,1.4-3.6,3.3H464.6z"/>
<path class="st18" d="M598.3,28.5c-0.1-3.3-2.8-6-6.1-6c-1.1,0-2.2,0.3-3.1,0.8c-2.1-5.6-7.5-9.6-13.8-9.6c-1.3,0-2.5,0.2-3.7,0.5
	c-3.5-6.3-10.3-10.6-18-10.6c-9.8,0-17.9,6.8-20.1,15.9c-1.4-0.6-2.9-0.9-4.5-0.9c-4.3,0-8.1,2.4-10,5.9c-1.1-0.9-2.5-1.5-4-1.5
	c-3.2,0-5.8,2.5-6.1,5.6H598.3z"/>
<path class="st18" d="M685.9,69.1c0-1.9-1.6-3.5-3.6-3.5c-0.7,0-1.3,0.2-1.8,0.5c-1.2-3.3-4.4-5.6-8.1-5.6c-0.7,0-1.5,0.1-2.1,0.3
	c-2.1-3.7-6-6.2-10.5-6.2c-5.7,0-10.5,4-11.7,9.3c-0.8-0.3-1.7-0.5-2.6-0.5c-2.5,0-4.7,1.4-5.8,3.5c-0.6-0.6-1.5-0.9-2.4-0.9
	c-1.9,0-3.4,1.4-3.6,3.3H685.9z"/>
</svg>
