<?xml version="1.0" encoding="utf-8"?>
<!-- Generator: Adobe Illustrator 16.0.4, SVG Export Plug-In . SVG Version: 6.00 Build 0)  -->
<!DOCTYPE svg PUBLIC "-//W3C//DTD SVG 1.1//EN" "http://www.w3.org/Graphics/SVG/1.1/DTD/svg11.dtd">
<svg version="1.1" id="Layer_1" xmlns="http://www.w3.org/2000/svg" xmlns:xlink="http://www.w3.org/1999/xlink" x="0px" y="0px"
	 width="20px" height="20px" viewBox="0 0 20 20" enable-background="new 0 0 20 20" xml:space="preserve">
<g id="_x23_020201ff_1_">
	<path fill="#666666" d="M12.408,3.985c0.414-0.314,0.893-0.557,1.414-0.616c-0.072,0.311-0.367,0.477-0.625,0.616
		c0.389-0.117,0.768-0.286,1.178-0.313c0.109-0.005,0.266,0,0.305,0.128c0.058,0.156-0.102,0.279-0.223,0.349
		c-0.447,0.229-0.965,0.263-1.418,0.476c0.934-0.087,1.867,0.275,2.575,0.873c0.847,0.697,1.405,1.706,1.609,2.777
		c0.748,0.2,1.556,0.055,2.258-0.242c-0.353,0.799-1.251,1.163-2.073,1.233c0.684,0.259,1.434,0.303,2.154,0.226
		c-0.57,0.633-1.457,0.88-2.287,0.861c-0.346,1.411-1.168,2.679-2.234,3.656c-2.076,1.879-4.951,2.779-7.729,2.6
		c-2.671-0.161-5.298-1.479-6.875-3.663c0.139,0.081,0.254,0.193,0.387,0.282c1.221,0.885,2.846,1.166,4.299,0.771
		c0.881-0.229,1.68-0.721,2.319-1.364c-0.409,0.028-0.862-0.046-1.159-0.353c-0.185-0.176-0.262-0.467-0.15-0.702
		c0.135-0.297,0.434-0.466,0.716-0.599c-0.927,0.131-1.937-0.302-2.363-1.157c0.313-0.372,0.813-0.492,1.278-0.53
		c-0.541-0.155-1.096-0.35-1.506-0.754c-0.326-0.306-0.539-0.729-0.603-1.17c0.384-0.073,0.767-0.16,1.16-0.143
		C3.926,6.763,3.111,5.88,3.184,4.815C4.871,5.431,6.53,6.132,8.117,6.979c0.555,0.305,1.016,0.746,1.469,1.182
		c0.439-1.142,0.91-2.286,1.625-3.287c0.384-0.524,0.836-1.017,1.392-1.362C12.578,3.684,12.489,3.834,12.408,3.985z"/>
</g>
</svg>
