<?xml version="1.0" encoding="utf-8"?>
<!-- Generator: Adobe Illustrator 16.0.5, SVG Export Plug-In . SVG Version: 6.00 Build 0)  -->
<!DOCTYPE svg PUBLIC "-//W3C//DTD SVG 1.1//EN" "http://www.w3.org/Graphics/SVG/1.1/DTD/svg11.dtd">
<svg version="1.1" id="Layer_1" xmlns="http://www.w3.org/2000/svg" xmlns:xlink="http://www.w3.org/1999/xlink" x="0px" y="0px"
	 width="595.281px" height="340.158px" viewBox="0 250.866 595.281 340.158" enable-background="new 0 250.866 595.281 340.158"
	 xml:space="preserve">
<rect y="250.865" fill="#FFFFFF" width="595.281" height="340.16"/>
<title>Burglary_Slider_v1</title>
<path opacity="0.1" fill="none" stroke="#FFFFFF" stroke-width="5.74" stroke-miterlimit="10" enable-background="new    " d="
	M342.287,481.324l0.084,0.17C342.457,481.409,342.371,481.324,342.287,481.324L342.287,481.324z"/>
<path fill="#008080" d="M432.259,557.775c2.977,0,5.357-2.467,5.441-5.443V428.769h24.152l0,0c2.721-0.085,4.762-2.297,4.762-5.018
	c0-1.19-0.51-2.382-1.361-3.231l0,0l-0.084-0.085l-0.086-0.086l-46.092-46.177v-53.404c0-2.722-2.125-4.848-4.846-4.933h-26.277
	c-2.723,0-4.848,2.211-4.934,4.933v17.603l-27.723-27.638c-3.912-3.912-4.678-4.592-6.973-4.677
	c-2.297,0.085-3.063,0.765-6.975,4.677l-27.723,27.638l-35.887,35.802l-46.092,46.177l-0.085,0.086l-0.085,0.085l0,0
	c-1.871,1.956-1.786,5.018,0.17,6.888c0.851,0.851,2.041,1.276,3.231,1.361l0,0h24.151v123.648c0,2.976,2.466,5.357,5.443,5.442
	L432.259,557.775z"/>
<g>
	<path fill="#014462" d="M317.115,443.225h16.412c3.742,0,6.719,2.977,6.719,6.719l0,0v16.413l0,0h-23.131l0,0V443.225
		L317.115,443.225z"/>
	<path fill="#014462" d="M291.517,443.225h16.412l0,0v23.132l0,0h-23.13l0,0v-16.413
		C284.799,446.202,287.775,443.225,291.517,443.225L291.517,443.225z"/>
	<path fill="#014462" d="M317.115,473.415h23.131l0,0v16.413c0,3.741-2.977,6.718-6.719,6.718l0,0h-16.412l0,0V473.415
		L317.115,473.415z"/>
	<path fill="#014462" d="M284.799,473.415h23.13l0,0v23.131l0,0h-16.412c-3.742,0-6.718-2.977-6.718-6.718l0,0L284.799,473.415
		L284.799,473.415z"/>
</g>
<line fill="none" stroke="#014462" stroke-width="5.13" stroke-miterlimit="10" x1="460.322" y1="556.584" x2="565.687" y2="556.584"/>
<path fill="#014462" d="M369.244,479.283h35.887c3.232,0,5.783,2.636,5.783,5.782v72.71l0,0h-47.537l0,0v-72.71
	C363.46,481.834,366.097,479.283,369.244,479.283L369.244,479.283z"/>
<g enable-background="new    ">
	<path fill="#008080" d="M59.868,313.37h-4.337v7.398h-7.398v-7.398H32.826v-5.272l15.732-23.131h6.973v22.535h4.337V313.37z
		 M48.218,307.502v-6.038c0-1.021,0-2.466,0.085-4.422s0.17-3.062,0.17-3.316h-0.17c-0.595,1.36-1.361,2.636-2.211,3.912
		l-6.548,9.949h8.674V307.502z"/>
	<path fill="#008080" d="M87.761,320.768H62.674v-5.272l9.015-9.1c2.636-2.722,4.422-4.592,5.187-5.697
		c0.851-1.021,1.446-2.041,1.786-2.892c0.34-0.936,0.51-1.871,0.51-2.807c0-1.445-0.425-2.466-1.19-3.231
		c-0.766-0.681-1.871-1.021-3.146-1.021c-1.361,0-2.722,0.34-4.082,0.936c-1.276,0.595-2.636,1.53-4.082,2.722l-4.082-4.848
		c1.786-1.531,3.231-2.552,4.422-3.146c1.19-0.596,2.466-1.105,3.827-1.445c1.361-0.341,2.891-0.511,4.592-0.511
		c2.211,0,4.252,0.425,5.953,1.19c1.701,0.851,3.062,1.956,3.997,3.401c0.935,1.446,1.445,3.146,1.445,5.018
		c0,1.616-0.255,3.231-0.85,4.678c-0.595,1.445-1.446,2.891-2.721,4.422c-1.276,1.53-3.402,3.656-6.463,6.463l-4.592,4.337v0.34
		h15.647v6.464H87.761z"/>
	<path fill="#008080" d="M107.916,295.681c0,3.741-0.766,6.548-2.211,8.504c-1.445,1.871-3.571,2.806-6.378,2.806
		c-2.721,0-4.762-0.935-6.208-2.891c-1.445-1.956-2.211-4.763-2.211-8.419c0-7.483,2.807-11.226,8.419-11.226
		c2.721,0,4.847,0.936,6.378,2.892C107.15,289.303,107.916,292.024,107.916,295.681z M97.031,295.681c0,2.041,0.17,3.656,0.51,4.677
		c0.34,1.021,0.936,1.531,1.786,1.531c1.531,0,2.381-2.041,2.381-6.208c0-4.082-0.766-6.123-2.381-6.123
		c-0.85,0-1.446,0.51-1.786,1.53C97.201,292.109,97.031,293.64,97.031,295.681z M124.754,284.967l-19.899,35.802h-5.868
		l19.899-35.802H124.754z M133.002,309.968c0,3.742-0.765,6.549-2.211,8.419c-1.446,1.871-3.572,2.807-6.378,2.807
		c-2.721,0-4.762-0.936-6.208-2.892s-2.211-4.762-2.211-8.334c0-7.483,2.806-11.225,8.419-11.225c2.721,0,4.847,0.936,6.378,2.891
		C132.237,303.59,133.002,306.396,133.002,309.968z M122.118,309.968c0,2.041,0.17,3.657,0.51,4.678
		c0.34,1.021,0.935,1.53,1.786,1.53c1.531,0,2.381-2.041,2.381-6.208c0-4.082-0.766-6.123-2.381-6.123
		c-0.851,0-1.446,0.511-1.786,1.531C122.288,306.396,122.118,307.927,122.118,309.968z"/>
</g>
<g enable-background="new    ">
	<path fill="#008080" d="M34.356,333.183h5.698c2.551,0,4.422,0.341,5.613,1.105c1.19,0.766,1.786,1.871,1.786,3.487
		c0,1.105-0.255,1.956-0.765,2.636c-0.51,0.681-1.19,1.105-2.041,1.276v0.085c1.19,0.255,1.956,0.765,2.466,1.445
		s0.765,1.616,0.765,2.807c0,1.7-0.595,2.976-1.786,3.911s-2.807,1.361-4.847,1.361h-6.803v-18.114H34.356z M38.183,340.412h2.211
		c1.021,0,1.786-0.17,2.296-0.51s0.681-0.851,0.681-1.616c0-0.68-0.255-1.19-0.766-1.53s-1.36-0.426-2.381-0.426h-2.041V340.412z
		 M38.183,343.473v4.763h2.551c1.021,0,1.871-0.17,2.381-0.596c0.51-0.425,0.766-1.021,0.766-1.871c0-1.53-1.106-2.296-3.232-2.296
		H38.183z"/>
	<path fill="#008080" d="M61.059,351.383l-0.51-1.786h-0.17c-0.425,0.681-1.021,1.19-1.701,1.531c-0.766,0.34-1.616,0.51-2.551,0.51
		c-1.616,0-2.892-0.425-3.742-1.275c-0.851-0.851-1.276-2.126-1.276-3.742v-9.099h3.827v8.163c0,1.021,0.17,1.786,0.51,2.297
		c0.34,0.51,0.935,0.765,1.701,0.765c1.021,0,1.871-0.34,2.296-1.105c0.51-0.68,0.681-1.871,0.681-3.571v-6.548h3.827v13.946h-2.892
		V351.383z"/>
	<path fill="#008080" d="M75.686,337.18c0.51,0,0.936,0,1.276,0.085l-0.255,3.572c-0.34-0.085-0.68-0.085-1.105-0.085
		c-1.19,0-2.126,0.34-2.806,0.936c-0.681,0.595-1.021,1.53-1.021,2.636v7.059h-3.827v-13.947h2.892l0.595,2.382h0.17
		c0.425-0.766,1.021-1.446,1.786-1.871C74.155,337.521,74.835,337.18,75.686,337.18z"/>
	<path fill="#008080" d="M91.673,337.435v1.956l-2.211,0.596c0.425,0.595,0.596,1.36,0.596,2.126c0,1.53-0.51,2.636-1.531,3.486
		s-2.466,1.275-4.337,1.275h-0.68l-0.595-0.085c-0.425,0.341-0.595,0.596-0.595,1.021c0,0.511,0.68,0.851,2.126,0.851h2.381
		c1.531,0,2.722,0.34,3.487,1.021c0.766,0.681,1.19,1.616,1.19,2.892c0,1.615-0.68,2.892-2.041,3.827
		c-1.36,0.935-3.316,1.36-5.868,1.36c-1.956,0-3.401-0.34-4.422-1.021s-1.531-1.616-1.531-2.807c0-0.851,0.255-1.53,0.765-2.126
		c0.51-0.595,1.276-0.936,2.296-1.19c-0.425-0.17-0.766-0.425-1.021-0.851c-0.255-0.425-0.425-0.766-0.425-1.19
		c0-0.51,0.17-0.936,0.425-1.36c0.34-0.341,0.765-0.681,1.36-1.021c-0.765-0.341-1.275-0.851-1.701-1.531
		c-0.425-0.68-0.68-1.53-0.68-2.466c0-1.53,0.51-2.722,1.446-3.486c0.935-0.766,2.381-1.276,4.252-1.276c0.425,0,0.85,0,1.36,0.086
		c0.51,0.085,0.851,0.085,1.021,0.17h4.933V337.435z M80.873,353.339c0,0.51,0.255,0.936,0.766,1.275
		c0.51,0.34,1.19,0.425,2.126,0.425c1.36,0,2.466-0.17,3.231-0.595c0.765-0.426,1.19-0.851,1.19-1.531
		c0-0.51-0.255-0.851-0.68-1.105s-1.191-0.34-2.126-0.34h-2.041c-0.681,0-1.276,0.17-1.786,0.51
		C81.043,352.318,80.873,352.828,80.873,353.339z M82.319,342.028c0,0.766,0.17,1.36,0.51,1.786c0.34,0.425,0.85,0.68,1.616,0.68
		c0.68,0,1.275-0.255,1.531-0.68c0.255-0.426,0.51-1.021,0.51-1.786c0-1.701-0.681-2.552-2.041-2.552
		C82.999,339.476,82.319,340.327,82.319,342.028z"/>
	<path fill="#008080" d="M97.711,351.383h-3.827v-19.39h3.827V351.383z"/>
	<path fill="#008080" d="M110.552,351.383l-0.766-1.871h-0.085c-0.68,0.766-1.275,1.36-1.956,1.701
		c-0.68,0.34-1.531,0.425-2.636,0.425c-1.36,0-2.381-0.34-3.146-1.105c-0.765-0.766-1.19-1.871-1.19-3.231
		c0-1.446,0.51-2.552,1.531-3.231c1.021-0.681,2.551-1.105,4.677-1.19l2.381-0.085v-0.596c0-1.445-0.68-2.126-2.126-2.126
		c-1.105,0-2.381,0.34-3.912,1.021l-1.276-2.551c1.616-0.851,3.402-1.276,5.358-1.276c1.871,0,3.316,0.426,4.337,1.19
		c1.021,0.766,1.531,2.041,1.531,3.742v9.27h-2.721V351.383z M109.446,344.92l-1.445,0.085c-1.105,0-1.956,0.255-2.466,0.595
		c-0.51,0.341-0.851,0.936-0.851,1.701c0,1.105,0.596,1.615,1.871,1.615c0.851,0,1.616-0.255,2.126-0.765
		c0.51-0.511,0.765-1.19,0.765-2.041V344.92z"/>
	<path fill="#008080" d="M124.924,337.18c0.51,0,0.936,0,1.275,0.085l-0.255,3.572c-0.34-0.085-0.68-0.085-1.105-0.085
		c-1.19,0-2.126,0.34-2.807,0.936c-0.68,0.595-1.021,1.53-1.021,2.636v7.059h-3.827v-13.947h2.892l0.595,2.382h0.17
		c0.425-0.766,1.021-1.446,1.786-1.871C123.393,337.521,124.073,337.18,124.924,337.18z"/>
	<path fill="#008080" d="M128.581,333.864c0-1.275,0.68-1.871,2.041-1.871c1.36,0,2.041,0.596,2.041,1.871
		c0,0.596-0.17,1.021-0.51,1.36c-0.34,0.341-0.851,0.511-1.531,0.511C129.261,335.735,128.581,335.139,128.581,333.864z
		 M132.492,351.383h-3.827v-13.947h3.827V351.383z"/>
	<path fill="#008080" d="M142.782,351.637c-2.211,0-3.997-0.596-5.272-1.871s-1.871-2.977-1.871-5.272s0.596-4.167,1.786-5.442
		s2.806-1.871,4.847-1.871c1.956,0,3.487,0.596,4.592,1.701s1.616,2.636,1.616,4.677v1.871h-9.014c0,1.105,0.34,1.956,0.935,2.552
		c0.596,0.595,1.446,0.935,2.551,0.935c0.851,0,1.616-0.085,2.381-0.255c0.765-0.17,1.531-0.425,2.381-0.851v2.977
		c-0.68,0.341-1.36,0.596-2.126,0.766C144.823,351.552,143.888,351.637,142.782,351.637z M142.272,339.902
		c-0.765,0-1.446,0.255-1.871,0.766c-0.425,0.51-0.68,1.275-0.765,2.211h5.357c0-0.936-0.255-1.701-0.765-2.211
		C143.718,340.157,143.123,339.902,142.272,339.902z"/>
	<path fill="#008080" d="M161.321,347.216c0,1.445-0.51,2.551-1.531,3.231s-2.466,1.105-4.422,1.105
		c-1.021,0-1.871-0.085-2.551-0.17c-0.68-0.17-1.361-0.341-2.041-0.596v-3.146c0.681,0.341,1.531,0.596,2.381,0.851
		c0.85,0.255,1.701,0.34,2.296,0.34c1.361,0,2.041-0.425,2.041-1.19c0-0.34-0.085-0.51-0.255-0.766
		c-0.17-0.17-0.51-0.425-0.936-0.595c-0.425-0.255-1.021-0.511-1.786-0.851c-1.105-0.425-1.871-0.851-2.381-1.275
		c-0.51-0.426-0.851-0.851-1.105-1.275c-0.255-0.511-0.34-1.105-0.34-1.786c0-1.275,0.51-2.211,1.446-2.892
		c0.936-0.68,2.296-1.021,4.082-1.021c1.701,0,3.316,0.341,4.932,1.105l-1.105,2.722c-0.68-0.34-1.361-0.511-1.956-0.766
		s-1.19-0.255-1.871-0.255c-1.106,0-1.701,0.34-1.701,0.936c0,0.34,0.17,0.595,0.51,0.851c0.34,0.255,1.191,0.595,2.381,1.105
		c1.105,0.425,1.871,0.85,2.381,1.275c0.51,0.425,0.851,0.851,1.105,1.36C161.151,346.025,161.321,346.535,161.321,347.216z"/>
</g>
<g enable-background="new    ">
	<path fill="#008080" d="M46.942,381.997h-3.827v-8.164c0-2.041-0.765-2.977-2.211-2.977c-1.021,0-1.871,0.341-2.296,1.105
		c-0.425,0.766-0.681,1.871-0.681,3.487v6.548h-3.912v-19.39h3.827v3.912c0,0.34,0,1.021-0.085,2.126l-0.085,1.105h0.17
		c0.851-1.36,2.211-2.041,3.997-2.041c1.616,0,2.891,0.426,3.742,1.361c0.85,0.936,1.275,2.126,1.275,3.826v9.1H46.942z"/>
	<path fill="#008080" d="M59.698,381.997l-0.766-1.871h-0.085c-0.68,0.766-1.275,1.36-1.956,1.701
		c-0.68,0.34-1.531,0.425-2.636,0.425c-1.36,0-2.381-0.34-3.146-1.105c-0.765-0.766-1.19-1.871-1.19-3.231
		c0-1.445,0.51-2.551,1.531-3.231s2.551-1.105,4.677-1.19l2.381-0.085v-0.596c0-1.445-0.68-2.126-2.126-2.126
		c-1.105,0-2.381,0.34-3.912,1.021l-1.275-2.551c1.616-0.851,3.401-1.276,5.357-1.276c1.871,0,3.316,0.426,4.337,1.191
		c1.021,0.765,1.531,2.041,1.531,3.741v9.27h-2.721V381.997z M58.507,375.534l-1.445,0.085c-1.105,0-1.956,0.255-2.466,0.595
		c-0.51,0.341-0.851,0.936-0.851,1.701c0,1.105,0.596,1.616,1.871,1.616c0.851,0,1.616-0.256,2.126-0.766
		c0.51-0.511,0.765-1.19,0.765-2.041V375.534z"/>
	<path fill="#008080" d="M73.9,382.252c-1.616,0-2.892-0.595-3.827-1.786h-0.17c0.17,1.191,0.17,1.871,0.17,2.041v5.613h-3.827
		v-20.069h3.062l0.51,1.785h0.17c0.851-1.36,2.211-2.041,3.912-2.041c1.616,0,2.891,0.596,3.827,1.871s1.361,3.062,1.361,5.272
		c0,1.446-0.255,2.807-0.681,3.912c-0.425,1.105-1.021,1.956-1.871,2.466C75.686,381.827,74.92,382.252,73.9,382.252z
		 M72.709,370.856c-0.936,0-1.616,0.256-2.041,0.851c-0.425,0.596-0.681,1.531-0.681,2.892v0.425c0,1.531,0.255,2.552,0.681,3.231
		c0.425,0.681,1.19,0.936,2.126,0.936c1.701,0,2.551-1.445,2.551-4.252c0-1.36-0.17-2.381-0.596-3.062
		C74.325,371.197,73.645,370.856,72.709,370.856z"/>
	<path fill="#008080" d="M89.972,382.252c-1.616,0-2.891-0.595-3.827-1.786h-0.17c0.17,1.191,0.17,1.871,0.17,2.041v5.613h-3.827
		v-20.069h3.062l0.51,1.785h0.17c0.851-1.36,2.211-2.041,3.912-2.041c1.616,0,2.892,0.596,3.827,1.871
		c0.935,1.275,1.36,3.062,1.36,5.272c0,1.446-0.255,2.807-0.68,3.912s-1.021,1.956-1.871,2.466
		C91.758,381.827,91.078,382.252,89.972,382.252z M88.867,370.856c-0.935,0-1.616,0.256-2.041,0.851
		c-0.425,0.596-0.68,1.531-0.68,2.892v0.425c0,1.531,0.255,2.552,0.68,3.231c0.425,0.681,1.191,0.936,2.126,0.936
		c1.701,0,2.551-1.445,2.551-4.252c0-1.36-0.17-2.381-0.595-3.062C90.482,371.197,89.802,370.856,88.867,370.856z"/>
	<path fill="#008080" d="M104.854,382.252c-2.211,0-3.997-0.595-5.272-1.871c-1.276-1.275-1.871-2.976-1.871-5.272
		c0-2.296,0.595-4.167,1.786-5.442c1.19-1.275,2.806-1.871,4.847-1.871c1.956,0,3.486,0.596,4.592,1.701
		c1.105,1.105,1.616,2.637,1.616,4.677v1.871h-9.015c0,1.105,0.34,1.956,0.936,2.552c0.595,0.595,1.446,0.936,2.551,0.936
		c0.851,0,1.616-0.085,2.381-0.256c0.765-0.17,1.531-0.425,2.381-0.85v2.976c-0.68,0.341-1.36,0.596-2.126,0.766
		C106.81,382.167,105.875,382.252,104.854,382.252z M104.259,370.516c-0.766,0-1.446,0.255-1.871,0.766
		c-0.425,0.51-0.68,1.275-0.765,2.211h5.357c0-0.936-0.255-1.701-0.766-2.211C105.705,370.771,105.109,370.516,104.259,370.516z"/>
	<path fill="#008080" d="M126.455,381.997h-3.827v-8.164c0-1.021-0.17-1.786-0.51-2.296c-0.34-0.511-0.936-0.766-1.701-0.766
		c-1.021,0-1.871,0.341-2.296,1.105c-0.51,0.681-0.68,1.871-0.68,3.572v6.548h-3.827v-13.946h2.892l0.51,1.785h0.17
		c0.425-0.68,1.021-1.19,1.786-1.53c0.765-0.34,1.616-0.511,2.551-0.511c1.616,0,2.807,0.426,3.657,1.276
		c0.851,0.85,1.276,2.126,1.276,3.826V381.997z"/>
	<path fill="#008080" d="M148.395,381.997l-1.105-4.848l-1.446-6.123h-0.085l-2.551,11.056h-4.082l-3.997-13.946h3.827l1.616,6.208
		c0.255,1.105,0.51,2.636,0.765,4.592h0.085c0-0.596,0.17-1.616,0.425-2.977l0.17-1.021l1.701-6.718h4.167l1.616,6.718
		c0,0.17,0.085,0.426,0.17,0.851s0.17,0.766,0.17,1.105s0.085,0.766,0.17,1.19c0.085,0.426,0.085,0.681,0.085,0.936h0.085
		c0.085-0.595,0.17-1.445,0.425-2.466c0.255-1.021,0.34-1.786,0.425-2.126l1.701-6.208h3.742l-3.997,13.946h-4.082V381.997z"/>
	<path fill="#008080" d="M171.696,381.997h-3.827v-8.164c0-2.041-0.766-2.977-2.211-2.977c-1.021,0-1.871,0.341-2.296,1.105
		c-0.425,0.766-0.68,1.871-0.68,3.487v6.548h-3.827v-19.39h3.827v3.912c0,0.34,0,1.021-0.085,2.126l-0.085,1.105h0.17
		c0.85-1.36,2.211-2.041,3.997-2.041c1.616,0,2.892,0.426,3.742,1.361c0.85,0.936,1.275,2.126,1.275,3.826V381.997L171.696,381.997z
		"/>
	<path fill="#008080" d="M181.9,382.252c-2.211,0-3.997-0.595-5.272-1.871c-1.275-1.275-1.871-2.976-1.871-5.272
		c0-2.296,0.595-4.167,1.786-5.442c1.191-1.275,2.807-1.871,4.848-1.871c1.956,0,3.486,0.596,4.592,1.701s1.616,2.637,1.616,4.677
		v1.871h-9.014c0,1.105,0.34,1.956,0.936,2.552c0.595,0.595,1.446,0.936,2.551,0.936c0.85,0,1.616-0.085,2.381-0.256
		c0.766-0.17,1.531-0.425,2.381-0.85v2.976c-0.68,0.341-1.361,0.596-2.126,0.766C183.856,382.167,183.006,382.252,181.9,382.252z
		 M181.391,370.516c-0.766,0-1.446,0.255-1.871,0.766c-0.425,0.51-0.68,1.275-0.765,2.211h5.357c0-0.936-0.255-1.701-0.766-2.211
		C182.836,370.771,182.156,370.516,181.391,370.516z"/>
	<path fill="#008080" d="M203.501,381.997h-3.827v-8.164c0-1.021-0.17-1.786-0.51-2.296c-0.34-0.511-0.935-0.766-1.701-0.766
		c-1.021,0-1.871,0.341-2.296,1.105c-0.51,0.681-0.681,1.871-0.681,3.572v6.548h-3.827v-13.946h2.892l0.51,1.785h0.17
		c0.425-0.68,1.021-1.19,1.786-1.53c0.766-0.34,1.616-0.511,2.551-0.511c1.616,0,2.807,0.426,3.657,1.276
		c0.851,0.85,1.276,2.126,1.276,3.826V381.997z"/>
</g>
<g enable-background="new    ">
	<path fill="#008080" d="M41.669,412.866c-1.616,0-2.891-0.595-3.827-1.785h-0.17c0.17,1.19,0.17,1.87,0.17,2.041v5.612h-3.827
		v-20.069h3.062l0.51,1.785h0.17c0.851-1.36,2.211-2.04,3.912-2.04c1.616,0,2.892,0.595,3.827,1.87
		c0.935,1.276,1.36,3.062,1.36,5.272c0,1.446-0.255,2.807-0.68,3.912s-1.021,1.956-1.871,2.466
		C43.456,412.441,42.775,412.866,41.669,412.866z M40.564,401.47c-0.936,0-1.616,0.256-2.041,0.851
		c-0.425,0.596-0.68,1.531-0.68,2.892v0.425c0,1.531,0.255,2.552,0.68,3.232c0.425,0.68,1.191,0.935,2.126,0.935
		c1.701,0,2.551-1.445,2.551-4.252c0-1.36-0.17-2.381-0.595-3.062C42.095,401.811,41.5,401.47,40.564,401.47z"/>
	<path fill="#008080" d="M56.467,412.866c-2.211,0-3.997-0.595-5.272-1.87c-1.276-1.276-1.871-2.977-1.871-5.272
		c0-2.297,0.595-4.167,1.786-5.443c1.191-1.275,2.807-1.87,4.848-1.87c1.956,0,3.486,0.595,4.592,1.7s1.616,2.637,1.616,4.678v1.87
		H53.15c0,1.105,0.34,1.956,0.936,2.552c0.595,0.595,1.446,0.936,2.551,0.936c0.851,0,1.616-0.085,2.381-0.255
		c0.766-0.171,1.531-0.426,2.381-0.851v2.977c-0.68,0.34-1.361,0.595-2.126,0.765C58.507,412.781,57.572,412.866,56.467,412.866z
		 M55.957,401.131c-0.766,0-1.446,0.255-1.871,0.766c-0.425,0.51-0.68,1.275-0.765,2.211h5.357c0-0.936-0.255-1.701-0.766-2.211
		C57.402,401.385,56.722,401.131,55.957,401.131z"/>
	<path fill="#008080" d="M77.896,405.637c0,2.297-0.595,4.082-1.786,5.358c-1.19,1.275-2.892,1.955-5.018,1.955
		c-1.36,0-2.551-0.255-3.571-0.85c-1.021-0.596-1.786-1.446-2.381-2.552s-0.851-2.381-0.851-3.826c0-2.297,0.596-4.082,1.786-5.272
		c1.19-1.191,2.891-1.871,5.017-1.871c1.361,0,2.551,0.255,3.572,0.851c1.021,0.595,1.786,1.445,2.381,2.466
		S77.896,404.192,77.896,405.637z M68.287,405.637c0,1.361,0.255,2.382,0.68,3.146c0.425,0.766,1.191,1.021,2.211,1.021
		s1.701-0.34,2.211-1.021c0.51-0.68,0.68-1.785,0.68-3.146c0-1.36-0.255-2.381-0.68-3.061c-0.425-0.681-1.19-1.021-2.211-1.021
		s-1.786,0.34-2.211,1.021C68.542,403.172,68.287,404.277,68.287,405.637z"/>
	<path fill="#008080" d="M88.697,412.866c-1.616,0-2.892-0.595-3.827-1.785H84.7c0.17,1.19,0.17,1.87,0.17,2.041v5.612h-3.827
		v-20.069h3.062l0.51,1.785h0.17c0.85-1.36,2.211-2.04,3.912-2.04c1.616,0,2.891,0.595,3.827,1.87
		c0.936,1.276,1.361,3.062,1.361,5.272c0,1.446-0.255,2.807-0.68,3.912c-0.425,1.105-1.021,1.956-1.871,2.466
		C90.482,412.441,89.802,412.866,88.697,412.866z M87.591,401.47c-0.936,0-1.616,0.256-2.041,0.851
		c-0.425,0.596-0.68,1.531-0.68,2.892v0.425c0,1.531,0.255,2.552,0.68,3.232c0.425,0.68,1.19,0.935,2.126,0.935
		c1.701,0,2.551-1.445,2.551-4.252c0-1.36-0.17-2.381-0.595-3.062C89.122,401.811,88.441,401.47,87.591,401.47z"/>
	<path fill="#008080" d="M101.027,412.611h-3.827v-19.389h3.827V412.611z"/>
	<path fill="#008080" d="M111.317,412.866c-2.211,0-3.997-0.595-5.272-1.87c-1.275-1.276-1.871-2.977-1.871-5.272
		c0-2.297,0.596-4.167,1.786-5.443c1.19-1.275,2.806-1.87,4.847-1.87c1.956,0,3.487,0.595,4.592,1.7s1.616,2.637,1.616,4.678v1.87
		h-9.014c0,1.105,0.34,1.956,0.936,2.552c0.595,0.595,1.445,0.936,2.551,0.936c0.851,0,1.616-0.085,2.381-0.255
		c0.765-0.171,1.531-0.426,2.381-0.851v2.977c-0.68,0.34-1.36,0.595-2.126,0.765C113.273,412.781,112.338,412.866,111.317,412.866z
		 M110.722,401.131c-0.766,0-1.446,0.255-1.871,0.766c-0.425,0.51-0.68,1.275-0.765,2.211h5.357c0-0.936-0.255-1.701-0.765-2.211
		C112.168,401.385,111.573,401.131,110.722,401.131z"/>
	<path fill="#008080" d="M135.554,412.611l-0.765-1.871h-0.085c-0.681,0.766-1.276,1.361-1.956,1.701s-1.531,0.425-2.636,0.425
		c-1.361,0-2.381-0.34-3.146-1.105c-0.766-0.765-1.19-1.871-1.19-3.231c0-1.445,0.51-2.551,1.531-3.231
		c1.02-0.681,2.551-1.105,4.677-1.19l2.381-0.085v-0.596c0-1.445-0.68-2.126-2.126-2.126c-1.105,0-2.381,0.341-3.912,1.021
		l-1.275-2.551c1.616-0.851,3.401-1.275,5.357-1.275c1.871,0,3.317,0.425,4.337,1.19c1.021,0.765,1.531,2.041,1.531,3.741v9.27
		h-2.721V412.611z M134.448,406.148l-1.446,0.085c-1.105,0-1.956,0.255-2.466,0.596c-0.51,0.34-0.851,0.935-0.851,1.7
		c0,1.105,0.595,1.616,1.871,1.616c0.85,0,1.616-0.256,2.126-0.766s0.765-1.19,0.765-2.041V406.148z"/>
	<path fill="#008080" d="M149.84,398.41c0.51,0,0.936,0,1.276,0.085l-0.255,3.571c-0.34-0.085-0.68-0.085-1.105-0.085
		c-1.19,0-2.126,0.34-2.806,0.936c-0.68,0.595-1.021,1.53-1.021,2.636v7.059h-3.827v-13.946h2.891l0.595,2.381h0.17
		c0.425-0.766,1.021-1.445,1.786-1.871C148.31,398.75,148.99,398.41,149.84,398.41z"/>
	<path fill="#008080" d="M159.96,412.866c-2.211,0-3.997-0.595-5.272-1.87c-1.276-1.276-1.871-2.977-1.871-5.272
		c0-2.297,0.595-4.167,1.786-5.443c1.19-1.275,2.806-1.87,4.847-1.87c1.956,0,3.486,0.595,4.592,1.7
		c1.106,1.105,1.616,2.637,1.616,4.678v1.87h-9.015c0,1.105,0.34,1.956,0.936,2.552c0.595,0.595,1.446,0.936,2.551,0.936
		c0.851,0,1.616-0.085,2.381-0.255c0.765-0.171,1.53-0.426,2.381-0.851v2.977c-0.68,0.34-1.36,0.595-2.126,0.765
		C162.001,412.781,161.066,412.866,159.96,412.866z M159.45,401.131c-0.766,0-1.446,0.255-1.871,0.766
		c-0.425,0.51-0.68,1.275-0.765,2.211h5.357c0-0.936-0.255-1.701-0.765-2.211C160.896,401.385,160.215,401.131,159.45,401.131z"/>
</g>
<g enable-background="new    ">
	<path fill="#008080" d="M42.86,443.225l-0.766-1.87H42.01c-0.68,0.765-1.275,1.36-1.956,1.7c-0.68,0.341-1.531,0.426-2.636,0.426
		c-1.36,0-2.381-0.341-3.146-1.105c-0.765-0.766-1.19-1.871-1.19-3.231c0-1.446,0.51-2.552,1.531-3.232
		c1.021-0.68,2.551-1.105,4.677-1.19l2.381-0.085v-0.595c0-1.446-0.68-2.126-2.126-2.126c-1.105,0-2.381,0.34-3.912,1.021
		l-1.276-2.552c1.616-0.851,3.402-1.275,5.358-1.275c1.871,0,3.316,0.425,4.337,1.19s1.531,2.041,1.531,3.742v9.27H42.86V443.225z
		 M41.755,436.762l-1.446,0.085c-1.105,0-1.956,0.256-2.466,0.596s-0.851,0.936-0.851,1.701c0,1.105,0.596,1.615,1.871,1.615
		c0.851,0,1.616-0.255,2.126-0.766c0.51-0.51,0.766-1.19,0.766-2.041V436.762z"/>
	<path fill="#008080" d="M60.889,443.225l-1.105-4.847l-1.446-6.123h-0.085l-2.551,11.056h-4.082l-3.997-13.947h3.827l1.616,6.208
		c0.255,1.105,0.51,2.637,0.766,4.593h0.085c0-0.596,0.17-1.616,0.425-2.977l0.17-1.021l1.701-6.719h4.167l1.616,6.719
		c0,0.17,0.085,0.425,0.17,0.851c0.085,0.425,0.17,0.765,0.17,1.105c0,0.34,0.085,0.765,0.17,1.19
		c0.085,0.425,0.085,0.68,0.085,0.936h0.085c0.085-0.596,0.17-1.446,0.425-2.467c0.255-1.021,0.34-1.785,0.425-2.126l1.701-6.208
		h3.742l-3.997,13.947h-4.082V443.225z"/>
	<path fill="#008080" d="M80.108,443.225l-0.766-1.87h-0.085c-0.68,0.765-1.275,1.36-1.956,1.7c-0.68,0.341-1.531,0.426-2.636,0.426
		c-1.36,0-2.381-0.341-3.146-1.105c-0.765-0.766-1.19-1.871-1.19-3.231c0-1.446,0.51-2.552,1.531-3.232
		c1.021-0.68,2.551-1.105,4.677-1.19l2.381-0.085v-0.595c0-1.446-0.68-2.126-2.126-2.126c-1.105,0-2.381,0.34-3.912,1.021
		l-1.276-2.552c1.616-0.851,3.402-1.275,5.358-1.275c1.871,0,3.316,0.425,4.337,1.19s1.531,2.041,1.531,3.742v9.27h-2.721V443.225z
		 M79.002,436.762l-1.445,0.085c-1.105,0-1.956,0.256-2.466,0.596s-0.851,0.936-0.851,1.701c0,1.105,0.596,1.615,1.871,1.615
		c0.851,0,1.616-0.255,2.126-0.766c0.51-0.51,0.765-1.19,0.765-2.041V436.762z"/>
	<path fill="#008080" d="M84.7,429.279h4.167l2.636,7.824c0.255,0.68,0.34,1.445,0.425,2.381h0.085
		c0.085-0.851,0.255-1.701,0.51-2.381l2.551-7.824h4.082l-5.868,15.732c-0.51,1.446-1.276,2.552-2.296,3.231
		c-1.021,0.681-2.211,1.105-3.486,1.105c-0.681,0-1.276-0.085-1.956-0.17v-2.977c0.425,0.085,0.936,0.17,1.531,0.17
		c0.68,0,1.275-0.17,1.786-0.595c0.51-0.426,0.936-1.021,1.191-1.871l0.255-0.68L84.7,429.279z"/>
	<path fill="#008080" d="M115.569,432.171h-3.316v11.055h-3.827v-11.055H106.3V430.3l2.126-1.021v-1.021
		c0-1.615,0.425-2.721,1.19-3.486c0.765-0.766,2.041-1.105,3.742-1.105c1.275,0,2.466,0.17,3.487,0.595l-0.936,2.807
		c-0.766-0.255-1.446-0.34-2.126-0.34c-0.51,0-0.936,0.17-1.191,0.51c-0.255,0.341-0.34,0.766-0.34,1.19v0.851h3.316V432.171z"/>
	<path fill="#008080" d="M125.519,429.024c0.51,0,0.936,0,1.276,0.085l-0.255,3.571c-0.34-0.085-0.68-0.085-1.105-0.085
		c-1.19,0-2.126,0.341-2.806,0.936c-0.681,0.596-1.021,1.531-1.021,2.637v7.059h-3.827v-13.947h2.892l0.595,2.381h0.17
		c0.425-0.765,1.021-1.445,1.786-1.87C123.988,429.364,124.669,429.024,125.519,429.024z"/>
	<path fill="#008080" d="M141.932,436.253c0,2.296-0.595,4.082-1.786,5.357s-2.892,1.956-5.018,1.956
		c-1.36,0-2.551-0.255-3.571-0.851s-1.786-1.445-2.381-2.551c-0.595-1.106-0.851-2.382-0.851-3.827c0-2.296,0.596-4.082,1.786-5.272
		s2.891-1.871,5.017-1.871c1.361,0,2.551,0.255,3.572,0.851s1.786,1.445,2.381,2.466S141.932,434.806,141.932,436.253z
		 M132.322,436.253c0,1.36,0.255,2.381,0.68,3.146c0.425,0.766,1.191,1.021,2.211,1.021s1.701-0.341,2.211-1.021
		c0.51-0.681,0.68-1.786,0.68-3.146s-0.255-2.381-0.68-3.062s-1.19-1.021-2.211-1.021s-1.786,0.34-2.211,1.021
		C132.578,433.787,132.322,434.892,132.322,436.253z"/>
	<path fill="#008080" d="M157.579,443.225h-3.827v-8.163c0-1.021-0.17-1.786-0.51-2.297c-0.34-0.51-0.851-0.765-1.616-0.765
		c-0.936,0-1.701,0.34-2.126,1.105s-0.68,1.871-0.68,3.486v6.548h-3.827v-13.946h2.892l0.51,1.786h0.17
		c0.34-0.681,0.936-1.105,1.616-1.531c0.68-0.34,1.531-0.51,2.466-0.51c2.126,0,3.486,0.68,4.252,2.041h0.34
		c0.34-0.681,0.935-1.19,1.616-1.531c0.68-0.34,1.531-0.51,2.466-0.51c1.616,0,2.807,0.425,3.572,1.19
		c0.851,0.851,1.19,2.126,1.19,3.912v9.099h-3.657v-8.163c0-1.021-0.17-1.786-0.51-2.297c-0.34-0.51-0.85-0.765-1.616-0.765
		c-0.935,0-1.616,0.34-2.126,1.021c-0.51,0.68-0.68,1.7-0.68,3.146v7.143H157.579z"/>
</g>
<g enable-background="new    ">
	<path fill="#008080" d="M46.942,473.841h-3.827v-8.164c0-2.041-0.765-2.977-2.211-2.977c-1.021,0-1.871,0.34-2.296,1.105
		c-0.425,0.766-0.681,1.871-0.681,3.486v6.549h-3.912v-19.39h3.827v3.912c0,0.34,0,1.021-0.085,2.126l-0.085,1.105h0.17
		c0.851-1.36,2.211-2.041,3.997-2.041c1.616,0,2.891,0.425,3.742,1.36c0.85,0.936,1.275,2.126,1.275,3.827v9.1H46.942z"/>
	<path fill="#008080" d="M63.44,466.867c0,2.296-0.595,4.082-1.786,5.357c-1.19,1.275-2.891,1.956-5.017,1.956
		c-1.361,0-2.551-0.255-3.572-0.851c-1.021-0.595-1.786-1.445-2.381-2.551c-0.596-1.105-0.851-2.382-0.851-3.827
		c0-2.296,0.595-4.082,1.786-5.272c1.191-1.19,2.892-1.871,5.018-1.871c1.36,0,2.551,0.256,3.572,0.851
		c1.021,0.596,1.786,1.445,2.381,2.466S63.44,465.422,63.44,466.867z M53.831,466.867c0,1.36,0.255,2.381,0.68,3.146
		s1.19,1.021,2.211,1.021s1.701-0.34,2.211-1.021s0.681-1.786,0.681-3.146s-0.255-2.381-0.681-3.062s-1.19-1.021-2.211-1.021
		s-1.786,0.34-2.211,1.021C54.085,464.401,53.831,465.507,53.831,466.867z"/>
	<path fill="#008080" d="M79.087,473.841H75.26v-8.164c0-1.021-0.17-1.786-0.51-2.296c-0.34-0.511-0.85-0.766-1.616-0.766
		c-0.935,0-1.701,0.34-2.126,1.105s-0.68,1.871-0.68,3.486v6.549h-3.827v-13.947h2.891l0.51,1.786h0.17
		c0.34-0.681,0.936-1.105,1.616-1.53c0.68-0.341,1.53-0.511,2.466-0.511c2.126,0,3.487,0.681,4.252,2.041h0.34
		c0.34-0.681,0.936-1.19,1.616-1.53c0.68-0.341,1.531-0.511,2.466-0.511c1.616,0,2.806,0.425,3.572,1.19
		c0.85,0.851,1.19,2.126,1.19,3.912v9.1h-3.827v-8.164c0-1.021-0.17-1.786-0.51-2.296c-0.34-0.511-0.851-0.766-1.616-0.766
		c-0.936,0-1.616,0.34-2.126,1.021c-0.51,0.68-0.68,1.701-0.68,3.146v7.144H79.087z"/>
	<path fill="#008080" d="M97.966,474.095c-2.211,0-3.997-0.596-5.272-1.871c-1.276-1.275-1.871-2.977-1.871-5.272
		s0.595-4.167,1.786-5.442c1.191-1.275,2.807-1.871,4.848-1.871c1.956,0,3.486,0.596,4.592,1.701
		c1.106,1.105,1.616,2.636,1.616,4.677v1.871h-9.014c0,1.105,0.34,1.956,0.936,2.551c0.595,0.596,1.446,0.936,2.551,0.936
		c0.851,0,1.616-0.085,2.381-0.255c0.766-0.17,1.531-0.425,2.381-0.851v2.977c-0.68,0.34-1.361,0.596-2.126,0.766
		C100.007,474.01,99.072,474.095,97.966,474.095z M97.456,462.36c-0.766,0-1.446,0.255-1.871,0.765
		c-0.425,0.511-0.68,1.276-0.765,2.212h5.357c0-0.936-0.255-1.701-0.766-2.212C98.901,462.615,98.221,462.36,97.456,462.36z"/>
</g>
</svg>
